<?xml version="1.0" encoding="utf-8"?>
<!-- Generator: Adobe Illustrator 24.1.0, SVG Export Plug-In . SVG Version: 6.00 Build 0)  -->
<svg version="1.1" id="Calque_1" xmlns="http://www.w3.org/2000/svg" xmlns:xlink="http://www.w3.org/1999/xlink" x="0px" y="0px"
	 viewBox="0 0 272.2 269.5" style="enable-background:new 0 0 272.2 269.5;" xml:space="preserve">
<style type="text/css">
	.st0{enable-background:new    ;}
	.st1{fill:#9988BD;}
	.st2{fill:#D1D3E4;}
	.st3{fill:none;stroke:#707070;}
	.st4{fill:#FEF8F2;}
	.st5{fill:#F2E6E9;}
	.st6{fill:#464E9F;}
	.st7{fill:none;stroke:#FFFFFF;stroke-width:0.25;stroke-miterlimit:10;}
	.st8{fill:#FFFFFF;}
	.st9{font-family:'BodoniSvtyTwoITCTT-Book';}
	.st10{font-size:73.1261px;}
	.st11{font-family:'BodoniSvtyTwoITCTT-BookIta';}
	.st12{font-size:14.2596px;}
</style>
<g id="Rectangle_1" transform="translate(-618 63)" class="st0">
	<rect x="-352.2" y="2.8" class="st1" width="239.7" height="87.5"/>
	<rect x="-351.8" y="3.1" class="st1" width="239" height="86.9"/>
</g>
<g id="Rectangle_2" transform="translate(-618 352)">
	<rect x="-352.2" y="-121" class="st2" width="239.7" height="87.5"/>
	<rect x="-351.8" y="-120.7" class="st3" width="239" height="86.9"/>
</g>
<g id="Rectangle_3" transform="translate(-618 877)">
	<rect x="-352.2" y="-345.9" class="st4" width="239.7" height="87.5"/>
	<rect x="-351.8" y="-345.6" class="st3" width="239" height="86.9"/>
</g>
<g id="Rectangle_4" transform="translate(-618 624)">
	<rect x="-352.2" y="-237.5" class="st5" width="239.7" height="87.5"/>
	<rect x="-351.8" y="-237.2" class="st3" width="239" height="86.9"/>
</g>
<g id="Rectangle_5" transform="translate(-618 -226)">
	<rect x="-352.2" y="126.6" class="st6" width="239.7" height="87.5"/>
	<rect x="-351.8" y="126.9" class="st3" width="239" height="86.9"/>
</g>
<path class="st7" d="M140,42.9c-49,0-88.7,39.7-88.7,88.7S91,220.3,140,220.3s88.7-39.7,88.7-88.7S189,42.9,140,42.9z"/>
<path class="st7" d="M141.8,49.7c-46.8,0-84.6,37.9-84.6,84.6S95,219,141.8,219s84.6-37.9,84.6-84.6S188.5,49.7,141.8,49.7z"/>
<path class="st7" d="M139,46c-48.7,0-88,39.4-88,88s39.4,88,88,88s88-39.4,88-88S187.6,46,139,46z"/>
<text transform="matrix(1 0 0 1 107.5948 130.7133)" class="st8 st9 st10">S</text>
<g>
	<text transform="matrix(1 0 0 1 134.6577 175.5739)" class="st8 st9 st10">E</text>
</g>
<text transform="matrix(1 0 0 1 142.8022 106.7251)" class="st8 st11 st12">souffle</text>
<text transform="matrix(1 0 0 1 103.7399 192.6712)" class="st8 st11 st12">dՎquilibre</text>
<g>
	<path class="st8" d="M165.9,120.4c0,0,2.8-2.7,4.4-0.9c2,2.3-0.7,9.1,1.6,14.1c1.3,2.7,2.6,1.8,5.2,6.1c1.5,2.4,2.2,4.6,2.4,4.3
		c0.4-0.3-0.1-3.7-0.9-6.3c-0.4-1.3-0.6-1.4-1.4-4c-0.3-0.8-0.4-1.4-0.8-2.2c-0.1-0.2-0.5-1.1-1.2-2.2c-0.9-1.3-1.5-1.6-3.1-4.7
		c-1.4-2.7-1.9-3.7-3.1-4.4C167.4,119.4,165.9,120.4,165.9,120.4z"/>
	<path class="st8" d="M193,128.3c-5.6,6.5-8.4,12.2-9.9,16.4c-0.4,1.1-1.2,3.5-2.7,6.5c-2,4-3.9,6.9-5.3,8.6"/>
	<path class="st8" d="M173.3,114.4c1.5,1.8,2.2,3.6,2.6,4.9c0.9,3,0.3,4.3,1.2,10.1c0.2,1,0.4,2.4,0.9,4.8c0.2,1.2,0.5,3,0.8,5.6
		c0,0.1,0,0.1,0,0.2c0.3,2.7,0.9,4.4,1.2,5.2c0.4,1.2,0.7,3,0.3,6.1"/>
	<path class="st8" d="M172.2,124.8c0.3,2,0.7,3.8,1.1,5.2c0,0,0.6,2.4,1.5,4.9l0,0c0,0,1.5,3.1,1.7,3.5"/>
	<path class="st8" d="M193,128.3c-0.1-0.2-0.5,0-2.8,2c-2.7,2.5-4.1,3.7-4.8,4.8c-3,4.2-4.3,11.6-3.4,12.8c0.8,1,3.3-2,4.8-4.6
		c1.4-2.5,1.2-3.6,3.1-8C191.7,130.9,193.2,128.8,193,128.3z"/>
	<path class="st8" d="M174.4,120.9"/>
	<path class="st8" d="M172.9,114.6c-0.2,0.4,0.6,1.5,1.2,3.1c1.3,3.1,0.9,4.9,1.6,11.5c0.3,2.8,0.9,6.9,2.2,11.5
		c0.5,1.8,1.4,4.7,2,4.5c0.7-0.3,0.7-4.9,0.6-6.4c0-3.6-0.5-6.4-0.6-7.2c-0.7-4.4-1.3-3.7-2.4-9c-0.7-3.4-0.9-4.6-1.8-6
		C174.7,114.9,173.1,114.1,172.9,114.6z"/>
</g>
<g>
	<path class="st8" d="M118.4,89.7c0,0-1.5-1-3.2,0c-1.2,0.7-1.6,1.7-3.1,4.4c-1.6,3-2.2,3.4-3.1,4.7c-0.7,1.1-1.1,1.9-1.2,2.2
		c-0.4,0.8-0.5,1.4-0.8,2.2c-0.8,2.6-1,2.7-1.4,4c-0.8,2.6-1.3,6-0.9,6.3c0.3,0.3,1-1.9,2.4-4.3c2.6-4.4,3.9-3.4,5.2-6.1
		c2.4-5-0.4-11.8,1.6-14.1C115.6,87,118.4,89.7,118.4,89.7z"/>
	<path class="st8" d="M109.4,129.2c-1.4-1.8-3.4-4.6-5.3-8.6c-1.5-3-2.3-5.5-2.7-6.5c-1.5-4.2-4.4-9.8-9.9-16.4"/>
	<path class="st8" d="M104,120.6c-0.4-3.1-0.1-5,0.3-6.1c0.3-0.8,1-2.5,1.2-5.2c0-0.1,0,0,0-0.2c0.2-2.6,0.6-4.4,0.8-5.6
		c0.4-2.4,0.7-3.8,0.9-4.8c1-5.8,0.4-7.1,1.2-10.1c0.4-1.3,1.1-3.1,2.6-4.9"/>
	<path class="st8" d="M107.9,107.7c0.2-0.4,1.7-3.5,1.7-3.5l0,0c0.9-2.4,1.5-4.9,1.5-4.9c0.4-1.4,0.7-3.1,1.1-5.2"/>
	<path class="st8" d="M91.4,97.6c-0.3,0.5,1.2,2.6,3.1,7s1.7,5.5,3.1,8c1.5,2.6,4,5.6,4.8,4.6c0.9-1.2-0.4-8.5-3.4-12.8
		c-0.7-1-2.1-2.3-4.8-4.8C91.9,97.5,91.5,97.3,91.4,97.6z"/>
	<path class="st8" d="M109.9,90.2"/>
	<path class="st8" d="M111.4,83.9c-0.2-0.5-1.8,0.3-2.9,2c-0.9,1.4-1.1,2.6-1.8,6c-1.1,5.3-1.6,4.6-2.4,9c-0.1,0.8-0.6,3.5-0.6,7.2
		c0,1.5-0.1,6.1,0.6,6.4c0.6,0.2,1.5-2.7,2-4.5c1.4-4.5,1.9-8.7,2.2-11.5c0.7-6.5,0.3-8.4,1.6-11.5
		C110.8,85.4,111.6,84.3,111.4,83.9z"/>
</g>
<circle class="st8" cx="190.2" cy="40.2" r="2.7"/>
<circle class="st8" cx="231.9" cy="86.6" r="2.7"/>
<circle class="st8" cx="221.9" cy="122.6" r="1.8"/>
<circle class="st8" cx="218.2" cy="116.4" r="1.8"/>
<circle class="st8" cx="239.4" cy="103.2" r="1.1"/>
<circle class="st8" cx="236.5" cy="95.6" r="1.8"/>
<circle class="st8" cx="238.3" cy="120.8" r="1.1"/>
<circle class="st8" cx="222.9" cy="142.4" r="1.1"/>
<circle class="st8" cx="238.3" cy="142.4" r="1.8"/>
<circle class="st8" cx="238.3" cy="150" r="1.8"/>
<circle class="st8" cx="234.6" cy="154.1" r="1.1"/>
<circle class="st8" cx="200.8" cy="185.3" r="2.7"/>
<circle class="st8" cx="209.4" cy="178.9" r="1.8"/>
<circle class="st8" cx="213.1" cy="196.1" r="1.8"/>
<circle class="st8" cx="208.3" cy="201.2" r="1.8"/>
<circle class="st8" cx="203.6" cy="206" r="1.8"/>
<circle class="st8" cx="164.1" cy="225" r="1.8"/>
<circle class="st8" cx="171" cy="222.1" r="1.8"/>
<circle class="st8" cx="210.2" cy="207.1" r="1.8"/>
<circle class="st8" cx="175.4" cy="223.2" r="1.1"/>
<circle class="st8" cx="174.3" cy="218.4" r="1.1"/>
<circle class="st8" cx="194.8" cy="189.9" r="1.1"/>
<circle class="st8" cx="198.1" cy="208.9" r="1.1"/>
<circle class="st8" cx="184.2" cy="68.5" r="1.8"/>
<circle class="st8" cx="190.4" cy="70.3" r="1.1"/>
<circle class="st8" cx="188.2" cy="74" r="1.1"/>
<circle class="st8" cx="142.9" cy="55" r="1.1"/>
<circle class="st8" cx="127.5" cy="36.3" r="1.8"/>
<circle class="st8" cx="122" cy="33.4" r="1.1"/>
<circle class="st8" cx="120.9" cy="37.4" r="1.1"/>
<circle class="st8" cx="109.6" cy="42.9" r="1.1"/>
<circle class="st8" cx="80.9" cy="55.9" r="2.7"/>
<circle class="st8" cx="87.7" cy="50.6" r="1.8"/>
<circle class="st8" cx="81.8" cy="80.9" r="1.8"/>
<circle class="st8" cx="72.7" cy="53.9" r="1.8"/>
<circle class="st8" cx="60.6" cy="82.8" r="1.1"/>
<circle class="st8" cx="80" cy="86.4" r="1.8"/>
<circle class="st8" cx="85.8" cy="84.6" r="1.1"/>
<circle class="st8" cx="67" cy="118.8" r="2.7"/>
<circle class="st8" cx="64.3" cy="126.3" r="1.8"/>
<circle class="st8" cx="70.8" cy="124.8" r="1.1"/>
<circle class="st8" cx="42.3" cy="132.5" r="1.8"/>
<circle class="st8" cx="44.2" cy="156.2" r="1.1"/>
<circle class="st8" cx="66.8" cy="157.3" r="1.8"/>
<circle class="st8" cx="48.4" cy="164.5" r="2.7"/>
<circle class="st8" cx="80" cy="184.4" r="1.8"/>
<circle class="st8" cx="84.7" cy="191" r="1.8"/>
<circle class="st8" cx="68.7" cy="196.1" r="1.8"/>
<circle class="st8" cx="65" cy="191" r="1.1"/>
<circle class="st8" cx="74.1" cy="201.2" r="1.1"/>
<circle class="st8" cx="128.4" cy="211.6" r="2.7"/>
<circle class="st8" cx="136.3" cy="214.4" r="1.8"/>
<circle class="st8" cx="131.2" cy="225" r="1.8"/>
</svg>
