<?xml version="1.0" encoding="utf-8"?>
<!-- Generator: Adobe Illustrator 24.1.0, SVG Export Plug-In . SVG Version: 6.00 Build 0)  -->
<svg version="1.1" id="Calque_1" xmlns="http://www.w3.org/2000/svg" xmlns:xlink="http://www.w3.org/1999/xlink" x="0px" y="0px"
	 viewBox="0 0 424.9 407.8" style="enable-background:new 0 0 424.9 407.8;" xml:space="preserve">
<style type="text/css">
	.st0{fill:#F0F8F5;}
	.st1{fill:#EDF5F3;}
	.st2{fill:#BFE0E3;}
	.st3{fill:#5B9EA8;}
	.st4{fill:#EFBD69;}
	.st5{fill:#E49551;}
	.st6{fill:#3F6D84;}
	.st7{fill:#B06651;}
	.st8{fill:#E3AF9A;}
	.st9{fill:#F6D9B0;}
	.st10{fill:#9DCFD5;}
	.st11{font-family:'BodoniSvtyTwoITCTT-Bold';}
	.st12{font-size:14px;}
</style>
<path class="st0" d="M361.5,308.8c-4.8,8.6-16.2,28.8-39.3,40c-7.4,3.6-13.6,5.1-17.1,5.9c-44.5,10.2-88.2,15.3-144.4,13.6
	c-64.1-2-75-6.1-85.2-13.2c-40.2-28.2-40.3-84-40.3-87.2c0.5-36.4,19.5-61.5,39.7-88.2c14.8-19.6,32.1-42.4,63.7-58.8
	c41.2-21.4,98.5-27.5,144.7-2.3c21.4,11.7,34,26.6,49.3,44.7c19.3,22.8,38.6,45.8,42.2,80.4C375.4,250.9,377.7,279.5,361.5,308.8z"
	/>
<path class="st1" d="M301.3,0.6c3.9-0.9,7.6-0.9,11,1.4c-2.8-0.2-5.5-0.3-8.3-0.5C303.1,1.4,302.2,0.9,301.3,0.6z"/>
<path class="st0" d="M330.3,52c-1.5-0.2-3-0.3-4.5-0.5C327.8,49.9,329.6,50.1,330.3,52z"/>
<path class="st1" d="M313.3,2.1c0.7,0.3,1.4,0.6,2,0.9C314.2,3.6,313.3,4,313.3,2.1z"/>
<path class="st1" d="M298.3,1.5c0.7-0.3,1.4-0.6,2.1-0.9C299.7,0.9,299,1.2,298.3,1.5z"/>
<path class="st2" d="M163.3,110.5c3.7,7.9,12.6,11.6,20.4,8.2c4.2-1.8,8-4.3,12.2-6.2c8.5-4,14.6-2.8,19.9,4.9
	c3.4,4.9,7.9,7.6,13.1,9.7c3.9,1.5,7.3,5.3,7.5,9.6c0.2,4.6-3.6,8.3-6.8,9.4c-6.1,2.1-12.5,1.6-18.7,1.2c-9.6-0.7-18.8-4.1-28.5-3.3
	c-8.7,0.7-17.1,2.5-25.4,5.2c-3.5,1.1-7.2,1.9-10.7,2.8c-0.5,0.1-0.9,0.3-1.3,0.5c-7.4,1.5-14.9,2.3-22.5,2c-4.9-0.2-9.6-1.2-14-3.6
	c-6-3.2-7.2-9.5-6.2-14.7c1.2-6.1,4.2-9,10.3-10.2c6.2-1.1,11.2-4.5,15.7-8.6c4.7-4.2,9.1-8.7,13.7-13.1c5.2-5,10.3-5.1,15.5,0
	C159.3,106.3,161.3,108.4,163.3,110.5z"/>
<path class="st2" d="M337.8,160.8c-0.8,0.3-1.7,0.4-2.4,0.9c-5.5,3.7-11.5,4-17.5,2.5c-5.3-1.3-10.6-3.2-15.9-4.7
	c-3.9-1.1-7.9-1.4-11.7,0.1c-2,0.8-3.9,2.2-5.6,3.5c-2.9,2.4-6.1,3.9-10,3.9c-3.8,0-7.6,0.3-11.2-1.5c-2.2-1.2-4.5-2.5-6.1-4.3
	c-2.5-2.7-4.7-5.8-4.6-9.9c0.1-2.5,2.1-5.5,4.5-6.4c7-2.8,14.4-3.1,21.8-2.2c4.2,0.4,8.3,1.1,12.5,1.5c3.3,0.3,6.1-0.8,7.8-3.7
	c1.6-2.8,4.5-3.7,7.3-3.7c3.4,0,6.7,0.7,10.1,1c4.9,1.6,8.8,5,12.7,8.2c3.5,2.8,7.5,4.4,11.9,4.5c3.2,0.1,6.5-0.5,9.8-0.9
	c4.9-0.5,9.4-0.2,12.9,3.8c1.9,2.2,0.6,7.7-2.2,8.9c-2.8,1.1-5.4,1-8.1,0.1c-0.9-0.3-1.9-0.5-2.8-0.7c-0.5-0.2-1-0.4-1.5-0.7
	c-0.2,0-0.4,0-0.7-0.1c-2.5-1.8-5.4-1.7-8.2-1c-0.2,0-0.5,0-0.7,0c-0.5,0.2-1,0.4-1.6,0.7C338,160.7,337.9,160.7,337.8,160.8z"/>
<path class="st2" d="M113.1,238.9c-8.3,0.6-16.5,1.5-24.8,1.9s-16.7,0.9-25.1-0.2c-7.5-1-15.2-0.5-22.8-0.7c-2.9-0.1-5.8-0.4-8.6-1
	c-4.6-1-6.2-4.8-3.5-8.7c1.7-2.4,4.1-4.2,6.4-6.1c3.7-3.2,7.4-6.4,11.3-9.2c3.3-2.3,7.2-4.1,11.4-3.8c2,0.1,4.4,0.8,5.9,2.1
	c7.2,6.1,15.2,8,24.4,6.4c4.2-0.7,8.6-0.8,12.9-1.1c0.7,0,1.3,0,2,0c1.5,0.2,3,0.3,4.5,0.5c3.5,1.2,7.2,2,10.5,3.6
	c4.2,2,6.1,6.1,5.4,11c-0.5,3.3-3.4,3.8-5.8,4.7C116,238.7,114.5,238.7,113.1,238.9z"/>
<path class="st3" d="M193.4,357.2c2.1,0,4.3,0.1,6.5,0.1c0.2,0.1,0.4,0.3,0.6,0.5c1.2,0.8,2.5,1.9,3.8,2.7c1.3,2.8,1.2,2.8-1.3,2.8
	c-1.6-0.1-3.3-0.2-4.8-0.3c-0.1,0-0.3,0-0.4-0.1C193.5,362.2,193.5,362.2,193.4,357.2z"/>
<path class="st3" d="M148.1,351.7c1.8,1.1,3.7,2.3,5.5,3.4c0.1,0.2,0.2,0.5,0.2,0.7c0.6,1.4,1.2,2.9,1.8,4.3c-0.3,3-0.5,3.1-2.5,1.7
	c-1.3-0.9-2.7-1.9-3.9-2.8c-0.1-0.1-0.2-0.2-0.3-0.3C145.5,356,145.5,356,148.1,351.7z"/>
<path class="st4" d="M181.1,294.5c-0.5,0.6-1.3,1.2-1.4,2c-1.9,8-3.5,16-5.7,23.9c-1.2,4-3.4,7.7-5.5,11.3
	c-4.2,7.6-8.6,15.1-13,22.6c-0.2,0.4-0.6,0.8-0.9,1.2c-2.3-1.4-4.5-2.7-6.8-4.1c1.8-4.7,3.6-9.4,5.5-14.1c2.2-5.5,4.7-11,6.8-16.5
	c0.6-1.7,0.8-3.5,1-5.3c1.3-11.4,2.5-22.9,3.8-34.3c0.2-1.6,0.1-3.1,0.4-4.7c0.3-2.5,0.8-5,1.2-7.5c1.8,0.5,3.6,1.3,5.5,1.4
	c7.2,0.2,14.5,0.7,21.6-1.5c0.6,3.7,1.2,7.4,1.8,11.1c-3.3,1.1-6.6,2.4-10,3.4c-2.6,0.8-4.1,2.4-4.2,5.1
	C181.1,290.4,181.1,292.4,181.1,294.5z"/>
<path class="st3" d="M193.4,269.1c-7.1,2.2-14.4,1.7-21.6,1.5c-1.8-0.1-3.7-0.9-5.5-1.4c-2.2-2.1-2.8-4.7-1.8-7.5
	c2.7-7.6,1.5-15-0.5-22.4c-1-3.7-1.5-7.4-2.3-11.1c2,0.5,4,1.2,6,1.5c4.2,0.7,8.5,1.2,12.8,1.8c4.7,0.7,8.9,0,12-4.1
	c0.2-0.3,0.6-0.4,1.7-1.2c0.2,2.8,0.6,5,0.5,7.2c0,2.6-0.4,5.2-0.6,7.8c-0.2,1.7-0.6,3.4-0.4,5c0.4,5.1,0.9,10.2,1.6,15.3
	C195.7,264.4,195.5,266.9,193.4,269.1z"/>
<path class="st5" d="M180.8,294.5c0-2,0-4,0.1-6.1c0.1-2.7,1.6-4.3,4.2-5.1c3.4-1,6.7-2.3,10-3.4c1.4,9.2,3.5,18.3,4.1,27.5
	c1,15.9,1.2,31.8,1.7,47.7c0,0.7-0.3,1.4-0.4,2.1c-2.3,0-4.7,0-7,0c-0.6-2.6-1.4-5.1-1.8-7.7c-2.5-15.6-4.2-31.3-8.7-46.4
	C182,300.3,181.4,297.4,180.8,294.5z"/>
<path class="st6" d="M194.1,241.3c0.2-2.6,0.6-5.2,0.6-7.8c0-2.2-0.3-4.4-0.5-7.2c-1.1,0.7-1.4,0.9-1.7,1.2c-3.1,4.1-7.3,4.7-12,4.1
	c-4.3-0.6-8.5-1.1-12.8-1.8c-2-0.3-4-1-6-1.5c-0.5-1.3-1.1-2.6-1.4-3.9c-0.5-2.4,1-5.2,3.5-6.7c5.1,1.4,10.1,3,15.2,4.1
	c7.2,1.5,7.2,1.3,10.4-5.3c0.1-0.1,0.1-0.3,0.1-0.5c1.9-4.5,3.7-9.1,5.6-13.6c1.8,0,3.6-0.1,5.4-0.1c-1.5,6.2-2.9,12.4-4.7,18.5
	c-0.7,2.2-0.9,3.8,0.3,5.8c1.5,2.5,2.9,5,4.2,7.7c1,2.1,2.3,2.4,4.4,1.8c5.1-1.5,10.2-2.9,15.3-4.3c0,2.4,1.6,3.6,3.4,4.7
	c-2,1-3.9,2.1-6,3c-4.1,1.7-8.1,3.4-12.3,4.9C199.7,246.4,197.8,245.8,194.1,241.3z"/>
<path class="st7" d="M169.6,215.5c-1.9-1.9-4.1-3.3-7-3.2c-0.8,0-2.1-0.9-2.3-1.7s0.6-2.1,1.3-2.6c2-1.2,1.8-2.4,0.8-4
	c-2.7-4.4-2.6-4.5,1.6-7.7c1-0.8,1.9-1.8,2.5-3c2.1-4.2,5.7-6,10.2-4.4c3,1.1,6,2.3,8.5,3.9c1.2,0.8,1.8,3,2.1,4.6
	c0.2,1.1-0.3,2.5-0.8,3.5c-1.1,3.1-0.9,5.6,2,7.8c2.7,2.1,2.4,4.1-0.5,6.1c-2,0-3.9,0-5.9,0c-1.8-0.9-2.6-3.8-1.2-4.8
	c3.5-2.5,2.5-6.1,2.4-9.5c0-0.3-0.6-1-0.9-1c-3.1,0.2-6.5-1.2-9.2,1.5c-0.9,0.9-2.3,1.3-4,2.2c1.4,1.8,2.8,3.5,4.3,5.2
	c1.9,2.1,2,4.4,0,6.6C172.3,215.5,171,215.5,169.6,215.5z"/>
<path class="st3" d="M169.5,214.8c1.3,0,2.7,0,4,0c1.5,0.8,2.9,2,4.5,2.4c2.3,0.7,3.8-0.6,4.1-2.8c2,0,3.9,0,5.9,0
	c0.5,0.5,1,1.1,1.5,1.6c0,0.2-0.1,0.3-0.1,0.5c-3.2,6.6-3.3,6.8-10.4,5.3c-5.1-1.1-10.1-2.7-15.2-4.1
	C165.8,216.7,167.6,215.8,169.5,214.8z"/>
<path class="st8" d="M200.3,202.4c-1.8,0-3.6,0.1-5.4,0.1c0.7-6.3,0-6.8,7.4-9.3c0.6,0.8,1.1,1.5,1.6,2.2
	C202.8,197.8,201.5,200.1,200.3,202.4z"/>
<path class="st8" d="M182.1,214.7c-0.3,2.2-1.8,3.5-4.1,2.8c-1.6-0.5-3-1.6-4.5-2.4c2-2.2,1.9-4.6,0-6.7c-1.5-1.7-2.9-3.6-4.3-5.3
	c1.7-0.9,3.1-1.4,4-2.2c2.8-2.7,6.1-1.3,9.2-1.5c0.3,0,0.9,0.6,0.9,1c0.1,3.4,1,7-2.4,9.6C179.4,210.8,180.2,213.8,182.1,214.7z"/>
<path class="st9" d="M249.3,237.6c-7.4,0-14.8-0.3-22.2,0.1c-9.2,0.4-16.8-7.1-17.2-15.4c-0.4-8.4-1.6-16.8-2-25.2
	c-0.3-6.6,5.8-12.5,12.3-12.6c16,0,32,0,48,0c9.3,0,16.4,7.1,16.8,16.7c0.3,7.5,0.7,14.9,1.5,22.4c0.9,8.6-6.1,13.9-13.9,14
	c-0.1,0-0.2,0-0.4,0C264.6,237.6,257,237.6,249.3,237.6z"/>
<ellipse class="st2" cx="175.4" cy="366.5" rx="96.4" ry="3.3"/>
<path class="st10" d="M121.7,363.1c-0.7-0.3-1.3-0.6-2-0.9c0-0.3,0.1-0.6,0.1-1c0.1-0.2,0.2-0.4,0.4-0.5c0.9-2.8,1.7-5.7,2.4-7.8
	c-2.7-2-5.3-3.5-7.3-5.5c-1-1-1.7-2.9-1.7-4.4c0.1-2.1,1.6-4.1,3.7-3.9c1.4,0.1,3,1.9,3.8,3.3c1.1,1.9,1.4,4.1,2.1,6.2
	c0.3,0,0.6,0,1,0c0.9-6.6,1.7-13.2,2.6-19.9c-4.3-0.5-7.7-1.7-10.1-4.7c-1.8-2.3-2.4-4.7-1.2-7.4c1.4-3.1,4.5-3.6,6.6-1
	c1.3,1.7,2.1,3.7,3.1,5.6c0.3,0.6,0.5,1.2,1,1.7c0.1-5.2-0.5-10.3-2.3-15.2c-0.2-0.4-0.8-0.7-1.2-1c-4.7-3.1-7.2-7.5-7.2-13.1
	c0-1.2,0.9-2.8,1.8-3.4c1.4-0.8,3.2-0.6,4.5,0.9c3.4,3.9,3.7,8.5,3.6,13.3c0,2.8,0.5,5.5,0.7,8.3c0.2,0,0.5-0.1,0.7-0.1
	c0.8-2.4,1.5-4.8,2.6-7.1c1.2-2.5,3.5-3,5.8-1.7c2.9,1.7,4.2,4.5,2.5,6.5c-1.8,2.1-3.9,4.2-6.3,5.4c-3.7,1.9-3.7,1.6-3.6,6
	c0.1,4.5,0,9.1,0,12.9c1.1-1.5,2.5-3.7,4.2-5.6c1.9-2.1,4.2-2.1,5.9-0.3c1.5,1.7,1.5,4.4-0.7,5.9c-2.6,1.8-5.6,3.1-8.4,4.8
	c-0.8,0.5-2,1.1-2.2,1.9c-1.4,5.1-2.5,10.3-3.7,15.4c0,0.1,0.2,0.3,0.2,0.4c0.9-0.8,1.7-1.7,2.6-2.4c3.1-2.5,4.8-2.3,7.4,0.8
	c2,2.4,1.3,5.1-1.6,6.4c-2.5,1.1-4.9,1.8-7.7,1.5C123.1,363.1,122.4,363.1,121.7,363.1z"/>
<text transform="matrix(1 0 0 1 219.3126 199.26)"><tspan x="0" y="0" class="st3 st11 st12">Les atouts</tspan><tspan x="21.2" y="16.8" class="st3 st11 st12">de</tspan><tspan x="2.5" y="33.6" class="st3 st11 st12">votre site</tspan></text>
</svg>
