<?xml version="1.0" encoding="utf-8"?>
<!-- Generator: Adobe Illustrator 24.1.0, SVG Export Plug-In . SVG Version: 6.00 Build 0)  -->
<svg version="1.1" id="Calque_1" xmlns="http://www.w3.org/2000/svg" xmlns:xlink="http://www.w3.org/1999/xlink" x="0px" y="0px"
	 viewBox="0 0 151 129" style="enable-background:new 0 0 151 129;" xml:space="preserve">
<style type="text/css">
	.st0{display:none;}
	.st1{display:inline;fill:#EBEBEB;}
	.st2{fill:#FFFFFF;}
	.st3{fill:#E0E0E0;}
	.st4{opacity:0.3;}
	.st5{fill:none;}
	.st6{fill-rule:evenodd;clip-rule:evenodd;fill:#E0E0E0;}
	.st7{fill:#EBEBEB;}
	.st8{fill:#263238;}
	.st9{fill:#E8505B;}
	.st10{fill:#455A64;}
	.st11{fill:#FAFAFA;}
	.st12{fill:#FFBE9D;}
	.st13{opacity:0.6;}
	.st14{fill:#EB996E;}
</style>
<g id="Background_Simple" class="st0">
	<path class="st1" d="M264.4-55.6l-2.5-4.1c-20.1-32.6-56.2-52.4-94.4-50.4c-5.4,0.3-10.7,1-16,2.1c-35.2,7.4-65.8,33.7-78.5,67.3
		c-7.5,19.8-9.5,42.6-23.7,58.3C30.9,38-0.4,38.7-27.9,37.8c-27.5-0.8-58.8-0.1-77.2,20.4c-11.5,12.9-15.1,31.1-14.2,48.3
		c2.5,45.6,34.6,86.3,75.5,106.6c40.9,20.3,89,22.1,133.8,13.2c62.7-12.5,122.3-46.8,158.2-99.7C284,73.7,293.1,1.6,264.4-55.6z"/>
	<path class="st1" d="M10.6-44.3c-9.9-9.9-27.3-16.8-39.1-9.3l1.7-0.9c-12.5,6.2-20.6,20.4-19.3,34.3c1.3,13.9,12,26.5,25.6,29.8
		s29-3.2,36-15.2C22.5-17.8,20.5-34.5,10.6-44.3z"/>
</g>
<g>
	<g id="Background_Complete">
		<g>
			<g>
				<g>
					<g>
						<rect x="42" y="33.7" class="st2" width="27.6" height="18.5"/>
					</g>
				</g>
				<g>
					<g>
						<g>
							<path class="st3" d="M69.6,52.1c0,0,0-0.1,0-0.3c0-0.2,0-0.6,0-1c0-0.8,0-2.1,0-3.7c0-3.2,0-7.8,0-13.4l0,0
								c-7.6,0-17.2,0-27.6,0l0,0l0,0c0,6.6,0,12.8,0,18.5l0,0c8.1,0,15,0,19.9,0c2.4,0,4.4,0,5.7,0c0.6,0,1.2,0,1.5,0
								C69.2,52.2,69.4,52.2,69.6,52.1C69.5,52.1,69.6,52.1,69.6,52.1s0,0-0.1,0s-0.2,0-0.4,0c-0.4,0-0.8,0-1.5,0
								c-1.3,0-3.2,0-5.7,0c-4.9,0-11.8,0-19.9,0h0v0c0-5.7,0-11.9,0-18.5v0h0l0,0c10.4,0,20,0,27.6,0h0v0c0,5.7,0,10.3,0,13.4
								c0,1.6,0,2.9,0,3.7c0,0.4,0,0.8,0,1C69.6,52.1,69.6,52.1,69.6,52.1z"/>
						</g>
					</g>
				</g>
			</g>
			<g>
				<g>
					<g>
						<path class="st3" d="M42,35.3c0,0,6.2,0,13.8,0s13.8,0,13.8,0c0,0-6.2,0-13.8,0S42,35.3,42,35.3z"/>
					</g>
				</g>
			</g>
			<g>
				<g class="st4">
					<g>
						<path class="st3" d="M43.1,34.5c0,0.1-0.1,0.2-0.2,0.2s-0.2-0.1-0.2-0.2s0.1-0.2,0.2-0.2S43.1,34.4,43.1,34.5z"/>
					</g>
				</g>
				<g class="st4">
					<g>
						<circle class="st3" cx="43.6" cy="34.5" r="0.2"/>
					</g>
				</g>
				<g class="st4">
					<g>
						<path class="st3" d="M44.6,34.5c0,0.1-0.1,0.2-0.2,0.2c-0.1,0-0.2-0.1-0.2-0.2s0.1-0.2,0.2-0.2C44.5,34.3,44.6,34.4,44.6,34.5
							z"/>
					</g>
				</g>
			</g>
			<g>
				<g>
					<rect x="44.4" y="37.2" class="st3" width="7.4" height="7.4"/>
				</g>
			</g>
			<g>
				<g>
					<g>
						<path class="st3" d="M65.8,39.3c0,0-2.9,0-6.4,0c-3.6,0-6.4,0-6.4,0s2.9,0,6.4,0C62.9,39.3,65.8,39.3,65.8,39.3z"/>
					</g>
				</g>
			</g>
			<g>
				<g>
					<g>
						<path class="st3" d="M65.8,40.7c0,0-2.9,0-6.4,0c-3.6,0-6.4,0-6.4,0c0,0,2.9,0,6.4,0C62.9,40.7,65.8,40.7,65.8,40.7z"/>
					</g>
				</g>
			</g>
			<g>
				<g>
					<g>
						<path class="st3" d="M65.8,42.1c0,0-2.9,0-6.4,0c-3.6,0-6.4,0-6.4,0c0,0,2.9,0,6.4,0C62.9,42,65.8,42,65.8,42.1z"/>
					</g>
				</g>
			</g>
			<g>
				<g>
					<g>
						<path class="st3" d="M60.5,43.4c0,0-0.1,0-0.3,0c-0.2,0-0.5,0-0.8,0c-0.7,0-1.6,0-2.7,0c-1.1,0-2,0-2.7,0c-0.3,0-0.6,0-0.8,0
							s-0.3,0-0.3,0s0.1,0,0.3,0s0.5,0,0.8,0c0.7,0,1.6,0,2.7,0c1.1,0,2,0,2.7,0c0.3,0,0.6,0,0.8,0C60.4,43.4,60.5,43.4,60.5,43.4z"
							/>
					</g>
				</g>
			</g>
			<g>
				<g>
					<rect x="44.8" y="47.1" class="st3" width="3.5" height="3.5"/>
				</g>
			</g>
			<g>
				<g>
					<rect x="51.1" y="47.1" class="st3" width="3.5" height="3.5"/>
				</g>
			</g>
			<g>
				<g>
					<rect x="57.4" y="47.1" class="st3" width="3.5" height="3.5"/>
				</g>
			</g>
			<g>
				<g>
					<rect x="63.6" y="47.1" class="st3" width="3.5" height="3.5"/>
				</g>
			</g>
		</g>
		<g>
			<g>
				<g>
					<g>
						<g>
							<g>
								<g>
									<path class="st5" d="M121.1,39.7c-0.2,0.2-0.4,0.4-0.6,0.6l0.2,0.8l-1.2,0.5l-0.4-0.6c-0.3,0-0.6,0-0.8,0l-0.4,0.6
										l-1.2-0.4l0.1-0.8c-0.2-0.2-0.4-0.4-0.6-0.6l-0.8,0.2l-0.5-1.2l0.6-0.4c0-0.3,0-0.6,0-0.8l-0.6-0.4l0.4-1.2L116,36
										c0.2-0.2,0.4-0.4,0.6-0.6l-0.2-0.8l1.2-0.5l0.4,0.6c0.3,0,0.6,0,0.8,0l0.4-0.6l1.2,0.4l-0.1,0.8c0.2,0.2,0.4,0.4,0.6,0.6
										l0.8-0.2l0.5,1.2l-0.6,0.4c0,0.3,0,0.6,0,0.8l0.6,0.4l-0.4,1.2L121.1,39.7L121.1,39.7z M119.8,38.3
										c0.3-0.7-0.1-1.5-0.8-1.8c-0.7-0.3-1.5,0.1-1.8,0.8s0.1,1.5,0.8,1.8C118.7,39.4,119.5,39.1,119.8,38.3z"/>
								</g>
							</g>
						</g>
					</g>
				</g>
				<g>
					<g>
						<g>
							<g>
								<g>
									<g>
										<path class="st3" d="M119.8,38.3c0,0,0,0.1-0.2,0.3c-0.1,0.2-0.4,0.4-0.8,0.6c-0.2,0.1-0.4,0.1-0.6,0
											c-0.2,0-0.5-0.2-0.7-0.3c-0.1-0.1-0.2-0.2-0.3-0.3c-0.1-0.1-0.1-0.2-0.2-0.4c-0.1-0.3-0.1-0.6,0-0.9
											c0.1-0.3,0.3-0.5,0.6-0.7c0.1-0.1,0.3-0.1,0.4-0.2c0.1,0,0.3-0.1,0.4,0c0.3,0,0.5,0.1,0.7,0.2c0.2,0.1,0.4,0.3,0.4,0.4
											c0.2,0.4,0.2,0.7,0.2,0.9C119.9,38.2,119.8,38.3,119.8,38.3s0-0.1,0.1-0.3s0-0.6-0.2-0.9c-0.1-0.2-0.2-0.3-0.4-0.4
											c-0.2-0.1-0.4-0.2-0.7-0.2c-0.1,0-0.3,0-0.4,0c-0.1,0-0.3,0.1-0.4,0.2c-0.2,0.2-0.4,0.4-0.5,0.6c-0.1,0.3-0.1,0.6,0,0.8
											c0,0.1,0.1,0.3,0.2,0.4c0.1,0.1,0.2,0.2,0.3,0.3c0.2,0.2,0.4,0.3,0.6,0.3c0.2,0,0.4,0,0.6,0c0.4-0.1,0.6-0.4,0.8-0.5
											C119.8,38.5,119.8,38.3,119.8,38.3z"/>
									</g>
								</g>
							</g>
						</g>
					</g>
				</g>
				<g>
					<g>
						<g>
							<g>
								<g>
									<g>
										<path class="st3" d="M121.1,39.7L121.1,39.7c0.1,0,0.1,0,0.2,0c0.1,0,0.3,0,0.6,0.1h0c0.1-0.3,0.3-0.7,0.4-1.2v0
											c-0.2-0.1-0.4-0.3-0.6-0.4h0v0c0-0.3,0-0.6,0-0.8v0h0c0.2-0.2,0.4-0.3,0.6-0.4v0c-0.2-0.4-0.4-0.8-0.5-1.2l0,0
											c-0.2,0-0.5,0.1-0.8,0.2h0l0,0c-0.2-0.2-0.4-0.4-0.6-0.6l0,0v0c0-0.2,0.1-0.5,0.1-0.8l0,0c-0.4-0.2-0.8-0.3-1.2-0.4l0,0
											c-0.1,0.2-0.3,0.4-0.4,0.6l0,0h0c-0.3,0-0.6,0-0.8,0h0l0,0c-0.2-0.2-0.3-0.4-0.4-0.6l0,0c-0.4,0.2-0.8,0.4-1.2,0.5l0,0
											c0,0.2,0.1,0.5,0.2,0.8v0l0,0c-0.2,0.2-0.4,0.4-0.6,0.6l0,0l0,0c0,0,0,0,0,0l0,0l0,0l0,0l0,0h0h0h0l-0.1,0l-0.2,0
											c-0.1,0-0.3,0-0.4-0.1l0,0c-0.2,0.4-0.3,0.8-0.4,1.2l0,0c0.2,0.2,0.4,0.3,0.6,0.4l0,0v0c0,0.3,0,0.6,0,0.8v0l0,0
											c-0.2,0.2-0.4,0.3-0.6,0.4l0,0c0.2,0.4,0.4,0.8,0.5,1.2l0,0c0.3,0,0.5-0.1,0.8-0.2h0l0,0c0.2,0.2,0.4,0.4,0.6,0.6l0,0v0
											c0,0.3-0.1,0.5-0.1,0.8l0-0.1c0.4,0.2,0.8,0.3,1.2,0.4l0,0c0.2-0.2,0.3-0.4,0.4-0.6v0h0c0.3,0,0.6,0,0.8,0h0v0
											c0.2,0.2,0.3,0.4,0.4,0.6h0c0.4-0.2,0.8-0.4,1.2-0.5v0c-0.1-0.3-0.1-0.6-0.2-0.8l0,0l0,0c0.2-0.2,0.4-0.3,0.4-0.4
											c0,0,0.1-0.1,0.1-0.1C121.1,39.7,121.1,39.7,121.1,39.7S121.1,39.7,121.1,39.7c-0.1,0.1-0.1,0.1-0.1,0.2
											c-0.1,0.1-0.2,0.3-0.4,0.4v0c0,0.2,0.1,0.4,0.2,0.8v0h0c-0.3,0.2-0.7,0.3-1.2,0.5h0l0,0c-0.2-0.2-0.3-0.4-0.4-0.6h0
											c-0.3,0-0.6,0.1-0.8,0l0,0c-0.1,0.2-0.3,0.4-0.4,0.6l0,0h0c-0.4-0.2-0.8-0.3-1.2-0.4h0v0c0-0.2,0.1-0.5,0.1-0.8l0,0
											c-0.2-0.2-0.4-0.4-0.6-0.6l0,0c-0.2,0-0.5,0.1-0.8,0.2h0l0,0c-0.2-0.4-0.4-0.8-0.5-1.2l0,0l0,0c0.2-0.2,0.4-0.3,0.6-0.4
											l0,0c0-0.3,0-0.6,0-0.8l0,0c-0.2-0.2-0.4-0.3-0.6-0.4l0,0l0,0c0.2-0.4,0.3-0.8,0.4-1.2l0,0h0c0.1,0,0.3,0,0.4,0.1l0.2,0
											l0.1,0h0h0h0l0,0l0,0l0,0l0,0c-0.1,0,0,0,0,0l0,0l0,0c0.2-0.2,0.4-0.4,0.6-0.6l0,0c0-0.3-0.1-0.5-0.2-0.8v0l0,0
											c0.4-0.2,0.8-0.4,1.2-0.5l0,0l0,0c0.2,0.2,0.3,0.4,0.4,0.6l0,0c0.3,0,0.6,0,0.8,0l0,0c0.2-0.2,0.3-0.4,0.4-0.6l0,0h0
											c0.4,0.2,0.8,0.3,1.2,0.4h0v0c0,0.3-0.1,0.5-0.1,0.8l0,0c0.2,0.2,0.4,0.4,0.6,0.6l0,0c0.3,0,0.5-0.1,0.8-0.2h0v0
											c0.2,0.4,0.4,0.8,0.5,1.2v0l0,0c-0.2,0.2-0.4,0.3-0.6,0.4v0c0,0.3,0,0.6,0,0.8v0c0.2,0.2,0.4,0.3,0.6,0.4h0v0
											c-0.2,0.5-0.4,0.9-0.5,1.2l0,0l0,0c-0.2,0-0.4-0.1-0.6-0.1C121.2,39.7,121.1,39.7,121.1,39.7L121.1,39.7z"/>
									</g>
								</g>
							</g>
						</g>
					</g>
				</g>
			</g>
			<g>
				<g>
					<g>
						<g>
							<g>
								<path class="st6" d="M128,36c-0.1,0.2-0.3,0.4-0.5,0.5l0.1,0.6l-1,0.4l-0.4-0.5c-0.2,0-0.4,0-0.7,0l-0.4,0.6l-1-0.4l0.1-0.6
									c-0.2-0.1-0.4-0.3-0.5-0.5l-0.6,0.1l-0.4-1l0.5-0.4c0-0.2,0-0.4,0-0.7l-0.6-0.4l0.4-1l0.6,0.1c0.1-0.2,0.3-0.4,0.5-0.5
									l-0.1-0.6l1-0.4l0.4,0.5c0.2,0,0.4,0,0.7,0l0.4-0.6l1,0.4l-0.1,0.6c0.2,0.1,0.4,0.3,0.5,0.5l0.6-0.1l0.4,1l-0.5,0.4
									c0,0.2,0,0.4,0,0.7l0.6,0.4l-0.4,1L128,36L128,36z M126.9,34.9c0.2-0.6-0.1-1.3-0.6-1.5c-0.6-0.2-1.3,0.1-1.5,0.6
									c-0.2,0.6,0.1,1.3,0.6,1.5C126.1,35.8,126.7,35.5,126.9,34.9z"/>
							</g>
						</g>
					</g>
				</g>
			</g>
			<g>
				<g>
					<g>
						<g>
							<g>
								<path class="st6" d="M123.8,30c-0.2,0.3-0.5,0.6-0.8,0.8l0.2,1l-1.5,0.7l-0.6-0.8c-0.4,0.1-0.7,0.1-1.1,0l-0.6,0.8l-1.7-0.6
									l0.2-1c-0.3-0.2-0.6-0.5-0.8-0.8l-1,0.2l-0.7-1.5l0.8-0.6c-0.1-0.4-0.1-0.7,0-1.1l-0.8-0.6L116,25l1,0.2
									c0.2-0.3,0.5-0.6,0.8-0.8l-0.2-1l1.5-0.7l0.6,0.8c0.4-0.1,0.7-0.1,1.1,0l0.6-0.8l1.6,0.6l-0.2,1c0.3,0.2,0.6,0.5,0.8,0.8
									l1-0.2l0.7,1.5l-0.8,0.6c0.1,0.4,0.1,0.7,0,1.1l0.8,0.6l-0.6,1.6L123.8,30L123.8,30z M122.1,28.2c0.4-0.9-0.1-2-1.1-2.3
									c-0.9-0.4-2,0.1-2.3,1.1s0.1,2,1.1,2.3C120.6,29.6,121.7,29.2,122.1,28.2z"/>
							</g>
						</g>
					</g>
				</g>
			</g>
		</g>
		<g>
			<g>
				<g>
					<g>
						<path class="st3" d="M108.2,21.6c0,0,0,0,0.1-0.1c0.1-0.1,0.2-0.2,0.3-0.3c0.3-0.3,0.7-0.6,1.1-1.1l0,0v0.1
							c-0.4-0.4-0.8-0.8-1.1-1.1c-0.1-0.1-0.2-0.2-0.3-0.3c-0.1-0.1-0.1-0.1-0.1-0.1s0,0,0.1,0.1c0.1,0.1,0.2,0.2,0.4,0.3
							c0.3,0.3,0.7,0.6,1.1,1.1l0,0l0,0l0,0c-0.4,0.4-0.8,0.8-1.1,1.1c-0.1,0.1-0.3,0.2-0.4,0.3C108.3,21.5,108.2,21.6,108.2,21.6z"
							/>
					</g>
				</g>
			</g>
			<g>
				<g>
					<g>
						<path class="st3" d="M104.8,18.5c0,0,0,0-0.1,0.1c-0.1,0.1-0.2,0.2-0.3,0.3c-0.3,0.3-0.7,0.6-1.1,1.1l0,0V20
							c0.4,0.4,0.8,0.8,1.1,1.1c0.1,0.1,0.2,0.2,0.3,0.3c0.1,0.1,0.1,0.1,0.1,0.1s0,0-0.1-0.1c-0.1-0.1-0.2-0.2-0.4-0.3
							c-0.3-0.3-0.7-0.6-1.1-1.1l0,0l0,0l0,0c0.4-0.4,0.8-0.8,1.1-1.1c0.1-0.1,0.3-0.2,0.4-0.3C104.8,18.6,104.8,18.5,104.8,18.5z"
							/>
					</g>
				</g>
			</g>
			<g>
				<g>
					<g>
						<path class="st3" d="M105.7,22.3c0,0,0.3-1,0.8-2.3c0.4-1.3,0.8-2.3,0.9-2.3s-0.3,1-0.8,2.3C106.1,21.3,105.7,22.3,105.7,22.3
							z"/>
					</g>
				</g>
			</g>
			<g>
				<g>
					<g>
						<path class="st3" d="M112.2,24.4c0,0,0-0.1,0-0.2c0-0.1,0-0.3,0-0.5c0-0.4,0-1.1,0-1.9c0-1.6,0-3.8,0-6.6l0,0
							c-3.2,0-7,0-11.2,0l0,0l0,0c0,3.3,0,6.4,0,9.1l0,0c3.3,0,6.1,0,8.1,0c1,0,1.8,0,2.3,0c0.3,0,0.4,0,0.6,0
							C112,24.4,112.1,24.4,112.2,24.4C112.1,24.4,112.2,24.4,112.2,24.4L112.2,24.4c-0.1,0-0.1,0-0.2,0c-0.1,0-0.3,0-0.6,0
							c-0.5,0-1.3,0-2.3,0c-2,0-4.8,0-8.1,0h0v0c0-2.7,0-5.8,0-9.1v0h0l0,0c4.2,0,8,0,11.2,0h0v0c0,2.7,0,5,0,6.6c0,0.8,0,1.4,0,1.9
							c0,0.2,0,0.4,0,0.5C112.2,24.4,112.2,24.4,112.2,24.4z"/>
					</g>
				</g>
			</g>
			<g>
				<g>
					<g>
						<path class="st3" d="M112.2,16.7c0,0-2.5,0-5.7,0s-5.7,0-5.7,0c0,0,2.5,0,5.7,0S112.2,16.6,112.2,16.7z"/>
					</g>
				</g>
			</g>
			<g>
				<g>
					<g>
						<path class="st3" d="M101.9,16c0,0.1-0.1,0.2-0.2,0.2s-0.2-0.1-0.2-0.2s0.1-0.2,0.2-0.2C101.8,15.9,101.9,15.9,101.9,16z"/>
					</g>
				</g>
				<g>
					<g>
						<ellipse class="st3" cx="102.3" cy="16" rx="0.2" ry="0.2"/>
					</g>
				</g>
				<g>
					<g>
						<path class="st3" d="M103,16c0,0.1-0.1,0.2-0.2,0.2c-0.1,0-0.2-0.1-0.2-0.2s0.1-0.2,0.2-0.2C102.9,15.9,103,15.9,103,16z"/>
					</g>
				</g>
			</g>
		</g>
		<g>
			<g>
				<g>
					<g>
						<rect x="64.7" y="19.7" class="st2" width="25.8" height="10.5"/>
					</g>
				</g>
				<g>
					<g>
						<g>
							<path class="st3" d="M90.5,30.2c0,0,0-0.1,0-0.2c0-0.1,0-0.3,0-0.6c0-0.5,0-1.2,0-2.1c0-1.8,0-4.4,0-7.7l0,0
								c-6.6,0-15.7,0-25.8,0l0,0l0,0c0,3.7,0,7.2,0,10.5l0,0c7.5,0,13.9,0,18.5,0c2.3,0,4.1,0,5.4,0c0.6,0,1.1,0,1.4,0
								c0.2,0,0.3,0,0.4,0C90.5,30.2,90.5,30.2,90.5,30.2s0,0-0.1,0c-0.1,0-0.2,0-0.4,0c-0.3,0-0.8,0-1.4,0c-1.3,0-3.1,0-5.4,0
								c-4.6,0-11.1,0-18.6,0h0v0c0-3.3,0-6.8,0-10.5v0h0l0,0c10.1,0,19.3,0,25.8,0h0v0c0,3.3,0,5.9,0,7.7c0,0.9,0,1.6,0,2.1
								c0,0.2,0,0.4,0,0.6C90.5,30.2,90.5,30.2,90.5,30.2z"/>
						</g>
					</g>
				</g>
			</g>
			<g>
				<g>
					<g>
						<path class="st3" d="M64.7,21.2c0,0,5.8,0,12.9,0c7.1,0,12.9,0,12.9,0c0,0-5.8,0-12.9,0C70.5,21.2,64.7,21.2,64.7,21.2z"/>
					</g>
				</g>
			</g>
			<g>
				<g class="st4">
					<g>
						<path class="st7" d="M65.8,20.5c0,0.1-0.1,0.2-0.2,0.2s-0.2-0.1-0.2-0.2s0.1-0.2,0.2-0.2S65.8,20.4,65.8,20.5z"/>
					</g>
				</g>
				<g class="st4">
					<g>
						<path class="st7" d="M66.4,20.5c0,0.1-0.1,0.2-0.2,0.2S66,20.6,66,20.5s0.1-0.2,0.2-0.2S66.4,20.4,66.4,20.5z"/>
					</g>
				</g>
				<g class="st4">
					<g>
						<circle class="st7" cx="66.9" cy="20.5" r="0.2"/>
					</g>
				</g>
			</g>
			<g>
				<g>
					<rect x="66.9" y="22.9" class="st3" width="6.3" height="6.3"/>
				</g>
			</g>
			<g>
				<g>
					<g>
						<g>
							<path class="st3" d="M88.7,24.5c0,0-3.2,0-7.2,0s-7.2,0-7.2,0c0,0,3.2,0,7.2,0C85.5,24.5,88.7,24.5,88.7,24.5z"/>
						</g>
					</g>
				</g>
				<g>
					<g>
						<g>
							<path class="st3" d="M88.7,25.8c0,0-3.2,0-7.2,0s-7.2,0-7.2,0c0,0,3.2,0,7.2,0S88.7,25.8,88.7,25.8z"/>
						</g>
					</g>
				</g>
				<g>
					<g>
						<g>
							<path class="st3" d="M83.7,27.1C83.7,27.1,83.6,27.1,83.7,27.1c-0.1,0-0.2,0-0.4,0c-0.2,0-0.6,0-1,0c-0.8,0-2,0-3.3,0
								c-1.3,0-2.4,0-3.3,0c-0.4,0-0.8,0-1,0c-0.1,0-0.2,0-0.3,0s-0.1,0-0.1,0s0,0,0.1,0c0,0,0.2,0,0.3,0c0.2,0,0.6,0,1,0
								c0.8,0,2,0,3.3,0c1.3,0,2.4,0,3.3,0c0.4,0,0.8,0,1,0C83.4,27.1,83.5,27.1,83.7,27.1C83.6,27.1,83.7,27.1,83.7,27.1z"/>
						</g>
					</g>
				</g>
			</g>
		</g>
	</g>
	<g id="Floor">
		<g>
			<g>
				<path class="st8" d="M131,106.1c0,0-22,0.1-49.1,0.1s-49.1,0-49.1-0.1s22-0.1,49.1-0.1C109,106,131,106,131,106.1z"/>
			</g>
		</g>
	</g>
	<g id="Screens">
		<g>
			<g>
				<rect x="91.8" y="37.8" class="st3" width="30.9" height="25.2"/>
			</g>
			<g>
				<rect x="89.6" y="39.5" class="st7" width="30.9" height="25.2"/>
			</g>
			<g>
				<g>
					<rect x="86.6" y="41.2" class="st2" width="31.7" height="25.8"/>
				</g>
				<g>
					<g>
						<path class="st8" d="M118.3,67c0,0,0-0.2,0-0.5c0-0.3,0-0.8,0-1.4c0-1.2,0-3,0-5.2c0-4.5,0-10.9,0-18.7l0,0
							c-9.1,0-20,0-31.7,0l0,0l0.1-0.1c0,9.3,0,18.1,0,25.8l0,0c9.4,0,17.3,0,22.9,0c2.8,0,5,0,6.5,0c0.8,0,1.3,0,1.7,0
							c0.2,0,0.3,0,0.4,0C118.2,67,118.3,67,118.3,67s0,0-0.2,0s-0.2,0-0.4,0c-0.4,0-1,0-1.7,0c-1.5,0-3.7,0-6.5,0
							c-5.6,0-13.5,0-22.9,0h0v0c0-7.7,0-16.5,0-25.8v-0.1h0.1l0,0c11.7,0,22.6,0,31.7,0h0v0c0,7.8,0,14.3,0,18.8c0,2.3,0,4,0,5.2
							c0,0.6,0,1.1,0,1.4C118.3,66.9,118.3,67,118.3,67z"/>
					</g>
				</g>
			</g>
			<g>
				<path class="st9" d="M90.5,44.9L90.2,45l0.3,0.1v0.1L90,45.1V45L90.5,44.9L90.5,44.9z"/>
				<path class="st9" d="M91.2,44.7v0.7h-0.2v-0.3h-0.3v0.3h-0.2v-0.7h0.2V45h0.3v-0.3H91.2z"/>
				<path class="st9" d="M91.6,44.8h-0.2v-0.1H92v0.1h-0.2v0.6h-0.2L91.6,44.8L91.6,44.8z"/>
				<path class="st9" d="M92.7,45.4V45l-0.2,0.4h-0.1L92.2,45v0.4h-0.2v-0.7h0.1l0.3,0.4l0.3-0.4h0.1v0.7H92.7z"/>
				<path class="st9" d="M93,44.7h0.2v0.6h0.4v0.1H93V44.7z"/>
				<path class="st9" d="M94.1,45v0.1l-0.5,0.2v-0.1L94,45l-0.3-0.1v-0.1L94.1,45z"/>
			</g>
			<g>
				<path class="st9" d="M90.2,64.5l-0.4,0.1l0.3,0.1v0.1l-0.5-0.2v-0.1L90.2,64.5L90.2,64.5L90.2,64.5z"/>
				<path class="st9" d="M90.5,64.1h0.1l-0.3,1h-0.1L90.5,64.1z"/>
				<path class="st9" d="M91.4,64.3V65h-0.2v-0.3h-0.3V65h-0.2v-0.7h0.2v0.3h0.3v-0.3H91.4L91.4,64.3z"/>
				<path class="st9" d="M91.7,64.4h-0.2v-0.1h0.6v0.1h-0.2V65h-0.2L91.7,64.4L91.7,64.4z"/>
				<path class="st9" d="M92.8,65v-0.4l-0.2,0.4h-0.1l-0.2-0.4V65h-0.2v-0.7h0.1l0.3,0.4l0.3-0.4H93V65H92.8L92.8,65z"/>
				<path class="st9" d="M93.1,64.3h0.2v0.6h0.4V65h-0.5V64.3z"/>
				<path class="st9" d="M94.2,64.6v0.1l-0.5,0.2v-0.1l0.3-0.1l-0.3-0.1v-0.1L94.2,64.6z"/>
			</g>
			<g>
				<path d="M92.7,46.9L92.3,47l0.4,0.1v0.1l-0.4-0.2V47L92.7,46.9L92.7,46.9z"/>
				<path d="M93.5,46.7v0.7h-0.1v-0.3H93v0.3h-0.1v-0.7H93V47h0.4v-0.3H93.5z"/>
				<path d="M94.2,47.3L94.2,47.3l-0.5,0.1v-0.7h0.5v0.1h-0.4V47h0.4v0.1h-0.4v0.2L94.2,47.3L94.2,47.3z"/>
				<path d="M94.8,47.2h-0.4l-0.1,0.2h-0.1l0.3-0.7h0.1l0.3,0.7h-0.1L94.8,47.2z M94.8,47.1l-0.2-0.4l-0.2,0.4H94.8z"/>
				<path d="M95.1,46.7h0.3c0.2,0,0.4,0.2,0.4,0.4c0,0.2-0.2,0.4-0.4,0.4h-0.3V46.7z M95.4,47.3c0.2,0,0.3-0.1,0.3-0.3
					c0-0.2-0.1-0.3-0.3-0.3h-0.2v0.5L95.4,47.3L95.4,47.3z"/>
				<path d="M96.4,47L96.4,47L96,47.3v-0.1L96.4,47L96,46.9v-0.1L96.4,47z"/>
				<path d="M92.7,49.4l-0.4,0.1l0.4,0.1v0.1l-0.4-0.2v-0.1L92.7,49.4L92.7,49.4z"/>
				<path d="M93,49.2h-0.2v-0.1h0.6v0.1h-0.2v0.6H93V49.2z"/>
				<path d="M93.5,49.2h0.1v0.7h-0.1V49.2z"/>
				<path d="M94,49.2h-0.2v-0.1h0.6v0.1h-0.2v0.6H94V49.2z"/>
				<path d="M94.4,49.2h0.1v0.6h0.4v0.1h-0.5L94.4,49.2L94.4,49.2z"/>
				<path d="M95.5,49.8L95.5,49.8L95,49.8v-0.7h0.5v0.1h-0.4v0.2h0.4v0.1h-0.4v0.2L95.5,49.8L95.5,49.8z"/>
				<path d="M96.1,49.4L96.1,49.4l-0.4,0.2v-0.1L96.1,49.4l-0.4-0.1v-0.1L96.1,49.4z"/>
				<path d="M96.5,49.2h0.1v0.6h0.4v0.1h-0.5L96.5,49.2L96.5,49.2z"/>
				<path d="M97.1,49.6c0-0.2,0.1-0.3,0.3-0.3c0.2,0,0.3,0.1,0.3,0.3s-0.1,0.3-0.3,0.3C97.2,49.8,97.1,49.7,97.1,49.6z M97.5,49.6
					c0-0.1-0.1-0.2-0.2-0.2c-0.1,0-0.2,0.1-0.2,0.2s0.1,0.2,0.2,0.2S97.5,49.7,97.5,49.6z"/>
				<path d="M98.1,49.3L98.1,49.3L98.1,49.3c-0.2,0.1-0.2,0.2-0.2,0.2v0.3h-0.1v-0.5h0.1v0.1C97.9,49.4,98,49.3,98.1,49.3z"/>
				<path d="M98.7,49.6h-0.4c0,0.1,0.1,0.2,0.2,0.2C98.5,49.8,98.6,49.7,98.7,49.6l0,0.2c0,0.1-0.1,0.1-0.2,0.1
					c-0.2,0-0.3-0.1-0.3-0.3c0-0.2,0.1-0.3,0.3-0.3C98.6,49.3,98.7,49.4,98.7,49.6C98.7,49.6,98.7,49.6,98.7,49.6z M98.2,49.5h0.4
					c0-0.1-0.1-0.2-0.2-0.2C98.4,49.4,98.2,49.4,98.2,49.5z"/>
				<path d="M99.7,49.5v0.3h-0.1L99.7,49.5c-0.1-0.1-0.1-0.2-0.2-0.2s-0.2,0.1-0.2,0.2v0.3h-0.1v-0.3c0-0.1,0-0.2-0.1-0.2
					c-0.1,0-0.2,0.1-0.2,0.2v0.3h-0.1v-0.5H99v0.1c0,0,0.1-0.1,0.2-0.1c0.1,0,0.2,0,0.2,0.1c0-0.1,0.1-0.1,0.2-0.1
					C99.6,49.3,99.7,49.4,99.7,49.5z"/>
				<path d="M100.2,49.2C100.2,49.1,100.2,49.1,100.2,49.2c0.1-0.1,0.2,0,0.2,0C100.3,49.2,100.3,49.2,100.2,49.2
					C100.2,49.2,100.2,49.2,100.2,49.2z M100.2,49.3L100.2,49.3l0.1,0.6h-0.1V49.3z"/>
				<path d="M101,49.6c0,0.2-0.1,0.3-0.3,0.3c-0.1,0-0.2,0-0.2-0.1v0.3h-0.1v-0.8h0.1v0.1c0-0.1,0.1-0.1,0.2-0.1
					C100.9,49.3,101,49.4,101,49.6z M100.9,49.6c0-0.1-0.1-0.2-0.2-0.2c-0.1,0-0.2,0.1-0.2,0.2s0.1,0.2,0.2,0.2
					C100.9,49.8,100.9,49.7,100.9,49.6z"/>
				<path d="M101.1,49.8L101.1,49.8c0.1,0,0.2,0,0.2,0c0.1,0,0.1,0,0.1-0.1c0-0.1-0.4,0-0.4-0.2c0-0.1,0.1-0.2,0.2-0.2
					c0.1,0,0.2,0,0.2,0l0,0.1c0,0-0.1,0-0.2,0c-0.1,0-0.1,0-0.1,0.1c0,0.1,0.4,0,0.4,0.2c0,0.1-0.1,0.2-0.2,0.2
					C101.2,49.8,101.1,49.8,101.1,49.8z"/>
				<path d="M102.1,49.3v0.6h-0.1v-0.1c0,0.1-0.1,0.1-0.2,0.1c-0.1,0-0.2-0.1-0.2-0.2v-0.3h0.1v0.3c0,0.1,0,0.2,0.2,0.2
					s0.2-0.1,0.2-0.2L102.1,49.3L102.1,49.3L102.1,49.3z"/>
				<path d="M103.3,49.5v0.3h-0.1L103.3,49.5c-0.1-0.1-0.1-0.2-0.2-0.2c-0.1,0-0.2,0.1-0.2,0.2v0.3h-0.1v-0.3c0-0.1,0-0.2-0.1-0.2
					c-0.1,0-0.2,0.1-0.2,0.2v0.3h-0.1v-0.5h0.1v0.1c0,0,0.1-0.1,0.2-0.1c0.1,0,0.2,0,0.2,0.1c0-0.1,0.1-0.1,0.2-0.1
					C103.2,49.3,103.3,49.4,103.3,49.5z"/>
				<path d="M104.1,49.4l-0.4,0.1l0.4,0.1v0.1l-0.4-0.2v-0.1L104.1,49.4L104.1,49.4z"/>
				<path d="M104.5,49L104.5,49l-0.2,1h-0.1L104.5,49z"/>
				<path d="M104.9,49.2h-0.2v-0.1h0.6v0.1H105v0.6h-0.1V49.2z"/>
				<path d="M105.3,49.2h0.1v0.7h-0.1V49.2z"/>
				<path d="M105.8,49.2h-0.2v-0.1h0.6v0.1h-0.2v0.6h-0.1V49.2z"/>
				<path d="M106.2,49.2h0.1v0.6h0.4v0.1h-0.5L106.2,49.2L106.2,49.2z"/>
				<path d="M107.3,49.8L107.3,49.8l-0.5,0.1v-0.7h0.5v0.1h-0.4v0.2h0.4v0.1h-0.4v0.2L107.3,49.8L107.3,49.8z"/>
				<path d="M107.9,49.4L107.9,49.4l-0.4,0.2v-0.1L107.9,49.4l-0.4-0.1v-0.1L107.9,49.4z"/>
				<path d="M92.7,51.8l-0.4,0.1l0.4,0.1v0.1L92.3,52v-0.1L92.7,51.8L92.7,51.8z"/>
				<path d="M93.1,51.4L93.1,51.4l-0.2,1h-0.1L93.1,51.4z"/>
				<path d="M93.9,51.6v0.7h-0.1v-0.3h-0.4v0.3h-0.1v-0.7h0.1v0.3h0.4v-0.3H93.9z"/>
				<path d="M94.6,52.2L94.6,52.2l-0.5,0.1v-0.7h0.5v0.1h-0.4v0.2h0.4v0.1h-0.4v0.2L94.6,52.2L94.6,52.2z"/>
				<path d="M95.2,52.1h-0.4l-0.1,0.2h-0.1l0.3-0.7h0.1l0.3,0.7h-0.1L95.2,52.1z M95.2,52.1L95,51.7l-0.2,0.4H95.2z"/>
				<path d="M95.5,51.6h0.3c0.2,0,0.4,0.2,0.4,0.4s-0.2,0.4-0.4,0.4h-0.3V51.6z M95.8,52.2c0.2,0,0.3-0.1,0.3-0.3s-0.1-0.3-0.3-0.3
					h-0.2v0.5L95.8,52.2L95.8,52.2z"/>
				<path d="M96.8,51.9L96.8,51.9l-0.4,0.2v0L96.8,51.9l-0.4,0v-0.1L96.8,51.9z"/>
			</g>
			<g>
				<path d="M90.8,53.9L90.4,54l0.4,0.1v0.1l-0.4-0.2V54L90.8,53.9L90.8,53.9z"/>
				<path d="M91.6,54.2c0,0.1-0.1,0.2-0.3,0.2H91v-0.7h0.3c0.2,0,0.3,0.1,0.3,0.2s0,0.1-0.1,0.2C91.5,54.1,91.6,54.1,91.6,54.2z
					 M91.1,53.8V54h0.2c0.1,0,0.2,0,0.2-0.1s-0.1-0.1-0.2-0.1L91.1,53.8L91.1,53.8z M91.5,54.2c0-0.1-0.1-0.1-0.2-0.1h-0.2v0.2h0.2
					C91.4,54.3,91.5,54.3,91.5,54.2z"/>
				<path d="M91.7,54.1c0-0.2,0.2-0.4,0.4-0.4s0.4,0.2,0.4,0.4s-0.2,0.4-0.4,0.4C91.9,54.4,91.7,54.3,91.7,54.1z M92.4,54.1
					c0-0.2-0.1-0.3-0.3-0.3c-0.2,0-0.3,0.1-0.3,0.3s0.1,0.3,0.3,0.3C92.2,54.3,92.4,54.2,92.4,54.1z"/>
				<path d="M92.6,53.7h0.3c0.2,0,0.4,0.2,0.4,0.4c0,0.2-0.2,0.4-0.4,0.4h-0.3V53.7z M92.9,54.3c0.2,0,0.3-0.1,0.3-0.3
					s-0.1-0.3-0.3-0.3h-0.2v0.5L92.9,54.3L92.9,54.3z"/>
				<path d="M93.7,54.2v0.2h-0.1v-0.2l-0.3-0.4h0.1L93.7,54.2l0.1-0.4H94L93.7,54.2z"/>
				<path d="M94.5,54L94.5,54L94,54.3v-0.1L94.5,54L94,54v-0.1L94.5,54z"/>
				<path d="M90.8,56.4l-0.4,0.1l0.4,0.1v0.1l-0.4-0.2v-0.1L90.8,56.4L90.8,56.4z"/>
				<path d="M91.6,56.2v0.7h-0.1v-0.3h-0.4v0.3H91v-0.7h0.1v0.3h0.4v-0.3H91.6z"/>
				<path d="M92,56.2v0.7h-0.1v-0.6h-0.2v-0.1H92z"/>
				<path d="M92.6,56.5L92.6,56.5l-0.4,0.2v-0.1L92.6,56.5l-0.4-0.1v-0.1L92.6,56.5z"/>
				<path d="M93.1,56.2L93.1,56.2l0.1,0.6h0.4v0.1h-0.5V56.2L93.1,56.2z"/>
				<path d="M93.6,56.6c0-0.2,0.1-0.3,0.3-0.3c0.2,0,0.3,0.1,0.3,0.3c0,0.2-0.1,0.3-0.3,0.3S93.6,56.7,93.6,56.6z M94.1,56.6
					c0-0.1-0.1-0.2-0.2-0.2s-0.2,0.1-0.2,0.2c0,0.1,0.1,0.2,0.2,0.2C94,56.8,94.1,56.7,94.1,56.6z"/>
				<path d="M94.6,56.3L94.6,56.3L94.6,56.3c-0.2,0.1-0.2,0.2-0.2,0.3v0.3h-0.1v-0.5h0.1v0.1C94.4,56.3,94.4,56.3,94.6,56.3z"/>
				<path d="M95.2,56.6h-0.4c0,0.1,0.1,0.2,0.2,0.2C95,56.8,95,56.7,95.2,56.6l0,0.1c0,0.1-0.1,0.1-0.2,0.1c-0.2,0-0.3-0.1-0.3-0.3
					s0.1-0.3,0.3-0.3C95.1,56.3,95.2,56.5,95.2,56.6C95.2,56.6,95.2,56.6,95.2,56.6z M94.7,56.5H95c0-0.1-0.1-0.2-0.2-0.2
					C94.8,56.4,94.7,56.5,94.7,56.5z"/>
				<path d="M96.2,56.5v0.3h-0.1L96.2,56.5c-0.1-0.1-0.2-0.2-0.2-0.2c-0.1,0-0.2,0.1-0.2,0.2v0.3h-0.1v-0.3c0-0.1-0.1-0.2-0.2-0.2
					c-0.1,0-0.2,0.1-0.2,0.2v0.3h-0.1v-0.5h0.1v0.1c0-0.1,0.1-0.1,0.2-0.1c0.1,0,0.2,0,0.2,0.1c0-0.1,0.1-0.1,0.2-0.1
					C96.1,56.3,96.2,56.4,96.2,56.5z"/>
				<path d="M96.6,56.2C96.6,56.1,96.7,56.1,96.6,56.2L96.6,56.2L96.6,56.2L96.6,56.2z M96.7,56.3L96.7,56.3l0.1,0.5h-0.1V56.3z"/>
				<path d="M97.5,56.6c0,0.2-0.1,0.3-0.3,0.3c-0.1,0-0.2,0-0.2-0.1v0.3h-0.1v-0.7H97v0.1c0-0.1,0.1-0.1,0.2-0.1
					C97.3,56.3,97.5,56.5,97.5,56.6z M97.4,56.6c0-0.1-0.1-0.2-0.2-0.2S97,56.5,97,56.6c0,0.1,0.1,0.2,0.2,0.2S97.4,56.7,97.4,56.6z
					"/>
				<path d="M97.5,56.8L97.5,56.8c0.1,0,0.2,0,0.2,0c0.1,0,0.2,0,0.2-0.1c0-0.1-0.4,0-0.4-0.2c0-0.1,0.1-0.2,0.2-0.2
					c0.1,0,0.2,0,0.2,0l0,0.1c0,0-0.1,0-0.2,0c-0.1,0-0.1,0-0.1,0.1c0,0.2,0.4,0,0.4,0.2c0,0.1-0.1,0.2-0.2,0.2
					C97.7,56.9,97.6,56.8,97.5,56.8z"/>
				<path d="M98.6,56.3v0.5h-0.1v-0.1c0,0.1-0.1,0.1-0.2,0.1c-0.1,0-0.2-0.1-0.2-0.2v-0.3h0.1v0.3c0,0.1,0.1,0.2,0.2,0.2
					c0.1,0,0.2-0.1,0.2-0.2L98.6,56.3L98.6,56.3L98.6,56.3z"/>
				<path d="M99.7,56.5v0.3h-0.1L99.7,56.5c-0.1-0.1-0.2-0.2-0.2-0.2c-0.1,0-0.2,0.1-0.2,0.2v0.3h-0.1v-0.3c0-0.1-0.1-0.2-0.2-0.2
					c-0.1,0-0.2,0.1-0.2,0.2v0.3h-0.1v-0.5h0.1v0.1c0-0.1,0.1-0.1,0.2-0.1c0.1,0,0.2,0,0.2,0.1c0-0.1,0.1-0.1,0.2-0.1
					C99.6,56.3,99.7,56.4,99.7,56.5z"/>
				<path d="M100.7,56.1v0.8h-0.1v-0.1c0,0.1-0.1,0.1-0.2,0.1c-0.2,0-0.3-0.1-0.3-0.3s0.1-0.3,0.3-0.3c0.1,0,0.2,0,0.2,0.1
					L100.7,56.1L100.7,56.1z M100.6,56.6c0-0.1-0.1-0.2-0.2-0.2s-0.2,0.1-0.2,0.2c0,0.1,0.1,0.2,0.2,0.2
					C100.5,56.8,100.6,56.7,100.6,56.6z"/>
				<path d="M100.8,56.6c0-0.2,0.1-0.3,0.3-0.3c0.2,0,0.3,0.1,0.3,0.3c0,0.2-0.1,0.3-0.3,0.3C100.9,56.9,100.8,56.7,100.8,56.6z
					 M101.3,56.6c0-0.1-0.1-0.2-0.2-0.2s-0.2,0.1-0.2,0.2c0,0.1,0.1,0.2,0.2,0.2S101.3,56.7,101.3,56.6z"/>
				<path d="M101.5,56.1L101.5,56.1l0.1,0.8h-0.1V56.1z"/>
				<path d="M101.7,56.6c0-0.2,0.1-0.3,0.3-0.3s0.3,0.1,0.3,0.3c0,0.2-0.1,0.3-0.3,0.3S101.7,56.7,101.7,56.6z M102.2,56.6
					c0-0.1-0.1-0.2-0.2-0.2s-0.2,0.1-0.2,0.2c0,0.1,0.1,0.2,0.2,0.2C102.1,56.8,102.2,56.7,102.2,56.6z"/>
				<path d="M102.7,56.3L102.7,56.3L102.7,56.3c-0.2,0.1-0.2,0.2-0.2,0.3v0.3h-0.1v-0.5h0.1v0.1C102.5,56.3,102.6,56.3,102.7,56.3z"
					/>
				<path d="M103,56.8L103,56.8c0.1,0,0.2,0,0.2,0c0.1,0,0.2,0,0.2-0.1c0-0.1-0.4,0-0.4-0.2c0-0.1,0.1-0.2,0.2-0.2
					c0.1,0,0.2,0,0.2,0l0,0.1c0,0-0.1,0-0.2,0c-0.1,0-0.1,0-0.1,0.1c0,0.2,0.4,0,0.4,0.2c0,0.1-0.1,0.2-0.2,0.2S103,56.8,103,56.8z"
					/>
				<path d="M103.6,56.2C103.6,56.1,103.6,56.1,103.6,56.2L103.6,56.2L103.6,56.2L103.6,56.2z M103.6,56.3L103.6,56.3l0.1,0.5h-0.1
					V56.3z"/>
				<path d="M104.1,56.8c0,0-0.1,0-0.1,0c-0.1,0-0.2-0.1-0.2-0.2v-0.3h-0.1v-0.1h0.1v-0.1h0.1v0.1h0.2v0.1h-0.2v0.3
					c0,0.1,0,0.1,0.1,0.1S104.1,56.8,104.1,56.8L104.1,56.8z"/>
				<path d="M104.9,56.5v0.3h-0.1v-0.1c0,0.1-0.1,0.1-0.2,0.1c-0.1,0-0.2-0.1-0.2-0.2c0-0.1,0-0.2,0.2-0.2L104.9,56.5L104.9,56.5
					c-0.1-0.1-0.1-0.1-0.2-0.1c-0.1,0-0.1,0-0.2,0.1l0,0c0,0,0.1-0.1,0.2-0.1C104.9,56.3,104.9,56.4,104.9,56.5z M104.9,56.7
					L104.9,56.7l-0.2-0.1c-0.1,0-0.1,0-0.1,0.1c0,0.1,0,0.1,0.1,0.1S104.8,56.8,104.9,56.7z"/>
				<path d="M106,56.5v0.3h-0.1L106,56.5c-0.1-0.1-0.2-0.2-0.2-0.2c-0.1,0-0.2,0.1-0.2,0.2v0.3h-0.1v-0.3c0-0.1-0.1-0.2-0.2-0.2
					c-0.1,0-0.2,0.1-0.2,0.2v0.3h-0.1v-0.5h0.1v0.1c0-0.1,0.1-0.1,0.2-0.1c0.1,0,0.2,0,0.2,0.1c0-0.1,0.1-0.1,0.2-0.1
					C105.9,56.3,106,56.4,106,56.5z"/>
				<path d="M106.7,56.6h-0.4c0,0.1,0.1,0.2,0.2,0.2C106.5,56.8,106.6,56.7,106.7,56.6l0,0.1c0,0.1-0.1,0.1-0.2,0.1
					c-0.2,0-0.3-0.1-0.3-0.3s0.1-0.3,0.3-0.3C106.6,56.3,106.7,56.5,106.7,56.6C106.7,56.6,106.7,56.6,106.7,56.6z M106.2,56.5h0.4
					c0-0.1-0.1-0.2-0.2-0.2C106.3,56.4,106.2,56.5,106.2,56.5z"/>
				<path d="M107.1,56.8c0,0-0.1,0-0.1,0c-0.1,0-0.2-0.1-0.2-0.2v-0.3h-0.1v-0.1h0.1v-0.1h0.1v0.1h0.2v0.1h-0.2v0.3
					c0,0.1,0,0.1,0.1,0.1C107,56.8,107.1,56.8,107.1,56.8L107.1,56.8z"/>
				<path d="M107.3,56.8C107.3,56.9,107.3,56.9,107.3,56.8l-0.1,0.2h0L107.3,56.8c-0.1,0-0.1,0-0.1,0
					C107.2,56.8,107.2,56.7,107.3,56.8C107.3,56.7,107.3,56.8,107.3,56.8z"/>
				<path d="M107.7,56.6c0-0.2,0.1-0.3,0.3-0.3c0.1,0,0.2,0,0.2,0.1l0,0c0,0-0.1-0.1-0.2-0.1C107.8,56.4,107.8,56.5,107.7,56.6
					c0.1,0.1,0.2,0.2,0.3,0.2c0.1,0,0.1,0,0.2-0.1l0,0c0,0.1-0.1,0.1-0.2,0.1C107.8,56.9,107.7,56.7,107.7,56.6z"/>
				<path d="M108.2,56.6c0-0.2,0.1-0.3,0.3-0.3c0.2,0,0.3,0.1,0.3,0.3c0,0.2-0.1,0.3-0.3,0.3C108.4,56.9,108.2,56.7,108.2,56.6z
					 M108.7,56.6c0-0.1-0.1-0.2-0.2-0.2s-0.2,0.1-0.2,0.2c0,0.1,0.1,0.2,0.2,0.2S108.7,56.7,108.7,56.6z"/>
				<path d="M109.4,56.5v0.3h-0.1L109.4,56.5c-0.1-0.1-0.2-0.2-0.2-0.2c-0.1,0-0.2,0.1-0.2,0.2v0.3h-0.1v-0.5h0.1v0.1
					c0-0.1,0.1-0.1,0.2-0.1C109.3,56.3,109.4,56.4,109.4,56.5z"/>
				<path d="M109.5,56.8L109.5,56.8c0.1,0,0.2,0,0.2,0c0.1,0,0.2,0,0.2-0.1c0-0.1-0.4,0-0.4-0.2c0-0.1,0.1-0.2,0.2-0.2
					c0.1,0,0.2,0,0.2,0l0,0.1c0,0-0.1,0-0.2,0c-0.1,0-0.1,0-0.1,0.1c0,0.2,0.4,0,0.4,0.2c0,0.1-0.1,0.2-0.2,0.2
					C109.7,56.9,109.6,56.8,109.5,56.8z"/>
				<path d="M110.6,56.6h-0.4c0,0.1,0.1,0.2,0.2,0.2C110.4,56.8,110.5,56.7,110.6,56.6l0,0.1c0,0.1-0.1,0.1-0.2,0.1
					c-0.2,0-0.3-0.1-0.3-0.3s0.1-0.3,0.3-0.3S110.6,56.5,110.6,56.6C110.6,56.6,110.6,56.6,110.6,56.6z M110.1,56.5h0.4
					c0-0.1-0.1-0.2-0.2-0.2C110.2,56.4,110.1,56.5,110.1,56.5z"/>
				<path d="M110.7,56.6c0-0.2,0.1-0.3,0.3-0.3c0.1,0,0.2,0,0.2,0.1l0,0c0,0-0.1-0.1-0.2-0.1C110.9,56.4,110.8,56.5,110.7,56.6
					c0.1,0.1,0.2,0.2,0.3,0.2c0.1,0,0.1,0,0.2-0.1l0,0c0,0.1-0.1,0.1-0.2,0.1C110.8,56.9,110.7,56.7,110.7,56.6z"/>
				<path d="M111.6,56.8c0,0-0.1,0-0.1,0c-0.1,0-0.2-0.1-0.2-0.2v-0.3h-0.1v-0.1h0.1v-0.1h0.1v0.1h0.2v0.1h-0.2v0.3
					c0,0.1,0,0.1,0.1,0.1C111.5,56.8,111.6,56.8,111.6,56.8L111.6,56.8z"/>
				<path d="M112.2,56.6h-0.4c0,0.1,0.1,0.2,0.2,0.2C112,56.8,112.1,56.7,112.2,56.6l0,0.1c0,0.1-0.1,0.1-0.2,0.1
					c-0.2,0-0.3-0.1-0.3-0.3s0.1-0.3,0.3-0.3S112.2,56.5,112.2,56.6C112.2,56.6,112.2,56.6,112.2,56.6z M111.7,56.5h0.4
					c0-0.1-0.1-0.2-0.2-0.2C111.8,56.4,111.8,56.5,111.7,56.5z"/>
				<path d="M112.6,56.8c0,0-0.1,0-0.1,0c-0.1,0-0.2-0.1-0.2-0.2v-0.3h-0.1v-0.1h0.1v-0.1h0.1v0.1h0.2v0.1h-0.2v0.3
					c0,0.1,0,0.1,0.1,0.1S112.6,56.8,112.6,56.8L112.6,56.8z"/>
				<path d="M113.3,56.3v0.5h-0.1v-0.1c0,0.1-0.1,0.1-0.2,0.1c-0.1,0-0.2-0.1-0.2-0.2v-0.3h0.1v0.3c0,0.1,0.1,0.2,0.2,0.2
					c0.1,0,0.2-0.1,0.2-0.2L113.3,56.3L113.3,56.3L113.3,56.3z"/>
				<path d="M113.9,56.6h-0.4c0,0.1,0.1,0.2,0.2,0.2C113.7,56.8,113.8,56.7,113.9,56.6l0,0.1c0,0.1-0.1,0.1-0.2,0.1
					c-0.2,0-0.3-0.1-0.3-0.3s0.1-0.3,0.3-0.3C113.8,56.3,113.9,56.5,113.9,56.6C113.9,56.6,113.9,56.6,113.9,56.6z M113.5,56.5h0.4
					c0-0.1-0.1-0.2-0.2-0.2C113.5,56.4,113.5,56.5,113.5,56.5z"/>
				<path d="M114.3,56.3L114.3,56.3L114.3,56.3c-0.2,0.1-0.2,0.2-0.2,0.3v0.3h-0.1v-0.5h0.1v0.1C114.1,56.3,114.2,56.3,114.3,56.3z"
					/>
				<path d="M90.8,57.8v0.3h-0.1V58c0,0.1-0.1,0.1-0.2,0.1c-0.1,0-0.2-0.1-0.2-0.2c0-0.1,0-0.2,0.2-0.2L90.8,57.8L90.8,57.8
					c-0.1-0.1-0.1-0.1-0.2-0.1c-0.1,0-0.1,0-0.2,0.1l0,0c0,0,0.1-0.1,0.2-0.1C90.7,57.6,90.8,57.6,90.8,57.8z M90.7,57.9L90.7,57.9
					l-0.2-0.1c-0.1,0-0.1,0-0.1,0.1c0,0.1,0,0.1,0.1,0.1S90.7,58,90.7,57.9z"/>
				<path d="M91.5,57.3v0.8h-0.1V58c0,0.1-0.1,0.1-0.2,0.1c-0.2,0-0.3-0.1-0.3-0.3s0.1-0.3,0.3-0.3c0.1,0,0.2,0,0.2,0.1L91.5,57.3
					L91.5,57.3z M91.4,57.8c0-0.1-0.1-0.2-0.2-0.2S91,57.7,91,57.8c0,0.1,0.1,0.2,0.2,0.2S91.4,58,91.4,57.8z"/>
				<path d="M91.6,57.4C91.6,57.4,91.7,57.4,91.6,57.4L91.6,57.4C91.7,57.4,91.7,57.4,91.6,57.4C91.7,57.4,91.6,57.4,91.6,57.4z
					 M91.7,57.6L91.7,57.6l0.1,0.5h-0.1V57.6z"/>
				<path d="M92.5,57.8c0,0.2-0.1,0.3-0.3,0.3c-0.1,0-0.2,0-0.2-0.1v0.3h-0.1v-0.7H92v0.1c0-0.1,0.1-0.1,0.2-0.1
					C92.4,57.6,92.5,57.7,92.5,57.8z M92.4,57.8c0-0.1-0.1-0.2-0.2-0.2S92,57.7,92,57.8c0,0.1,0.1,0.2,0.2,0.2S92.4,58,92.4,57.8z"
					/>
				<path d="M92.6,57.4C92.6,57.4,92.7,57.4,92.6,57.4L92.6,57.4C92.7,57.4,92.7,57.4,92.6,57.4C92.7,57.4,92.6,57.4,92.6,57.4z
					 M92.7,57.6L92.7,57.6l0.1,0.5h-0.1V57.6z"/>
				<path d="M92.9,58L92.9,58c0.1,0,0.2,0,0.2,0c0.1,0,0.2,0,0.2-0.1c0-0.1-0.4,0-0.4-0.2c0-0.1,0.1-0.2,0.2-0.2c0.1,0,0.2,0,0.2,0
					l0,0.1c0,0-0.1,0-0.2,0c-0.1,0-0.1,0-0.1,0.1c0,0.2,0.4,0,0.4,0.2c0,0.1-0.1,0.2-0.2,0.2C93,58.1,92.9,58.1,92.9,58z"/>
				<path d="M93.4,57.8c0-0.2,0.1-0.3,0.3-0.3c0.1,0,0.2,0,0.2,0.1l0,0c0,0-0.1-0.1-0.2-0.1C93.5,57.6,93.5,57.7,93.4,57.8
					c0.1,0.1,0.2,0.2,0.3,0.2c0.1,0,0.1,0,0.2-0.1l0,0c0,0.1-0.1,0.1-0.2,0.1C93.5,58.1,93.4,58,93.4,57.8z"/>
				<path d="M94,57.4C94,57.4,94,57.4,94,57.4L94,57.4C94,57.4,94,57.4,94,57.4C94,57.4,94,57.4,94,57.4z M94,57.6L94,57.6l0.1,0.5
					H94V57.6z"/>
				<path d="M94.8,57.8v0.3h-0.1L94.8,57.8c-0.1-0.1-0.2-0.2-0.2-0.2c-0.1,0-0.2,0.1-0.2,0.2v0.3h-0.1v-0.5h0.1v0.1
					c0-0.1,0.1-0.1,0.2-0.1C94.7,57.6,94.8,57.6,94.8,57.8z"/>
				<path d="M95.4,57.6V58c0,0.2-0.1,0.3-0.3,0.3c-0.1,0-0.2,0-0.2-0.1l0-0.1c0,0,0.1,0.1,0.2,0.1c0.1,0,0.2-0.1,0.2-0.2v-0.1
					c0,0.1-0.1,0.1-0.2,0.1c-0.2,0-0.3-0.1-0.3-0.3c0-0.2,0.1-0.3,0.3-0.3C95.2,57.5,95.3,57.5,95.4,57.6L95.4,57.6L95.4,57.6
					L95.4,57.6L95.4,57.6z M95.4,57.8c0-0.1-0.1-0.2-0.2-0.2S95,57.7,95,57.8c0,0.1,0.1,0.2,0.2,0.2C95.3,58,95.4,57.9,95.4,57.8z"
					/>
				<path d="M96.4,57.9h-0.4c0,0.1,0.1,0.2,0.2,0.2C96.2,58,96.3,58,96.4,57.9l0,0.1c0,0.1-0.1,0.1-0.2,0.1c-0.2,0-0.3-0.1-0.3-0.3
					c0-0.2,0.1-0.3,0.3-0.3C96.3,57.6,96.4,57.7,96.4,57.9C96.4,57.8,96.4,57.8,96.4,57.9z M95.9,57.8h0.4c0-0.1-0.1-0.2-0.2-0.2
					C96.1,57.6,95.9,57.7,95.9,57.8z"/>
				<path d="M96.5,57.3L96.5,57.3l0.1,0.8h-0.1V57.3z"/>
				<path d="M96.8,57.4C96.8,57.4,96.9,57.4,96.8,57.4C96.9,57.4,96.9,57.4,96.8,57.4C96.9,57.4,96.9,57.4,96.8,57.4
					C96.8,57.4,96.8,57.4,96.8,57.4z M96.8,57.6L96.8,57.6l0.1,0.5h-0.1V57.6z"/>
				<path d="M97.4,58c0,0-0.1,0-0.1,0c-0.1,0-0.2-0.1-0.2-0.2v-0.3H97v-0.1h0.1v-0.1h0.1v0.1h0.2v0.1h-0.2v0.3c0,0.1,0,0.1,0.1,0.1
					S97.3,58,97.4,58L97.4,58z"/>
				<path d="M97.6,58C97.6,58.1,97.6,58.1,97.6,58l-0.1,0.2h0L97.6,58c-0.1,0-0.1,0-0.1,0C97.5,58,97.5,58,97.6,58
					C97.5,58,97.6,58,97.6,58z"/>
				<path d="M97.9,58L97.9,58c0.1,0,0.2,0,0.2,0c0.1,0,0.2,0,0.2-0.1c0-0.1-0.4,0-0.4-0.2c0-0.1,0.1-0.2,0.2-0.2c0.1,0,0.2,0,0.2,0
					l0,0.1c0,0-0.1,0-0.2,0c-0.1,0-0.1,0-0.1,0.1c0,0.2,0.4,0,0.4,0.2c0,0.1-0.1,0.2-0.2,0.2C98.1,58.1,98,58.1,97.9,58z"/>
				<path d="M99,57.9h-0.4c0,0.1,0.1,0.2,0.2,0.2C98.8,58,98.8,58,99,57.9l0,0.1c0,0.1-0.1,0.1-0.2,0.1c-0.2,0-0.3-0.1-0.3-0.3
					c0-0.2,0.1-0.3,0.3-0.3C98.9,57.6,99,57.7,99,57.9C99,57.8,99,57.8,99,57.9z M98.5,57.8h0.4c0-0.1-0.1-0.2-0.2-0.2
					C98.6,57.6,98.5,57.7,98.5,57.8z"/>
				<path d="M99.6,57.3v0.8h-0.1V58c0,0.1-0.1,0.1-0.2,0.1c-0.2,0-0.3-0.1-0.3-0.3s0.1-0.3,0.3-0.3c0.1,0,0.2,0,0.2,0.1L99.6,57.3
					L99.6,57.3z M99.5,57.8c0-0.1-0.1-0.2-0.2-0.2c-0.1,0-0.2,0.1-0.2,0.2c0,0.1,0.1,0.2,0.2,0.2S99.5,58,99.5,57.8z"/>
				<path d="M100.6,57.3v0.8h-0.1V58c0,0.1-0.1,0.1-0.2,0.1c-0.2,0-0.3-0.1-0.3-0.3s0.1-0.3,0.3-0.3c0.1,0,0.2,0,0.2,0.1L100.6,57.3
					L100.6,57.3z M100.5,57.8c0-0.1-0.1-0.2-0.2-0.2s-0.2,0.1-0.2,0.2c0,0.1,0.1,0.2,0.2,0.2S100.5,58,100.5,57.8z"/>
				<path d="M100.7,57.4C100.7,57.4,100.8,57.4,100.7,57.4L100.7,57.4C100.8,57.4,100.8,57.4,100.7,57.4
					C100.8,57.4,100.7,57.4,100.7,57.4z M100.8,57.6L100.8,57.6l0.1,0.5h-0.1V57.6z"/>
				<path d="M101.5,57.8v0.3h-0.1V58c0,0.1-0.1,0.1-0.2,0.1c-0.1,0-0.2-0.1-0.2-0.2c0-0.1,0-0.2,0.2-0.2L101.5,57.8L101.5,57.8
					c-0.1-0.1-0.1-0.1-0.2-0.1c-0.1,0-0.1,0-0.2,0.1l0,0c0,0,0.1-0.1,0.2-0.1C101.4,57.6,101.5,57.6,101.5,57.8z M101.4,57.9
					L101.4,57.9l-0.2-0.1c-0.1,0-0.1,0-0.1,0.1c0,0.1,0,0.1,0.1,0.1S101.3,58,101.4,57.9z"/>
				<path d="M102.6,57.8v0.3h-0.1L102.6,57.8c-0.1-0.1-0.2-0.2-0.2-0.2c-0.1,0-0.2,0.1-0.2,0.2v0.3h-0.1v-0.3c0-0.1-0.1-0.2-0.2-0.2
					c-0.1,0-0.2,0.1-0.2,0.2v0.3h-0.1v-0.5h0.1v0.1c0-0.1,0.1-0.1,0.2-0.1c0.1,0,0.2,0,0.2,0.1c0-0.1,0.1-0.1,0.2-0.1
					C102.4,57.6,102.6,57.6,102.6,57.8z"/>
				<path d="M103.2,57.6l-0.4,0.1l0.4,0.1v0.1l-0.4-0.2v-0.1L103.2,57.6L103.2,57.6z"/>
				<path d="M103.5,57.2L103.5,57.2l-0.2,1h-0.1L103.5,57.2z"/>
				<path d="M104.3,57.4v0.7h-0.1v-0.3h-0.4v0.3h-0.1v-0.7h0.1v0.3h0.4v-0.3H104.3z"/>
				<path d="M104.7,57.4v0.7h-0.1L104.7,57.4l-0.2,0.1v-0.1H104.7z"/>
				<path d="M105.3,57.7L105.3,57.7l-0.4,0.2v-0.1L105.3,57.7l-0.4-0.1v-0.1L105.3,57.7z"/>
				<path d="M90.8,60.1l-0.4,0.1l0.4,0.1v0.1l-0.4-0.2v-0.1L90.8,60.1L90.8,60.1z"/>
				<path d="M91.6,60.1c0,0.2-0.1,0.2-0.3,0.2h-0.2v0.2H91v-0.7h0.3C91.4,59.8,91.6,59.9,91.6,60.1z M91.4,60.1
					c0-0.1-0.1-0.2-0.2-0.2h-0.2v0.3h0.2C91.4,60.2,91.4,60.2,91.4,60.1z"/>
				<path d="M92.1,60.1L92.1,60.1l-0.4,0.2v-0.1L92.1,60.1l-0.4-0.1V60L92.1,60.1z"/>
				<path d="M93,60.1l-0.4,0.1l0.4,0.1v0.1l-0.4-0.2v-0.1L93,60.1L93,60.1z"/>
				<path d="M93.2,59.8h0.1v0.7h-0.1V59.8z"/>
				<path d="M94.2,60.5V60l-0.3,0.4h0L93.5,60v0.5h-0.1v-0.7h0.1l0.3,0.5l0.3-0.5h0.1L94.2,60.5L94.2,60.5z"/>
				<path d="M95,60.2L95,60.2l0.1,0.3c-0.1,0.1-0.2,0.1-0.3,0.1c-0.2,0-0.4-0.2-0.4-0.4s0.2-0.4,0.4-0.4c0.1,0,0.2,0,0.3,0.1L95,60
					c-0.1-0.1-0.1-0.1-0.2-0.1c-0.2,0-0.3,0.1-0.3,0.3c0,0.2,0.1,0.3,0.3,0.3c0.1,0,0.1,0,0.2,0L95,60.2L95,60.2z"/>
				<path d="M95.4,60.5L95.4,60.5c0.1,0,0.2,0,0.3,0c0.1,0,0.2,0,0.2-0.1c0-0.2-0.4-0.1-0.4-0.3c0-0.1,0.1-0.2,0.3-0.2
					c0.1,0,0.2,0,0.2,0.1l0,0.1c-0.1,0-0.1-0.1-0.2-0.1c-0.1,0-0.2,0-0.2,0.1c0,0.2,0.4,0.1,0.4,0.3c0,0.1-0.1,0.2-0.3,0.2
					C95.6,60.5,95.5,60.5,95.4,60.5z"/>
				<path d="M96.7,60.5l-0.2-0.2c0,0,0,0,0,0h-0.2v0.2h-0.1v-0.7h0.3c0.2,0,0.3,0.1,0.3,0.2c0,0.1-0.1,0.2-0.2,0.2l0.2,0.2
					L96.7,60.5L96.7,60.5z M96.7,60.1c0-0.1-0.1-0.2-0.2-0.2h-0.2v0.3h0.2C96.6,60.2,96.7,60.2,96.7,60.1z"/>
				<path d="M96.9,60.2c0-0.2,0.2-0.4,0.4-0.4c0.1,0,0.2,0,0.3,0.1L97.4,60c-0.1-0.1-0.1-0.1-0.2-0.1C97.1,59.9,96.9,60.1,96.9,60.2
					c0.1,0.2,0.2,0.3,0.4,0.3c0.1,0,0.2,0,0.2-0.1l0.1,0.1c-0.1,0.1-0.2,0.1-0.3,0.1C97,60.5,96.9,60.4,96.9,60.2z"/>
				<path d="M97.6,60H98v0.1L97.6,60L97.6,60z M97.6,60.3H98v0.1L97.6,60.3L97.6,60.3z"/>
				<path d="M98.5,59.8L98.5,59.8l0.1,0.3h-0.1V59.8z M98.7,59.8L98.7,59.8l0.1,0.3h-0.1V59.8z"/>
				<path d="M98.9,59.8H99v0.6h0.4v0.1H99L98.9,59.8L98.9,59.8z"/>
				<path d="M99.4,60.3c0-0.2,0.1-0.3,0.3-0.3c0.2,0,0.3,0.1,0.3,0.3c0,0.2-0.1,0.3-0.3,0.3C99.6,60.5,99.4,60.4,99.4,60.3z
					 M99.9,60.3c0-0.1-0.1-0.2-0.2-0.2c-0.1,0-0.2,0.1-0.2,0.2c0,0.1,0.1,0.2,0.2,0.2C99.8,60.5,99.9,60.4,99.9,60.3z"/>
				<path d="M100.5,60L100.5,60L100.5,60c-0.2,0.1-0.2,0.2-0.2,0.2v0.3h-0.1v-0.6h0.1V60C100.3,60.1,100.4,60,100.5,60z"/>
				<path d="M101,60.3h-0.4c0,0.1,0.1,0.2,0.2,0.2C100.9,60.5,100.9,60.4,101,60.3l0,0.2c0,0.1-0.1,0.1-0.2,0.1
					c-0.2,0-0.3-0.1-0.3-0.3s0.1-0.3,0.3-0.3S101.1,60.1,101,60.3C101,60.3,101,60.3,101,60.3z M100.6,60.2h0.4
					c0-0.1-0.1-0.2-0.2-0.2S100.6,60.1,100.6,60.2z"/>
				<path d="M102.1,60.2v0.3H102L102.1,60.2c-0.1-0.1-0.1-0.2-0.2-0.2s-0.2,0.1-0.2,0.2v0.3h-0.1v-0.3c0-0.1,0-0.2-0.1-0.2
					c-0.1,0-0.2,0.1-0.2,0.2v0.3h-0.1v-0.6h0.1V60c0-0.1,0.1-0.1,0.2-0.1c0.1,0,0.2,0,0.2,0.1c0-0.1,0.1-0.1,0.2-0.1
					C102,60,102.1,60.1,102.1,60.2z"/>
				<path d="M102.5,59.9C102.5,59.8,102.6,59.8,102.5,59.9c0.1-0.1,0.2,0,0.2,0C102.7,59.9,102.6,59.9,102.5,59.9
					C102.6,59.9,102.5,59.9,102.5,59.9z M102.6,60L102.6,60l0.1,0.6h-0.1V60z"/>
				<path d="M103.4,60.3c0,0.2-0.1,0.3-0.3,0.3c-0.1,0-0.2,0-0.2-0.1v0.3h0V60h0.1v0.1c0-0.1,0.1-0.1,0.2-0.1
					C103.3,60,103.4,60.1,103.4,60.3z M103.3,60.3c0-0.1-0.1-0.2-0.2-0.2c-0.1,0-0.2,0.1-0.2,0.2c0,0.1,0.1,0.2,0.2,0.2
					C103.2,60.5,103.3,60.4,103.3,60.3z"/>
				<path d="M103.4,60.5L103.4,60.5c0.1,0,0.2,0,0.2,0c0.1,0,0.1,0,0.1-0.1c0-0.1-0.4,0-0.4-0.2c0-0.1,0.1-0.2,0.2-0.2
					c0.1,0,0.2,0,0.2,0l0,0.1c0,0-0.1,0-0.2,0c-0.1,0-0.1,0-0.1,0.1c0,0.1,0.4,0,0.4,0.2c0,0.1-0.1,0.2-0.2,0.2
					C103.6,60.5,103.5,60.5,103.4,60.5z"/>
				<path d="M104.5,60v0.6h-0.1v-0.1c0,0.1-0.1,0.1-0.2,0.1c-0.1,0-0.2-0.1-0.2-0.2V60h0.1v0.3c0,0.1,0,0.2,0.2,0.2s0.2-0.1,0.2-0.2
					L104.5,60L104.5,60L104.5,60z"/>
				<path d="M105.6,60.2v0.3h-0.1L105.6,60.2c-0.1-0.1-0.1-0.2-0.2-0.2s-0.2,0.1-0.2,0.2v0.3h-0.1v-0.3c0-0.1,0-0.2-0.1-0.2
					s-0.2,0.1-0.2,0.2v0.3h-0.1v-0.6h0.1V60c0-0.1,0.1-0.1,0.2-0.1c0.1,0,0.2,0,0.2,0.1c0-0.1,0.1-0.1,0.2-0.1
					C105.5,59.9,105.6,60.1,105.6,60.2z"/>
				<path d="M105.8,59.8L105.8,59.8l0.1,0.3h-0.1V59.8z M105.9,59.8L105.9,59.8l0.1,0.3h-0.1V59.8z"/>
				<path d="M106.6,60.1L106.6,60.1l-0.4,0.2v-0.1L106.6,60.1l-0.4-0.1V60L106.6,60.1z"/>
				<path d="M107.2,60.1l-0.4,0.1l0.4,0.1v0.1l-0.4-0.2v-0.1L107.2,60.1L107.2,60.1z"/>
				<path d="M107.6,59.7L107.6,59.7l-0.2,1h-0.1L107.6,59.7z"/>
				<path d="M108.3,60.1c0,0.2-0.1,0.2-0.3,0.2h-0.2v0.2h-0.1v-0.7h0.3C108.2,59.8,108.3,59.9,108.3,60.1z M108.2,60.1
					c0-0.1-0.1-0.2-0.2-0.2h-0.2v0.3h0.2C108.2,60.2,108.2,60.2,108.2,60.1z"/>
				<path d="M108.9,60.1L108.9,60.1l-0.4,0.2v-0.1L108.9,60.1l-0.4-0.1V60L108.9,60.1z"/>
				<path d="M90.8,62.5l-0.4,0.1l0.4,0.1v0.1l-0.4-0.2v-0.1L90.8,62.5L90.8,62.5z"/>
				<path d="M91.2,62.1L91.2,62.1l-0.3,1h-0.1L91.2,62.1z"/>
				<path d="M92,62.8c0,0.1-0.1,0.2-0.3,0.2h-0.3v-0.7h0.3c0.2,0,0.3,0.1,0.3,0.2c0,0.1,0,0.1-0.1,0.2C91.9,62.6,92,62.7,92,62.8z
					 M91.4,62.4v0.2h0.2c0.1,0,0.2,0,0.2-0.1s-0.1-0.1-0.2-0.1L91.4,62.4L91.4,62.4z M91.9,62.8c0-0.1-0.1-0.1-0.2-0.1h-0.2v0.2h0.2
					C91.8,62.9,91.9,62.9,91.9,62.8z"/>
				<path d="M92.1,62.6c0-0.2,0.2-0.4,0.4-0.4c0.2,0,0.4,0.2,0.4,0.4S92.6,63,92.4,63C92.2,63,92.1,62.8,92.1,62.6z M92.7,62.6
					c0-0.2-0.1-0.3-0.3-0.3c-0.2,0-0.3,0.1-0.3,0.3s0.1,0.3,0.3,0.3C92.6,62.9,92.7,62.8,92.7,62.6z"/>
				<path d="M93,62.3h0.3c0.2,0,0.4,0.2,0.4,0.4S93.5,63,93.3,63H93V62.3z M93.3,62.9c0.2,0,0.3-0.1,0.3-0.3c0-0.2-0.1-0.3-0.3-0.3
					h-0.2v0.5L93.3,62.9L93.3,62.9z"/>
				<path d="M94.1,62.8V63H94v-0.2l-0.3-0.4h0.1L94.1,62.8l0.1-0.4h0.1L94.1,62.8z"/>
				<path d="M94.9,62.6L94.9,62.6l-0.4,0.2v-0.1L94.9,62.6l-0.4-0.1v-0.1L94.9,62.6z"/>
			</g>
			<g>
				<g>
					<path class="st8" d="M118.3,43.4c0,0-7.1,0.1-15.8,0.1s-15.8,0-15.8-0.1c0,0,7.1-0.1,15.8-0.1S118.3,43.3,118.3,43.4z"/>
				</g>
			</g>
			<g>
				<g>
					<path class="st8" d="M87.7,42.2c0,0.1-0.1,0.2-0.2,0.2s-0.2-0.1-0.2-0.2s0.1-0.2,0.2-0.2C87.6,42,87.7,42.1,87.7,42.2z"/>
				</g>
				<g>
					<circle class="st8" cx="88.3" cy="42.2" r="0.2"/>
				</g>
				<g>
					<path class="st8" d="M89.2,42.2c0,0.1-0.1,0.2-0.2,0.2c-0.1,0-0.2-0.1-0.2-0.2S88.9,42,89,42C89.1,42,89.2,42.1,89.2,42.2z"/>
				</g>
			</g>
			<g>
				<g>
					<path class="st3" d="M88.7,67.2c0,0-0.1-5.4-0.1-12s0-12,0.1-12s0.1,5.4,0.1,12C88.8,61.9,88.7,67.2,88.7,67.2z"/>
				</g>
			</g>
		</g>
		<g>
			<g>
				<g>
					<g>
						<rect x="44.5" y="20.1" class="st9" width="13" height="9.3"/>
					</g>
				</g>
				<g>
					<g>
						<g>
							<path class="st2" d="M57.6,21.5c0,0-2.9,0.1-6.6,0.1c-3.6,0-6.6,0-6.6-0.1c0,0,2.9-0.1,6.6-0.1
								C54.7,21.4,57.6,21.4,57.6,21.5z"/>
						</g>
					</g>
				</g>
				<g>
					<g>
						<g>
							<path class="st2" d="M45.6,20.8c0,0.1-0.1,0.2-0.2,0.2c-0.1,0-0.2-0.1-0.2-0.2s0.1-0.2,0.2-0.2
								C45.5,20.7,45.6,20.7,45.6,20.8z"/>
						</g>
					</g>
					<g>
						<g>
							<path class="st2" d="M46.2,20.8c0,0.1-0.1,0.2-0.2,0.2c-0.1,0-0.2-0.1-0.2-0.2s0.1-0.2,0.2-0.2
								C46.1,20.6,46.2,20.7,46.2,20.8z"/>
						</g>
					</g>
					<g>
						<g>
							<ellipse class="st2" cx="46.7" cy="20.8" rx="0.2" ry="0.2"/>
						</g>
					</g>
				</g>
			</g>
			<g>
				<g>
					<path class="st2" d="M49.3,25.2c0,0.6-0.4,0.9-1.1,0.9h-0.7v0.8h-0.3v-2.6h1C48.9,24.3,49.3,24.6,49.3,25.2z M49.1,25.2
						c0-0.4-0.3-0.6-0.8-0.6h-0.7v1.3h0.7C48.8,25.8,49.1,25.6,49.1,25.2z"/>
				</g>
				<g>
					<path class="st2" d="M52.1,24.3v2.6h-0.3v-1.2h-1.7v1.2h-0.2v-2.6h0.3v1.2h1.7v-1.2H52.1z"/>
				</g>
				<g>
					<path class="st2" d="M55,25.2c0,0.6-0.4,0.9-1.1,0.9h-0.7v0.8H53v-2.6h1C54.7,24.3,55,24.6,55,25.2z M54.7,25.2
						c0-0.4-0.3-0.6-0.8-0.6h-0.7v1.3h0.7C54.5,25.8,54.7,25.6,54.7,25.2z"/>
				</g>
			</g>
		</g>
		<g>
			<g>
				<g>
					<rect x="115.5" y="55.7" class="st9" width="11.8" height="8.4"/>
				</g>
			</g>
			<g>
				<g>
					<path class="st2" d="M119.4,59.6v1.7H119v-0.6h-0.8v0.7h-0.4v-1.7h0.4v0.6h0.8v-0.6L119.4,59.6L119.4,59.6z"/>
				</g>
				<g>
					<path class="st2" d="M120.2,59.9h-0.5v-0.3h1.5v0.3h-0.5v1.3h-0.4L120.2,59.9L120.2,59.9z"/>
				</g>
				<g>
					<path class="st2" d="M121.3,59.6h0.4v1.3h0.8v0.3h-1.3V59.6L121.3,59.6z"/>
				</g>
				<g>
					<path class="st2" d="M124.3,61.3v-1l-0.5,0.8h-0.2l-0.5-0.8v1h-0.4v-1.7h0.3l0.6,1.1l0.6-1.1h0.3v1.7L124.3,61.3L124.3,61.3z"
						/>
				</g>
			</g>
			<g>
				<g>
					<g>
						<g>
							<path class="st2" d="M127.4,56.9c0,0-2.7,0-5.9,0c-3.3,0-5.9,0-5.9,0s2.7,0,5.9,0C124.7,56.9,127.4,56.9,127.4,56.9z"/>
						</g>
					</g>
				</g>
				<g>
					<g>
						<g>
							<path class="st2" d="M116.4,56.3c0,0.1-0.1,0.1-0.2,0.1s-0.2-0.1-0.2-0.1c0-0.1,0.1-0.1,0.2-0.1
								C116.3,56.2,116.4,56.2,116.4,56.3z"/>
						</g>
					</g>
					<g>
						<g>
							<path class="st2" d="M117,56.3c0,0.1-0.1,0.1-0.2,0.1c-0.1,0-0.2-0.1-0.2-0.1c0-0.1,0.1-0.1,0.2-0.1
								C116.9,56.2,117,56.2,117,56.3z"/>
						</g>
					</g>
					<g>
						<g>
							<path class="st2" d="M117.6,56.3c0,0.1-0.1,0.1-0.2,0.1c-0.1,0-0.2-0.1-0.2-0.1c0-0.1,0.1-0.1,0.2-0.1
								C117.5,56.2,117.6,56.2,117.6,56.3z"/>
						</g>
					</g>
				</g>
			</g>
		</g>
		<g>
			<g>
				<g>
					<rect x="38.3" y="55.6" class="st9" width="8.7" height="6.2"/>
				</g>
			</g>
			<g>
				<g>
					<g>
						<g>
							<path class="st2" d="M47,56.5c0,0-2,0-4.4,0c-2.4,0-4.4,0-4.4,0s2,0,4.4,0C45,56.5,47,56.5,47,56.5z"/>
						</g>
					</g>
				</g>
				<g>
					<g>
						<g>
							<path class="st2" d="M38.9,56c0,0.1,0,0.1-0.1,0.1c-0.1,0-0.1,0-0.1-0.1s0-0.1,0.1-0.1C38.9,55.9,38.9,56,38.9,56z"/>
						</g>
					</g>
					<g>
						<g>
							<path class="st2" d="M39.4,56c0,0.1,0,0.1-0.1,0.1c-0.1,0-0.1,0-0.1-0.1s0-0.1,0.1-0.1C39.3,55.9,39.4,56,39.4,56z"/>
						</g>
					</g>
					<g>
						<g>
							<path class="st2" d="M39.8,56c0,0.1,0,0.1-0.1,0.1c-0.1,0-0.1,0-0.1-0.1s0-0.1,0.1-0.1C39.7,55.9,39.8,56,39.8,56z"/>
						</g>
					</g>
				</g>
			</g>
		</g>
		<g>
			<g>
				<g>
					<path class="st9" d="M90.1,31.7c0-0.9,0.7-1.7,1.7-1.7c0.4,0,0.9,0.2,1.2,0.4l-0.2,0.2c-0.3-0.3-0.6-0.4-1-0.4
						c-0.8,0-1.5,0.6-1.5,1.4S91,33,91.8,33c0.4,0,0.7-0.1,1-0.4l0.2,0.2c-0.3,0.3-0.7,0.4-1.2,0.4C90.8,33.3,90.1,32.6,90.1,31.7z"
						/>
				</g>
				<g>
					<path class="st9" d="M93.3,32.9l0.1-0.2c0.2,0.2,0.6,0.4,1.1,0.4c0.6,0,0.9-0.3,0.9-0.6c0-1-2-0.4-2-1.6c0-0.4,0.4-0.8,1.1-0.8
						c0.4,0,0.7,0.1,1,0.3l-0.1,0.2c-0.3-0.2-0.6-0.3-0.9-0.3c-0.6,0-0.9,0.3-0.9,0.6c0,1,2,0.4,2,1.6c0,0.4-0.4,0.8-1.2,0.8
						C94.1,33.3,93.6,33.2,93.3,32.9z"/>
				</g>
				<g>
					<path class="st9" d="M96.2,32.9l0.1-0.2c0.2,0.2,0.6,0.4,1.1,0.4c0.6,0,0.9-0.3,0.9-0.6c0-1-2-0.4-2-1.6c0-0.4,0.4-0.8,1.1-0.8
						c0.4,0,0.7,0.1,1,0.3l-0.1,0.2c-0.3-0.2-0.6-0.3-0.9-0.3c-0.6,0-0.9,0.3-0.9,0.6c0,1,2,0.4,2,1.6c0,0.4-0.4,0.8-1.2,0.8
						C96.9,33.3,96.4,33.2,96.2,32.9z"/>
				</g>
			</g>
			<g>
				<g>
					<g>
						<g>
							<path class="st9" d="M101.3,35.9c0,0,0-0.1,0-0.2c0-0.1,0-0.3,0-0.5c0-0.4,0-1.1,0-1.9c0-1.6,0-4,0-6.8l0,0c-4,0-9,0-14.5,0
								l0,0l0.1-0.1c0,3.3,0,6.5,0,9.4l0,0c4.2,0,7.9,0,10.4,0c1.3,0,2.3,0,3,0c0.4,0,0.6,0,0.8,0C101.1,35.9,101.2,35.9,101.3,35.9
								C101.3,35.9,101.3,35.9,101.3,35.9S101.3,35.9,101.3,35.9c-0.1,0-0.2,0-0.3,0c-0.2,0-0.4,0-0.8,0c-0.7,0-1.7,0-3,0
								c-2.6,0-6.2,0-10.5,0h0v0c0-2.9,0-6,0-9.4v-0.1h0.1l0,0c5.5,0,10.5,0,14.5,0h0v0c0,2.9,0,5.2,0,6.9c0,0.8,0,1.4,0,1.9
								c0,0.2,0,0.4,0,0.5C101.3,35.9,101.3,35.9,101.3,35.9z"/>
						</g>
					</g>
				</g>
				<g>
					<g>
						<g>
							<path class="st9" d="M101.3,27.9c0,0-3.3,0.1-7.3,0.1s-7.3,0-7.3-0.1c0,0,3.3-0.1,7.3-0.1C98.1,27.9,101.3,27.9,101.3,27.9z"
								/>
						</g>
					</g>
				</g>
				<g>
					<g>
						<g>
							<path class="st9" d="M87.9,27.3c0,0.1-0.1,0.2-0.2,0.2s-0.2-0.1-0.2-0.2s0.1-0.2,0.2-0.2S87.9,27.1,87.9,27.3z"/>
						</g>
					</g>
					<g>
						<g>
							<path class="st9" d="M88.5,27.3c0,0.1-0.1,0.2-0.2,0.2s-0.2-0.1-0.2-0.2s0.1-0.2,0.2-0.2S88.5,27.1,88.5,27.3z"/>
						</g>
					</g>
					<g>
						<g>
							<path class="st9" d="M89.2,27.3c0,0.1-0.1,0.2-0.2,0.2c-0.1,0-0.2-0.1-0.2-0.2s0.1-0.2,0.2-0.2S89.2,27.1,89.2,27.3z"/>
						</g>
					</g>
				</g>
			</g>
		</g>
	</g>
	<g id="Character">
		<g>
			<g>
				<g>
					<g>
						<g>
							<g>
								<path class="st10" d="M59.4,67.9l5.7,19.4c0.3,0.8,1.1,1.5,1.9,1.5l23.3,0.1c1.3,0,2.2-1.1,2.1-2.3l0,0
									c-0.1-1.1-1-2.1-2.1-2.1h-8.9l-7.1-20H61.9C60.1,64.6,58.9,66.3,59.4,67.9z"/>
							</g>
						</g>
					</g>
					<g>
						<g>
							<g>
								<g>
									<path class="st8" d="M79.2,86.1c0,0-2.4,0.1-5.3,0.1c-2.9,0-5.3,0-5.3-0.1c0,0,2.4-0.1,5.3-0.1
										C76.8,86.1,79.2,86.1,79.2,86.1z"/>
								</g>
							</g>
						</g>
					</g>
					<g>
						<g>
							<g>
								<g>
									<path class="st8" d="M61.1,65.3c0,0,1.6,4.6,3.6,10.4c1.9,5.7,3.4,10.4,3.4,10.4c0,0-1.6-4.6-3.6-10.4
										C62.6,70,61.1,65.3,61.1,65.3z"/>
								</g>
							</g>
						</g>
					</g>
				</g>
				<g>
					<polygon class="st10" points="78.2,106.1 76.8,106 76.8,88.8 78.2,88.8 					"/>
				</g>
				<g>
					<polygon class="st10" points="70.8,106 84.1,106 78.1,103.9 76.7,103.9 					"/>
				</g>
			</g>
			<g>
				<g>
					<g>
						<g>
							<g>
								<g>
									<g>
										<g>
											<path class="st9" d="M67.5,60.2l2.2,10.9l-0.4,8.2L84,76.9l-0.6-7.2l0-5.9l3.6,7l2.8-5.5l-5.2-9.3l0,0
												c-0.9-1-2.1-1.7-3.4-2.2c-0.6-0.2-1.3-0.4-2.1-0.4l0,0c-1.7,0.5-3.4,0.5-5.1,0c-0.2,0-0.5,0-0.8,0.1c0,0,0,0-0.1,0
												c-3.1,0.4-5.5,3-5.7,6.1L67.5,60.2z"/>
										</g>
									</g>
								</g>
							</g>
						</g>
						<g>
							<g>
								<g>
									<path class="st9" d="M73.3,53.5c0,0-6.1,0-6.8,6.4l-0.1,4.7l5.2,0L73.3,53.5z"/>
								</g>
							</g>
						</g>
					</g>
				</g>
				<g>
					<g>
						<g>
							<g>
								<path class="st11" d="M87.7,61.8c0,0-4.8,0.1-10.6,0.1c-5.9,0-10.6,0-10.6-0.1c0,0,4.8-0.1,10.6-0.1
									C83,61.6,87.7,61.7,87.7,61.8z"/>
							</g>
						</g>
					</g>
				</g>
				<g>
					<g>
						<g>
							<g>
								<path class="st11" d="M87.7,62.8c0,0-4.8,0.1-10.6,0.1c-5.9,0-10.6,0-10.6-0.1s4.8-0.1,10.6-0.1
									C83,62.7,87.7,62.7,87.7,62.8z"/>
							</g>
						</g>
					</g>
				</g>
				<g>
					<g>
						<g>
							<g>
								<path class="st11" d="M87.4,60.9c0,0-4.7,0.1-10.5,0.1c-5.8,0-10.5,0-10.5-0.1s4.7-0.1,10.5-0.1
									C82.7,60.8,87.4,60.9,87.4,60.9z"/>
							</g>
						</g>
					</g>
				</g>
				<g>
					<g>
						<g>
							<g>
								<path class="st8" d="M83.4,70.8c0,0,0-2.6,0-5.8c0.1-3.2,0.2-5.8,0.2-5.8s0,2.6,0,5.8C83.5,68.2,83.4,70.8,83.4,70.8z"/>
							</g>
						</g>
					</g>
				</g>
				<g>
					<g>
						<g>
							<path class="st12" d="M81.3,66.6c0,0,2.9,0.2,3.4,1c0.5,0.8,1.3,2.9,1,2.9c-0.3,0-0.5-0.2-0.5-0.2l-0.8-1.4
								c0,0,0.1,1.3-0.4,1.4c-0.4,0-2.8,0.5-2.8,0.5L81.3,66.6z"/>
						</g>
					</g>
				</g>
				<g>
					<g>
						<g>
							<path class="st9" d="M66.4,63.4v7.4c0.1,1.7,1.7,2.9,3.4,2.6L81.3,71l0-4.7l-10,1.9l-0.1-5L66.4,63.4z"/>
						</g>
					</g>
				</g>
				<g>
					<g>
						<g>
							<g>
								<path class="st8" d="M73,72.8c0,0,0,0,0.2,0c0.1,0,0.3-0.1,0.4-0.1c0.4-0.1,1-0.2,1.7-0.4c1.5-0.3,3.6-0.7,6-1.3l-0.1,0.1
									c0-1.5,0-3.1,0-4.9l0.1,0.1c-0.6,0.1-1.3,0.3-2,0.4c-2.9,0.6-5.7,1.1-7.9,1.5l-0.1,0v-0.1c0.1-2.2,0.1-4,0.2-5.3
									c0-0.6,0-1.1,0.1-1.5c0-0.2,0-0.3,0-0.4c0-0.1,0-0.1,0-0.1s0,0,0,0.1c0,0.1,0,0.2,0,0.4c0,0.4,0,0.8,0,1.5
									c0,1.3-0.1,3.1-0.1,5.3l-0.1-0.1c2.3-0.4,5-1,7.9-1.5c0.7-0.1,1.4-0.3,2-0.4l0.1,0v0.1c0,1.7,0,3.4,0,4.9v0.1l-0.1,0
									c-2.5,0.5-4.5,0.9-6,1.2c-0.7,0.1-1.3,0.2-1.7,0.3c-0.2,0-0.3,0.1-0.4,0.1C73,72.8,73,72.8,73,72.8z"/>
							</g>
						</g>
					</g>
				</g>
				<g>
					<g>
						<g>
							<g>
								<path class="st8" d="M79.6,53.5c0,0,0,0,0,0.1c0,0.1,0.1,0.2,0.1,0.3c0.1,0.3,0.1,0.7,0,1.3c-0.1,0.5-0.5,1.1-1,1.5
									c-0.5,0.5-1.3,0.8-2.1,0.8c-0.8,0-1.6-0.3-2.1-0.8c-0.5-0.5-0.7-1.1-0.8-1.7c-0.1-0.5,0-1,0.2-1.3c0-0.1,0.1-0.2,0.2-0.3
									c0-0.1,0.1-0.1,0.1-0.1c0,0-0.1,0.2-0.2,0.4c-0.1,0.3-0.2,0.7-0.1,1.2c0.1,0.5,0.3,1.1,0.8,1.6c0.4,0.5,1.2,0.8,2,0.8
									c0.8,0,1.5-0.3,2-0.8c0.5-0.4,0.8-1,1-1.5c0.2-0.5,0.1-0.9,0.1-1.2C79.6,53.7,79.6,53.5,79.6,53.5z"/>
							</g>
						</g>
					</g>
				</g>
				<g>
					<g>
						<g>
							<g>
								<path class="st11" d="M80.1,71.4c0,0,0-0.3,0-0.7c0-0.4,0-1.1,0-1.7c0-0.7,0-1.3,0-1.7c0-0.4,0-0.7,0-0.7s0.1,0.3,0.1,0.7
									c0,0.4,0.1,1.1,0.1,1.8s0,1.3-0.1,1.8C80.2,71.1,80.2,71.4,80.1,71.4z"/>
							</g>
						</g>
					</g>
				</g>
				<g>
					<g>
						<g>
							<g>
								<path class="st11" d="M79.5,71.5c0,0,0-0.3,0-0.7c0-0.5,0-1.1,0-1.7s0-1.3,0-1.7c0-0.4,0-0.7,0-0.7c0,0,0.1,0.3,0.1,0.7
									c0,0.4,0,1.1,0,1.7c0,0.7,0,1.3-0.1,1.7C79.6,71.2,79.6,71.5,79.5,71.5z"/>
							</g>
						</g>
					</g>
				</g>
			</g>
			<g>
				<g>
					<g>
						<g>
							<path class="st9" d="M91.1,100.8l2.2,6l3.1,4.2c0.2,0.3,0.1,0.8-0.2,0.9l0,0c-0.2,0.1-0.4,0.1-0.6,0c-1.3-0.5-5.8-2.5-6-2.9
								c-0.2-0.5-3.1-7-3.1-7L91.1,100.8z"/>
						</g>
					</g>
					<g class="st13">
						<g>
							<path class="st2" d="M96.2,112l-6.7-3.2l0.1,0.2c0.1,0.2,0.2,0.4,0.4,0.5c0.6,0.3,2.1,1.1,5.5,2.5
								C95.8,112.2,96,112.2,96.2,112L96.2,112z"/>
						</g>
					</g>
					<g class="st13">
						<g>
							<g>
								<path class="st2" d="M90,106.4c0.2,0,0.3,0.2,0.3,0.4c0,0.2-0.2,0.3-0.4,0.3c-0.2,0-0.4-0.3-0.3-0.4
									C89.5,106.5,89.8,106.3,90,106.4"/>
							</g>
						</g>
					</g>
					<g>
						<g>
							<g>
								<path class="st8" d="M93.8,109.9c0,0,0-0.4,0.4-0.6c0.3-0.3,0.6-0.4,0.6-0.4s-0.1,0-0.2,0c-0.2,0-0.3,0.1-0.5,0.3
									c-0.2,0.2-0.2,0.4-0.3,0.5C93.8,109.9,93.8,109.9,93.8,109.9z"/>
							</g>
						</g>
					</g>
					<g>
						<g>
							<g>
								<path class="st8" d="M94.6,110.6c0,0,0.2-0.3,0.4-0.4c0.3-0.2,0.6-0.3,0.6-0.3c0,0-0.3,0-0.6,0.2
									C94.6,110.3,94.5,110.6,94.6,110.6z"/>
							</g>
						</g>
					</g>
					<g>
						<g>
							<g>
								<path class="st8" d="M92.7,109.3c0,0,0.2-0.4,0.6-0.8c0.4-0.4,0.8-0.5,0.8-0.6c0,0-0.5,0-0.9,0.4
									C92.7,108.8,92.6,109.2,92.7,109.3z"/>
							</g>
						</g>
					</g>
					<g>
						<g>
							<g>
								<path class="st8" d="M91.9,107.4c0,0,0.3-0.2,0.7-0.4c0.4-0.2,0.8-0.2,0.8-0.2s-0.4-0.1-0.8,0.1
									C92.1,107.1,91.8,107.4,91.9,107.4z"/>
							</g>
						</g>
					</g>
					<g>
						<g>
							<g>
								<path class="st8" d="M91.2,105.7c0,0,0.3-0.3,0.8-0.4c0.4-0.2,0.8-0.1,0.8-0.1c0,0-0.1-0.1-0.3-0.1c-0.2,0-0.4,0-0.6,0.1
									c-0.2,0.1-0.4,0.2-0.6,0.4C91.2,105.6,91.1,105.7,91.2,105.7z"/>
							</g>
						</g>
					</g>
					<g>
						<g>
							<g>
								<path class="st8" d="M91.7,104.9c0,0,0-0.1-0.1-0.2c-0.1-0.1-0.2-0.3-0.4-0.5c-0.1-0.1-0.2-0.2-0.4-0.2
									c-0.1,0-0.2,0.1-0.3,0.2c0,0.1,0,0.2,0,0.3c0.2,0.4,0.6,0.6,1.1,0.5c0.4-0.1,0.7-0.5,0.8-0.9c0-0.1,0-0.2-0.1-0.3
									c-0.1-0.1-0.2-0.1-0.3,0c-0.2,0.1-0.2,0.2-0.3,0.4c-0.1,0.2-0.2,0.4-0.2,0.6c0,0.2,0,0.2,0,0.2c0,0,0-0.4,0.3-0.8
									c0.1-0.1,0.2-0.2,0.3-0.3c0.1,0,0.1,0,0.2,0c0,0,0.1,0.1,0,0.2c0,0.3-0.3,0.7-0.7,0.8c-0.4,0.1-0.8-0.1-0.9-0.4
									c0-0.1,0-0.2,0-0.2s0.1-0.1,0.1-0.1c0.1,0,0.3,0.1,0.4,0.2C91.6,104.6,91.7,104.9,91.7,104.9z"/>
							</g>
						</g>
					</g>
				</g>
			</g>
			<g>
				<g>
					<g>
						<path class="st9" d="M100.3,99.2l-0.2,4.9c0,0,4.9,1.8,5,2.7l-9.5,0l0-7.6L100.3,99.2z"/>
					</g>
					<g class="st13">
						<g>
							<path class="st2" d="M97.2,103.7c-0.2,0-0.3,0.3-0.3,0.4c0,0.2,0.2,0.3,0.4,0.3c0.2,0,0.4-0.3,0.3-0.4
								C97.6,103.8,97.3,103.6,97.2,103.7"/>
						</g>
					</g>
					<g class="st13">
						<path class="st2" d="M95.6,106.8v-0.8l9.1,0.3c0,0,0.4,0.2,0.4,0.5L95.6,106.8z"/>
					</g>
					<g>
						<g>
							<path class="st8" d="M100.3,104.1c0,0-0.2,0.1-0.4,0.2c-0.2,0.1-0.4,0.4-0.4,0.3c0,0,0-0.3,0.3-0.4
								C100,104,100.3,104,100.3,104.1z"/>
						</g>
					</g>
					<g>
						<g>
							<path class="st8" d="M101.3,104.5c0,0-0.2,0.1-0.4,0.3c-0.2,0.2-0.2,0.4-0.2,0.4c0,0-0.1-0.3,0.1-0.5
								C101,104.4,101.3,104.4,101.3,104.5z"/>
						</g>
					</g>
					<g>
						<g>
							<path class="st8" d="M101.8,105.7c0,0-0.1-0.2,0-0.5c0.1-0.3,0.3-0.4,0.4-0.3s-0.1,0.2-0.2,0.4
								C101.9,105.5,101.9,105.7,101.8,105.7z"/>
						</g>
					</g>
					<g>
						<g>
							<path class="st8" d="M100.2,103c0,0-0.2,0-0.5,0c-0.3,0-0.4,0.1-0.5,0.1c0,0,0.2-0.2,0.5-0.2
								C100,102.8,100.2,102.9,100.2,103z"/>
						</g>
					</g>
				</g>
				<g class="st4">
					<polygon points="100.3,100.2 100.3,101.1 95.6,101 95.6,100.2 					"/>
				</g>
				<g>
					<g>
						<path class="st8" d="M100.2,102c0,0-0.2,0-0.5,0c-0.2,0-0.3-0.1-0.5-0.2c-0.1,0-0.2-0.1-0.3-0.2c0,0-0.1-0.1-0.1-0.1
							c0,0-0.1-0.2,0-0.2s0.1-0.1,0.2-0.1c0.1,0,0.1,0,0.2,0c0.1,0,0.2,0.1,0.3,0.1c0.2,0.1,0.3,0.2,0.4,0.3
							C100,101.8,100.1,102,100.2,102c-0.1,0.1-0.2-0.1-0.4-0.3c-0.1-0.1-0.3-0.2-0.4-0.2c-0.1,0-0.2-0.1-0.3-0.1
							c-0.1,0-0.2,0-0.2,0c0,0,0,0,0,0c0,0,0.1,0,0.1,0.1c0.1,0,0.2,0.1,0.2,0.2c0.2,0.1,0.3,0.1,0.4,0.2
							C100,101.9,100.2,101.9,100.2,102z"/>
					</g>
				</g>
				<g>
					<g>
						<path class="st8" d="M100.2,102c0,0-0.1-0.2-0.1-0.4c0-0.2,0-0.3,0.1-0.5c0-0.1,0.1-0.2,0.1-0.3c0.1-0.1,0.1-0.2,0.3-0.2
							c0.1,0,0.2,0.1,0.2,0.1c0,0.1,0,0.1,0,0.2c0,0.1,0,0.2,0,0.3c0,0.2-0.1,0.4-0.2,0.5c-0.2,0.2-0.4,0.3-0.4,0.3
							c0,0,0.2-0.1,0.3-0.4c0.1-0.1,0.1-0.3,0.2-0.4c0-0.1,0-0.2,0-0.3c0-0.1,0-0.2-0.1-0.2c0,0-0.1,0.1-0.2,0.2
							c0,0.1-0.1,0.2-0.1,0.3c-0.1,0.2-0.1,0.3-0.1,0.4C100.1,101.9,100.2,102,100.2,102z"/>
					</g>
				</g>
			</g>
			<g>
				<g>
					<g>
						<g>
							<g>
								<path class="st8" d="M95.6,75.8c-5.6,0.6-13,1.3-13,1.3l1,9.1c0,0,10.9-2.9,10.8-2.6C94.4,83.9,95,103,95,103h6.5l0.1-21.7
									C101.7,78.1,98.8,75.5,95.6,75.8z"/>
							</g>
						</g>
					</g>
					<g>
						<g>
							<g>
								<path class="st8" d="M69.2,79.5v2.8c0,1.9,2.2,4,4.1,4h1.5c1.2,0,3-0.8,4-1.5l0.6-0.4l6.9,21.2c0,0,7.8-1.4,7.8-1.7
									s-5.3-17.4-7.8-25.3c-1-3.2-4.5-5.1-7.7-4c-0.1,0-0.2,0.1-0.3,0.1C74.7,76.1,69.2,79.5,69.2,79.5z"/>
							</g>
						</g>
					</g>
					<g>
						<g>
							<g>
								<g>
									<path class="st10" d="M94,103.9C94,103.9,93.9,103.8,94,103.9c-0.1-0.2-0.1-0.2-0.1-0.3c-0.1-0.2-0.2-0.5-0.3-0.9
										c-0.3-0.8-0.6-1.9-1.1-3.3c-0.9-2.7-2.1-6.6-3.3-10.8c-0.6-2.1-1.3-4.2-1.8-6c-0.3-0.9-0.5-1.8-0.8-2.6
										c-0.1-0.4-0.2-0.8-0.4-1.2s-0.2-0.8-0.4-1.1c-0.3-0.6-0.7-1.2-1.1-1.6s-0.8-0.7-1.2-0.9c-0.3-0.2-0.6-0.4-0.8-0.5
										c-0.1,0-0.2-0.1-0.2-0.1c0,0-0.1,0-0.1,0s0,0,0.1,0c0.1,0,0.1,0.1,0.2,0.1c0.2,0.1,0.4,0.3,0.8,0.5
										c0.4,0.2,0.8,0.5,1.2,0.9c0.4,0.4,0.8,0.9,1.1,1.6c0.2,0.3,0.3,0.7,0.4,1.1c0.1,0.4,0.2,0.8,0.4,1.2
										c0.2,0.8,0.5,1.7,0.8,2.6c0.6,1.8,1.2,3.8,1.8,6c1.3,4.2,2.4,8,3.3,10.8c0.4,1.4,0.8,2.5,1,3.3c0.1,0.4,0.2,0.7,0.3,0.9
										C93.9,103.6,93.9,103.7,94,103.9C94,103.9,94,103.9,94,103.9z"/>
								</g>
							</g>
						</g>
					</g>
					<g>
						<g>
							<g>
								<g>
									<path class="st10" d="M95.6,80.9c0,0-0.3,0.6-0.6,1.3c-0.3,0.8-0.4,1.4-0.5,1.4c0,0,0-0.7,0.4-1.5
										C95.1,81.4,95.6,80.9,95.6,80.9z"/>
								</g>
							</g>
						</g>
					</g>
					<g>
						<g>
							<g>
								<g>
									<path class="st10" d="M96.9,81.8c0,0-0.6,0.3-1.1,0.8c-0.6,0.4-1,0.9-1,0.9c0,0,0.3-0.6,0.9-1.1
										C96.3,81.9,96.9,81.7,96.9,81.8z"/>
								</g>
							</g>
						</g>
					</g>
					<g>
						<g>
							<g>
								<g>
									<path class="st10" d="M86.2,105.5c0,0-1.9-5.7-4.1-12.7c-2.3-7-4-12.7-4-12.7c0,0,1.9,5.7,4.1,12.7
										C84.5,99.8,86.3,105.5,86.2,105.5z"/>
								</g>
							</g>
						</g>
					</g>
				</g>
			</g>
			<g>
				<g>
					<g>
						<polygon class="st10" points="77.8,72.5 100.2,72.7 104.4,60.9 88.1,61 84.3,71.6 77.8,71.7 						"/>
					</g>
				</g>
				<g>
					<path class="st2" d="M94.8,67.8c-0.5-0.1-0.8-0.5-0.8-1.1c0.1-0.5,0.5-0.8,1.1-0.8c0.5,0.1,0.8,0.5,0.8,1.1
						C95.8,67.5,95.3,67.9,94.8,67.8z"/>
				</g>
			</g>
			<g>
				<g>
					<g>
						<path class="st8" d="M76,40.5c0.2-0.8,0.8-1.2,1.6-1.4c0.8-0.3,1.7-0.1,2.3,0.4c0.4,0.3,0.8,0.8,1.3,1c0.8,0.3,1.8-0.3,2.6,0
							c0.5,0.2,0.8,0.8,0.6,1.3c-0.1,0.5-0.6,0.9-1.2,0.9c0.6,0.2,0.7,1,0.4,1.5c-0.3,0.5-1,0.7-1.6,0.6c-0.6-0.1-1.1-0.4-1.5-0.8
							c-0.4-0.4-0.8-0.8-1.3-1.2c-0.4-0.4-1.1-0.6-1.6-0.6c-0.8,0-1.5,0.6-1.8,1.3c-0.4,0.7-0.4,1.5-0.5,2.3c0,0.8-0.1,1.6-0.3,2.3
							c0,0.1-0.1,0.2-0.2,0.2c-0.1,0-0.2-0.1-0.3-0.2c-0.7-1.3-1.2-2.8-1.3-4.3c-0.1-0.9-0.1-1.7,0.4-2.5
							C74.2,40.6,75.4,40.1,76,40.5"/>
					</g>
				</g>
				<g>
					<g>
						<g>
							<g>
								<g>
									<g>
										<g>
											<g>
												<g>
													<g>
														<g>
															<g>
																<g>
																	<g>
																		<g>
																			<path class="st12" d="M74.4,44.2L74,53.2c-0.1,1.5,0.1,3.8,2.5,3.8l0,0c2.1-0.2,2.7-2.1,2.7-3.5
																				c0-0.6,0.1-1.3,0.1-1.3c0,0,2.3-0.1,2.5-2.3c0.1-1.1,0.2-3.3,0.3-5.4c0.1-2.2-1.6-4-3.8-4.3l-0.2,0
																				C75.9,39.9,74.5,41.9,74.4,44.2z"/>
																		</g>
																	</g>
																</g>
															</g>
														</g>
													</g>
												</g>
											</g>
										</g>
										<g>
											<g>
												<g>
													<g>
														<g>
															<g>
																<g>
																	<g>
																		<g>
																			<path class="st14" d="M79.4,52.1c0,0-1.4,0-2.8-1.1c0,0,0.5,1.7,2.8,1.7L79.4,52.1z"/>
																		</g>
																	</g>
																</g>
															</g>
														</g>
													</g>
												</g>
											</g>
										</g>
									</g>
								</g>
							</g>
							<g>
								<g>
									<g>
										<g>
											<g>
												<g>
													<g>
														<g>
															<g>
																<g>
																	<g>
																		<g>
																			<g>
																				<g>
																					<g>
																						<path class="st8" d="M81.4,45.8c0,0.2-0.2,0.3-0.4,0.3c-0.2,0-0.3-0.2-0.3-0.3c0-0.2,0.2-0.3,0.4-0.3
																							C81.3,45.5,81.4,45.6,81.4,45.8z"/>
																					</g>
																				</g>
																			</g>
																		</g>
																	</g>
																</g>
															</g>
														</g>
													</g>
													<g>
														<g>
															<g>
																<g>
																	<g>
																		<g>
																			<g>
																				<g>
																					<g>
																						<g>
																							<path class="st8" d="M81.6,45.4c0,0-0.3-0.2-0.6-0.2c-0.4,0-0.6,0.1-0.6,0.1c0,0,0-0.1,0.2-0.2
																								c0.1-0.1,0.3-0.1,0.5-0.1c0.2,0,0.4,0.1,0.5,0.2C81.6,45.3,81.7,45.4,81.6,45.4z"/>
																						</g>
																					</g>
																				</g>
																			</g>
																		</g>
																	</g>
																</g>
															</g>
														</g>
													</g>
												</g>
												<g>
													<g>
														<g>
															<g>
																<g>
																	<g>
																		<g>
																			<g>
																				<g>
																					<g>
																						<path class="st8" d="M78,45.6c0,0.2-0.2,0.3-0.4,0.3c-0.2,0-0.3-0.2-0.3-0.3c0-0.2,0.2-0.3,0.4-0.3
																							C77.9,45.3,78,45.4,78,45.6z"/>
																					</g>
																				</g>
																			</g>
																		</g>
																	</g>
																</g>
															</g>
														</g>
													</g>
													<g>
														<g>
															<g>
																<g>
																	<g>
																		<g>
																			<g>
																				<g>
																					<g>
																						<g>
																							<path class="st8" d="M78.2,45.1c0,0-0.3-0.2-0.6-0.2C77.3,44.9,77,45,77,45c0,0,0-0.1,0.2-0.2
																								c0.1-0.1,0.3-0.1,0.5-0.1c0.2,0,0.4,0.1,0.5,0.2C78.2,45,78.3,45.1,78.2,45.1z"/>
																						</g>
																					</g>
																				</g>
																			</g>
																		</g>
																	</g>
																</g>
															</g>
														</g>
													</g>
												</g>
												<g>
													<g>
														<g>
															<g>
																<g>
																	<g>
																		<g>
																			<g>
																				<g>
																					<g>
																						<path class="st8" d="M79.2,47.8c0,0,0.2,0,0.6,0c0.1,0,0.2,0,0.2-0.1s0-0.2,0-0.3c-0.1-0.2-0.1-0.4-0.2-0.7
																							c-0.3-1-0.4-1.8-0.4-1.8s0.3,0.8,0.6,1.8c0.1,0.2,0.1,0.5,0.2,0.7c0,0.1,0.1,0.2,0,0.4c0,0.1-0.1,0.1-0.2,0.1
																							c-0.1,0-0.1,0-0.2,0C79.5,47.8,79.2,47.8,79.2,47.8z"/>
																					</g>
																				</g>
																			</g>
																		</g>
																	</g>
																</g>
															</g>
														</g>
													</g>
												</g>
												<g>
													<g>
														<g>
															<g>
																<g>
																	<g>
																		<g>
																			<g>
																				<g>
																					<g>
																						<path class="st8" d="M78.2,47.9c0.1,0,0,0.4,0.3,0.7c0.3,0.3,0.7,0.3,0.7,0.4c0,0-0.1,0.1-0.3,0
																							c-0.2,0-0.4-0.1-0.6-0.3s-0.2-0.4-0.2-0.6S78.2,47.9,78.2,47.9z"/>
																					</g>
																				</g>
																			</g>
																		</g>
																	</g>
																</g>
															</g>
														</g>
													</g>
												</g>
											</g>
										</g>
									</g>
									<g>
										<g>
											<g>
												<g>
													<g>
														<g>
															<g>
																<g>
																	<g>
																		<path class="st8" d="M78.5,43.8c0,0.1-0.4,0-0.8,0c-0.4,0-0.8,0.1-0.8,0c0,0,0-0.1,0.2-0.2
																			c0.1-0.1,0.4-0.1,0.6-0.1s0.4,0.1,0.6,0.1C78.4,43.7,78.5,43.7,78.5,43.8z"/>
																	</g>
																</g>
															</g>
														</g>
													</g>
												</g>
											</g>
										</g>
									</g>
									<g>
										<g>
											<g>
												<g>
													<g>
														<g>
															<g>
																<g>
																	<g>
																		<path class="st8" d="M81.6,44.4c-0.1,0.1-0.3,0-0.6-0.1c-0.3,0-0.5,0-0.6-0.1c0,0,0-0.1,0.1-0.2
																			c0.1-0.1,0.3-0.1,0.5-0.1c0.2,0,0.4,0.1,0.4,0.2C81.6,44.3,81.6,44.3,81.6,44.4z"/>
																	</g>
																</g>
															</g>
														</g>
													</g>
												</g>
											</g>
										</g>
									</g>
								</g>
							</g>
						</g>
					</g>
				</g>
				<g>
					<g>
						<g>
							<g>
								<g>
									<g>
										<g>
											<g>
												<g>
													<g>
														<path class="st12" d="M74.4,45.9c0,0-1.5-0.6-1.6,0.9c-0.1,1.5,1.5,1.3,1.5,1.3C74.3,48.1,74.4,45.9,74.4,45.9z"/>
													</g>
												</g>
											</g>
										</g>
									</g>
								</g>
							</g>
						</g>
					</g>
					<g>
						<g>
							<g>
								<g>
									<g>
										<g>
											<g>
												<g>
													<g>
														<g>
															<path class="st14" d="M73.9,47.5C73.9,47.5,73.8,47.5,73.9,47.5c-0.1,0.1-0.2,0.1-0.3,0c-0.2-0.1-0.3-0.3-0.3-0.6
																c0-0.1,0-0.3,0.1-0.4c0.1-0.1,0.1-0.2,0.2-0.2c0.1,0,0.1,0,0.2,0.1c0,0,0,0.1,0,0.1c0,0,0,0,0-0.1c0,0,0-0.1,0-0.1
																c0,0-0.1,0-0.2,0c-0.1,0-0.2,0.1-0.3,0.2c-0.1,0.1-0.1,0.3-0.1,0.4c0,0.3,0.1,0.6,0.3,0.7
																C73.7,47.6,73.8,47.6,73.9,47.5C73.9,47.5,73.9,47.5,73.9,47.5z"/>
														</g>
													</g>
												</g>
											</g>
										</g>
									</g>
								</g>
							</g>
						</g>
					</g>
				</g>
				<g>
					<g>
						<path class="st8" d="M82.7,43.9c-1,0.2-2.1-0.2-2.8-0.9c-0.5-0.5-0.8-1.3-1.5-1.5c-0.4-0.2-1-0.2-1.4,0
							c-0.4,0.2-0.8,0.5-1.2,0.8c0.3,1.2-0.1,2.4-0.5,3.6c0,0.1-0.1,0.3-0.2,0.3c-0.2,0.1-0.4,0-0.6-0.2c-0.2-0.3-0.3-0.7-0.3-1.1
							c-0.1-0.8,0-1.7,0.3-2.5c0.3-0.8,0.8-1.5,1.4-2.1c0.8-0.6,1.9-0.9,3-0.8c1.1,0.1,2,0.6,2.8,1.3c0.4,0.3,0.7,0.7,0.8,1.2"/>
					</g>
				</g>
			</g>
		</g>
	</g>
	<g id="Plant">
		<g>
			<g>
				<g>
					<g>
						<path class="st9" d="M39.7,91.3c0.8-0.4,1.7-0.4,2.6-0.3c0.4,0.1,0.9,0.2,1.3,0.6c0.3,0.4,0.4,1,0,1.3
							c-0.2,0.2-0.5,0.2-0.8,0.2c-0.7,0-1.4-0.1-2,0.3c-0.3,0.2-0.5,0.6-0.9,0.8c-0.4,0.1-0.8-0.1-1-0.4c-0.2-0.3-0.2-0.8-0.1-1.1
							C38.8,92.5,38.9,91.7,39.7,91.3z"/>
					</g>
				</g>
				<g>
					<g>
						<path class="st9" d="M37.9,87.8c0.5,0.7,1.4,0.4,1.9,0s0.6-1.1,0.8-1.6c0.4-1.3,0.8-2.7,0.5-4c-0.1-0.4-0.2-0.8-0.5-1.1
							c-0.3-0.3-0.7-0.5-1.1-0.4c-0.4,0.1-0.8,0.6-1,1c-0.6,1.3-0.9,2.7-0.9,4.2C37.4,86.6,37.5,87.3,37.9,87.8"/>
					</g>
				</g>
				<g>
					<g>
						<path class="st9" d="M36.6,88.8c0.5-0.6,0.6-1.5,0.4-2.3c-0.2-0.8-0.8-1.4-1.4-2c-0.7-0.6-1.5-1.1-2.5-1.4
							C32.8,83,32.4,82.9,32,83c-0.4,0-0.8,0.2-0.9,0.6c-0.3,0.5,0,1.1,0.3,1.6c0.4,0.8,1,1.7,1.6,2.5c0.5,0.6,1.1,1.3,1.8,1.5
							C35.5,89.3,36.3,89.3,36.6,88.8"/>
					</g>
				</g>
				<g>
					<g>
						<g>
							<path class="st8" d="M37.9,98.2c0,0,0-0.1,0-0.3c0-0.2,0-0.5,0.1-0.8c0-0.3,0.1-0.8,0.2-1.3c0.1-0.4,0.3-1,0.4-1.5
								c0.2-0.5,0.4-1,0.8-1.3c0.3-0.4,0.6-0.6,0.9-0.8c0.3-0.2,0.6-0.2,0.8-0.2s0.3,0,0.3,0s-0.1,0-0.3,0c-0.2,0-0.5,0.1-0.8,0.2
								c-0.3,0.2-0.7,0.4-1,0.8c-0.3,0.4-0.6,0.8-0.8,1.4c-0.2,0.5-0.4,1-0.4,1.5c-0.1,0.4-0.1,0.9-0.2,1.3c0,0.4,0,0.6,0,0.8
								C37.9,98.1,37.9,98.2,37.9,98.2z"/>
						</g>
					</g>
				</g>
				<g>
					<g>
						<g>
							<path class="st8" d="M37.9,97.5c0,0,0,0,0-0.2s0-0.2,0-0.4c0-0.4,0-0.9,0-1.5c0-1.3,0.1-2.7,0.4-4.6c0.2-1.8,0.4-4,0.8-5.3
								c0.1-0.3,0.1-0.6,0.2-0.8c0.1-0.2,0.1-0.4,0.2-0.6c0-0.2,0.1-0.3,0.1-0.4c0-0.1,0-0.1,0-0.1s0,0,0,0.1c0,0.1-0.1,0.2-0.1,0.4
								c0,0.2-0.1,0.4-0.2,0.6c-0.1,0.2-0.1,0.5-0.2,0.8c-0.3,1.3-0.6,3-0.8,5c-0.2,2-0.3,3.7-0.3,5c0,0.6,0,1.2,0,1.5
								c0,0.2,0,0.3,0,0.4C37.9,97.5,37.9,97.5,37.9,97.5z"/>
						</g>
					</g>
				</g>
				<g>
					<g>
						<g>
							<path class="st8" d="M37.9,94.1c0,0,0-0.2,0-0.4c0-0.3,0-0.7-0.1-1.2c-0.1-0.5-0.2-1.1-0.4-1.7c-0.1-0.3-0.3-1-0.7-2
								c-0.6-1.4-1.4-2.5-2.1-3.3c-0.2-0.2-0.4-0.3-0.5-0.4c-0.1-0.1-0.1-0.1-0.2-0.2c-0.1,0-0.1-0.1-0.2-0.1
								c-0.2-0.2-0.4-0.2-0.4-0.2c0,0,0.5,0.4,1.2,1.1c0.7,0.7,1.5,1.9,2.1,3.2c0.3,0.8,0.6,1.4,0.7,2c0.2,0.6,0.3,1.2,0.4,1.7
								c0.1,0.5,0.1,0.9,0.2,1.2C37.9,93.9,37.9,94.1,37.9,94.1z"/>
						</g>
					</g>
				</g>
			</g>
			<g>
				<g>
					<polygon class="st8" points="34.6,100.1 34.9,104.8 41,104.8 41.3,100.1 					"/>
				</g>
			</g>
			<g>
				<g>
					<rect x="34" y="98.3" class="st8" width="8" height="1.9"/>
				</g>
			</g>
			<g>
				<g>
					<polygon class="st10" points="34,104.6 34,105.2 34.4,105.2 41.9,105.2 41.9,104.6 					"/>
				</g>
			</g>
			<g>
				<g>
					<polygon class="st10" points="34.8,106.1 34.4,105.2 41.6,105.2 41.2,106.1 					"/>
				</g>
			</g>
			<g>
				<g>
					<g>
						<path class="st3" d="M41.2,101.7C41.2,101.7,41.2,101.7,41.2,101.7c-0.1,0.1-0.1,0.1-0.1,0.2c-0.1,0.1-0.2,0.3-0.4,0.4l0,0
							l0,0c-0.2-0.3-0.5-0.7-0.8-1.2h0c-0.3,0.4-0.6,0.8-0.8,1.2l0,0l0,0c-0.3-0.4-0.6-0.8-1-1.2H38c0,0,0,0-0.1,0.1
							c-0.3,0.4-0.6,0.8-0.9,1.1l0,0l0,0c-0.3-0.4-0.6-0.8-0.8-1.2h0c-0.4,0.5-0.8,0.9-1.1,1.2l0,0l0,0c-0.1-0.2-0.2-0.4-0.3-0.6
							c0-0.1-0.1-0.1-0.1-0.2c0,0,0,0,0,0l0,0c0,0,0.1,0.1,0.1,0.1c0.1,0.1,0.2,0.3,0.4,0.6h0c0.3-0.3,0.6-0.7,1.1-1.2l0,0l0,0
							c0.3,0.4,0.6,0.8,0.8,1.2h0c0.3-0.4,0.6-0.8,0.9-1.1c0,0,0,0,0.1-0.1l0,0l0,0c0.4,0.4,0.7,0.8,1,1.2H39
							c0.3-0.4,0.6-0.8,0.8-1.2l0,0l0,0c0.3,0.5,0.6,0.9,0.8,1.2h0c0.2-0.2,0.3-0.3,0.4-0.4C41.1,101.8,41.2,101.7,41.2,101.7
							C41.2,101.7,41.2,101.7,41.2,101.7z"/>
					</g>
				</g>
			</g>
			<g>
				<g>
					<g>
						<path class="st10" d="M41.4,100.1c0,0-1.5,0-3.4,0c-1.9,0-3.4,0-3.4,0s1.5,0,3.4,0C39.9,100.1,41.4,100.1,41.4,100.1z"/>
					</g>
				</g>
			</g>
			<g>
				<g>
					<g>
						<path class="st8" d="M41.7,105.2c0,0-1.7,0-3.7,0c-2,0-3.7,0-3.7,0c0,0,1.7,0,3.7,0C40.1,105.2,41.7,105.2,41.7,105.2z"/>
					</g>
				</g>
			</g>
		</g>
	</g>
	<g id="Devices">
		<g>
			<g>
				<polygon class="st8" points="113.1,51.1 108.9,68.7 110.1,68.7 114.2,51.1 				"/>
			</g>
			<g>
				<path class="st8" d="M111.5,62.6c-0.1,0.3,1.9,9.9,1.9,9.9h-0.9l-1.5-7.6L111.5,62.6z"/>
			</g>
		</g>
		<g>
			<g>
				<g>
					<g>
						<rect x="105.8" y="85.2" class="st9" width="19.6" height="20.8"/>
					</g>
					<g>
						<rect x="125.5" y="88.2" class="st8" width="1" height="1"/>
					</g>
					<g>
						<rect x="125.5" y="91.3" class="st8" width="1" height="1"/>
					</g>
					<g>
						<rect x="125.5" y="94.4" class="st8" width="1" height="1"/>
					</g>
					<g>
						<rect x="125.5" y="97.4" class="st8" width="1" height="1"/>
					</g>
					<g>
						<g>
							<path class="st8" d="M126.5,94.7c0,0,0.1,0,0.3-0.1c0.2,0,0.4-0.1,0.8-0.1c0.4,0,0.8,0.1,1.2,0.3c0.2,0.1,0.4,0.3,0.5,0.6
								c0.1,0.2,0.2,0.5,0.2,0.8c0,0.3-0.1,0.5-0.2,0.8c-0.1,0.2-0.3,0.4-0.5,0.5c-0.4,0.3-0.8,0.4-1.1,0.4c-0.4,0-0.6,0-0.8,0
								c-0.2,0-0.3,0-0.3,0s0.1,0,0.3,0c0.2,0,0.5,0,0.8-0.1c0.3-0.1,0.7-0.2,1.1-0.4c0.4-0.3,0.7-0.7,0.7-1.2c0-0.3,0-0.5-0.1-0.7
								c-0.1-0.2-0.3-0.4-0.4-0.5c-0.4-0.2-0.8-0.3-1.1-0.3c-0.4,0-0.6,0-0.8,0C126.6,94.6,126.5,94.7,126.5,94.7z"/>
						</g>
					</g>
					<g>
						<g>
							<path class="st8" d="M126.2,91.6C126.2,91.6,126.3,91.6,126.2,91.6c0.2-0.1,0.2-0.2,0.4-0.2c0.3-0.1,0.6-0.2,1.1-0.1
								c0.1,0,0.2,0.1,0.4,0.1c0.1,0.1,0.2,0.2,0.3,0.4c0.1,0.3,0,0.6-0.2,0.9c-0.1,0.1-0.2,0.2-0.4,0.3c-0.2,0.1-0.4,0.1-0.5,0
								c-0.2-0.1-0.3-0.3-0.3-0.4c0-0.2,0.1-0.4,0.3-0.5c0.2-0.1,0.4-0.1,0.6-0.1c0.2,0,0.4,0.1,0.5,0.2c0.3,0.2,0.4,0.6,0.5,0.9
								c0,0.3-0.1,0.6-0.2,0.9s-0.4,0.4-0.6,0.5c-0.4,0.2-0.8,0.3-1.1,0.3c-0.1,0-0.2,0-0.3,0c-0.1,0-0.1,0-0.1,0s0.2,0,0.4,0
								c0.3,0,0.6-0.1,1.1-0.3c0.2-0.1,0.4-0.3,0.6-0.5c0.2-0.2,0.3-0.5,0.2-0.8c0-0.3-0.2-0.6-0.4-0.8c-0.1-0.1-0.3-0.2-0.4-0.2
								c-0.2,0-0.3,0-0.5,0c-0.2,0.1-0.2,0.2-0.2,0.4s0.1,0.3,0.2,0.4c0.1,0.1,0.3,0.1,0.4,0c0.2,0,0.3-0.2,0.4-0.3
								c0.2-0.2,0.3-0.5,0.2-0.8s-0.3-0.4-0.6-0.4c-0.4-0.1-0.8,0-1.1,0C126.3,91.6,126.2,91.6,126.2,91.6z"/>
						</g>
					</g>
					<g>
						<g>
							<path class="st8" d="M126.2,88.6c0,0,0.1,0,0.2,0s0.4,0,0.6,0.1c0.2,0.1,0.5,0.2,0.7,0.5c0.2,0.3,0.4,0.6,0.4,1
								c0,0.4-0.1,0.8-0.3,1.1s-0.4,0.4-0.7,0.5s-0.4,0.1-0.6,0.1s-0.2,0-0.2,0c0,0,0.3,0,0.8-0.2c0.2-0.1,0.4-0.3,0.6-0.5
								c0.2-0.3,0.3-0.6,0.3-1c0-0.4-0.2-0.7-0.4-0.9c-0.2-0.2-0.4-0.4-0.7-0.5C126.5,88.6,126.2,88.7,126.2,88.6z"/>
						</g>
					</g>
					<g>
						<g>
							<path class="st8" d="M111.6,74.2c0,0,0.1,0.1,0.2,0.4c0.1,0.3,0.2,0.6,0.3,1.2c0.1,0.5,0.2,1.2,0.2,1.9
								c0.1,0.8,0.1,1.6,0.2,2.5c0,0.2,0.1,0.4,0.1,0.7c0,0.2,0.1,0.5,0.2,0.7c0.1,0.2,0.3,0.4,0.5,0.6c0.2,0.2,0.4,0.4,0.6,0.5
								c0.4,0.3,1,0.5,1.6,0.6c0.6,0.1,1.2,0,1.7-0.3c0.6-0.3,1-0.8,1.1-1.4c0.1-0.3,0-0.6-0.1-0.9c-0.1-0.3-0.3-0.6-0.6-0.7
								c-0.3-0.2-0.6-0.3-0.9-0.3c-0.3,0-0.7,0.1-0.9,0.3c-0.1,0.1-0.2,0.2-0.3,0.4c-0.1,0.2-0.1,0.3-0.1,0.5
								c0.1,0.3,0.3,0.6,0.6,0.8c0.3,0.2,0.6,0.2,1,0.3s0.7,0.1,1.1,0.1c0.7,0,1.4,0,2.1-0.1c1.3-0.2,2.6-0.4,3.9-0.4
								c1.3,0,2.5,0.2,3.5,0.6c0.5,0.2,0.9,0.6,1.3,1s0.6,0.8,0.6,1.3c0.2,0.9,0,1.8-0.4,2.5c-0.4,0.6-0.9,1.1-1.3,1.4
								c-0.4,0.3-0.8,0.4-1.1,0.6c-0.3,0.1-0.4,0.1-0.4,0.1s0,0,0.1,0c0.1,0,0.2-0.1,0.3-0.1c0.3-0.1,0.6-0.3,1.1-0.6
								c0.4-0.3,0.9-0.8,1.3-1.4c0.4-0.6,0.6-1.5,0.4-2.4c-0.1-0.4-0.3-0.9-0.6-1.3c-0.3-0.4-0.8-0.7-1.3-0.9
								c-1-0.5-2.2-0.6-3.4-0.6s-2.5,0.2-3.9,0.4c-0.7,0.1-1.4,0.1-2.1,0.1c-0.4,0-0.7,0-1.1-0.1c-0.4,0-0.7-0.1-1.1-0.3
								c-0.3-0.2-0.6-0.5-0.6-0.8c0-0.2,0-0.4,0.1-0.6c0.1-0.2,0.2-0.3,0.4-0.4c0.3-0.2,0.6-0.3,1-0.3c0.4,0,0.7,0.1,1,0.3
								c0.3,0.2,0.5,0.4,0.6,0.8c0.1,0.3,0.1,0.7,0.1,1c-0.2,0.6-0.6,1.2-1.2,1.5c-0.6,0.3-1.2,0.4-1.8,0.3
								c-0.6-0.1-1.1-0.3-1.6-0.6c-0.2-0.2-0.4-0.3-0.6-0.5c-0.2-0.2-0.4-0.4-0.5-0.6c-0.1-0.2-0.2-0.5-0.2-0.7
								c0-0.2-0.1-0.5-0.1-0.7c-0.1-0.9-0.2-1.8-0.2-2.5c-0.1-0.8-0.1-1.4-0.2-1.9c-0.1-0.5-0.2-0.9-0.2-1.2c0-0.1-0.1-0.2-0.1-0.3
								C111.6,74.2,111.6,74.2,111.6,74.2z"/>
						</g>
					</g>
				</g>
				<g>
					<g>
						<path class="st8" d="M124.3,105.2C124.3,105.2,124.3,105.1,124.3,105.2c0-0.1,0-0.2,0-0.4c0-0.2,0-0.6,0-1.1
							c0-0.9,0-2.2,0-3.9c0-3.4,0-8.1,0-13.9l0,0c-5.2,0-11.3,0-17.8,0l0,0l0.1-0.1c0,7,0,13.6,0,19.1l0,0c5.3,0,9.8,0,12.8,0
							c1.6,0,2.8,0,3.6,0c0.4,0,0.7,0,0.9,0S124.3,105.2,124.3,105.2s-0.1,0-0.3,0s-0.5,0-0.9,0c-0.8,0-2.1,0-3.6,0
							c-3.1,0-7.6,0-12.9,0h0v0c0-5.5,0-12.1,0-19.1V86h0.1l0,0c6.5,0,12.6,0,17.8,0h0v0c0,5.7,0,10.5,0,13.9c0,1.7,0,3,0,3.9
							c0,0.4,0,0.8,0,1C124.3,105,124.3,105.1,124.3,105.2C124.4,105.1,124.3,105.2,124.3,105.2z"/>
					</g>
				</g>
			</g>
			<g>
				<g>
					<path class="st8" d="M119.4,88.4C119.4,88.4,119.3,88.5,119.4,88.4c-0.1,0.1-0.2,0-0.2,0S119.2,88.3,119.4,88.4
						C119.3,88.3,119.4,88.3,119.4,88.4z"/>
				</g>
				<g>
					<path class="st8" d="M119.8,88.4C119.8,88.4,119.8,88.5,119.8,88.4c-0.1,0.1-0.2,0-0.2,0S119.7,88.3,119.8,88.4
						C119.8,88.3,119.8,88.3,119.8,88.4z"/>
				</g>
				<g>
					<path class="st8" d="M120.4,88.4C120.4,88.4,120.3,88.5,120.4,88.4c-0.1,0.1-0.2,0-0.2,0S120.2,88.3,120.4,88.4
						C120.3,88.3,120.4,88.3,120.4,88.4z"/>
				</g>
				<g>
					<path class="st8" d="M120.9,88.4C120.9,88.4,120.8,88.5,120.9,88.4c-0.1,0.1-0.2,0-0.2,0S120.7,88.3,120.9,88.4
						C120.8,88.3,120.9,88.3,120.9,88.4z"/>
				</g>
				<g>
					<path class="st8" d="M121.3,88.4C121.3,88.4,121.3,88.5,121.3,88.4c-0.1,0.1-0.2,0-0.2,0S121.2,88.3,121.3,88.4
						C121.3,88.3,121.3,88.3,121.3,88.4z"/>
				</g>
				<g>
					<path class="st8" d="M121.9,88.4C121.9,88.4,121.8,88.5,121.9,88.4c-0.1,0.1-0.2,0-0.2,0S121.7,88.3,121.9,88.4
						C121.8,88.3,121.9,88.3,121.9,88.4z"/>
				</g>
				<g>
					<path class="st8" d="M122.3,88.4C122.3,88.4,122.3,88.5,122.3,88.4c-0.1,0.1-0.2,0-0.2,0S122.2,88.3,122.3,88.4
						C122.3,88.3,122.3,88.3,122.3,88.4z"/>
				</g>
				<g>
					<circle class="st8" cx="122" cy="88.7" r="0.1"/>
				</g>
				<g>
					<circle class="st8" cx="121.5" cy="88.7" r="0.1"/>
				</g>
				<g>
					<path class="st8" d="M121.1,88.7C121.1,88.7,121.1,88.8,121.1,88.7c-0.1,0.1-0.2,0-0.2,0S121,88.6,121.1,88.7
						C121.1,88.6,121.1,88.7,121.1,88.7z"/>
				</g>
				<g>
					<circle class="st8" cx="120.5" cy="88.7" r="0.1"/>
				</g>
				<g>
					<circle class="st8" cx="120" cy="88.7" r="0.1"/>
				</g>
				<g>
					<path class="st8" d="M119.6,88.7C119.6,88.7,119.5,88.8,119.6,88.7c-0.1,0.1-0.2,0-0.2,0S119.4,88.6,119.6,88.7
						C119.5,88.6,119.6,88.7,119.6,88.7z"/>
				</g>
				<g>
					<path class="st8" d="M119.4,89.1C119.4,89.1,119.3,89.2,119.4,89.1c-0.1,0.1-0.2,0-0.2,0S119.2,89,119.4,89.1
						C119.3,89,119.4,89.1,119.4,89.1z"/>
				</g>
				<g>
					<path class="st8" d="M119.8,89.1C119.8,89.1,119.8,89.2,119.8,89.1c-0.1,0.1-0.2,0-0.2,0S119.7,89,119.8,89.1
						C119.8,89,119.8,89.1,119.8,89.1z"/>
				</g>
				<g>
					<path class="st8" d="M120.4,89.1C120.4,89.1,120.3,89.2,120.4,89.1c-0.1,0.1-0.2,0-0.2,0S120.2,89,120.4,89.1
						C120.3,89,120.4,89.1,120.4,89.1z"/>
				</g>
				<g>
					<path class="st8" d="M120.9,89.1C120.9,89.1,120.8,89.2,120.9,89.1c-0.1,0.1-0.2,0-0.2,0S120.7,89,120.9,89.1
						C120.8,89,120.9,89.1,120.9,89.1z"/>
				</g>
				<g>
					<path class="st8" d="M121.3,89.1C121.3,89.1,121.3,89.2,121.3,89.1c-0.1,0.1-0.2,0-0.2,0S121.2,89,121.3,89.1
						C121.3,89,121.3,89.1,121.3,89.1z"/>
				</g>
				<g>
					<path class="st8" d="M121.9,89.1C121.9,89.1,121.8,89.2,121.9,89.1c-0.1,0.1-0.2,0-0.2,0S121.7,89,121.9,89.1
						C121.8,89,121.9,89.1,121.9,89.1z"/>
				</g>
				<g>
					<path class="st8" d="M122.3,89.1C122.3,89.1,122.3,89.2,122.3,89.1c-0.1,0.1-0.2,0-0.2,0S122.2,89,122.3,89.1
						C122.3,89,122.3,89.1,122.3,89.1z"/>
				</g>
				<g>
					<path class="st8" d="M122.1,89.4C122.1,89.5,122.1,89.5,122.1,89.4c-0.1,0.1-0.2,0-0.2,0S122,89.3,122.1,89.4
						C122.1,89.3,122.1,89.4,122.1,89.4z"/>
				</g>
				<g>
					<path class="st8" d="M121.6,89.4C121.6,89.5,121.6,89.5,121.6,89.4c-0.1,0.1-0.2,0-0.2,0S121.5,89.3,121.6,89.4
						C121.6,89.3,121.6,89.4,121.6,89.4z"/>
				</g>
				<g>
					<path class="st8" d="M121.1,89.4C121.1,89.5,121.1,89.5,121.1,89.4c-0.1,0.1-0.2,0-0.2,0S121,89.3,121.1,89.4
						C121.1,89.3,121.1,89.4,121.1,89.4z"/>
				</g>
				<g>
					<path class="st8" d="M120.6,89.4C120.6,89.5,120.6,89.5,120.6,89.4c-0.1,0.1-0.2,0-0.2,0S120.5,89.3,120.6,89.4
						C120.6,89.3,120.6,89.4,120.6,89.4z"/>
				</g>
				<g>
					<path class="st8" d="M120.1,89.4C120.1,89.5,120,89.5,120.1,89.4c-0.1,0.1-0.2,0-0.2,0S120,89.3,120.1,89.4
						C120,89.3,120.1,89.4,120.1,89.4z"/>
				</g>
				<g>
					<path class="st8" d="M119.6,89.4C119.6,89.5,119.5,89.5,119.6,89.4c-0.1,0.1-0.2,0-0.2,0S119.4,89.3,119.6,89.4
						C119.5,89.3,119.6,89.4,119.6,89.4z"/>
				</g>
				<g>
					<path class="st8" d="M119.4,89.8C119.4,89.9,119.3,89.9,119.4,89.8c-0.1,0.1-0.2,0-0.2,0S119.2,89.7,119.4,89.8
						C119.3,89.7,119.4,89.7,119.4,89.8z"/>
				</g>
				<g>
					<path class="st8" d="M119.8,89.8C119.8,89.9,119.8,89.9,119.8,89.8c-0.1,0.1-0.2,0-0.2,0S119.7,89.7,119.8,89.8
						C119.8,89.7,119.8,89.7,119.8,89.8z"/>
				</g>
				<g>
					<path class="st8" d="M120.4,89.8C120.4,89.9,120.3,89.9,120.4,89.8c-0.1,0.1-0.2,0-0.2,0S120.2,89.7,120.4,89.8
						C120.3,89.7,120.4,89.7,120.4,89.8z"/>
				</g>
				<g>
					<path class="st8" d="M120.9,89.8C120.9,89.9,120.8,89.9,120.9,89.8c-0.1,0.1-0.2,0-0.2,0S120.7,89.7,120.9,89.8
						C120.8,89.7,120.9,89.7,120.9,89.8z"/>
				</g>
				<g>
					<path class="st8" d="M121.3,89.8C121.3,89.9,121.3,89.9,121.3,89.8c-0.1,0.1-0.2,0-0.2,0S121.2,89.7,121.3,89.8
						C121.3,89.7,121.3,89.7,121.3,89.8z"/>
				</g>
				<g>
					<path class="st8" d="M121.9,89.8C121.9,89.9,121.8,89.9,121.9,89.8c-0.1,0.1-0.2,0-0.2,0S121.7,89.7,121.9,89.8
						C121.8,89.7,121.9,89.7,121.9,89.8z"/>
				</g>
				<g>
					<path class="st8" d="M122.3,89.8C122.3,89.9,122.3,89.9,122.3,89.8c-0.1,0.1-0.2,0-0.2,0S122.2,89.7,122.3,89.8
						C122.3,89.7,122.3,89.7,122.3,89.8z"/>
				</g>
				<g>
					<circle class="st8" cx="122" cy="90.1" r="0.1"/>
				</g>
				<g>
					<circle class="st8" cx="121.5" cy="90.1" r="0.1"/>
				</g>
				<g>
					<path class="st8" d="M121.1,90.1C121.1,90.2,121.1,90.2,121.1,90.1c-0.1,0.1-0.2,0-0.2,0C120.9,90.1,121,90.1,121.1,90.1
						C121.1,90.1,121.1,90.1,121.1,90.1z"/>
				</g>
				<g>
					<circle class="st8" cx="120.5" cy="90.1" r="0.1"/>
				</g>
				<g>
					<circle class="st8" cx="120" cy="90.1" r="0.1"/>
				</g>
				<g>
					<path class="st8" d="M119.6,90.1C119.6,90.2,119.5,90.2,119.6,90.1c-0.1,0.1-0.2,0-0.2,0C119.4,90.1,119.4,90.1,119.6,90.1
						C119.5,90.1,119.6,90.1,119.6,90.1z"/>
				</g>
			</g>
		</g>
		<g>
			<g>
				<g>
					<path class="st3" d="M112.4,67.8c0,0,0.1,0,0.4,0.1c0.2,0.1,0.6,0.2,0.8,0.6c0.3,0.3,0.6,0.8,0.8,1.5c0.2,0.6,0.4,1.3,0.5,2.1
						c0.2,1.6,0.3,3.6,0.1,5.7c0,0.5-0.2,1.1-0.5,1.6c-0.2,0.2-0.4,0.4-0.6,0.6s-0.6,0.2-0.8,0.2c-0.3,0-0.6-0.2-0.8-0.4
						c-0.1-0.1-0.2-0.2-0.2-0.4c0-0.2,0-0.3,0-0.5c0.1-0.3,0.3-0.6,0.6-0.7c0.2-0.1,0.3,0,0.5,0c0.2,0.1,0.3,0.2,0.4,0.3
						c0.2,0.3,0.3,0.6,0.2,0.9c-0.1,0.3-0.2,0.6-0.3,0.8c-0.3,0.5-0.8,1-1.3,1.3c-1.1,0.6-2.3,0.6-3.3,0c-0.5-0.3-0.9-0.6-1.2-1.1
						c-0.3-0.4-0.6-0.8-0.7-1.3c-0.4-0.9-0.4-1.8-0.5-2.6c0-0.8,0-1.5-0.1-2.2c0-0.3-0.1-0.6-0.2-0.8c-0.1-0.3-0.2-0.4-0.4-0.6
						c-0.3-0.4-0.6-0.5-0.8-0.6c-0.2-0.1-0.4-0.1-0.4-0.1s0.1,0,0.4,0.1c0.2,0.1,0.6,0.2,0.8,0.6c0.2,0.2,0.3,0.4,0.4,0.6
						c0.1,0.3,0.2,0.6,0.2,0.9c0.1,0.6,0,1.4,0.1,2.2s0.2,1.7,0.5,2.6c0.2,0.4,0.4,0.9,0.7,1.3c0.3,0.4,0.7,0.8,1.2,1
						c0.9,0.5,2.1,0.5,3.2,0c0.5-0.3,0.9-0.7,1.2-1.3c0.1-0.3,0.3-0.5,0.3-0.8s0-0.6-0.2-0.8c-0.1-0.1-0.2-0.2-0.3-0.3
						c-0.1,0-0.3,0-0.4,0c-0.3,0.1-0.4,0.4-0.6,0.6c-0.1,0.3,0,0.6,0.2,0.8c0.2,0.2,0.4,0.3,0.8,0.4c0.3,0,0.6,0,0.8-0.2
						c0.2-0.1,0.4-0.4,0.6-0.6c0.3-0.4,0.4-1,0.5-1.5c0.2-2.1,0.1-4-0.1-5.7c-0.1-0.8-0.3-1.5-0.4-2.1c-0.2-0.6-0.4-1.1-0.8-1.4
						s-0.6-0.5-0.8-0.6C112.5,67.8,112.4,67.8,112.4,67.8z"/>
				</g>
			</g>
			<g>
				<rect x="103.4" y="71" class="st3" width="7.3" height="1.4"/>
			</g>
		</g>
		<g>
			<g>
				<g>
					<rect x="48.3" y="85.4" class="st8" width="9.5" height="20.6"/>
				</g>
				<g>
					<g>
						<path class="st10" d="M57,103.8C57,103.8,57,103.7,57,103.8c0-0.1,0-0.2,0-0.4c0-0.2,0-0.6,0-1c0-0.8,0-2.1,0-3.7
							c0-3.1,0-7.5,0-12.7l0,0c-2.5,0-5.2,0-8,0l0,0l0.1-0.1c0,6.9,0,13.1,0,17.7l0,0c2.5,0,4.4,0,5.8,0c0.7,0,1.3,0,1.6,0
							c0.2,0,0.3,0,0.4,0C57,103.8,57,103.8,57,103.8s0,0-0.1,0s-0.2,0-0.4,0c-0.4,0-0.9,0-1.6,0c-1.4,0-3.4,0-5.9,0h0v0
							c0-4.6,0-10.8,0-17.7V86h0.1l0,0c2.8,0,5.5,0,8,0h0v0c0,5.2,0,9.6,0,12.7c0,1.6,0,2.8,0,3.7c0,0.4,0,0.8,0,1
							C57,103.6,57,103.6,57,103.8C57,103.7,57,103.8,57,103.8z"/>
					</g>
				</g>
				<g>
					<g>
						<path class="st10" d="M56.6,87.6c0,0,0-0.1,0-0.2s0-0.4,0-0.6l0,0c-1.3,0-3.9,0-6.9,0l0,0c0,0-0.1,0.1,0.1-0.1l0,0l0,0l0,0
							l0,0l0,0v0v0v0V87c0,0.1,0,0.1,0,0.2c0,0.1,0,0.3,0,0.4l-0.1-0.1c1.9,0,3.7,0,4.9,0c0.6,0,1.1,0,1.5,0c0.2,0,0.3,0,0.4,0
							C56.5,87.6,56.6,87.6,56.6,87.6s0,0-0.1,0c-0.1,0-0.2,0-0.4,0c-0.4,0-0.8,0-1.5,0c-1.3,0-3,0-5,0h-0.1v-0.1c0-0.1,0-0.3,0-0.4
							c0-0.1,0-0.1,0-0.2v-0.1v0v0v0l0,0l0,0l0,0l0,0l0,0c0.1-0.1,0,0,0.1-0.1l0,0c3.1,0,5.7,0,6.9,0h0v0c0,0.3,0,0.4,0,0.6
							C56.6,87.5,56.6,87.6,56.6,87.6z"/>
					</g>
				</g>
				<g>
					<g>
						<path class="st10" d="M50.3,88.2c0,0-0.2,0.1-0.3,0.1s-0.3,0-0.3-0.1s0.2-0.1,0.3-0.1C50.2,88.1,50.3,88.1,50.3,88.2z"/>
					</g>
				</g>
				<g>
					<g>
						<path class="st10" d="M56.3,89.3c0,0-1.5,0.1-3.3,0.1c-1.8,0-3.3,0-3.3-0.1c0,0,1.5-0.1,3.3-0.1
							C54.9,89.2,56.3,89.2,56.3,89.3z"/>
					</g>
				</g>
				<g>
					<g>
						<path class="st10" d="M56.4,90.5c0,0-1.5,0.1-3.2,0.1c-1.8,0-3.2,0-3.2-0.1s1.5-0.1,3.2-0.1C54.9,90.5,56.4,90.5,56.4,90.5z"
							/>
					</g>
				</g>
				<g>
					<circle class="st9" cx="53.1" cy="93.5" r="0.5"/>
				</g>
				<g>
					<g>
						<path class="st10" d="M51.6,93.5c0,0-0.3,0.1-0.7,0.1c-0.4,0-0.7,0-0.7-0.1c0,0,0.3-0.1,0.7-0.1S51.6,93.5,51.6,93.5z"/>
					</g>
				</g>
				<g>
					<g>
						<path class="st10" d="M55.9,93.3c0,0-0.3,0.1-0.6,0.1c-0.4,0-0.6,0-0.6-0.1s0.3-0.1,0.6-0.1C55.5,93.3,55.9,93.3,55.9,93.3z"
							/>
					</g>
				</g>
			</g>
			<g>
				<g>
					<path class="st8" d="M48.6,95.7c0,0-0.1,0-0.4-0.1c-0.2-0.1-0.6-0.2-0.9-0.4c-0.4-0.2-0.8-0.6-1.1-1.2c-0.4-0.6-0.6-1.3-0.8-2
						c-0.2-0.8-0.3-1.7-0.3-2.6c0.1-0.9,0.4-2,1-2.8c0.3-0.4,0.7-0.8,1.2-1.1c0.2-0.2,0.5-0.3,0.8-0.4c0.3-0.1,0.6-0.2,0.8-0.2
						c0.6-0.1,1.2-0.1,1.8-0.1c0.6,0,1.2-0.1,1.7-0.4c0.6-0.3,1-0.8,1.1-1.3c0.1-0.6,0-1.2-0.4-1.6c-0.4-0.4-0.9-0.7-1.5-0.6
						c-0.3,0-0.5,0.1-0.7,0.3c-0.2,0.2-0.3,0.4-0.3,0.6c0,0.5,0.5,0.9,1,0.9c0.5,0,0.9-0.2,1.3-0.6s0.5-0.8,0.6-1.2
						c0.1-0.4,0.2-0.8,0.3-1.3c0.2-1.6,0.2-2.9,0.1-3.8c0-0.4,0-0.8,0-1.1c0-0.1,0-0.2,0-0.3c0-0.1,0-0.1,0-0.1s0,0,0,0.1
						c0,0.1,0,0.2,0,0.3c0,0.2,0,0.6,0.1,1.1c0,0.9,0.1,2.2-0.1,3.8c-0.1,0.4-0.1,0.8-0.2,1.3c-0.1,0.4-0.3,0.8-0.6,1.3
						c-0.3,0.4-0.8,0.6-1.3,0.6s-1.1-0.4-1.1-1.1c0-0.3,0.1-0.6,0.4-0.8c0.2-0.2,0.5-0.3,0.8-0.3c0.6,0,1.2,0.2,1.6,0.7
						c0.4,0.4,0.6,1.1,0.4,1.7c-0.1,0.3-0.2,0.6-0.4,0.8c-0.2,0.2-0.4,0.4-0.7,0.6c-0.6,0.3-1.2,0.4-1.8,0.4c-0.6,0-1.2,0-1.8,0.1
						c-0.3,0-0.6,0.1-0.8,0.2c-0.3,0.1-0.5,0.2-0.8,0.4c-0.4,0.3-0.8,0.7-1.2,1.1c-0.6,0.8-0.9,1.9-1,2.8s0,1.8,0.2,2.6
						c0.2,0.8,0.4,1.5,0.8,2c0.3,0.6,0.8,0.9,1.1,1.2c0.4,0.3,0.7,0.4,0.9,0.4C48.4,95.6,48.5,95.6,48.6,95.7
						C48.6,95.7,48.6,95.7,48.6,95.7z"/>
				</g>
			</g>
		</g>
		<g>
			<g>
				<rect x="45.4" y="53.5" class="st8" width="22.6" height="15.5"/>
			</g>
			<g>
				<rect x="54.9" y="66.9" class="st8" width="3.1" height="5.9"/>
			</g>
		</g>
	</g>
	<g id="Desk">
		<g>
			<g>
				<polygon class="st8" points="47.7,72.5 47.7,74.7 59.3,74.7 59.3,106 60.4,106 60.4,74.7 109.1,74.9 109.1,106 110.1,106 
					110.1,74.8 117.7,74.9 117.7,72.4 				"/>
			</g>
			<g>
				<polygon class="st8" points="55.1,74.2 59.7,77.6 59.3,77.9 54.7,74.4 				"/>
			</g>
			<g>
				<polygon class="st8" points="114.4,74.6 109.1,78.4 109.5,78.7 114.9,74.8 				"/>
			</g>
			<g>
				<rect x="64.6" y="71.8" class="st8" width="12" height="0.9"/>
			</g>
		</g>
	</g>
</g>
</svg>
