<?xml version="1.0" encoding="utf-8"?>
<!-- Generator: Adobe Illustrator 24.1.0, SVG Export Plug-In . SVG Version: 6.00 Build 0)  -->
<svg version="1.1" id="Calque_1" xmlns="http://www.w3.org/2000/svg" xmlns:xlink="http://www.w3.org/1999/xlink" x="0px" y="0px"
	 viewBox="0 0 500 500" style="enable-background:new 0 0 500 500;" xml:space="preserve">
<style type="text/css">
	.st0{display:none;}
	.st1{display:inline;fill:#EBEBEB;}
	.st2{fill:#FFFFFF;}
	.st3{fill:#E0E0E0;}
	.st4{opacity:0.3;}
	.st5{fill:none;}
	.st6{fill-rule:evenodd;clip-rule:evenodd;fill:#E0E0E0;}
	.st7{fill:#EBEBEB;}
	.st8{fill:#263238;}
	.st9{fill:#E8505B;}
	.st10{fill:#455A64;}
	.st11{fill:#FAFAFA;}
	.st12{fill:#FFBE9D;}
	.st13{opacity:0.6;}
	.st14{fill:#EB996E;}
</style>
<g id="Background_Simple" class="st0">
	<path class="st1" d="M433.4,94.4l-2.5-4.1c-20.1-32.6-56.2-52.4-94.4-50.4c-5.4,0.3-10.7,1-16,2.1c-35.2,7.4-65.8,33.7-78.5,67.3
		c-7.5,19.8-9.5,42.6-23.7,58.3c-18.4,20.4-49.7,21.1-77.2,20.2c-27.5-0.8-58.8-0.1-77.2,20.4c-11.5,12.9-15.1,31.1-14.2,48.3
		c2.5,45.6,34.6,86.3,75.5,106.6c40.9,20.3,89,22.1,133.8,13.2c62.7-12.5,122.3-46.8,158.2-99.7C453,223.7,462.1,151.6,433.4,94.4z"
		/>
	<path class="st1" d="M179.6,105.7c-9.9-9.9-27.3-16.8-39.1-9.3l1.7-0.9c-12.5,6.2-20.6,20.4-19.3,34.3c1.3,13.9,12,26.5,25.6,29.8
		s29-3.2,36-15.2C191.5,132.2,189.5,115.5,179.6,105.7z"/>
</g>
<g>
	<g id="Background_Complete">
		<g>
			<g>
				<g>
					<g>
						<rect x="149.3" y="178.4" class="st2" width="68.3" height="45.7"/>
					</g>
				</g>
				<g>
					<g>
						<g>
							<path class="st3" d="M217.6,224.1c0,0,0-0.3,0-0.8s0-1.4,0-2.4c0-2.1,0-5.2,0-9.2c0-8-0.1-19.4-0.1-33.3l0.1,0.1
								c-18.8,0-42.5,0-68.3,0l0,0l0.1-0.1c0,16.3,0,31.8,0,45.7l-0.1-0.1c20.1,0,37.1,0.1,49.2,0.1c6,0,10.8,0,14.1,0.1
								c1.6,0,2.9,0,3.8,0c0.4,0,0.8,0,1,0C217.5,224.1,217.6,224.1,217.6,224.1s-0.1,0-0.3,0c-0.2,0-0.5,0-0.9,0
								c-0.9,0-2.1,0-3.7,0c-3.3,0-8,0-14,0.1c-12.1,0-29.1,0.1-49.2,0.1h-0.1v-0.1c0-14,0-29.4,0-45.7v-0.1h0.1l0,0
								c25.7,0,49.5,0,68.3,0h0.1v0.1c0,14-0.1,25.4-0.1,33.3c0,4,0,7.1,0,9.2c0,1,0,1.9,0,2.4C217.6,223.9,217.6,224.1,217.6,224.1
								z"/>
						</g>
					</g>
				</g>
			</g>
			<g>
				<g>
					<g>
						<path class="st3" d="M149.3,182.5c0-0.1,15.3-0.1,34.1-0.1s34.1,0.1,34.1,0.1c0,0.1-15.3,0.1-34.1,0.1
							S149.3,182.5,149.3,182.5z"/>
					</g>
				</g>
			</g>
			<g>
				<g class="st4">
					<g>
						<path class="st3" d="M152,180.4c0,0.3-0.2,0.5-0.5,0.5c-0.3,0-0.5-0.2-0.5-0.5s0.2-0.5,0.5-0.5
							C151.8,179.9,152,180.1,152,180.4z"/>
					</g>
				</g>
				<g class="st4">
					<g>
						<circle class="st3" cx="153.3" cy="180.4" r="0.5"/>
					</g>
				</g>
				<g class="st4">
					<g>
						<path class="st3" d="M155.7,180.4c0,0.3-0.2,0.5-0.5,0.5c-0.3,0-0.5-0.2-0.5-0.5s0.2-0.5,0.5-0.5
							C155.5,179.9,155.7,180.1,155.7,180.4z"/>
					</g>
				</g>
			</g>
			<g>
				<g>
					<rect x="155.2" y="187.2" class="st3" width="18.2" height="18.2"/>
				</g>
			</g>
			<g>
				<g>
					<g>
						<path class="st3" d="M208.2,192.4c0,0.1-7.1,0.1-15.9,0.1c-8.8,0-15.9-0.1-15.9-0.1s7.1-0.1,15.9-0.1
							C201.2,192.3,208.2,192.3,208.2,192.4z"/>
					</g>
				</g>
			</g>
			<g>
				<g>
					<g>
						<path class="st3" d="M208.2,195.8c0,0.1-7.1,0.1-15.9,0.1c-8.8,0-15.9-0.1-15.9-0.1c0-0.1,7.1-0.1,15.9-0.1
							C201.2,195.7,208.2,195.7,208.2,195.8z"/>
					</g>
				</g>
			</g>
			<g>
				<g>
					<g>
						<path class="st3" d="M208.2,199.2c0,0.1-7.1,0.1-15.9,0.1c-8.8,0-15.9-0.1-15.9-0.1c0-0.1,7.1-0.1,15.9-0.1
							C201.2,199.1,208.2,199.1,208.2,199.2z"/>
					</g>
				</g>
			</g>
			<g>
				<g>
					<g>
						<path class="st3" d="M195.3,202.5c0,0-0.3,0.1-0.8,0.1c-0.5,0-1.2,0-2,0.1c-1.7,0-4,0.1-6.7,0.1c-2.6,0-4.9,0-6.7-0.1
							c-0.8,0-1.5-0.1-2-0.1c-0.5,0-0.8-0.1-0.8-0.1s0.3-0.1,0.8-0.1c0.5,0,1.2,0,2-0.1c1.7,0,4-0.1,6.7-0.1c2.6,0,4.9,0,6.7,0.1
							c0.8,0,1.5,0.1,2,0.1C195,202.5,195.3,202.5,195.3,202.5z"/>
					</g>
				</g>
			</g>
			<g>
				<g>
					<rect x="156.3" y="211.6" class="st3" width="8.6" height="8.6"/>
				</g>
			</g>
			<g>
				<g>
					<rect x="171.9" y="211.6" class="st3" width="8.6" height="8.6"/>
				</g>
			</g>
			<g>
				<g>
					<rect x="187.4" y="211.6" class="st3" width="8.6" height="8.6"/>
				</g>
			</g>
			<g>
				<g>
					<rect x="202.9" y="211.6" class="st3" width="8.6" height="8.6"/>
				</g>
			</g>
		</g>
		<g>
			<g>
				<g>
					<g>
						<g>
							<g>
								<g>
									<path class="st5" d="M345.3,193.3c-0.4,0.6-0.9,1.1-1.5,1.5l0.4,1.9l-2.9,1.3l-1.1-1.6c-0.7,0.1-1.4,0.1-2.1,0.1l-1.1,1.6
										l-3-1.1l0.3-1.9c-0.6-0.4-1.1-0.9-1.5-1.5l-1.9,0.4l-1.3-2.9l1.6-1.1c-0.1-0.7-0.1-1.4-0.1-2.1l-1.6-1.1l1.1-3l1.9,0.3
										c0.4-0.6,0.9-1.1,1.5-1.5l-0.4-1.9l2.9-1.3l1.1,1.6c0.7-0.1,1.4-0.1,2.1-0.1l1.1-1.6l3,1.1l-0.3,1.9
										c0.6,0.4,1.1,0.9,1.5,1.5l1.9-0.4l1.3,2.9l-1.6,1.1c0.1,0.7,0.1,1.4,0.1,2.1l1.6,1.1l-1.1,3L345.3,193.3L345.3,193.3z
										 M342,189.9c0.7-1.8-0.2-3.8-2-4.5c-1.8-0.7-3.8,0.2-4.5,2c-0.7,1.8,0.2,3.8,2,4.5C339.3,192.6,341.3,191.7,342,189.9z"/>
								</g>
							</g>
						</g>
					</g>
				</g>
				<g>
					<g>
						<g>
							<g>
								<g>
									<g>
										<path class="st3" d="M342,189.9c0,0-0.1,0.3-0.4,0.8c-0.3,0.4-0.9,1.1-1.9,1.4c-0.5,0.2-1,0.2-1.6,0.1s-1.2-0.4-1.7-0.8
											c-0.3-0.2-0.5-0.5-0.7-0.8c-0.2-0.3-0.3-0.6-0.4-1c-0.2-0.7-0.2-1.5,0.1-2.2c0.3-0.7,0.8-1.3,1.4-1.7
											c0.3-0.2,0.7-0.3,1-0.4c0.3-0.1,0.7-0.2,1-0.1c0.7,0,1.3,0.2,1.8,0.5c0.5,0.3,0.9,0.7,1.1,1.1c0.5,0.9,0.5,1.7,0.5,2.3
											C342.2,189.7,342,189.9,342,189.9s0.1-0.3,0.2-0.8c0.1-0.5,0-1.4-0.5-2.2c-0.3-0.4-0.6-0.8-1.1-1.1
											c-0.5-0.3-1.1-0.5-1.7-0.5c-0.3,0-0.7,0.1-1,0.1c-0.3,0.1-0.7,0.2-0.9,0.4c-0.6,0.4-1,0.9-1.3,1.6
											c-0.3,0.7-0.3,1.4-0.1,2.1c0.1,0.3,0.2,0.7,0.4,0.9c0.2,0.3,0.4,0.5,0.7,0.7c0.5,0.4,1,0.7,1.6,0.8
											c0.5,0.1,1.1,0.1,1.6-0.1c0.9-0.3,1.5-0.9,1.9-1.3C341.9,190.3,342,189.9,342,189.9z"/>
									</g>
								</g>
							</g>
						</g>
					</g>
				</g>
				<g>
					<g>
						<g>
							<g>
								<g>
									<g>
										<path class="st3" d="M345.3,193.3c0,0,0.1,0,0.1,0c0.1,0,0.2,0,0.4,0.1c0.3,0.1,0.8,0.1,1.5,0.2h-0.1
											c0.3-0.8,0.7-1.8,1.1-3v0.1c-0.5-0.3-1-0.7-1.6-1.1h-0.1v-0.1c0.1-0.7,0.1-1.4-0.1-2.1v-0.1h0.1c0.5-0.4,1-0.8,1.6-1.1
											v0.1c-0.4-0.9-0.9-1.9-1.3-2.9l0.1,0.1c-0.6,0.1-1.3,0.3-1.9,0.4h-0.1l-0.1-0.1c-0.4-0.5-0.9-1-1.5-1.4l-0.1-0.1v-0.1
											c0.1-0.6,0.2-1.3,0.3-1.9l0.1,0.1c-0.9-0.4-2-0.8-3-1.1l0.1-0.1c-0.3,0.5-0.7,1-1.1,1.6l-0.1,0.1h-0.1
											c-0.7-0.1-1.4-0.1-2.1,0.1h-0.1l-0.1-0.1c-0.4-0.5-0.8-1-1.1-1.6l0.1,0.1c-0.9,0.4-1.9,0.9-2.9,1.3l0.1-0.1
											c0.1,0.6,0.3,1.3,0.4,1.9v0.1l-0.1,0.1c-0.5,0.4-1,0.9-1.4,1.5l0,0l0,0c-0.1,0,0.1-0.1-0.1,0.1l0,0l0,0l0,0l0,0h-0.1h-0.1
											h-0.1l-0.2-0.1l-0.5-0.1c-0.3-0.1-0.7-0.1-1-0.2l0.1-0.1c-0.4,1-0.8,2-1.1,3l-0.1-0.1c0.5,0.4,1.1,0.7,1.6,1.1l0.1,0.1
											v0.1c-0.1,0.7-0.1,1.4,0.1,2.1v0.1l-0.1,0.1c-0.5,0.4-1,0.8-1.6,1.1l0.1-0.1c0.4,1,0.9,2,1.3,2.9l-0.1-0.1
											c0.7-0.1,1.3-0.3,1.9-0.4h0.1l0.1,0.1c0.4,0.5,0.9,1,1.5,1.4l0.1,0.1v0.1c-0.1,0.7-0.2,1.3-0.3,1.9L334,197
											c1,0.4,2.1,0.8,3,1.1l-0.1,0.1c0.4-0.5,0.8-1.1,1.1-1.6v-0.1h0.1c0.8,0.1,1.4,0.1,2.1-0.1h0.1v0.1
											c0.4,0.5,0.8,1.1,1.1,1.6h-0.1c1.1-0.5,2.1-0.9,2.9-1.3v0.1c-0.2-0.8-0.3-1.4-0.4-1.9l0,0l0,0c0.5-0.4,0.9-0.8,1.1-1.1
											c0.1-0.1,0.2-0.2,0.3-0.3C345.2,193.3,345.3,193.3,345.3,193.3s0,0.1-0.1,0.1c-0.1,0.1-0.1,0.2-0.2,0.3
											c-0.2,0.3-0.5,0.7-1.1,1.1v-0.1c0.1,0.5,0.2,1.1,0.4,1.9v0.1h-0.1c-0.8,0.4-1.8,0.8-2.9,1.3h-0.1l-0.1-0.1
											c-0.4-0.5-0.8-1-1.1-1.6h0.1c-0.7,0.1-1.4,0.2-2.1,0.1l0.1-0.1c-0.3,0.5-0.7,1-1.1,1.6l-0.1,0.1h-0.1
											c-0.9-0.4-2-0.8-3-1.1h-0.1v-0.1c0.1-0.6,0.2-1.3,0.3-1.9l0.1,0.1c-0.5-0.4-1.1-0.9-1.5-1.5l0.1,0.1
											c-0.6,0.1-1.3,0.3-1.9,0.4h-0.1l-0.1-0.1c-0.4-1-0.9-2-1.3-2.9l-0.1-0.1l0.1-0.1c0.5-0.4,1-0.8,1.6-1.1l-0.1,0.1
											c-0.1-0.7-0.1-1.4-0.1-2.1l0.1,0.1c-0.5-0.4-1.1-0.7-1.6-1.1l-0.1-0.1l0.1-0.1c0.4-1,0.8-2,1.1-3l0.1-0.1h0.1
											c0.3,0.1,0.7,0.1,1,0.2l0.5,0.1l0.2,0.1h0.1h0.1h0.1l0,0l0,0l0,0l0,0c-0.2,0.1-0.1,0-0.1,0.1l0,0l0,0
											c0.4-0.6,0.9-1.1,1.5-1.5l-0.1,0.1c-0.1-0.7-0.3-1.3-0.4-1.9v-0.1l0.1-0.1c1-0.4,2-0.9,2.9-1.3l0.1-0.1l0.1,0.1
											c0.4,0.5,0.8,1.1,1.1,1.6l-0.1-0.1c0.7-0.1,1.5-0.1,2.1-0.1l-0.1,0.1c0.4-0.5,0.8-1.1,1.1-1.6l0.1-0.1h0.1
											c1,0.4,2.1,0.8,3,1.1h0.1v0.1c-0.1,0.7-0.2,1.3-0.3,1.9l-0.1-0.1c0.6,0.4,1.1,0.9,1.5,1.5l-0.1-0.1
											c0.7-0.1,1.3-0.3,1.9-0.4h0.1v0.1c0.4,1,0.9,2,1.3,2.9v0.1l-0.1,0.1c-0.5,0.4-1.1,0.8-1.6,1.1v-0.1
											c0.1,0.8,0.1,1.5,0.1,2.1v-0.1c0.6,0.4,1.1,0.8,1.6,1.1h0.1v0.1c-0.5,1.2-0.9,2.2-1.2,3l0,0l0,0c-0.6-0.1-1.1-0.2-1.4-0.2
											C345.4,193.4,345.3,193.3,345.3,193.3C345.3,193.3,345.3,193.3,345.3,193.3z"/>
									</g>
								</g>
							</g>
						</g>
					</g>
				</g>
			</g>
			<g>
				<g>
					<g>
						<g>
							<g>
								<path class="st6" d="M362.4,184.1c-0.3,0.5-0.8,0.9-1.2,1.3l0.3,1.6l-2.5,1.1l-1-1.3c-0.5,0.1-1.1,0.1-1.7,0.1l-0.9,1.4
									l-2.5-1l0.2-1.6c-0.5-0.3-0.9-0.8-1.3-1.2l-1.6,0.3l-1.1-2.5l1.3-1c-0.1-0.5-0.1-1.1-0.1-1.7l-1.4-0.9l1-2.5l1.6,0.2
									c0.3-0.5,0.8-0.9,1.2-1.3l-0.3-1.6l2.5-1.1l1,1.3c0.5-0.1,1.1-0.1,1.7-0.1l0.9-1.4l2.5,1l-0.2,1.6c0.5,0.3,0.9,0.8,1.3,1.2
									l1.6-0.3l1.1,2.5l-1.3,1c0.1,0.5,0.1,1.1,0.1,1.7l1.4,0.9l-1,2.5L362.4,184.1L362.4,184.1z M359.7,181.3
									c0.5-1.5-0.2-3.2-1.6-3.7s-3.2,0.2-3.7,1.6c-0.5,1.5,0.2,3.2,1.6,3.7C357.5,183.6,359.2,182.8,359.7,181.3z"/>
							</g>
						</g>
					</g>
				</g>
			</g>
			<g>
				<g>
					<g>
						<g>
							<g>
								<path class="st6" d="M351.9,169.2c-0.5,0.8-1.2,1.4-1.9,2l0.5,2.5l-3.8,1.7l-1.5-2c-0.9,0.2-1.8,0.2-2.7,0.1l-1.4,2.1
									L337,174l0.4-2.5c-0.8-0.5-1.4-1.2-2-1.9l-2.5,0.5l-1.7-3.8l2-1.5c-0.2-0.9-0.2-1.8-0.1-2.7l-2.1-1.4l1.5-3.9l2.5,0.4
									c0.5-0.8,1.2-1.4,1.9-2l-0.5-2.5l3.8-1.7l1.5,2c0.9-0.2,1.8-0.2,2.7-0.1l1.4-2.1l3.9,1.5l-0.4,2.5c0.8,0.5,1.4,1.2,2,1.9
									l2.5-0.5l1.7,3.8l-2,1.5c0.2,0.9,0.2,1.8,0.1,2.7l2.1,1.4l-1.5,3.9L351.9,169.2L351.9,169.2z M347.6,164.9
									c0.9-2.3-0.3-4.9-2.6-5.8c-2.3-0.9-4.9,0.3-5.8,2.6c-0.9,2.3,0.3,4.9,2.6,5.8C344.1,168.4,346.7,167.2,347.6,164.9z"/>
							</g>
						</g>
					</g>
				</g>
			</g>
		</g>
		<g>
			<g>
				<g>
					<g>
						<path class="st3" d="M313.4,148.4c0,0,0.1-0.1,0.3-0.3c0.2-0.2,0.5-0.5,0.8-0.8c0.7-0.7,1.7-1.6,2.8-2.7l0,0v0.2
							c-1.1-1-2.1-2-2.8-2.6c-0.3-0.3-0.6-0.6-0.8-0.8c-0.2-0.2-0.3-0.3-0.3-0.3s0.1,0.1,0.3,0.3c0.2,0.2,0.5,0.5,0.9,0.8
							c0.7,0.7,1.7,1.6,2.8,2.6l0.1,0.1l-0.1,0.1l0,0c-1.1,1-2.1,2-2.8,2.7c-0.3,0.3-0.7,0.6-0.9,0.8
							C313.5,148.3,313.4,148.4,313.4,148.4z"/>
					</g>
				</g>
			</g>
			<g>
				<g>
					<g>
						<path class="st3" d="M304.9,140.9c0,0-0.1,0.1-0.3,0.3c-0.2,0.2-0.5,0.5-0.8,0.8c-0.7,0.7-1.7,1.6-2.8,2.7l0,0v-0.2
							c1.1,1,2.1,2,2.8,2.6c0.3,0.3,0.6,0.6,0.8,0.8s0.3,0.3,0.3,0.3s-0.1-0.1-0.3-0.3c-0.2-0.2-0.5-0.5-0.9-0.8
							c-0.7-0.7-1.7-1.6-2.8-2.6l-0.1-0.1l0.1-0.1l0,0c1.1-1,2.1-2,2.8-2.7c0.3-0.3,0.7-0.6,0.9-0.8
							C304.8,141,304.9,140.9,304.9,140.9z"/>
					</g>
				</g>
			</g>
			<g>
				<g>
					<g>
						<path class="st3" d="M307,150.1c-0.1,0,0.8-2.5,2-5.6c1.1-3.1,2.1-5.6,2.2-5.6s-0.8,2.5-2,5.6
							C308.1,147.7,307.1,150.1,307,150.1z"/>
					</g>
				</g>
			</g>
			<g>
				<g>
					<g>
						<path class="st3" d="M323.1,155.5c0,0,0-0.2,0-0.4s0-0.7,0-1.2c0-1,0-2.6,0-4.6c0-3.9,0-9.5-0.1-16.4l0.1,0.1
							c-7.9,0-17.4,0-27.7,0l0,0l0.1-0.1c0,8.2,0,15.9,0,22.6l-0.1-0.1c8.2,0,15.1,0.1,20,0.1c2.5,0,4.4,0,5.7,0c0.7,0,1.1,0,1.5,0
							c0.2,0,0.3,0,0.4,0C323,155.5,323.1,155.5,323.1,155.5s-0.1,0-0.1,0c-0.1,0-0.2,0-0.4,0c-0.3,0-0.8,0-1.5,0
							c-1.3,0-3.2,0-5.7,0c-4.9,0-11.8,0-20.1,0.1h-0.1v-0.1c0-6.7,0-14.4,0-22.6v-0.1h0.1l0,0c10.3,0,19.7,0,27.7,0h0.1v0.1
							c0,6.8-0.1,12.4-0.1,16.4c0,2,0,3.5,0,4.6c0,0.5,0,0.9,0,1.2C323.1,155.4,323.1,155.5,323.1,155.5z"/>
					</g>
				</g>
			</g>
			<g>
				<g>
					<g>
						<path class="st3" d="M323.3,136.3c0,0.1-6.3,0.1-14,0.1s-14-0.1-14-0.1c0-0.1,6.3-0.1,14-0.1
							C317,136.2,323.3,136.2,323.3,136.3z"/>
					</g>
				</g>
			</g>
			<g>
				<g>
					<g>
						<path class="st3" d="M297.6,134.7c0,0.2-0.2,0.4-0.4,0.4s-0.4-0.2-0.4-0.4s0.2-0.4,0.4-0.4
							C297.5,134.3,297.6,134.4,297.6,134.7z"/>
					</g>
				</g>
				<g>
					<g>
						<ellipse class="st3" cx="298.6" cy="134.7" rx="0.4" ry="0.4"/>
					</g>
				</g>
				<g>
					<g>
						<path class="st3" d="M300.3,134.7c0,0.2-0.2,0.4-0.4,0.4s-0.4-0.2-0.4-0.4s0.2-0.4,0.4-0.4
							C300.2,134.3,300.3,134.4,300.3,134.7z"/>
					</g>
				</g>
			</g>
		</g>
		<g>
			<g>
				<g>
					<g>
						<rect x="205.5" y="143.8" class="st2" width="64" height="26"/>
					</g>
				</g>
				<g>
					<g>
						<g>
							<path class="st3" d="M269.5,169.8c0,0,0-0.2,0-0.5s0-0.8,0-1.4c0-1.2,0-2.9,0-5.2c0-4.5,0-11-0.1-19l0.1,0.1
								c-16.3,0-38.9,0-64,0.1l0,0l0.1-0.1c0,9.1,0,17.9,0,26l-0.1-0.1c18.5,0,34.5,0.1,45.9,0.1c5.7,0,10.2,0,13.3,0
								c1.5,0,2.7,0,3.5,0c0.4,0,0.7,0,0.9,0C269.4,169.8,269.5,169.8,269.5,169.8s-0.1,0-0.3,0c-0.2,0-0.5,0-0.9,0
								c-0.8,0-2,0-3.5,0c-3.1,0-7.6,0-13.3,0c-11.4,0-27.4,0.1-46,0.1h-0.1v-0.1c0-8.1,0-16.9,0-26v-0.1h0.1l0,0
								c25,0,47.7,0,64,0.1h0.1v0.1c0,8.1-0.1,14.6-0.1,19c0,2.2,0,4,0,5.2c0,0.6,0,1,0,1.4C269.5,169.7,269.5,169.8,269.5,169.8z"
								/>
						</g>
					</g>
				</g>
			</g>
			<g>
				<g>
					<g>
						<path class="st3" d="M205.6,147.4c0-0.1,14.3-0.1,32-0.1s32,0.1,32,0.1c0,0.1-14.3,0.1-32,0.1S205.6,147.4,205.6,147.4z"/>
					</g>
				</g>
			</g>
			<g>
				<g class="st4">
					<g>
						<path class="st7" d="M208.3,145.8c0,0.3-0.2,0.5-0.5,0.5c-0.3,0-0.5-0.2-0.5-0.5c0-0.3,0.2-0.5,0.5-0.5
							C208.1,145.3,208.3,145.5,208.3,145.8z"/>
					</g>
				</g>
				<g class="st4">
					<g>
						<path class="st7" d="M209.9,145.8c0,0.3-0.2,0.5-0.5,0.5c-0.3,0-0.5-0.2-0.5-0.5c0-0.3,0.2-0.5,0.5-0.5
							S209.9,145.5,209.9,145.8z"/>
					</g>
				</g>
				<g class="st4">
					<g>
						<circle class="st7" cx="211" cy="145.8" r="0.5"/>
					</g>
				</g>
			</g>
			<g>
				<g>
					<rect x="211" y="151.6" class="st3" width="15.5" height="15.5"/>
				</g>
			</g>
			<g>
				<g>
					<g>
						<g>
							<path class="st3" d="M265.1,155.7c0,0.1-8,0.1-17.8,0.1s-17.8-0.1-17.8-0.1c0-0.1,8-0.1,17.8-0.1
								C257.2,155.6,265.1,155.6,265.1,155.7z"/>
						</g>
					</g>
				</g>
				<g>
					<g>
						<g>
							<path class="st3" d="M265.1,158.9c0,0.1-8,0.1-17.8,0.1s-17.8-0.1-17.8-0.1c0-0.1,8-0.1,17.8-0.1S265.1,158.8,265.1,158.9z"
								/>
						</g>
					</g>
				</g>
				<g>
					<g>
						<g>
							<path class="st3" d="M252.5,162c0,0-0.1,0-0.2,0s-0.4,0-0.7,0c-0.6,0-1.4,0-2.5,0.1c-2.1,0-5,0-8.1,0.1c-3.2,0-6,0-8.1-0.1
								c-1,0-1.9,0-2.5-0.1c-0.3,0-0.5,0-0.7,0c-0.2,0-0.2,0-0.2,0s0.1,0,0.2,0s0.4,0,0.7,0c0.6,0,1.4,0,2.5-0.1c2.1,0,5,0,8.1-0.1
								c3.2,0,6,0,8.1,0.1c1,0,1.9,0,2.5,0.1c0.3,0,0.5,0,0.7,0C252.4,162,252.5,162,252.5,162z"/>
						</g>
					</g>
				</g>
			</g>
		</g>
	</g>
	<g id="Floor">
		<g>
			<g>
				<path class="st8" d="M369.7,357.6c0,0.1-54.4,0.2-121.5,0.2s-121.5-0.1-121.5-0.2s54.4-0.2,121.5-0.2
					C315.3,357.5,369.7,357.5,369.7,357.6z"/>
			</g>
		</g>
	</g>
	<g id="Screens">
		<g>
			<g>
				<rect x="272.7" y="188.7" class="st3" width="76.4" height="62.3"/>
			</g>
			<g>
				<rect x="267.3" y="192.7" class="st7" width="76.4" height="62.3"/>
			</g>
			<g>
				<g>
					<rect x="259.8" y="197" class="st2" width="78.5" height="63.9"/>
				</g>
				<g>
					<g>
						<path class="st8" d="M338.2,260.9c0,0,0-0.4,0-1.2c0-0.8,0-1.9,0-3.4c0-3,0-7.4-0.1-12.9c0-11.2-0.1-27.1-0.1-46.3l0.1,0.1
							c-22.5,0-49.4,0-78.5,0l0,0l0.2-0.2c0,23.1,0,44.9,0,63.9l-0.1-0.1c23.3,0,42.9,0.1,56.7,0.1c6.9,0,12.3,0,16,0.1
							c1.9,0,3.3,0,4.3,0c0.5,0,0.8,0,1.1,0C338.1,260.9,338.2,260.9,338.2,260.9s-0.1,0-0.4,0s-0.6,0-1.1,0c-1,0-2.4,0-4.2,0
							c-3.7,0-9.1,0-16,0.1c-13.8,0-33.4,0.1-56.8,0.1h-0.1v-0.1c0-19,0-40.8,0-63.9v-0.2h0.2l0,0c29,0,56,0,78.5,0h0.1v0.1
							c0,19.3-0.1,35.3-0.1,46.5c0,5.6,0,9.9-0.1,12.9c0,1.5,0,2.6,0,3.4C338.2,260.6,338.2,260.9,338.2,260.9z"/>
					</g>
				</g>
			</g>
			<g>
				<path class="st9" d="M269.4,206.2l-0.8,0.3l0.8,0.3v0.3l-1.2-0.4v-0.3l1.2-0.4V206.2z"/>
				<path class="st9" d="M271.3,205.7v1.7h-0.4v-0.7h-0.8v0.7h-0.4v-1.7h0.4v0.7h0.8v-0.7H271.3z"/>
				<path class="st9" d="M272.2,206h-0.5v-0.3h1.5v0.3h-0.5v1.4h-0.4V206z"/>
				<path class="st9" d="M274.9,207.4v-1l-0.5,0.9h-0.2l-0.5-0.9v1h-0.4v-1.7h0.3l0.7,1.1l0.7-1.1h0.3v1.7H274.9z"/>
				<path class="st9" d="M275.7,205.7h0.4v1.4h0.9v0.3h-1.3V205.7z"/>
				<path class="st9" d="M278.4,206.4v0.3l-1.2,0.4v-0.3l0.8-0.3l-0.8-0.3V206L278.4,206.4z"/>
			</g>
			<g>
				<path class="st9" d="M268.7,254.7l-0.9,0.3l0.8,0.3v0.3l-1.2-0.4v-0.3l1.2-0.4L268.7,254.7L268.7,254.7z"/>
				<path class="st9" d="M269.5,253.8h0.3l-0.8,2.4h-0.3L269.5,253.8z"/>
				<path class="st9" d="M271.6,254.2v1.7h-0.4v-0.7h-0.8v0.7H270v-1.7h0.4v0.7h0.8v-0.7H271.6L271.6,254.2z"/>
				<path class="st9" d="M272.4,254.5h-0.5v-0.3h1.5v0.3h-0.5v1.4h-0.4V254.5z"/>
				<path class="st9" d="M275.2,255.9v-1l-0.5,0.9h-0.2l-0.5-0.9v1h-0.4v-1.7h0.3l0.7,1.1l0.7-1.1h0.3v1.7L275.2,255.9L275.2,255.9z
					"/>
				<path class="st9" d="M276,254.2h0.4v1.4h0.9v0.3H276V254.2z"/>
				<path class="st9" d="M278.7,254.9v0.3l-1.2,0.4v-0.3l0.8-0.3l-0.8-0.3v-0.3L278.7,254.9z"/>
			</g>
			<g>
				<path d="M274.9,211.1l-0.9,0.3l0.9,0.3v0.2l-1.1-0.4v-0.2l1.1-0.4V211.1z"/>
				<path d="M276.9,210.6v1.7h-0.3v-0.8h-1v0.8h-0.3v-1.7h0.3v0.8h1v-0.8H276.9z"/>
				<path d="M278.7,212.1v0.2h-1.3v-1.7h1.3v0.2h-1v0.5h0.9v0.2h-0.9v0.5H278.7L278.7,212.1z"/>
				<path d="M280.2,211.9h-0.9l-0.2,0.4h-0.3l0.8-1.7h0.3l0.8,1.7h-0.3L280.2,211.9z M280.1,211.7l-0.4-0.9l-0.4,0.9H280.1z"/>
				<path d="M280.9,210.6h0.8c0.5,0,1,0.4,1,0.9c0,0.5-0.4,0.9-1,0.9h-0.8V210.6z M281.7,212.1c0.4,0,0.7-0.3,0.7-0.7
					c0-0.4-0.3-0.7-0.7-0.7h-0.5v1.3H281.7z"/>
				<path d="M284.1,211.4v0.2l-1.1,0.4v-0.2l0.9-0.3l-0.9-0.3v-0.2L284.1,211.4z"/>
				<path d="M274.9,217.2l-0.9,0.3l0.9,0.3v0.2l-1.1-0.4v-0.2l1.1-0.4V217.2z"/>
				<path d="M275.7,216.9h-0.6v-0.2h1.5v0.2H276v1.5h-0.3V216.9z"/>
				<path d="M276.8,216.7h0.3v1.7h-0.3V216.7z"/>
				<path d="M278,216.9h-0.6v-0.2h1.5v0.2h-0.6v1.5H278V216.9z"/>
				<path d="M279.1,216.7h0.3v1.5h1v0.2h-1.2L279.1,216.7L279.1,216.7z"/>
				<path d="M281.9,218.2v0.2h-1.3v-1.7h1.3v0.2h-0.9v0.5h0.9v0.2h-0.9v0.5H281.9L281.9,218.2z"/>
				<path d="M283.3,217.4v0.2l-1.1,0.4v-0.2l0.9-0.3l-0.9-0.3V217L283.3,217.4z"/>
				<path d="M284.4,216.7h0.3v1.5h1v0.2h-1.2L284.4,216.7L284.4,216.7z"/>
				<path d="M285.8,217.8c0-0.4,0.3-0.7,0.7-0.7c0.4,0,0.7,0.3,0.7,0.7c0,0.4-0.3,0.7-0.7,0.7C286.1,218.4,285.8,218.1,285.8,217.8z
					 M286.9,217.8c0-0.3-0.2-0.5-0.4-0.5c-0.3,0-0.4,0.2-0.4,0.5c0,0.3,0.2,0.5,0.4,0.5S286.9,218,286.9,217.8z"/>
				<path d="M288.2,217v0.2h-0.1c-0.3,0-0.4,0.2-0.4,0.4v0.7h-0.2V217h0.2v0.2C287.8,217.2,288,217,288.2,217z"/>
				<path d="M289.7,217.8h-1.1c0.1,0.2,0.2,0.4,0.5,0.4c0.2,0,0.3-0.1,0.4-0.2l0.1,0.2c-0.1,0.2-0.3,0.2-0.5,0.2
					c-0.4,0-0.7-0.3-0.7-0.7c0-0.4,0.3-0.7,0.7-0.7c0.4,0,0.7,0.3,0.7,0.7C289.7,217.8,289.7,217.8,289.7,217.8z M288.6,217.6h0.9
					c0-0.2-0.2-0.4-0.4-0.4S288.6,217.4,288.6,217.6z"/>
				<path d="M292.3,217.6v0.8h-0.2v-0.8c0-0.3-0.1-0.4-0.3-0.4s-0.4,0.2-0.4,0.4v0.7h-0.2v-0.8c0-0.3-0.1-0.4-0.3-0.4
					c-0.2,0-0.4,0.2-0.4,0.4v0.7h-0.2V217h0.2v0.2c0.1-0.1,0.3-0.2,0.4-0.2c0.2,0,0.4,0.1,0.5,0.3c0.1-0.2,0.3-0.3,0.5-0.3
					C292.1,217,292.3,217.3,292.3,217.6z"/>
				<path d="M293.4,216.7c0-0.1,0.1-0.2,0.2-0.2c0.1,0,0.2,0.1,0.2,0.2c0,0.1-0.1,0.2-0.2,0.2C293.4,216.8,293.4,216.8,293.4,216.7z
					 M293.4,217.1h0.2v1.4h-0.2V217.1z"/>
				<path d="M295.5,217.8c0,0.4-0.3,0.7-0.7,0.7c-0.2,0-0.4-0.1-0.5-0.2v0.7h-0.2v-1.9h0.2v0.2c0.1-0.2,0.3-0.2,0.5-0.2
					C295.2,217,295.5,217.3,295.5,217.8z M295.3,217.8c0-0.3-0.2-0.5-0.4-0.5c-0.3,0-0.4,0.2-0.4,0.5c0,0.3,0.2,0.5,0.4,0.5
					C295.1,218.2,295.3,218,295.3,217.8z"/>
				<path d="M295.7,218.3l0.1-0.2c0.1,0.1,0.3,0.2,0.5,0.2s0.3-0.1,0.3-0.2c0-0.3-0.9-0.1-0.9-0.6c0-0.2,0.2-0.4,0.5-0.4
					c0.2,0,0.4,0.1,0.5,0.1l-0.1,0.2c-0.1-0.1-0.3-0.1-0.4-0.1c-0.2,0-0.3,0.1-0.3,0.2c0,0.3,0.9,0.1,0.9,0.6c0,0.2-0.2,0.4-0.6,0.4
					C296,218.4,295.8,218.4,295.7,218.3z"/>
				<path d="M298.3,217.1v1.4h-0.2v-0.2c-0.1,0.2-0.3,0.2-0.4,0.2c-0.3,0-0.6-0.2-0.6-0.6v-0.8h0.2v0.8c0,0.3,0.1,0.4,0.4,0.4
					s0.4-0.2,0.4-0.4v-0.7L298.3,217.1L298.3,217.1z"/>
				<path d="M301.1,217.6v0.8h-0.2v-0.8c0-0.3-0.1-0.4-0.3-0.4s-0.4,0.2-0.4,0.4v0.7h-0.2v-0.8c0-0.3-0.1-0.4-0.3-0.4
					s-0.4,0.2-0.4,0.4v0.7H299V217h0.2v0.2c0.1-0.1,0.3-0.2,0.4-0.2c0.2,0,0.4,0.1,0.5,0.3c0.1-0.2,0.3-0.3,0.5-0.3
					C300.8,217,301.1,217.3,301.1,217.6z"/>
				<path d="M303.2,217.2l-0.9,0.3l0.9,0.3v0.2l-1.1-0.4v-0.2l1.1-0.4V217.2z"/>
				<path d="M304.2,216.3h0.2l-0.8,2.4h-0.2L304.2,216.3z"/>
				<path d="M305,216.9h-0.6v-0.2h1.5v0.2h-0.6v1.5H305V216.9z"/>
				<path d="M306.1,216.7h0.3v1.7h-0.3V216.7z"/>
				<path d="M307.3,216.9h-0.6v-0.2h1.5v0.2h-0.6v1.5h-0.3V216.9z"/>
				<path d="M308.4,216.7h0.3v1.5h1v0.2h-1.2L308.4,216.7L308.4,216.7z"/>
				<path d="M311.1,218.2v0.2h-1.3v-1.7h1.3v0.2h-1v0.5h0.9v0.2h-0.9v0.5H311.1L311.1,218.2z"/>
				<path d="M312.6,217.4v0.2l-1.1,0.4v-0.2l0.9-0.3l-0.9-0.3V217L312.6,217.4z"/>
				<path d="M274.9,223.3l-0.9,0.3l0.9,0.3v0.2l-1.1-0.4v-0.2l1.1-0.4V223.3z"/>
				<path d="M275.9,222.3h0.2l-0.8,2.4H275L275.9,222.3z"/>
				<path d="M277.8,222.7v1.7h-0.3v-0.8h-1v0.8h-0.3v-1.7h0.3v0.8h1v-0.8H277.8z"/>
				<path d="M279.6,224.2v0.2h-1.3v-1.7h1.3v0.2h-1v0.5h0.9v0.2h-0.9v0.5L279.6,224.2L279.6,224.2z"/>
				<path d="M281.1,224h-0.9l-0.2,0.4h-0.3l0.8-1.7h0.3l0.8,1.7h-0.3L281.1,224z M281,223.9l-0.4-0.9l-0.4,0.9H281z"/>
				<path d="M281.9,222.7h0.8c0.5,0,1,0.4,1,0.9c0,0.5-0.4,0.9-1,0.9h-0.8V222.7z M282.6,224.2c0.4,0,0.7-0.3,0.7-0.7
					s-0.3-0.7-0.7-0.7h-0.5v1.3H282.6z"/>
				<path d="M285,223.5v0.2l-1.1,0.4V224l0.9-0.3l-0.9-0.3v-0.2L285,223.5z"/>
			</g>
			<g>
				<path d="M270.2,228.5l-0.9,0.3l0.9,0.3v0.2l-1.1-0.4v-0.2l1.1-0.4V228.5z"/>
				<path d="M272.2,229.3c0,0.3-0.2,0.5-0.7,0.5h-0.8V228h0.8c0.4,0,0.7,0.2,0.7,0.4c0,0.2-0.1,0.3-0.2,0.4
					C272,228.9,272.2,229,272.2,229.3z M270.9,228.2v0.5h0.5c0.3,0,0.4-0.1,0.4-0.3s-0.2-0.3-0.4-0.3H270.9z M271.9,229.3
					c0-0.2-0.2-0.3-0.4-0.3h-0.6v0.6h0.6C271.8,229.5,271.9,229.5,271.9,229.3z"/>
				<path d="M272.4,228.9c0-0.5,0.4-0.9,0.9-0.9c0.5,0,0.9,0.4,0.9,0.9s-0.4,0.9-0.9,0.9C272.8,229.7,272.4,229.4,272.4,228.9z
					 M274.1,228.9c0-0.4-0.3-0.7-0.7-0.7c-0.4,0-0.7,0.3-0.7,0.7s0.3,0.7,0.7,0.7C273.7,229.5,274.1,229.3,274.1,228.9z"/>
				<path d="M274.7,227.9h0.8c0.5,0,1,0.4,1,0.9c0,0.5-0.4,0.9-1,0.9h-0.8V227.9z M275.4,229.5c0.4,0,0.7-0.3,0.7-0.7
					s-0.3-0.7-0.7-0.7h-0.5v1.3H275.4z"/>
				<path d="M277.4,229.1v0.6h-0.3v-0.6l-0.7-1.1h0.3l0.5,0.9l0.5-0.9h0.3L277.4,229.1z"/>
				<path d="M279.3,228.8v0.2l-1.1,0.4v-0.2l0.9-0.3l-0.9-0.3v-0.2L279.3,228.8z"/>
				<path d="M270.2,234.6l-0.9,0.3l0.9,0.3v0.2l-1.1-0.4v-0.2l1.1-0.4V234.6z"/>
				<path d="M272.2,234.1v1.7h-0.3V235h-1v0.8h-0.3v-1.7h0.3v0.8h1v-0.8H272.2z"/>
				<path d="M273.1,234.1v1.7h-0.3v-1.5h-0.4v-0.2H273.1z"/>
				<path d="M274.7,234.8v0.2l-1.1,0.4v-0.2l0.9-0.3l-0.9-0.3v-0.2L274.7,234.8z"/>
				<path d="M275.8,234.1h0.2v1.6h1v0.2h-1.2L275.8,234.1L275.8,234.1z"/>
				<path d="M277.1,235.1c0-0.4,0.3-0.7,0.7-0.7c0.4,0,0.7,0.3,0.7,0.7s-0.3,0.7-0.7,0.7C277.4,235.8,277.1,235.5,277.1,235.1z
					 M278.3,235.1c0-0.3-0.2-0.5-0.5-0.5c-0.3,0-0.5,0.2-0.5,0.5s0.2,0.5,0.5,0.5C278,235.6,278.3,235.5,278.3,235.1z"/>
				<path d="M279.5,234.5v0.2h-0.1c-0.3,0-0.4,0.2-0.4,0.5v0.7h-0.2v-1.3h0.2v0.3C279.1,234.5,279.2,234.5,279.5,234.5z"/>
				<path d="M281,235.2h-1.1c0,0.3,0.2,0.4,0.5,0.4c0.2,0,0.3-0.1,0.4-0.2l0.1,0.1c-0.1,0.2-0.3,0.2-0.5,0.2c-0.4,0-0.7-0.3-0.7-0.7
					s0.3-0.7,0.7-0.7C280.8,234.5,281,234.8,281,235.2C281,235.1,281,235.2,281,235.2z M279.8,235h0.9c0-0.3-0.2-0.4-0.5-0.4
					C280.1,234.6,279.9,234.8,279.8,235z"/>
				<path d="M283.5,235v0.8h-0.2V235c0-0.3-0.2-0.4-0.4-0.4c-0.3,0-0.4,0.2-0.4,0.5v0.7h-0.2V235c0-0.3-0.2-0.4-0.4-0.4
					c-0.3,0-0.4,0.2-0.4,0.5v0.7h-0.2v-1.3h0.2v0.2c0.1-0.2,0.3-0.3,0.5-0.3c0.2,0,0.4,0.1,0.5,0.3c0.1-0.2,0.3-0.3,0.5-0.3
					C283.3,234.5,283.5,234.7,283.5,235z"/>
				<path d="M284.6,234.1c0-0.1,0.1-0.1,0.1-0.1s0.1,0.1,0.1,0.1s-0.1,0.1-0.1,0.1S284.6,234.1,284.6,234.1z M284.7,234.5h0.2v1.3
					h-0.2V234.5z"/>
				<path d="M286.7,235.1c0,0.4-0.3,0.7-0.7,0.7c-0.2,0-0.4-0.1-0.5-0.3v0.8h-0.2v-1.8h0.2v0.3c0.1-0.2,0.3-0.3,0.5-0.3
					C286.4,234.5,286.7,234.8,286.7,235.1z M286.5,235.1c0-0.3-0.2-0.5-0.5-0.5s-0.5,0.2-0.5,0.5s0.2,0.5,0.5,0.5
					C286.3,235.6,286.5,235.5,286.5,235.1z"/>
				<path d="M286.9,235.6l0.1-0.2c0.1,0.1,0.3,0.2,0.5,0.2c0.3,0,0.4-0.1,0.4-0.2c0-0.3-0.9-0.1-0.9-0.6c0-0.2,0.2-0.4,0.5-0.4
					c0.2,0,0.4,0.1,0.5,0.1l-0.1,0.2c-0.1-0.1-0.3-0.1-0.4-0.1c-0.2,0-0.3,0.1-0.3,0.2c0,0.4,0.9,0.1,0.9,0.6c0,0.2-0.2,0.4-0.5,0.4
					C287.2,235.8,287,235.7,286.9,235.6z"/>
				<path d="M289.5,234.5v1.3h-0.2v-0.2c-0.1,0.2-0.3,0.3-0.5,0.3c-0.3,0-0.5-0.2-0.5-0.5v-0.8h0.2v0.8c0,0.3,0.2,0.4,0.4,0.4
					c0.3,0,0.4-0.2,0.4-0.5v-0.7L289.5,234.5L289.5,234.5z"/>
				<path d="M292.2,235v0.8h-0.2V235c0-0.3-0.2-0.4-0.4-0.4c-0.3,0-0.4,0.2-0.4,0.5v0.7h-0.2V235c0-0.3-0.2-0.4-0.4-0.4
					c-0.3,0-0.4,0.2-0.4,0.5v0.7h-0.2v-1.3h0.2v0.2c0.1-0.2,0.3-0.3,0.5-0.3s0.4,0.1,0.5,0.3c0.1-0.2,0.3-0.3,0.5-0.3
					C292,234.5,292.2,234.7,292.2,235z"/>
				<path d="M294.6,233.9v1.9h-0.2v-0.3c-0.1,0.2-0.3,0.3-0.5,0.3c-0.4,0-0.7-0.3-0.7-0.7s0.3-0.7,0.7-0.7c0.2,0,0.4,0.1,0.5,0.3
					v-0.8H294.6z M294.4,235.1c0-0.3-0.2-0.5-0.5-0.5c-0.3,0-0.5,0.2-0.5,0.5s0.2,0.5,0.5,0.5C294.2,235.6,294.4,235.5,294.4,235.1z
					"/>
				<path d="M294.9,235.1c0-0.4,0.3-0.7,0.7-0.7c0.4,0,0.7,0.3,0.7,0.7s-0.3,0.7-0.7,0.7C295.2,235.8,294.9,235.5,294.9,235.1z
					 M296.1,235.1c0-0.3-0.2-0.5-0.5-0.5c-0.3,0-0.5,0.2-0.5,0.5s0.2,0.5,0.5,0.5C295.9,235.6,296.1,235.5,296.1,235.1z"/>
				<path d="M296.6,233.9h0.2v1.9h-0.2V233.9z"/>
				<path d="M297.2,235.1c0-0.4,0.3-0.7,0.7-0.7s0.7,0.3,0.7,0.7s-0.3,0.7-0.7,0.7S297.2,235.5,297.2,235.1z M298.4,235.1
					c0-0.3-0.2-0.5-0.5-0.5c-0.3,0-0.5,0.2-0.5,0.5s0.2,0.5,0.5,0.5C298.2,235.6,298.4,235.5,298.4,235.1z"/>
				<path d="M299.6,234.5v0.2h-0.1c-0.3,0-0.4,0.2-0.4,0.5v0.7h-0.2v-1.3h0.2v0.3C299.1,234.5,299.3,234.5,299.6,234.5z"/>
				<path d="M300.4,235.6l0.1-0.2c0.1,0.1,0.3,0.2,0.5,0.2c0.3,0,0.4-0.1,0.4-0.2c0-0.3-0.9-0.1-0.9-0.6c0-0.2,0.2-0.4,0.5-0.4
					c0.2,0,0.4,0.1,0.5,0.1l-0.1,0.2c-0.1-0.1-0.3-0.1-0.4-0.1c-0.2,0-0.3,0.1-0.3,0.2c0,0.4,0.9,0.1,0.9,0.6c0,0.2-0.2,0.4-0.5,0.4
					S300.5,235.7,300.4,235.6z"/>
				<path d="M301.8,234.1c0-0.1,0.1-0.1,0.1-0.1s0.1,0.1,0.1,0.1s-0.1,0.1-0.1,0.1S301.8,234.1,301.8,234.1z M301.8,234.5h0.2v1.3
					h-0.2V234.5z"/>
				<path d="M303.2,235.7c-0.1,0.1-0.2,0.1-0.3,0.1c-0.3,0-0.4-0.2-0.4-0.4v-0.8h-0.2v-0.2h0.2v-0.3h0.2v0.3h0.4v0.2h-0.4v0.8
					c0,0.2,0.1,0.2,0.2,0.2c0.1,0,0.2,0,0.2-0.1L303.2,235.7z"/>
				<path d="M305.2,235v0.8H305v-0.2c-0.1,0.2-0.2,0.2-0.4,0.2c-0.3,0-0.5-0.2-0.5-0.4c0-0.2,0.1-0.4,0.5-0.4h0.4V235
					c0-0.2-0.1-0.3-0.4-0.3c-0.2,0-0.3,0.1-0.4,0.2l-0.1-0.1c0.1-0.1,0.3-0.2,0.5-0.2C305,234.5,305.2,234.7,305.2,235z M305,235.4
					v-0.2h-0.4c-0.3,0-0.3,0.1-0.3,0.2c0,0.2,0.1,0.3,0.3,0.3S304.9,235.6,305,235.4z"/>
				<path d="M307.9,235v0.8h-0.2V235c0-0.3-0.2-0.4-0.4-0.4c-0.3,0-0.4,0.2-0.4,0.5v0.7h-0.2V235c0-0.3-0.2-0.4-0.4-0.4
					c-0.3,0-0.4,0.2-0.4,0.5v0.7h-0.2v-1.3h0.2v0.2c0.1-0.2,0.3-0.3,0.5-0.3s0.4,0.1,0.5,0.3c0.1-0.2,0.3-0.3,0.5-0.3
					C307.6,234.5,307.9,234.7,307.9,235z"/>
				<path d="M309.5,235.2h-1.1c0,0.3,0.2,0.4,0.5,0.4c0.2,0,0.3-0.1,0.4-0.2l0.1,0.1c-0.1,0.2-0.3,0.2-0.5,0.2
					c-0.4,0-0.7-0.3-0.7-0.7s0.3-0.7,0.7-0.7C309.3,234.5,309.6,234.8,309.5,235.2C309.5,235.1,309.5,235.2,309.5,235.2z M308.4,235
					h0.9c0-0.3-0.2-0.4-0.5-0.4C308.6,234.6,308.4,234.8,308.4,235z"/>
				<path d="M310.6,235.7c-0.1,0.1-0.2,0.1-0.3,0.1c-0.3,0-0.4-0.2-0.4-0.4v-0.8h-0.2v-0.2h0.2v-0.3h0.2v0.3h0.4v0.2h-0.4v0.8
					c0,0.2,0.1,0.2,0.2,0.2c0.1,0,0.2,0,0.2-0.1L310.6,235.7z"/>
				<path d="M311.1,235.7c0,0.1,0,0.1-0.1,0.2l-0.1,0.3h-0.1l0.1-0.4c-0.1,0-0.1-0.1-0.1-0.1c0-0.1,0.1-0.2,0.1-0.2
					C311,235.5,311.1,235.6,311.1,235.7z"/>
				<path d="M312,235.1c0-0.4,0.3-0.7,0.7-0.7c0.2,0,0.4,0.1,0.5,0.3l-0.1,0.1c-0.1-0.1-0.2-0.2-0.4-0.2c-0.3,0-0.5,0.2-0.5,0.5
					s0.2,0.5,0.5,0.5c0.2,0,0.3-0.1,0.4-0.2l0.1,0.1c-0.1,0.2-0.3,0.3-0.5,0.3C312.3,235.8,312,235.5,312,235.1z"/>
				<path d="M313.4,235.1c0-0.4,0.3-0.7,0.7-0.7c0.4,0,0.7,0.3,0.7,0.7s-0.3,0.7-0.7,0.7C313.7,235.8,313.4,235.5,313.4,235.1z
					 M314.6,235.1c0-0.3-0.2-0.5-0.5-0.5s-0.5,0.2-0.5,0.5s0.2,0.5,0.5,0.5C314.4,235.6,314.6,235.5,314.6,235.1z"/>
				<path d="M316.3,235v0.8h-0.2V235c0-0.3-0.2-0.4-0.4-0.4c-0.3,0-0.5,0.2-0.5,0.5v0.7h-0.2v-1.3h0.2v0.3c0.1-0.2,0.3-0.3,0.5-0.3
					C316.1,234.5,316.3,234.7,316.3,235z"/>
				<path d="M316.6,235.6l0.1-0.2c0.1,0.1,0.3,0.2,0.5,0.2c0.3,0,0.4-0.1,0.4-0.2c0-0.3-0.9-0.1-0.9-0.6c0-0.2,0.2-0.4,0.5-0.4
					c0.2,0,0.4,0.1,0.5,0.1l-0.1,0.2c-0.1-0.1-0.3-0.1-0.4-0.1c-0.2,0-0.3,0.1-0.3,0.2c0,0.4,0.9,0.1,0.9,0.6c0,0.2-0.2,0.4-0.5,0.4
					C317,235.8,316.8,235.7,316.6,235.6z"/>
				<path d="M319.2,235.2h-1.1c0,0.3,0.2,0.4,0.5,0.4c0.2,0,0.3-0.1,0.4-0.2l0.1,0.1c-0.1,0.2-0.3,0.2-0.5,0.2
					c-0.4,0-0.7-0.3-0.7-0.7s0.3-0.7,0.7-0.7S319.3,234.8,319.2,235.2C319.2,235.1,319.2,235.2,319.2,235.2z M318.1,235h0.9
					c0-0.3-0.2-0.4-0.5-0.4C318.3,234.6,318.1,234.8,318.1,235z"/>
				<path d="M319.5,235.1c0-0.4,0.3-0.7,0.7-0.7c0.2,0,0.4,0.1,0.5,0.3l-0.1,0.1c-0.1-0.1-0.2-0.2-0.4-0.2c-0.3,0-0.5,0.2-0.5,0.5
					s0.2,0.5,0.5,0.5c0.2,0,0.3-0.1,0.4-0.2l0.1,0.1c-0.1,0.2-0.3,0.3-0.5,0.3C319.8,235.8,319.5,235.5,319.5,235.1z"/>
				<path d="M321.7,235.7c-0.1,0.1-0.2,0.1-0.3,0.1c-0.3,0-0.4-0.2-0.4-0.4v-0.8h-0.2v-0.2h0.2v-0.3h0.2v0.3h0.4v0.2h-0.4v0.8
					c0,0.2,0.1,0.2,0.2,0.2c0.1,0,0.2,0,0.2-0.1L321.7,235.7z"/>
				<path d="M323.2,235.2h-1.1c0,0.3,0.2,0.4,0.5,0.4c0.2,0,0.3-0.1,0.4-0.2l0.1,0.1c-0.1,0.2-0.3,0.2-0.5,0.2
					c-0.4,0-0.7-0.3-0.7-0.7s0.3-0.7,0.7-0.7S323.2,234.8,323.2,235.2C323.2,235.1,323.2,235.2,323.2,235.2z M322,235h0.9
					c0-0.3-0.2-0.4-0.5-0.4C322.3,234.6,322.1,234.8,322,235z"/>
				<path d="M324.2,235.7c-0.1,0.1-0.2,0.1-0.3,0.1c-0.3,0-0.4-0.2-0.4-0.4v-0.8h-0.2v-0.2h0.2v-0.3h0.2v0.3h0.4v0.2h-0.4v0.8
					c0,0.2,0.1,0.2,0.2,0.2c0.1,0,0.2,0,0.2-0.1L324.2,235.7z"/>
				<path d="M325.8,234.5v1.3h-0.2v-0.2c-0.1,0.2-0.3,0.3-0.5,0.3c-0.3,0-0.5-0.2-0.5-0.5v-0.8h0.2v0.8c0,0.3,0.2,0.4,0.4,0.4
					c0.3,0,0.4-0.2,0.4-0.5v-0.7L325.8,234.5L325.8,234.5z"/>
				<path d="M327.4,235.2h-1.1c0,0.3,0.2,0.4,0.5,0.4c0.2,0,0.3-0.1,0.4-0.2l0.1,0.1c-0.1,0.2-0.3,0.2-0.5,0.2
					c-0.4,0-0.7-0.3-0.7-0.7s0.3-0.7,0.7-0.7C327.2,234.5,327.5,234.8,327.4,235.2C327.4,235.1,327.4,235.2,327.4,235.2z M326.3,235
					h0.9c0-0.3-0.2-0.4-0.5-0.4C326.5,234.6,326.4,234.8,326.3,235z"/>
				<path d="M328.5,234.5v0.2h-0.1c-0.3,0-0.4,0.2-0.4,0.5v0.7h-0.2v-1.3h0.2v0.3C328,234.5,328.2,234.5,328.5,234.5z"/>
				<path d="M270.2,238v0.8H270v-0.2c-0.1,0.2-0.2,0.2-0.4,0.2c-0.3,0-0.5-0.2-0.5-0.4c0-0.2,0.1-0.4,0.5-0.4h0.4V238
					c0-0.2-0.1-0.3-0.4-0.3c-0.2,0-0.3,0.1-0.4,0.2l-0.1-0.1c0.1-0.1,0.3-0.2,0.5-0.2C270,237.5,270.2,237.7,270.2,238z M270,238.4
					v-0.2h-0.4c-0.3,0-0.3,0.1-0.3,0.2c0,0.2,0.1,0.3,0.3,0.3S269.9,238.6,270,238.4z"/>
				<path d="M271.9,236.9v1.9h-0.2v-0.3c-0.1,0.2-0.3,0.3-0.5,0.3c-0.4,0-0.7-0.3-0.7-0.7s0.3-0.7,0.7-0.7c0.2,0,0.4,0.1,0.5,0.3
					v-0.8H271.9z M271.7,238.2c0-0.3-0.2-0.5-0.5-0.5s-0.5,0.2-0.5,0.5s0.2,0.5,0.5,0.5C271.5,238.7,271.7,238.5,271.7,238.2z"/>
				<path d="M272.3,237.1c0-0.1,0.1-0.1,0.1-0.1s0.1,0.1,0.1,0.1c0,0.1-0.1,0.1-0.1,0.1S272.3,237.2,272.3,237.1z M272.4,237.5h0.2
					v1.3h-0.2V237.5z"/>
				<path d="M274.4,238.2c0,0.4-0.3,0.7-0.7,0.7c-0.2,0-0.4-0.1-0.5-0.3v0.8h-0.2v-1.8h0.2v0.3c0.1-0.2,0.3-0.3,0.5-0.3
					C274.1,237.5,274.4,237.8,274.4,238.2z M274.2,238.2c0-0.3-0.2-0.5-0.5-0.5c-0.3,0-0.5,0.2-0.5,0.5s0.2,0.5,0.5,0.5
					C274,238.7,274.2,238.5,274.2,238.2z"/>
				<path d="M274.7,237.1c0-0.1,0.1-0.1,0.1-0.1s0.1,0.1,0.1,0.1c0,0.1-0.1,0.1-0.1,0.1C274.8,237.2,274.7,237.2,274.7,237.1z
					 M274.8,237.5h0.2v1.3h-0.2V237.5z"/>
				<path d="M275.3,238.7l0.1-0.2c0.1,0.1,0.3,0.2,0.5,0.2c0.3,0,0.4-0.1,0.4-0.2c0-0.3-0.9-0.1-0.9-0.6c0-0.2,0.2-0.4,0.5-0.4
					c0.2,0,0.4,0.1,0.5,0.1l-0.1,0.2c-0.1-0.1-0.3-0.1-0.4-0.1c-0.2,0-0.3,0.1-0.3,0.2c0,0.4,0.9,0.1,0.9,0.6c0,0.2-0.2,0.4-0.5,0.4
					C275.6,238.9,275.4,238.8,275.3,238.7z"/>
				<path d="M276.6,238.2c0-0.4,0.3-0.7,0.7-0.7c0.2,0,0.4,0.1,0.5,0.3l-0.1,0.1c-0.1-0.1-0.2-0.2-0.4-0.2c-0.3,0-0.5,0.2-0.5,0.5
					c0,0.3,0.2,0.5,0.5,0.5c0.2,0,0.3-0.1,0.4-0.2l0.1,0.1c-0.1,0.2-0.3,0.3-0.5,0.3C276.8,238.9,276.6,238.6,276.6,238.2z"/>
				<path d="M278,237.1c0-0.1,0.1-0.1,0.1-0.1s0.1,0.1,0.1,0.1c0,0.1-0.1,0.1-0.1,0.1S278,237.2,278,237.1z M278.1,237.5h0.2v1.3
					h-0.2V237.5z"/>
				<path d="M280,238.1v0.8h-0.2v-0.8c0-0.3-0.2-0.4-0.4-0.4c-0.3,0-0.5,0.2-0.5,0.5v0.7h-0.2v-1.3h0.2v0.3c0.1-0.2,0.3-0.3,0.5-0.3
					C279.8,237.5,280,237.7,280,238.1z"/>
				<path d="M281.7,237.5v1.1c0,0.4-0.2,0.7-0.7,0.7c-0.2,0-0.5-0.1-0.6-0.2l0.1-0.2c0.1,0.1,0.3,0.2,0.5,0.2c0.3,0,0.5-0.2,0.5-0.5
					v-0.2c-0.1,0.2-0.3,0.3-0.5,0.3c-0.4,0-0.7-0.3-0.7-0.7s0.3-0.7,0.7-0.7c0.2,0,0.4,0.1,0.5,0.3v-0.3h0.1V237.5z M281.5,238.1
					c0-0.3-0.2-0.5-0.5-0.5c-0.3,0-0.5,0.2-0.5,0.5c0,0.3,0.2,0.5,0.5,0.5C281.4,238.6,281.5,238.4,281.5,238.1z"/>
				<path d="M284,238.3h-1.1c0,0.3,0.2,0.4,0.5,0.4c0.2,0,0.3-0.1,0.4-0.2l0.1,0.1c-0.1,0.2-0.3,0.2-0.5,0.2c-0.4,0-0.7-0.3-0.7-0.7
					c0-0.4,0.3-0.7,0.7-0.7C283.8,237.5,284.1,237.8,284,238.3C284,238.2,284,238.2,284,238.3z M282.9,238.1h0.9
					c0-0.3-0.2-0.4-0.5-0.4C283.2,237.7,282.9,237.8,282.9,238.1z"/>
				<path d="M284.4,236.9h0.2v1.9h-0.2V236.9z"/>
				<path d="M285.1,237.1c0-0.1,0.1-0.1,0.1-0.1c0.1,0,0.1,0.1,0.1,0.1c0,0.1-0.1,0.1-0.1,0.1C285.1,237.2,285.1,237.2,285.1,237.1z
					 M285.1,237.5h0.2v1.3h-0.2V237.5z"/>
				<path d="M286.5,238.7c-0.1,0.1-0.2,0.1-0.3,0.1c-0.3,0-0.4-0.2-0.4-0.4v-0.8h-0.2v-0.2h0.2v-0.3h0.2v0.3h0.4v0.2H286v0.8
					c0,0.2,0.1,0.2,0.2,0.2c0.1,0,0.2,0,0.2-0.1L286.5,238.7z"/>
				<path d="M287,238.7c0,0.1,0,0.1-0.1,0.2l-0.1,0.3h-0.1l0.1-0.4c-0.1,0-0.1-0.1-0.1-0.1c0-0.1,0.1-0.2,0.1-0.2
					C286.9,238.6,287,238.6,287,238.7z"/>
				<path d="M287.9,238.7l0.1-0.2c0.1,0.1,0.3,0.2,0.5,0.2c0.3,0,0.4-0.1,0.4-0.2c0-0.3-0.9-0.1-0.9-0.6c0-0.2,0.2-0.4,0.5-0.4
					c0.2,0,0.4,0.1,0.5,0.1l-0.1,0.2c-0.1-0.1-0.3-0.1-0.4-0.1c-0.2,0-0.3,0.1-0.3,0.2c0,0.4,0.9,0.1,0.9,0.6c0,0.2-0.2,0.4-0.5,0.4
					C288.2,238.9,288,238.8,287.9,238.7z"/>
				<path d="M290.4,238.3h-1.1c0,0.3,0.2,0.4,0.5,0.4c0.2,0,0.3-0.1,0.4-0.2l0.1,0.1c-0.1,0.2-0.3,0.2-0.5,0.2
					c-0.4,0-0.7-0.3-0.7-0.7c0-0.4,0.3-0.7,0.7-0.7C290.2,237.5,290.5,237.8,290.4,238.3C290.4,238.2,290.4,238.2,290.4,238.3z
					 M289.3,238.1h0.9c0-0.3-0.2-0.4-0.5-0.4C289.5,237.7,289.3,237.8,289.3,238.1z"/>
				<path d="M292,236.9v1.9h-0.2v-0.3c-0.1,0.2-0.3,0.3-0.5,0.3c-0.4,0-0.7-0.3-0.7-0.7s0.3-0.7,0.7-0.7c0.2,0,0.4,0.1,0.5,0.3v-0.8
					H292z M291.8,238.2c0-0.3-0.2-0.5-0.5-0.5c-0.3,0-0.5,0.2-0.5,0.5s0.2,0.5,0.5,0.5C291.6,238.7,291.8,238.5,291.8,238.2z"/>
				<path d="M294.4,236.9v1.9h-0.2v-0.3c-0.1,0.2-0.3,0.3-0.5,0.3c-0.4,0-0.7-0.3-0.7-0.7s0.3-0.7,0.7-0.7c0.2,0,0.4,0.1,0.5,0.3
					v-0.8H294.4z M294.2,238.2c0-0.3-0.2-0.5-0.5-0.5s-0.5,0.2-0.5,0.5s0.2,0.5,0.5,0.5C294,238.7,294.2,238.5,294.2,238.2z"/>
				<path d="M294.8,237.1c0-0.1,0.1-0.1,0.1-0.1s0.1,0.1,0.1,0.1c0,0.1-0.1,0.1-0.1,0.1S294.8,237.2,294.8,237.1z M294.9,237.5h0.2
					v1.3h-0.2V237.5z"/>
				<path d="M296.6,238v0.8h-0.2v-0.2c-0.1,0.2-0.2,0.2-0.4,0.2c-0.3,0-0.5-0.2-0.5-0.4c0-0.2,0.1-0.4,0.5-0.4h0.4V238
					c0-0.2-0.1-0.3-0.4-0.3c-0.2,0-0.3,0.1-0.4,0.2l-0.1-0.1c0.1-0.1,0.3-0.2,0.5-0.2C296.4,237.5,296.6,237.7,296.6,238z
					 M296.4,238.4v-0.2h-0.4c-0.3,0-0.3,0.1-0.3,0.2c0,0.2,0.1,0.3,0.3,0.3S296.3,238.6,296.4,238.4z"/>
				<path d="M299.3,238.1v0.8h-0.2v-0.8c0-0.3-0.2-0.4-0.4-0.4c-0.3,0-0.4,0.2-0.4,0.5v0.7h-0.2v-0.8c0-0.3-0.2-0.4-0.4-0.4
					c-0.3,0-0.4,0.2-0.4,0.5v0.7h-0.2v-1.3h0.2v0.2c0.1-0.2,0.3-0.3,0.5-0.3s0.4,0.1,0.5,0.3c0.1-0.2,0.3-0.3,0.5-0.3
					C299,237.5,299.3,237.7,299.3,238.1z"/>
				<path d="M300.8,237.6l-0.9,0.3l0.9,0.3v0.2l-1.1-0.4v-0.2l1.1-0.4V237.6z"/>
				<path d="M301.7,236.7h0.2l-0.8,2.4h-0.2L301.7,236.7z"/>
				<path d="M303.6,237.1v1.7h-0.3V238h-1v0.8H302v-1.7h0.3v0.8h1v-0.8H303.6z"/>
				<path d="M304.5,237.1v1.7h-0.2v-1.5h-0.4v-0.2H304.5z"/>
				<path d="M306.1,237.8v0.2l-1.1,0.4v-0.2l0.9-0.3l-0.9-0.3v-0.2L306.1,237.8z"/>
				<path d="M270.2,243.7l-0.9,0.3l0.9,0.3v0.2l-1.1-0.4v-0.2l1.1-0.4V243.7z"/>
				<path d="M272.1,243.8c0,0.4-0.3,0.6-0.8,0.6h-0.4v0.5h-0.3v-1.7h0.7C271.8,243.1,272.1,243.4,272.1,243.8z M271.8,243.8
					c0-0.3-0.2-0.4-0.5-0.4h-0.4v0.8h0.4C271.7,244.1,271.8,244,271.8,243.8z"/>
				<path d="M273.5,243.9v0.2l-1.1,0.4v-0.2l0.9-0.3l-0.9-0.3v-0.2L273.5,243.9z"/>
				<path d="M275.6,243.7l-0.9,0.3l0.9,0.3v0.2l-1.1-0.4v-0.2l1.1-0.4V243.7z"/>
				<path d="M276.1,243.1h0.3v1.7h-0.3V243.1z"/>
				<path d="M278.5,244.9v-1.3l-0.7,1.1h-0.1l-0.7-1.1v1.3h-0.2v-1.7h0.2l0.8,1.3l0.7-1.3h0.2v1.7H278.5z"/>
				<path d="M280.5,244h0.2v0.7c-0.2,0.2-0.4,0.2-0.7,0.2c-0.5,0-0.9-0.4-0.9-0.9c0-0.5,0.4-0.9,0.9-0.9c0.3,0,0.5,0.1,0.7,0.3
					l-0.2,0.2c-0.2-0.2-0.3-0.2-0.5-0.2c-0.4,0-0.7,0.3-0.7,0.7s0.3,0.7,0.7,0.7c0.2,0,0.3-0.1,0.4-0.1V244z"/>
				<path d="M281.7,244.7l0.1-0.2c0.1,0.1,0.4,0.2,0.6,0.2c0.3,0,0.4-0.1,0.4-0.3c0-0.4-1.1-0.2-1.1-0.8c0-0.3,0.2-0.5,0.7-0.5
					c0.2,0,0.4,0.1,0.5,0.2l-0.1,0.2c-0.2-0.1-0.3-0.2-0.5-0.2c-0.3,0-0.4,0.1-0.4,0.3c0,0.4,1.1,0.2,1.1,0.8c0,0.3-0.2,0.5-0.7,0.5
					C282.2,244.9,281.9,244.9,281.7,244.7z"/>
				<path d="M284.7,244.9l-0.4-0.5c-0.1,0-0.1,0-0.1,0h-0.4v0.5h-0.3v-1.7h0.7c0.4,0,0.8,0.2,0.8,0.6c0,0.3-0.2,0.5-0.4,0.5l0.4,0.6
					L284.7,244.9L284.7,244.9z M284.7,243.8c0-0.3-0.2-0.4-0.5-0.4h-0.4v0.8h0.4C284.5,244.1,284.7,244,284.7,243.8z"/>
				<path d="M285.2,244c0-0.5,0.4-0.9,0.9-0.9c0.3,0,0.5,0.1,0.7,0.3l-0.2,0.2c-0.2-0.2-0.3-0.2-0.5-0.2c-0.4,0-0.7,0.3-0.7,0.7
					s0.3,0.7,0.7,0.7c0.2,0,0.4-0.1,0.5-0.2l0.2,0.2c-0.2,0.2-0.4,0.3-0.7,0.3C285.6,244.9,285.2,244.5,285.2,244z"/>
				<path d="M287,243.6h1.1v0.2H287V243.6z M287,244.2h1.1v0.2H287V244.2z"/>
				<path d="M289.2,243.1h0.2v0.7h-0.2L289.2,243.1z M289.7,243.1h0.2v0.7h-0.2L289.7,243.1z"/>
				<path d="M290.3,243.1h0.3v1.5h1v0.2h-1.2L290.3,243.1L290.3,243.1z"/>
				<path d="M291.6,244.3c0-0.4,0.3-0.7,0.7-0.7c0.4,0,0.7,0.3,0.7,0.7c0,0.4-0.3,0.7-0.7,0.7C291.9,244.9,291.6,244.6,291.6,244.3z
					 M292.8,244.3c0-0.3-0.2-0.5-0.4-0.5c-0.3,0-0.4,0.2-0.4,0.5c0,0.3,0.2,0.5,0.4,0.5C292.6,244.7,292.8,244.5,292.8,244.3z"/>
				<path d="M294.1,243.5v0.2H294c-0.3,0-0.4,0.2-0.4,0.4v0.7h-0.2v-1.4h0.2v0.2C293.7,243.7,293.9,243.5,294.1,243.5z"/>
				<path d="M295.5,244.3h-1.1c0.1,0.2,0.2,0.4,0.5,0.4c0.2,0,0.3-0.1,0.4-0.2l0.1,0.2c-0.1,0.2-0.3,0.2-0.5,0.2
					c-0.4,0-0.7-0.3-0.7-0.7c0-0.4,0.3-0.7,0.7-0.7s0.7,0.3,0.7,0.7C295.5,244.3,295.5,244.3,295.5,244.3z M294.5,244.1h0.9
					c0-0.2-0.2-0.4-0.4-0.4S294.5,243.9,294.5,244.1z"/>
				<path d="M298.1,244.1v0.8h-0.2v-0.8c0-0.3-0.1-0.4-0.3-0.4s-0.4,0.2-0.4,0.4v0.7H297v-0.8c0-0.3-0.1-0.4-0.3-0.4
					c-0.2,0-0.4,0.2-0.4,0.4v0.7H296v-1.4h0.2v0.2c0.1-0.2,0.3-0.2,0.4-0.2c0.2,0,0.4,0.1,0.5,0.3c0.1-0.2,0.3-0.3,0.5-0.3
					C297.9,243.5,298.1,243.8,298.1,244.1z"/>
				<path d="M299.2,243.2c0-0.1,0.1-0.2,0.2-0.2c0.1,0,0.2,0.1,0.2,0.2c0,0.1-0.1,0.2-0.2,0.2C299.3,243.3,299.2,243.2,299.2,243.2z
					 M299.3,243.5h0.2v1.4h-0.2V243.5z"/>
				<path d="M301.3,244.3c0,0.4-0.3,0.7-0.7,0.7c-0.2,0-0.4-0.1-0.5-0.2v0.7H300v-1.9h0.2v0.2c0.1-0.2,0.3-0.2,0.5-0.2
					C301.1,243.5,301.3,243.8,301.3,244.3z M301.1,244.3c0-0.3-0.2-0.5-0.4-0.5c-0.3,0-0.4,0.2-0.4,0.5c0,0.3,0.2,0.5,0.4,0.5
					C300.9,244.7,301.1,244.5,301.1,244.3z"/>
				<path d="M301.5,244.7l0.1-0.2c0.1,0.1,0.3,0.2,0.5,0.2s0.3-0.1,0.3-0.2c0-0.3-0.9-0.1-0.9-0.6c0-0.2,0.2-0.4,0.5-0.4
					c0.2,0,0.4,0.1,0.5,0.1l-0.1,0.2c-0.1-0.1-0.3-0.1-0.4-0.1c-0.2,0-0.3,0.1-0.3,0.2c0,0.3,0.9,0.1,0.9,0.6c0,0.2-0.2,0.4-0.6,0.4
					C301.8,244.9,301.6,244.9,301.5,244.7z"/>
				<path d="M304.2,243.5v1.4H304v-0.2c-0.1,0.2-0.3,0.2-0.4,0.2c-0.3,0-0.6-0.2-0.6-0.6v-0.8h0.2v0.8c0,0.3,0.1,0.4,0.4,0.4
					c0.3,0,0.4-0.2,0.4-0.4v-0.7L304.2,243.5L304.2,243.5z"/>
				<path d="M306.9,244.1v0.8h-0.2v-0.8c0-0.3-0.1-0.4-0.3-0.4s-0.4,0.2-0.4,0.4v0.7h-0.2v-0.8c0-0.3-0.1-0.4-0.3-0.4
					s-0.4,0.2-0.4,0.4v0.7h-0.2v-1.4h0.2v0.2c0.1-0.2,0.3-0.2,0.4-0.2c0.2,0,0.4,0.1,0.5,0.3c0.1-0.2,0.3-0.3,0.5-0.3
					S306.9,243.8,306.9,244.1z"/>
				<path d="M307.3,243.1h0.2v0.7h-0.2L307.3,243.1z M307.7,243.1h0.2v0.7h-0.2L307.7,243.1z"/>
				<path d="M309.4,243.9v0.2l-1.1,0.4v-0.2l0.9-0.3l-0.9-0.3v-0.2L309.4,243.9z"/>
				<path d="M310.9,243.7L310,244l0.9,0.3v0.2l-1.1-0.4v-0.2l1.1-0.4V243.7z"/>
				<path d="M311.8,242.8h0.2l-0.8,2.4H311L311.8,242.8z"/>
				<path d="M313.6,243.8c0,0.4-0.3,0.6-0.8,0.6h-0.4v0.5h-0.3v-1.7h0.7C313.3,243.1,313.6,243.4,313.6,243.8z M313.4,243.8
					c0-0.3-0.2-0.4-0.5-0.4h-0.4v0.8h0.4C313.2,244.1,313.4,244,313.4,243.8z"/>
				<path d="M315.1,243.9v0.2l-1.1,0.4v-0.2l0.9-0.3l-0.9-0.3v-0.2L315.1,243.9z"/>
				<path d="M270.2,249.8l-0.9,0.3l0.9,0.3v0.2l-1.1-0.4V250l1.1-0.4V249.8z"/>
				<path d="M271.2,248.8h0.2l-0.9,2.4h-0.2L271.2,248.8z"/>
				<path d="M273.1,250.5c0,0.3-0.2,0.5-0.7,0.5h-0.8v-1.7h0.8c0.4,0,0.7,0.2,0.7,0.4c0,0.2-0.1,0.3-0.2,0.4
					C272.9,250.1,273.1,250.3,273.1,250.5z M271.8,249.4v0.5h0.5c0.3,0,0.4-0.1,0.4-0.3s-0.2-0.3-0.4-0.3H271.8z M272.8,250.5
					c0-0.2-0.2-0.3-0.4-0.3h-0.6v0.6h0.6C272.6,250.7,272.8,250.7,272.8,250.5z"/>
				<path d="M273.3,250.1c0-0.5,0.4-0.9,0.9-0.9c0.5,0,0.9,0.4,0.9,0.9c0,0.5-0.4,0.9-0.9,0.9C273.7,251,273.3,250.6,273.3,250.1z
					 M274.9,250.1c0-0.4-0.3-0.7-0.7-0.7c-0.4,0-0.7,0.3-0.7,0.7c0,0.4,0.3,0.7,0.7,0.7C274.7,250.7,274.9,250.5,274.9,250.1z"/>
				<path d="M275.6,249.2h0.8c0.5,0,1,0.4,1,0.9c0,0.5-0.4,0.9-1,0.9h-0.8V249.2z M276.3,250.7c0.4,0,0.7-0.3,0.7-0.7
					s-0.3-0.7-0.7-0.7h-0.5v1.3H276.3z"/>
				<path d="M278.3,250.4v0.6H278v-0.6l-0.7-1.1h0.3l0.5,0.9l0.5-0.9h0.3L278.3,250.4z"/>
				<path d="M280.3,250v0.2l-1.1,0.4v-0.2l0.9-0.3l-0.9-0.3v-0.2L280.3,250z"/>
			</g>
			<g>
				<g>
					<path class="st8" d="M338.2,202.4c0,0.1-17.5,0.2-39.1,0.2c-21.6,0-39.1-0.1-39.1-0.2c0-0.1,17.5-0.2,39.1-0.2
						C320.7,202.2,338.2,202.3,338.2,202.4z"/>
				</g>
			</g>
			<g>
				<g>
					<path class="st8" d="M262.4,199.5c0,0.3-0.2,0.5-0.5,0.5s-0.5-0.2-0.5-0.5c0-0.3,0.2-0.5,0.5-0.5
						C262.2,199.1,262.4,199.3,262.4,199.5z"/>
				</g>
				<g>
					<circle class="st8" cx="263.9" cy="199.5" r="0.5"/>
				</g>
				<g>
					<path class="st8" d="M266.3,199.5c0,0.3-0.2,0.5-0.5,0.5c-0.3,0-0.5-0.2-0.5-0.5c0-0.3,0.2-0.5,0.5-0.5
						C266,199.1,266.3,199.3,266.3,199.5z"/>
				</g>
			</g>
			<g>
				<g>
					<path class="st3" d="M265.1,261.5c-0.1,0-0.2-13.3-0.2-29.6s0.1-29.6,0.2-29.6c0.1,0,0.2,13.3,0.2,29.6
						C265.2,248.2,265.1,261.5,265.1,261.5z"/>
				</g>
			</g>
		</g>
		<g>
			<g>
				<g>
					<g>
						<rect x="155.6" y="144.8" class="st9" width="32.3" height="23"/>
					</g>
				</g>
				<g>
					<g>
						<g>
							<path class="st2" d="M188.1,148.2c0,0.1-7.3,0.2-16.3,0.2s-16.3-0.1-16.3-0.2c0-0.1,7.3-0.2,16.3-0.2
								C180.9,148.1,188.1,148.1,188.1,148.2z"/>
						</g>
					</g>
				</g>
				<g>
					<g>
						<g>
							<path class="st2" d="M158.2,146.5c0,0.2-0.2,0.4-0.4,0.4s-0.4-0.2-0.4-0.4s0.2-0.4,0.4-0.4
								C158,146.2,158.2,146.3,158.2,146.5z"/>
						</g>
					</g>
					<g>
						<g>
							<path class="st2" d="M159.8,146.5c0,0.2-0.2,0.4-0.4,0.4s-0.4-0.2-0.4-0.4s0.2-0.4,0.4-0.4S159.8,146.3,159.8,146.5z"/>
						</g>
					</g>
					<g>
						<g>
							<ellipse class="st2" cx="161" cy="146.5" rx="0.4" ry="0.4"/>
						</g>
					</g>
				</g>
			</g>
			<g>
				<g>
					<path class="st2" d="M167.5,157.4c0,1.4-1,2.2-2.7,2.2h-1.7v2.1h-0.7v-6.5h2.5C166.5,155.2,167.5,156,167.5,157.4z
						 M166.9,157.4c0-1-0.7-1.6-2-1.6h-1.7v3.3h1.7C166.2,159,166.9,158.4,166.9,157.4z"/>
				</g>
				<g>
					<path class="st2" d="M174.4,155.2v6.5h-0.7v-3h-4.1v3H169v-6.5h0.7v2.9h4.1v-2.9H174.4z"/>
				</g>
				<g>
					<path class="st2" d="M181.6,157.4c0,1.4-1,2.2-2.7,2.2h-1.7v2.1h-0.7v-6.5h2.5C180.7,155.2,181.6,156,181.6,157.4z
						 M180.9,157.4c0-1-0.7-1.6-2-1.6h-1.7v3.3h1.7C180.3,159,180.9,158.4,180.9,157.4z"/>
				</g>
			</g>
		</g>
		<g>
			<g>
				<g>
					<rect x="331.3" y="232.9" class="st9" width="29.2" height="20.8"/>
				</g>
			</g>
			<g>
				<g>
					<path class="st2" d="M341.1,242.5v4.1h-1V245h-1.9v1.7h-1v-4.1h1v1.6h1.9v-1.6H341.1z"/>
				</g>
				<g>
					<path class="st2" d="M342.9,243.3h-1.3v-0.8h3.6v0.8h-1.3v3.3h-1L342.9,243.3L342.9,243.3z"/>
				</g>
				<g>
					<path class="st2" d="M345.7,242.5h1v3.3h2.1v0.8h-3.1L345.7,242.5L345.7,242.5z"/>
				</g>
				<g>
					<path class="st2" d="M353.1,246.7v-2.5l-1.2,2h-0.4l-1.2-2v2.4h-0.9v-4.1h0.8l1.5,2.6l1.5-2.6h0.8v4.1H353.1z"/>
				</g>
			</g>
			<g>
				<g>
					<g>
						<g>
							<path class="st2" d="M360.7,236c0,0.1-6.6,0.1-14.7,0.1c-8.1,0-14.7-0.1-14.7-0.1s6.6-0.1,14.7-0.1
								C354.1,235.9,360.7,235.9,360.7,236z"/>
						</g>
					</g>
				</g>
				<g>
					<g>
						<g>
							<path class="st2" d="M333.7,234.4c0,0.2-0.2,0.3-0.4,0.3s-0.4-0.2-0.4-0.3c0-0.2,0.2-0.3,0.4-0.3
								C333.4,234.1,333.7,234.2,333.7,234.4z"/>
						</g>
					</g>
					<g>
						<g>
							<path class="st2" d="M335.1,234.4c0,0.2-0.2,0.3-0.4,0.3s-0.4-0.2-0.4-0.3c0-0.2,0.2-0.3,0.4-0.3S335.1,234.2,335.1,234.4z"
								/>
						</g>
					</g>
					<g>
						<g>
							<path class="st2" d="M336.5,234.4c0,0.2-0.2,0.3-0.4,0.3c-0.2,0-0.4-0.2-0.4-0.3c0-0.2,0.2-0.3,0.4-0.3
								C336.3,234.1,336.5,234.2,336.5,234.4z"/>
						</g>
					</g>
				</g>
			</g>
		</g>
		<g>
			<g>
				<g>
					<rect x="140.1" y="232.6" class="st9" width="21.5" height="15.3"/>
				</g>
			</g>
			<g>
				<g>
					<g>
						<g>
							<path class="st2" d="M161.8,234.8c0,0.1-4.9,0.1-10.9,0.1s-10.9-0.1-10.9-0.1s4.9-0.1,10.9-0.1
								C156.9,234.8,161.8,234.8,161.8,234.8z"/>
						</g>
					</g>
				</g>
				<g>
					<g>
						<g>
							<path class="st2" d="M141.8,233.7c0,0.2-0.1,0.3-0.3,0.3c-0.2,0-0.3-0.1-0.3-0.3c0-0.2,0.1-0.3,0.3-0.3
								C141.7,233.5,141.8,233.6,141.8,233.7z"/>
						</g>
					</g>
					<g>
						<g>
							<path class="st2" d="M142.9,233.7c0,0.2-0.1,0.3-0.3,0.3c-0.2,0-0.3-0.1-0.3-0.3c0-0.2,0.1-0.3,0.3-0.3
								C142.8,233.5,142.9,233.6,142.9,233.7z"/>
						</g>
					</g>
					<g>
						<g>
							<path class="st2" d="M144,233.7c0,0.2-0.1,0.3-0.3,0.3s-0.3-0.1-0.3-0.3c0-0.2,0.1-0.3,0.3-0.3
								C143.8,233.5,144,233.6,144,233.7z"/>
						</g>
					</g>
				</g>
			</g>
		</g>
		<g>
			<g>
				<g>
					<path class="st9" d="M268.4,173.4c0-2.3,1.8-4.1,4.2-4.1c1.1,0,2.2,0.4,2.9,1.1l-0.4,0.4c-0.7-0.7-1.5-1-2.5-1
						c-2.1,0-3.6,1.5-3.6,3.5c0,2,1.6,3.5,3.6,3.5c0.9,0,1.8-0.3,2.5-1l0.4,0.4c-0.7,0.8-1.7,1.1-2.9,1.1
						C270.1,177.5,268.4,175.8,268.4,173.4z"/>
				</g>
				<g>
					<path class="st9" d="M276.5,176.4l0.3-0.4c0.5,0.6,1.6,1,2.7,1c1.6,0,2.3-0.7,2.3-1.6c0-2.4-5-1-5-3.9c0-1.1,0.9-2.1,2.8-2.1
						c0.9,0,1.8,0.3,2.5,0.7l-0.2,0.5c-0.7-0.4-1.5-0.7-2.2-0.7c-1.6,0-2.3,0.7-2.3,1.6c0,2.4,5,1,5,3.9c0,1.1-0.9,2.1-2.9,2.1
						C278.3,177.5,277.1,177.1,276.5,176.4z"/>
				</g>
				<g>
					<path class="st9" d="M283.5,176.4l0.3-0.4c0.5,0.6,1.6,1,2.7,1c1.6,0,2.3-0.7,2.3-1.6c0-2.4-5-1-5-3.9c0-1.1,0.9-2.1,2.8-2.1
						c0.9,0,1.8,0.3,2.5,0.7l-0.2,0.5c-0.7-0.4-1.5-0.7-2.2-0.7c-1.6,0-2.3,0.7-2.3,1.6c0,2.4,5,1,5,3.9c0,1.1-0.9,2.1-2.9,2.1
						C285.3,177.5,284.1,177.1,283.5,176.4z"/>
				</g>
			</g>
			<g>
				<g>
					<g>
						<g>
							<path class="st9" d="M296.3,183.9c0,0,0-0.2,0-0.4c0-0.3,0-0.7,0-1.3c0-1.1,0-2.7-0.1-4.7c0-4-0.1-9.8-0.1-16.9l0.1,0.1
								c-9.8,0-22.4,0-35.9,0.1l0,0l0.2-0.2c0,8.2,0,16.1,0,23.2l-0.1-0.1c10.5,0,19.5,0.1,25.8,0.1c3.2,0,5.7,0,7.4,0.1
								c0.9,0,1.5,0,2,0c0.2,0,0.4,0,0.5,0C296.2,183.9,296.3,183.9,296.3,183.9s-0.1,0-0.2,0c-0.1,0-0.3,0-0.5,0c-0.4,0-1.1,0-2,0
								c-1.7,0-4.3,0-7.4,0.1c-6.4,0-15.4,0.1-26,0.1h-0.1v-0.1c0-7.1,0-14.9,0-23.2v-0.2h0.2l0,0c13.6,0,26.1,0,35.9,0.1h0.1v0.1
								c0,7.1-0.1,12.9-0.1,17c0,2,0,3.5-0.1,4.6c0,0.5,0,0.9,0,1.2C296.3,183.8,296.3,183.9,296.3,183.9z"/>
						</g>
					</g>
				</g>
				<g>
					<g>
						<g>
							<path class="st9" d="M296.3,164.2c0,0.1-8.1,0.2-18,0.2s-18-0.1-18-0.2c0-0.1,8.1-0.2,18-0.2
								C288.2,164,296.3,164,296.3,164.2z"/>
						</g>
					</g>
				</g>
				<g>
					<g>
						<g>
							<path class="st9" d="M263,162.5c0,0.2-0.2,0.4-0.4,0.4s-0.4-0.2-0.4-0.4c0-0.2,0.2-0.4,0.4-0.4
								C262.8,162.1,263,162.2,263,162.5z"/>
						</g>
					</g>
					<g>
						<g>
							<path class="st9" d="M264.6,162.5c0,0.2-0.2,0.4-0.4,0.4s-0.4-0.2-0.4-0.4c0-0.2,0.2-0.4,0.4-0.4S264.6,162.2,264.6,162.5z"
								/>
						</g>
					</g>
					<g>
						<g>
							<path class="st9" d="M266.2,162.5c0,0.2-0.2,0.4-0.4,0.4c-0.2,0-0.4-0.2-0.4-0.4c0-0.2,0.2-0.4,0.4-0.4
								C266,162.1,266.2,162.2,266.2,162.5z"/>
						</g>
					</g>
				</g>
			</g>
		</g>
	</g>
	<g id="Character">
		<g>
			<g>
				<g>
					<g>
						<g>
							<g>
								<path class="st10" d="M192.5,263.2l14.2,48.1c0.7,2.1,2.6,3.6,4.8,3.6l57.8,0.2c3.1,0,5.5-2.6,5.3-5.6l0,0
									c-0.2-2.8-2.5-5.1-5.3-5.1h-22.1L229.6,255h-31C194.3,255,191.3,259.1,192.5,263.2z"/>
							</g>
						</g>
					</g>
					<g>
						<g>
							<g>
								<g>
									<path class="st8" d="M241.4,308.3c0,0.1-5.9,0.2-13.1,0.2s-13.1-0.1-13.1-0.2c0-0.1,5.9-0.2,13.1-0.2
										C235.5,308.1,241.4,308.2,241.4,308.3z"/>
								</g>
							</g>
						</g>
					</g>
					<g>
						<g>
							<g>
								<g>
									<path class="st8" d="M196.7,256.6c0.1-0.1,4,11.5,8.8,25.7c4.7,14.2,8.5,25.8,8.4,25.8s-4-11.5-8.8-25.7
										C200.4,268.2,196.6,256.6,196.7,256.6z"/>
								</g>
							</g>
						</g>
					</g>
				</g>
				<g>
					<polygon class="st10" points="239,357.6 235.5,357.5 235.5,314.9 239,314.9 					"/>
				</g>
				<g>
					<polygon class="st10" points="220.8,357.4 253.6,357.4 238.7,352.3 235.2,352.3 					"/>
				</g>
			</g>
			<g>
				<g>
					<g>
						<g>
							<g>
								<g>
									<g>
										<g>
											<path class="st9" d="M212.5,244l5.4,27.1l-1,20.3l36.5-6.1l-1.4-17.8l-0.1-14.7l8.9,17.3l7-13.5l-12.8-23.1l0,0
												c-2.3-2.4-5.1-4.2-8.3-5.4c-1.6-0.6-3.3-0.9-5.2-1l0,0c-4.2,1.3-8.4,1.3-12.7,0c-0.5,0.1-1.2,0.1-2.1,0.2
												c-0.1,0-0.1,0-0.2,0c-7.7,0.9-13.6,7.4-14.1,15.2L212.5,244z"/>
										</g>
									</g>
								</g>
							</g>
						</g>
						<g>
							<g>
								<g>
									<path class="st9" d="M226.8,227.5c0,0-15,0.1-16.8,15.9l-0.3,11.6l12.9-0.1L226.8,227.5z"/>
								</g>
							</g>
						</g>
					</g>
				</g>
				<g>
					<g>
						<g>
							<g>
								<path class="st11" d="M262.6,247.9c0,0.1-11.8,0.2-26.3,0.2s-26.3-0.1-26.3-0.2s11.8-0.2,26.3-0.2
									C250.8,247.6,262.6,247.7,262.6,247.9z"/>
							</g>
						</g>
					</g>
				</g>
				<g>
					<g>
						<g>
							<g>
								<path class="st11" d="M262.6,250.4c0,0.1-11.8,0.2-26.3,0.2s-26.3-0.1-26.3-0.2s11.8-0.2,26.3-0.2S262.6,250.3,262.6,250.4z
									"/>
							</g>
						</g>
					</g>
				</g>
				<g>
					<g>
						<g>
							<g>
								<path class="st11" d="M261.8,245.8c0,0.1-11.6,0.2-25.9,0.2c-14.3,0-25.9-0.1-25.9-0.2s11.6-0.2,25.9-0.2
									C250.2,245.6,261.8,245.7,261.8,245.8z"/>
							</g>
						</g>
					</g>
				</g>
				<g>
					<g>
						<g>
							<g>
								<path class="st8" d="M251.8,270.2c-0.1,0-0.1-6.4,0.1-14.3c0.2-7.9,0.4-14.3,0.5-14.3c0.1,0,0.1,6.4-0.1,14.3
									C252.1,263.8,251.9,270.2,251.8,270.2z"/>
							</g>
						</g>
					</g>
				</g>
				<g>
					<g>
						<g>
							<path class="st12" d="M246.7,259.8c0,0,7.1,0.5,8.3,2.4c1.3,1.9,3.2,7.2,2.5,7.3c-0.8,0.1-1.3-0.4-1.3-0.4l-2-3.4
								c0,0,0.3,3.3-0.9,3.4c-1.1,0.1-6.9,1.2-6.9,1.2L246.7,259.8z"/>
						</g>
					</g>
				</g>
				<g>
					<g>
						<g>
							<path class="st9" d="M209.8,251.9v18.3c0.2,4.3,4.3,7.3,8.4,6.4l28.6-5.9l-0.1-11.7l-24.7,4.7l-0.3-12.4L209.8,251.9z"/>
						</g>
					</g>
				</g>
				<g>
					<g>
						<g>
							<g>
								<path class="st8" d="M226.1,275.2c0,0,0.1-0.1,0.4-0.1c0.3-0.1,0.7-0.2,1.1-0.3c1-0.2,2.4-0.5,4.2-0.9
									c3.7-0.8,8.8-1.8,14.9-3.1l-0.2,0.2c0-3.7,0-7.7,0-12.1l0.2,0.2c-1.6,0.3-3.3,0.7-5,1c-7.2,1.4-14,2.7-19.6,3.8l-0.2,0.1
									v-0.2c0.2-5.5,0.3-10,0.4-13.2c0.1-1.6,0.1-2.8,0.2-3.7c0-0.4,0.1-0.7,0.1-1c0-0.2,0.1-0.3,0.1-0.3s0,0.1,0,0.3
									c0,0.3,0,0.5,0,1c0,0.9-0.1,2.1-0.1,3.7c-0.1,3.2-0.2,7.7-0.3,13.2l-0.2-0.2c5.7-1.1,12.4-2.4,19.6-3.8c1.7-0.3,3.4-0.7,5-1
									l0.2-0.1v0.2c0,4.3,0,8.3,0,12.1v0.2l-0.2,0.1c-6.1,1.2-11.2,2.2-14.9,2.9c-1.8,0.3-3.2,0.6-4.2,0.8
									c-0.5,0.1-0.8,0.2-1.1,0.2C226.2,275.2,226.1,275.2,226.1,275.2z"/>
							</g>
						</g>
					</g>
				</g>
				<g>
					<g>
						<g>
							<g>
								<path class="st8" d="M242.4,227.5c0,0,0.1,0.1,0.1,0.3c0.1,0.2,0.2,0.4,0.2,0.8c0.2,0.7,0.2,1.8-0.1,3.1
									c-0.3,1.3-1.2,2.7-2.5,3.8c-1.3,1.2-3.2,2-5.2,2c-2,0-3.9-0.8-5.1-2.1c-1.2-1.3-1.7-2.8-1.9-4.1c-0.2-1.3,0.1-2.4,0.4-3.1
									c0.1-0.3,0.3-0.6,0.4-0.8s0.2-0.3,0.2-0.2c0.1,0-0.2,0.4-0.4,1c-0.2,0.7-0.4,1.7-0.2,2.9c0.2,1.3,0.7,2.7,1.9,3.9
									c1.1,1.2,2.9,2,4.9,2c1.9,0,3.7-0.7,5-1.9c1.3-1.1,2.1-2.4,2.5-3.7c0.4-1.2,0.3-2.3,0.3-2.9
									C242.5,227.9,242.4,227.5,242.4,227.5z"/>
							</g>
						</g>
					</g>
				</g>
				<g>
					<g>
						<g>
							<g>
								<path class="st11" d="M243.8,271.7c-0.1,0-0.1-0.7,0-1.8c0.1-1.1,0.1-2.6,0.1-4.3c0-1.7,0-3.2-0.1-4.3
									c-0.1-1.1-0.1-1.8,0-1.8s0.2,0.7,0.3,1.8c0.1,1.1,0.2,2.7,0.2,4.4s-0.1,3.2-0.2,4.4C244,271,243.9,271.7,243.8,271.7z"/>
							</g>
						</g>
					</g>
				</g>
				<g>
					<g>
						<g>
							<g>
								<path class="st11" d="M242.3,272c-0.1,0-0.1-0.7-0.1-1.8c0-1.3,0.1-2.7,0.1-4.3s0-3.1,0-4.3c0-1.1,0-1.8,0.1-1.8
									s0.2,0.7,0.2,1.8c0.1,1.1,0.1,2.6,0.1,4.3s-0.1,3.2-0.2,4.3C242.5,271.4,242.4,272,242.3,272z"/>
							</g>
						</g>
					</g>
				</g>
			</g>
			<g>
				<g>
					<g>
						<g>
							<path class="st9" d="M271,344.6l5.4,14.9L284,370c0.5,0.8,0.3,1.9-0.4,2.3l0,0c-0.4,0.3-1,0.3-1.5,0.1
								c-3.1-1.3-14.4-6.1-14.8-7.1c-0.4-1.3-7.7-17.3-7.7-17.3L271,344.6z"/>
						</g>
					</g>
					<g class="st13">
						<g>
							<path class="st2" d="M283.6,372.3l-16.6-8l0.2,0.6c0.2,0.5,0.6,1,1.1,1.3c1.4,0.7,5.2,2.7,13.7,6.3
								C282.6,372.7,283.1,372.7,283.6,372.3L283.6,372.3z"/>
						</g>
					</g>
					<g class="st13">
						<g>
							<g>
								<path class="st2" d="M268.1,358.4c0.5,0.1,0.8,0.6,0.7,1.1c-0.1,0.5-0.6,0.8-1.1,0.7c-0.5-0.1-0.9-0.7-0.8-1.1
									C267.1,358.6,267.7,358.2,268.1,358.4"/>
							</g>
						</g>
					</g>
					<g>
						<g>
							<g>
								<path class="st8" d="M277.7,367.2c0.1,0,0.1-0.9,0.9-1.6c0.7-0.8,1.6-0.9,1.6-1c0-0.1-0.2-0.1-0.6,0
									c-0.4,0.1-0.8,0.3-1.3,0.8c-0.4,0.4-0.6,0.9-0.7,1.3C277.6,367,277.7,367.2,277.7,367.2z"/>
							</g>
						</g>
					</g>
					<g>
						<g>
							<g>
								<path class="st8" d="M279.5,368.8c0.1,0.1,0.4-0.7,1-1.1c0.7-0.5,1.4-0.7,1.4-0.8c0-0.1-0.8-0.1-1.6,0.5
									C279.6,368,279.4,368.8,279.5,368.8z"/>
							</g>
						</g>
					</g>
					<g>
						<g>
							<g>
								<path class="st8" d="M274.8,365.5c0.1,0.1,0.5-1,1.5-1.9c1-0.9,2-1.3,2-1.4c0-0.1-1.2,0.1-2.2,1.1
									C275,364.3,274.7,365.4,274.8,365.5z"/>
							</g>
						</g>
					</g>
					<g>
						<g>
							<g>
								<path class="st8" d="M272.8,361c0.1,0.1,0.8-0.6,1.8-1c1-0.5,2-0.5,2-0.6c0-0.1-1-0.2-2.1,0.3
									C273.3,360.2,272.7,361,272.8,361z"/>
							</g>
						</g>
					</g>
					<g>
						<g>
							<g>
								<path class="st8" d="M271.1,356.7c0.1,0.1,0.7-0.8,1.9-1.1c1.1-0.4,2.1-0.2,2.1-0.3c0-0.1-0.2-0.2-0.7-0.2s-1-0.1-1.6,0.2
									s-1.1,0.5-1.4,0.9C271.1,356.5,271,356.7,271.1,356.7z"/>
							</g>
						</g>
					</g>
					<g>
						<g>
							<g>
								<path class="st8" d="M272.5,354.8c0,0,0-0.2-0.2-0.5c-0.2-0.3-0.5-0.8-1-1.3c-0.3-0.2-0.5-0.5-1-0.5c-0.2,0-0.5,0.2-0.7,0.4
									c-0.1,0.3-0.1,0.5,0,0.8c0.4,0.9,1.5,1.5,2.6,1.3c1.1-0.3,1.8-1.3,1.9-2.2c0-0.2,0-0.5-0.2-0.7c-0.2-0.2-0.5-0.2-0.8-0.1
									c-0.4,0.2-0.6,0.6-0.8,0.9c-0.3,0.6-0.5,1.1-0.5,1.5c-0.1,0.4-0.1,0.6-0.1,0.6c0.1,0,0.1-0.9,0.8-2c0.2-0.3,0.4-0.6,0.7-0.8
									c0.2-0.1,0.3-0.1,0.4,0.1c0.1,0.1,0.2,0.3,0.1,0.5c-0.1,0.8-0.8,1.7-1.7,1.9s-2-0.3-2.2-1c-0.1-0.2-0.1-0.4-0.1-0.5
									s0.2-0.2,0.3-0.2c0.3,0,0.7,0.2,0.9,0.4C272.2,354,272.5,354.8,272.5,354.8z"/>
							</g>
						</g>
					</g>
				</g>
			</g>
			<g>
				<g>
					<g>
						<path class="st9" d="M293.7,340.7l-0.5,12.1c0,0,12.1,4.5,12.3,6.8l-23.4-0.1l-0.1-18.9L293.7,340.7z"/>
					</g>
					<g class="st13">
						<g>
							<path class="st2" d="M286.1,351.8c-0.4,0.1-0.8,0.7-0.7,1.1c0.1,0.4,0.6,0.8,1.1,0.7c0.4-0.1,0.9-0.7,0.7-1.1
								S286.4,351.6,286.1,351.8"/>
						</g>
					</g>
					<g class="st13">
						<path class="st2" d="M282.1,359.5v-1.9l22.6,0.8c0,0,1,0.4,0.9,1.2L282.1,359.5z"/>
					</g>
					<g>
						<g>
							<path class="st8" d="M293.7,352.7c0,0.1-0.6,0.2-1.1,0.5c-0.6,0.3-0.9,0.9-1,0.8c-0.1,0,0.1-0.7,0.8-1.1
								C293,352.4,293.7,352.6,293.7,352.7z"/>
						</g>
					</g>
					<g>
						<g>
							<path class="st8" d="M296.1,353.7c0,0.1-0.5,0.3-0.9,0.8c-0.4,0.5-0.5,1-0.6,1s-0.2-0.7,0.3-1.3
								C295.5,353.6,296.1,353.6,296.1,353.7z"/>
						</g>
					</g>
					<g>
						<g>
							<path class="st8" d="M297.5,356.7c-0.1,0-0.3-0.5,0.1-1.2c0.3-0.7,0.8-0.9,0.9-0.8c0.1,0.1-0.3,0.4-0.5,0.9
								C297.7,356.1,297.7,356.6,297.5,356.7z"/>
						</g>
					</g>
					<g>
						<g>
							<path class="st8" d="M293.5,349.9c-0.1,0.1-0.6-0.1-1.2,0c-0.7,0.1-1.1,0.2-1.2,0.2c-0.1-0.1,0.4-0.5,1.2-0.5
								C293,349.5,293.5,349.8,293.5,349.9z"/>
						</g>
					</g>
				</g>
				<g class="st4">
					<polygon points="293.7,343.1 293.6,345.3 282.1,345.1 282,343.2 					"/>
				</g>
				<g>
					<g>
						<path class="st8" d="M293.5,347.5c0,0.1-0.4,0.1-1.2,0c-0.4-0.1-0.8-0.2-1.3-0.4c-0.2-0.1-0.4-0.2-0.7-0.4
							c-0.1-0.1-0.2-0.2-0.3-0.3c-0.1-0.1-0.2-0.4-0.1-0.6c0.1-0.2,0.3-0.3,0.5-0.3s0.3,0.1,0.4,0.1c0.3,0.1,0.5,0.2,0.7,0.3
							c0.4,0.2,0.8,0.5,1.1,0.7c0.5,0.5,0.7,0.9,0.7,1c-0.1,0.1-0.3-0.3-0.9-0.8c-0.3-0.2-0.7-0.4-1-0.6c-0.2-0.1-0.4-0.2-0.7-0.2
							c-0.3-0.1-0.4-0.1-0.5,0.1c0,0.1,0,0.1,0,0.1c0.1,0.1,0.2,0.1,0.3,0.2c0.2,0.1,0.4,0.3,0.6,0.4c0.4,0.2,0.8,0.3,1.1,0.4
							C293.1,347.4,293.5,347.4,293.5,347.5z"/>
					</g>
				</g>
				<g>
					<g>
						<path class="st8" d="M293.4,347.6c-0.1,0-0.3-0.4-0.3-1.1c0-0.4,0-0.8,0.2-1.3c0.1-0.2,0.2-0.5,0.3-0.7
							c0.2-0.2,0.3-0.5,0.8-0.6c0.2,0,0.4,0.2,0.5,0.3c0.1,0.2,0.1,0.3,0.1,0.4c0.1,0.3,0.1,0.5,0,0.8c-0.1,0.5-0.3,0.9-0.5,1.2
							c-0.4,0.6-0.9,0.8-0.9,0.7c-0.1-0.1,0.4-0.3,0.7-0.9c0.2-0.3,0.3-0.7,0.4-1.1c0-0.2,0-0.4,0-0.7c-0.1-0.3-0.1-0.4-0.2-0.4
							c-0.1,0-0.3,0.2-0.4,0.4c-0.1,0.2-0.2,0.4-0.3,0.7c-0.2,0.4-0.2,0.8-0.2,1.1C293.3,347.2,293.4,347.6,293.4,347.6z"/>
					</g>
				</g>
			</g>
			<g>
				<g>
					<g>
						<g>
							<g>
								<path class="st8" d="M282.1,282.7c-13.8,1.4-32.2,3.3-32.2,3.3l2.5,22.6c0,0,27-7.1,26.8-6.5c-0.2,0.6,1.3,48,1.3,48h16.2
									l0.3-53.7C297.1,288.3,290.1,281.9,282.1,282.7z"/>
							</g>
						</g>
					</g>
					<g>
						<g>
							<g>
								<path class="st8" d="M216.6,291.9v7c0,4.7,5.5,9.8,10.2,9.8h3.7c2.9,0,7.5-2.1,9.8-3.8l1.4-1l17,52.5c0,0,19.4-3.5,19.4-4.1
									s-13.1-43-19.2-62.7c-2.5-8-11.1-12.7-19-10c-0.3,0.1-0.5,0.2-0.8,0.3C230.3,283.4,216.6,291.9,216.6,291.9z"/>
							</g>
						</g>
					</g>
					<g>
						<g>
							<g>
								<g>
									<path class="st10" d="M278,352.2c0,0-0.1-0.1-0.1-0.2c-0.1-0.2-0.1-0.3-0.2-0.5c-0.2-0.5-0.4-1.2-0.8-2.2
										c-0.7-1.9-1.5-4.6-2.6-8.1c-2.2-6.8-5.1-16.3-8.2-26.8c-1.6-5.2-3.1-10.3-4.4-14.8c-0.7-2.3-1.3-4.4-1.9-6.4
										c-0.3-1-0.6-2-0.9-2.9c-0.3-0.9-0.5-1.9-0.9-2.7c-0.7-1.6-1.7-2.9-2.7-3.9c-1-1-2-1.7-2.9-2.2c-0.8-0.5-1.5-1-2-1.3
										c-0.2-0.1-0.4-0.2-0.5-0.3c-0.1-0.1-0.2-0.1-0.2-0.1s0.1,0,0.2,0.1c0.2,0.1,0.3,0.2,0.5,0.3c0.5,0.3,1.1,0.7,2,1.2
										c0.9,0.5,1.9,1.3,2.9,2.2c1,1,2.1,2.2,2.8,3.9c0.4,0.8,0.7,1.7,0.9,2.7c0.3,0.9,0.6,1.9,0.9,2.9c0.6,2,1.3,4.2,2,6.4
										c1.4,4.5,2.9,9.5,4.5,14.8c3.2,10.5,6,19.9,8.1,26.8c1,3.4,1.9,6.2,2.5,8.1c0.3,0.9,0.5,1.7,0.7,2.2
										c0.1,0.2,0.1,0.4,0.2,0.6C278,352.2,278,352.2,278,352.2z"/>
								</g>
							</g>
						</g>
					</g>
					<g>
						<g>
							<g>
								<g>
									<path class="st10" d="M282.1,295.3c0.1,0.1-0.8,1.5-1.6,3.3c-0.8,1.9-1.1,3.5-1.3,3.5c-0.1,0,0.1-1.7,0.9-3.7
										C280.9,296.6,282,295.3,282.1,295.3z"/>
								</g>
							</g>
						</g>
					</g>
					<g>
						<g>
							<g>
								<g>
									<path class="st10" d="M285.2,297.5c0.1,0.1-1.4,0.7-2.8,1.9c-1.5,1.1-2.4,2.3-2.5,2.3c-0.1-0.1,0.7-1.4,2.2-2.6
										C283.7,297.9,285.2,297.4,285.2,297.5z"/>
								</g>
							</g>
						</g>
					</g>
					<g>
						<g>
							<g>
								<g>
									<path class="st10" d="M258.8,356.3c-0.1,0.1-4.7-14-10.2-31.4c-5.6-17.3-9.9-31.5-9.8-31.5c0.1-0.1,4.7,14,10.2,31.4
										C254.5,342.2,259,356.3,258.8,356.3z"/>
								</g>
							</g>
						</g>
					</g>
				</g>
			</g>
			<g>
				<g>
					<g>
						<polygon class="st10" points="238.1,274.5 293.5,275 303.8,245.8 263.5,246.1 254.2,272.3 238.1,272.6 						"/>
					</g>
				</g>
				<g>
					<path class="st2" d="M280.1,262.9c-1.3-0.2-2.1-1.3-1.9-2.6c0.2-1.3,1.3-2.1,2.6-1.9s2.1,1.3,1.9,2.6
						C282.5,262.2,281.3,263.1,280.1,262.9z"/>
				</g>
			</g>
			<g>
				<g>
					<g>
						<path class="st8" d="M233.5,195.4c0.5-2,2-2.9,3.9-3.5c1.9-0.7,4.1-0.3,5.7,0.9c1.1,0.8,1.9,2,3.2,2.5
							c2.1,0.7,4.5-0.8,6.5,0.1c1.2,0.5,1.9,2,1.6,3.3c-0.3,1.3-1.6,2.2-2.9,2.2c1.4,0.5,1.8,2.5,1,3.7c-0.8,1.2-2.5,1.7-3.9,1.4
							c-1.4-0.3-2.7-1.1-3.8-2.1c-1.1-1-2.1-2.1-3.2-2.9c-1.1-0.9-2.6-1.5-4-1.5c-2,0.1-3.7,1.6-4.5,3.3c-0.9,1.7-1.1,3.8-1.2,5.7
							s-0.2,4-0.7,5.8c-0.1,0.2-0.2,0.5-0.4,0.5c-0.3,0.1-0.6-0.2-0.8-0.5c-1.8-3.3-2.9-7-3.3-10.7c-0.2-2.2-0.2-4.3,1-6.1
							C229,195.6,232.1,194.2,233.5,195.4"/>
					</g>
				</g>
				<g>
					<g>
						<g>
							<g>
								<g>
									<g>
										<g>
											<g>
												<g>
													<g>
														<g>
															<g>
																<g>
																	<g>
																		<g>
																			<path class="st12" d="M229.7,204.5l-1,22.1c-0.2,3.8,0.3,9.3,6.3,9.3l0,0c5.2-0.4,6.7-5.2,6.8-8.7
																				c0.1-1.6,0.2-3.1,0.2-3.2c0,0,5.6-0.3,6.3-5.8c0.3-2.7,0.5-8.2,0.7-13.3c0.2-5.4-3.9-10-9.3-10.6l-0.5-0.1
																				C233.3,193.9,229.8,198.7,229.7,204.5z"/>
																		</g>
																	</g>
																</g>
															</g>
														</g>
													</g>
												</g>
											</g>
										</g>
										<g>
											<g>
												<g>
													<g>
														<g>
															<g>
																<g>
																	<g>
																		<g>
																			<path class="st14" d="M242,223.9c0,0-3.5-0.1-7-2.8c0,0,1.3,4.2,6.9,4.3L242,223.9z"/>
																		</g>
																	</g>
																</g>
															</g>
														</g>
													</g>
												</g>
											</g>
										</g>
									</g>
								</g>
							</g>
							<g>
								<g>
									<g>
										<g>
											<g>
												<g>
													<g>
														<g>
															<g>
																<g>
																	<g>
																		<g>
																			<g>
																				<g>
																					<g>
																						<path class="st8" d="M247,208.4c-0.1,0.4-0.4,0.8-0.9,0.7c-0.4,0-0.8-0.4-0.8-0.8c0.1-0.4,0.4-0.8,0.9-0.7
																							C246.6,207.6,247,208,247,208.4z"/>
																					</g>
																				</g>
																			</g>
																		</g>
																	</g>
																</g>
															</g>
														</g>
													</g>
													<g>
														<g>
															<g>
																<g>
																	<g>
																		<g>
																			<g>
																				<g>
																					<g>
																						<g>
																							<path class="st8" d="M247.5,207.4c-0.1,0.1-0.7-0.4-1.5-0.5c-0.9-0.1-1.5,0.3-1.6,0.2
																								c-0.1-0.1,0.1-0.2,0.4-0.4c0.3-0.2,0.8-0.3,1.3-0.3c0.5,0.1,1,0.3,1.2,0.5
																								C247.5,207.2,247.6,207.4,247.5,207.4z"/>
																						</g>
																					</g>
																				</g>
																			</g>
																		</g>
																	</g>
																</g>
															</g>
														</g>
													</g>
												</g>
												<g>
													<g>
														<g>
															<g>
																<g>
																	<g>
																		<g>
																			<g>
																				<g>
																					<g>
																						<path class="st8" d="M238.6,207.8c-0.1,0.4-0.4,0.8-0.9,0.7c-0.4,0-0.8-0.4-0.8-0.8c0.1-0.4,0.4-0.8,0.9-0.7
																							S238.6,207.3,238.6,207.8z"/>
																					</g>
																				</g>
																			</g>
																		</g>
																	</g>
																</g>
															</g>
														</g>
													</g>
													<g>
														<g>
															<g>
																<g>
																	<g>
																		<g>
																			<g>
																				<g>
																					<g>
																						<g>
																							<path class="st8" d="M239.1,206.7c-0.1,0.1-0.7-0.4-1.5-0.5c-0.9-0.1-1.5,0.3-1.6,0.2
																								c-0.1-0.1,0.1-0.2,0.4-0.4c0.3-0.2,0.8-0.3,1.3-0.3c0.5,0.1,1,0.3,1.2,0.5
																								C239.1,206.5,239.2,206.7,239.1,206.7z"/>
																						</g>
																					</g>
																				</g>
																			</g>
																		</g>
																	</g>
																</g>
															</g>
														</g>
													</g>
												</g>
												<g>
													<g>
														<g>
															<g>
																<g>
																	<g>
																		<g>
																			<g>
																				<g>
																					<g>
																						<path class="st8" d="M241.5,213.3c0-0.1,0.5-0.1,1.4-0.1c0.2,0,0.4,0,0.5-0.2c0.1-0.2,0-0.4-0.1-0.7
																							c-0.2-0.5-0.3-1.1-0.5-1.7c-0.7-2.5-1.1-4.5-1-4.5s0.7,2,1.4,4.4c0.2,0.6,0.3,1.2,0.4,1.7
																							c0.1,0.3,0.2,0.5,0,0.9c-0.1,0.2-0.3,0.3-0.4,0.3c-0.2,0.1-0.3,0-0.4,0C242.1,213.4,241.5,213.4,241.5,213.3z
																							"/>
																					</g>
																				</g>
																			</g>
																		</g>
																	</g>
																</g>
															</g>
														</g>
													</g>
												</g>
												<g>
													<g>
														<g>
															<g>
																<g>
																	<g>
																		<g>
																			<g>
																				<g>
																					<g>
																						<path class="st8" d="M238.9,213.7c0.2,0,0.1,0.9,0.8,1.7c0.7,0.8,1.7,0.8,1.7,0.9c0,0.1-0.2,0.2-0.7,0.1
																							s-1-0.2-1.4-0.7s-0.6-1-0.6-1.4S238.9,213.7,238.9,213.7z"/>
																					</g>
																				</g>
																			</g>
																		</g>
																	</g>
																</g>
															</g>
														</g>
													</g>
												</g>
											</g>
										</g>
									</g>
									<g>
										<g>
											<g>
												<g>
													<g>
														<g>
															<g>
																<g>
																	<g>
																		<path class="st8" d="M239.7,203.4c-0.1,0.2-0.9,0-2,0.1c-1,0-1.9,0.2-2,0c-0.1-0.1,0.1-0.3,0.5-0.5
																			c0.3-0.2,0.9-0.3,1.5-0.3s1.1,0.2,1.5,0.3C239.5,203.1,239.7,203.3,239.7,203.4z"/>
																	</g>
																</g>
															</g>
														</g>
													</g>
												</g>
											</g>
										</g>
									</g>
									<g>
										<g>
											<g>
												<g>
													<g>
														<g>
															<g>
																<g>
																	<g>
																		<path class="st8" d="M247.5,204.9c-0.2,0.2-0.8-0.1-1.4-0.2c-0.7-0.1-1.3,0-1.4-0.2c-0.1-0.1,0.1-0.3,0.3-0.4
																			c0.3-0.2,0.7-0.3,1.2-0.2s0.9,0.3,1.1,0.5C247.5,204.7,247.5,204.8,247.5,204.9z"/>
																	</g>
																</g>
															</g>
														</g>
													</g>
												</g>
											</g>
										</g>
									</g>
								</g>
							</g>
						</g>
					</g>
				</g>
				<g>
					<g>
						<g>
							<g>
								<g>
									<g>
										<g>
											<g>
												<g>
													<g>
														<path class="st12" d="M229.7,208.6c-0.1-0.1-3.7-1.5-4,2.3c-0.3,3.8,3.6,3.3,3.6,3.2
															C229.4,214,229.7,208.6,229.7,208.6z"/>
													</g>
												</g>
											</g>
										</g>
									</g>
								</g>
							</g>
						</g>
					</g>
					<g>
						<g>
							<g>
								<g>
									<g>
										<g>
											<g>
												<g>
													<g>
														<g>
															<path class="st14" d="M228.3,212.6c0,0-0.1,0.1-0.2,0.1c-0.1,0.1-0.3,0.1-0.5,0c-0.4-0.2-0.7-0.8-0.7-1.5
																c0-0.3,0.1-0.7,0.3-0.9c0.2-0.3,0.3-0.4,0.5-0.5c0.2-0.1,0.3,0.1,0.4,0.2c0.1,0.1,0,0.2,0.1,0.2c0,0,0.1-0.1,0.1-0.2
																c0-0.1-0.1-0.2-0.1-0.3c-0.1-0.1-0.2-0.1-0.4-0.1c-0.3,0-0.6,0.3-0.8,0.5c-0.2,0.3-0.3,0.7-0.3,1
																c-0.1,0.8,0.3,1.5,0.8,1.7c0.3,0.1,0.5,0,0.6-0.1C228.3,212.7,228.4,212.6,228.3,212.6z"/>
														</g>
													</g>
												</g>
											</g>
										</g>
									</g>
								</g>
							</g>
						</g>
					</g>
				</g>
				<g>
					<g>
						<path class="st8" d="M250.2,203.8c-2.5,0.4-5.2-0.5-6.9-2.3c-1.3-1.3-2.1-3.1-3.7-3.8c-1.1-0.5-2.4-0.4-3.5,0.1
							c-1.1,0.5-2,1.3-2.9,2.1c0.8,2.9-0.3,6-1.3,8.8c-0.1,0.3-0.3,0.7-0.5,0.8c-0.5,0.3-1.1-0.1-1.5-0.5c-0.5-0.7-0.7-1.7-0.8-2.6
							c-0.2-2.1,0-4.2,0.7-6.2c0.7-2,1.9-3.8,3.5-5.1c2.1-1.6,4.7-2.2,7.4-1.9c2.6,0.3,5,1.5,6.9,3.3c0.9,0.8,1.7,1.8,2,2.9"/>
					</g>
				</g>
			</g>
		</g>
	</g>
	<g id="Plant">
		<g>
			<g>
				<g>
					<g>
						<path class="st9" d="M143.6,321.1c2-1,4.3-1.1,6.4-0.8c1.1,0.2,2.3,0.5,3.2,1.4c0.8,0.9,0.9,2.4,0.1,3.2
							c-0.5,0.4-1.3,0.5-2,0.5c-1.7,0-3.5-0.3-4.9,0.7c-0.8,0.6-1.3,1.5-2.2,1.9c-0.9,0.3-1.9-0.3-2.4-1.1s-0.5-1.9-0.3-2.7
							C141.4,324.1,141.7,322.1,143.6,321.1z"/>
					</g>
				</g>
				<g>
					<g>
						<path class="st9" d="M139.2,312.5c1.2,1.7,3.5,1.1,4.6,0.1s1.5-2.6,2-4c0.9-3.3,1.9-6.7,1.2-10c-0.2-1-0.6-2-1.3-2.7
							s-1.8-1.2-2.8-0.9c-1.1,0.3-1.9,1.5-2.4,2.5c-1.5,3.2-2.3,6.7-2.3,10.3C138.1,309.4,138.2,311.1,139.2,312.5"/>
					</g>
				</g>
				<g>
					<g>
						<path class="st9" d="M135.9,314.9c1.3-1.5,1.5-3.8,1-5.7c-0.6-1.9-1.9-3.5-3.4-4.9c-1.7-1.6-3.8-2.8-6.1-3.5
							c-0.9-0.3-1.8-0.5-2.7-0.4s-1.9,0.5-2.3,1.4c-0.7,1.2,0,2.7,0.7,3.9c1.1,2.1,2.5,4.1,4,6.1c1.2,1.5,2.6,3.1,4.4,3.7
							c1.8,0.7,3.7,0.6,4.6-0.7"/>
					</g>
				</g>
				<g>
					<g>
						<g>
							<path class="st8" d="M139.1,338.1c0,0,0.1-0.3,0.1-0.8c0.1-0.5,0.1-1.3,0.2-2.1s0.2-2,0.5-3.1c0.2-1.1,0.7-2.4,1.1-3.7
								c0.5-1.3,1.1-2.4,1.9-3.3c0.7-0.9,1.6-1.6,2.3-2c0.8-0.4,1.5-0.5,2-0.6c0.5-0.1,0.8-0.1,0.8-0.1s-0.3,0-0.8,0
								c-0.5,0.1-1.3,0.2-2.1,0.5c-0.8,0.4-1.7,1-2.5,2s-1.4,2.1-1.9,3.4c-0.5,1.3-0.9,2.5-1.1,3.7c-0.2,1.1-0.3,2.2-0.4,3.1
								c-0.1,0.9-0.1,1.6-0.1,2.1C139.1,337.8,139.1,338.1,139.1,338.1z"/>
						</g>
					</g>
				</g>
				<g>
					<g>
						<g>
							<path class="st8" d="M139.3,336.5c0,0,0-0.1,0-0.4c0-0.3,0-0.6,0-1c0-0.9,0-2.2,0.1-3.8c0.1-3.2,0.3-6.6,0.9-11.4
								c0.5-4.5,1.1-9.8,1.9-13.2c0.2-0.8,0.3-1.5,0.4-2.1c0.2-0.6,0.3-1.1,0.4-1.6c0.1-0.4,0.2-0.7,0.2-1c0.1-0.2,0.1-0.3,0.1-0.3
								s-0.1,0.1-0.1,0.3c-0.1,0.3-0.2,0.6-0.3,1c-0.1,0.4-0.3,0.9-0.4,1.6c-0.2,0.6-0.3,1.3-0.5,2.1c-0.7,3.1-1.4,7.5-2,12.3
								c-0.5,4.9-0.8,9.2-0.8,12.4c0,1.6,0,2.9,0.1,3.8c0,0.4,0.1,0.8,0.1,1C139.2,336.3,139.2,336.5,139.3,336.5z"/>
						</g>
					</g>
				</g>
				<g>
					<g>
						<g>
							<path class="st8" d="M139.3,328c0,0,0-0.4,0-1.1c-0.1-0.7-0.1-1.7-0.3-2.9s-0.5-2.7-0.9-4.2c-0.2-0.7-0.7-2.5-1.7-5
								c-1.5-3.5-3.4-6.3-5.2-8.1c-0.4-0.5-0.9-0.8-1.2-1.1c-0.2-0.2-0.3-0.3-0.5-0.4c-0.2-0.1-0.3-0.2-0.5-0.3
								c-0.5-0.4-0.9-0.6-0.9-0.6c-0.1,0.1,1.3,0.9,2.9,2.6c1.7,1.8,3.6,4.6,5.1,8c0.8,1.9,1.4,3.5,1.8,5c0.4,1.5,0.8,3,1,4.2
								c0.2,1.2,0.3,2.2,0.4,2.9C139.2,327.6,139.3,328,139.3,328z"/>
						</g>
					</g>
				</g>
			</g>
			<g>
				<g>
					<polygon class="st8" points="131.1,342.9 131.9,354.6 146.9,354.6 147.7,342.9 					"/>
				</g>
			</g>
			<g>
				<g>
					<rect x="129.6" y="338.4" class="st8" width="19.9" height="4.6"/>
				</g>
			</g>
			<g>
				<g>
					<polygon class="st10" points="129.6,354.1 129.6,355.4 130.5,355.4 149.2,355.4 149.2,354.1 					"/>
				</g>
			</g>
			<g>
				<g>
					<polygon class="st10" points="131.5,357.6 130.5,355.4 148.5,355.4 147.4,357.6 					"/>
				</g>
			</g>
			<g>
				<g>
					<g>
						<path class="st3" d="M147.4,346.8c0,0,0,0.1-0.1,0.1c-0.1,0.1-0.1,0.2-0.2,0.3c-0.2,0.3-0.5,0.7-0.9,1.1l-0.1,0.1l-0.1-0.1
							c-0.5-0.8-1.3-1.7-2.1-2.9h0.1c-0.7,0.9-1.4,1.9-2.1,3l-0.1,0.1l-0.1-0.1c-0.8-0.9-1.6-1.9-2.5-3h0.2
							c-0.1,0.1-0.1,0.1-0.2,0.2c-0.8,1-1.5,1.9-2.2,2.8l-0.1,0.1l-0.1-0.1c-0.8-1.1-1.5-2.1-2.1-3h0.1c-1,1.2-1.9,2.2-2.6,2.9
							l-0.1,0.1l-0.1-0.1c-0.3-0.6-0.6-1-0.8-1.4c-0.1-0.2-0.2-0.3-0.2-0.4c-0.1-0.1-0.1-0.1-0.1-0.1s0.1,0.1,0.1,0.1
							c0.1,0.1,0.2,0.2,0.2,0.3c0.2,0.3,0.5,0.8,0.9,1.4h-0.1c0.7-0.8,1.5-1.8,2.6-3l0.1-0.1l0.1,0.1c0.7,0.9,1.4,1.9,2.1,2.9H137
							c0.7-0.9,1.5-1.9,2.2-2.8c0.1-0.1,0.1-0.1,0.2-0.2l0.1-0.1l0.1,0.1c0.9,1,1.7,2.1,2.5,3h-0.2c0.8-1.1,1.5-2.1,2.1-2.9l0.1-0.1
							l0.1,0.1c0.8,1.2,1.6,2.2,2.1,3h-0.1c0.4-0.4,0.7-0.8,0.9-1.1c0.1-0.1,0.2-0.2,0.2-0.3C147.4,346.8,147.4,346.8,147.4,346.8z"
							/>
					</g>
				</g>
			</g>
			<g>
				<g>
					<g>
						<path class="st10" d="M147.9,342.8c0,0.1-3.8,0.1-8.3,0.1c-4.6,0-8.3-0.1-8.3-0.1s3.8-0.1,8.3-0.1
							C144.2,342.8,147.9,342.8,147.9,342.8z"/>
					</g>
				</g>
			</g>
			<g>
				<g>
					<g>
						<path class="st8" d="M148.7,355.5c0,0.1-4.1,0.1-9.1,0.1c-5,0-9.1-0.1-9.1-0.1c0-0.1,4.1-0.1,9.1-0.1
							C144.6,355.4,148.7,355.5,148.7,355.5z"/>
					</g>
				</g>
			</g>
		</g>
	</g>
	<g id="Devices">
		<g>
			<g>
				<polygon class="st8" points="325.4,221.6 315.1,265 318,265 328.2,221.6 				"/>
			</g>
			<g>
				<path class="st8" d="M321.4,250.1c-0.2,0.8,4.7,24.5,4.7,24.5h-2.3l-3.7-18.8L321.4,250.1z"/>
			</g>
		</g>
		<g>
			<g>
				<g>
					<g>
						<rect x="307.4" y="305.9" class="st9" width="48.6" height="51.6"/>
					</g>
					<g>
						<rect x="356" y="313.4" class="st8" width="2.4" height="2.4"/>
					</g>
					<g>
						<rect x="356" y="321.1" class="st8" width="2.4" height="2.4"/>
					</g>
					<g>
						<rect x="356" y="328.7" class="st8" width="2.4" height="2.4"/>
					</g>
					<g>
						<rect x="356" y="336.2" class="st8" width="2.4" height="2.4"/>
					</g>
					<g>
						<g>
							<path class="st8" d="M358.5,329.4c0,0,0.3-0.1,0.7-0.2c0.5-0.1,1.1-0.2,2.1-0.2c0.9,0,2,0.2,2.9,0.8c0.5,0.3,1,0.8,1.3,1.4
								c0.3,0.6,0.4,1.3,0.4,2c-0.1,0.7-0.3,1.3-0.6,1.9c-0.3,0.5-0.8,1-1.3,1.3c-0.9,0.7-2,1-2.8,1.1c-0.9,0.1-1.6,0.1-2.1,0.1
								c-0.5-0.1-0.8-0.1-0.8-0.1s0.3,0,0.8,0c0.5,0,1.2,0,2-0.2s1.8-0.5,2.7-1.1c0.9-0.7,1.7-1.7,1.7-3c0.1-0.7-0.1-1.3-0.3-1.8
								c-0.3-0.5-0.7-0.9-1.1-1.3c-0.9-0.6-2-0.8-2.8-0.8c-0.9,0-1.5,0.1-2,0.1C358.8,329.3,358.5,329.4,358.5,329.4z"/>
						</g>
					</g>
					<g>
						<g>
							<path class="st8" d="M357.9,321.8c0,0,0.1-0.1,0.2-0.2c0.2-0.1,0.4-0.2,0.7-0.3c0.7-0.2,1.6-0.4,2.8-0.2
								c0.3,0.1,0.6,0.2,0.9,0.3c0.3,0.2,0.5,0.5,0.7,0.9c0.2,0.7-0.1,1.5-0.5,2.2c-0.3,0.3-0.6,0.6-1,0.8c-0.4,0.2-0.9,0.2-1.3-0.1
								c-0.4-0.2-0.8-0.7-0.8-1.1c0-0.5,0.3-1,0.8-1.2c0.4-0.2,0.9-0.2,1.4-0.2c0.4,0.1,0.9,0.3,1.2,0.6c0.7,0.5,1.1,1.4,1.2,2.2
								c0.1,0.8-0.2,1.6-0.6,2.2c-0.4,0.6-1,1-1.5,1.3c-1.1,0.5-2.1,0.7-2.7,0.7c-0.3,0-0.6,0.1-0.8,0.1s-0.3,0-0.3,0s0.4-0.1,1-0.1
								c0.7-0.1,1.6-0.2,2.6-0.8c0.5-0.3,1-0.7,1.4-1.2c0.4-0.5,0.7-1.3,0.5-2c-0.1-0.8-0.5-1.5-1.1-2c-0.3-0.3-0.7-0.4-1.1-0.5
								s-0.8-0.1-1.2,0.1c-0.4,0.2-0.6,0.5-0.6,0.9c0,0.4,0.3,0.7,0.6,0.9c0.3,0.2,0.8,0.2,1.1,0.1c0.4-0.1,0.7-0.4,0.9-0.7
								c0.5-0.5,0.7-1.3,0.5-2s-0.8-1-1.4-1.1c-1.1-0.3-2.1-0.1-2.7,0.1C358.2,321.7,357.9,321.8,357.9,321.8z"/>
						</g>
					</g>
					<g>
						<g>
							<path class="st8" d="M357.9,314.4c0,0,0.2-0.1,0.5-0.1c0.3,0,0.9,0,1.5,0.2s1.3,0.6,1.8,1.2c0.5,0.7,0.9,1.5,0.9,2.5
								c0.1,1-0.3,1.9-0.8,2.6c-0.5,0.7-1.1,1.1-1.7,1.3s-1.1,0.3-1.4,0.3c-0.3,0-0.5-0.1-0.5-0.1c0-0.1,0.8,0.1,1.9-0.4
								c0.5-0.3,1.1-0.7,1.6-1.3c0.5-0.7,0.8-1.5,0.7-2.4c-0.1-0.9-0.4-1.7-0.9-2.3c-0.5-0.6-1.1-1-1.7-1.2
								C358.7,314.3,357.9,314.5,357.9,314.4z"/>
						</g>
					</g>
					<g>
						<g>
							<path class="st8" d="M321.8,278.6c0,0,0.2,0.3,0.4,1c0.2,0.7,0.4,1.6,0.7,2.9c0.2,1.3,0.4,2.9,0.5,4.7
								c0.2,1.9,0.3,3.9,0.6,6.3c0.1,0.6,0.2,1.1,0.3,1.7c0.1,0.6,0.3,1.2,0.5,1.7s0.7,1,1.2,1.5c0.5,0.4,1,0.9,1.6,1.2
								c1.1,0.7,2.5,1.2,3.9,1.4s2.9-0.1,4.3-0.8c1.4-0.7,2.5-2,2.8-3.5c0.2-0.8,0.1-1.6-0.2-2.3c-0.3-0.8-0.8-1.4-1.5-1.8
								c-0.7-0.4-1.5-0.7-2.3-0.8s-1.7,0.2-2.3,0.7c-0.3,0.3-0.6,0.5-0.8,0.9s-0.2,0.8-0.2,1.2c0.2,0.8,0.8,1.5,1.5,1.9
								c0.8,0.4,1.6,0.6,2.5,0.7c0.9,0.1,1.7,0.2,2.6,0.2c1.7,0.1,3.4-0.1,5.1-0.3c3.3-0.4,6.5-0.9,9.6-0.9c3.1-0.1,6.1,0.4,8.6,1.6
								c1.3,0.6,2.3,1.4,3.2,2.4c0.9,1,1.4,2.1,1.6,3.3c0.5,2.3-0.1,4.5-0.9,6.2c-0.9,1.6-2.2,2.7-3.2,3.4c-1.1,0.7-2,1.1-2.7,1.4
								c-0.7,0.2-1,0.3-1,0.3s0.1-0.1,0.3-0.1s0.4-0.2,0.7-0.3c0.7-0.3,1.6-0.7,2.6-1.4s2.3-1.9,3.2-3.4c0.9-1.6,1.4-3.8,0.9-6
								c-0.3-1.1-0.8-2.2-1.6-3.2c-0.8-0.9-1.9-1.7-3.1-2.3c-2.5-1.2-5.4-1.6-8.5-1.6s-6.3,0.6-9.6,0.9c-1.7,0.2-3.4,0.3-5.1,0.3
								c-0.9,0-1.7-0.1-2.6-0.2c-0.9-0.1-1.8-0.3-2.6-0.7c-0.8-0.4-1.5-1.2-1.6-2.1c-0.1-0.4,0-0.9,0.2-1.4c0.2-0.4,0.5-0.8,0.9-1
								c0.7-0.5,1.6-0.8,2.5-0.8c0.9,0.1,1.7,0.3,2.5,0.8c0.7,0.5,1.3,1.1,1.6,2c0.3,0.8,0.3,1.7,0.2,2.5c-0.4,1.6-1.5,2.9-2.9,3.7
								s-3,0.9-4.4,0.8c-1.5-0.2-2.8-0.7-4-1.4c-0.6-0.4-1.1-0.8-1.6-1.3c-0.5-0.5-0.9-0.9-1.3-1.5c-0.3-0.6-0.4-1.2-0.5-1.8
								c-0.1-0.6-0.2-1.2-0.3-1.7c-0.3-2.3-0.4-4.4-0.6-6.3c-0.2-1.9-0.3-3.4-0.5-4.7c-0.2-1.3-0.4-2.3-0.6-2.9
								c-0.1-0.3-0.2-0.6-0.3-0.7C321.8,278.6,321.8,278.6,321.8,278.6z"/>
						</g>
					</g>
				</g>
				<g>
					<g>
						<path class="st8" d="M353.2,355.4c0,0,0-0.1,0-0.2s0-0.4,0-0.7c0-0.6,0-1.4,0-2.6c0-2.2,0-5.5-0.1-9.7
							c0-8.3-0.1-20.1-0.1-34.3l0.1,0.1c-12.9,0-27.9,0-44,0l0,0l0.2-0.2c0,17.4,0,33.7,0,47.4l-0.1-0.1c13.2,0,24.2,0.1,31.8,0.1
							c3.9,0,6.9,0,8.9,0.1c1,0,1.8,0,2.3,0S353.2,355.4,353.2,355.4s-0.3,0-0.8,0s-1.3,0-2.3,0c-2.1,0-5.1,0-8.9,0.1
							c-7.7,0-18.7,0.1-32,0.1h-0.1v-0.1c0-13.7,0-30,0-47.4v-0.2h0.2l0,0c16,0,31.1,0,44,0h0.1v0.1c0,14.2-0.1,26.1-0.1,34.4
							c0,4.1,0,7.4-0.1,9.7c0,1.1,0,2,0,2.5c0,0.3,0,0.5,0,0.7C353.3,355.3,353.2,355.4,353.2,355.4z"/>
					</g>
				</g>
			</g>
			<g>
				<g>
					<path class="st8" d="M340.9,313.8c0,0.1-0.1,0.2-0.2,0.2c-0.1,0-0.2-0.1-0.2-0.2s0.1-0.2,0.2-0.2S340.9,313.7,340.9,313.8z"/>
				</g>
				<g>
					<path class="st8" d="M342.1,313.8c0,0.1-0.1,0.2-0.2,0.2c-0.1,0-0.2-0.1-0.2-0.2s0.1-0.2,0.2-0.2
						C342,313.6,342.1,313.7,342.1,313.8z"/>
				</g>
				<g>
					<path class="st8" d="M343.4,313.8c0,0.1-0.1,0.2-0.2,0.2c-0.1,0-0.2-0.1-0.2-0.2s0.1-0.2,0.2-0.2S343.4,313.7,343.4,313.8z"/>
				</g>
				<g>
					<path class="st8" d="M344.6,313.8c0,0.1-0.1,0.2-0.2,0.2c-0.1,0-0.2-0.1-0.2-0.2s0.1-0.2,0.2-0.2
						C344.5,313.6,344.6,313.7,344.6,313.8z"/>
				</g>
				<g>
					<path class="st8" d="M345.8,313.8c0,0.1-0.1,0.2-0.2,0.2c-0.1,0-0.2-0.1-0.2-0.2s0.1-0.2,0.2-0.2
						C345.8,313.6,345.8,313.7,345.8,313.8z"/>
				</g>
				<g>
					<path class="st8" d="M347.1,313.8c0,0.1-0.1,0.2-0.2,0.2c-0.1,0-0.2-0.1-0.2-0.2s0.1-0.2,0.2-0.2
						C347,313.6,347.1,313.7,347.1,313.8z"/>
				</g>
				<g>
					<path class="st8" d="M348.3,313.8c0,0.1-0.1,0.2-0.2,0.2c-0.1,0-0.2-0.1-0.2-0.2s0.1-0.2,0.2-0.2S348.3,313.7,348.3,313.8z"/>
				</g>
				<g>
					<circle class="st8" cx="347.5" cy="314.6" r="0.2"/>
				</g>
				<g>
					<circle class="st8" cx="346.3" cy="314.6" r="0.2"/>
				</g>
				<g>
					<path class="st8" d="M345.2,314.6c0,0.1-0.1,0.2-0.2,0.2c-0.1,0-0.2-0.1-0.2-0.2c0-0.1,0.1-0.2,0.2-0.2
						S345.2,314.5,345.2,314.6z"/>
				</g>
				<g>
					<circle class="st8" cx="343.7" cy="314.6" r="0.2"/>
				</g>
				<g>
					<circle class="st8" cx="342.4" cy="314.6" r="0.2"/>
				</g>
				<g>
					<path class="st8" d="M341.4,314.6c0,0.1-0.1,0.2-0.2,0.2c-0.1,0-0.2-0.1-0.2-0.2c0-0.1,0.1-0.2,0.2-0.2
						S341.4,314.5,341.4,314.6z"/>
				</g>
				<g>
					<path class="st8" d="M340.9,315.6c0,0.1-0.1,0.2-0.2,0.2c-0.1,0-0.2-0.1-0.2-0.2s0.1-0.2,0.2-0.2S340.9,315.5,340.9,315.6z"/>
				</g>
				<g>
					<path class="st8" d="M342.1,315.6c0,0.1-0.1,0.2-0.2,0.2c-0.1,0-0.2-0.1-0.2-0.2s0.1-0.2,0.2-0.2
						C342,315.4,342.1,315.5,342.1,315.6z"/>
				</g>
				<g>
					<path class="st8" d="M343.4,315.6c0,0.1-0.1,0.2-0.2,0.2c-0.1,0-0.2-0.1-0.2-0.2s0.1-0.2,0.2-0.2S343.4,315.5,343.4,315.6z"/>
				</g>
				<g>
					<path class="st8" d="M344.6,315.6c0,0.1-0.1,0.2-0.2,0.2c-0.1,0-0.2-0.1-0.2-0.2s0.1-0.2,0.2-0.2
						C344.5,315.4,344.6,315.5,344.6,315.6z"/>
				</g>
				<g>
					<path class="st8" d="M345.8,315.6c0,0.1-0.1,0.2-0.2,0.2c-0.1,0-0.2-0.1-0.2-0.2s0.1-0.2,0.2-0.2
						C345.8,315.4,345.8,315.5,345.8,315.6z"/>
				</g>
				<g>
					<path class="st8" d="M347.1,315.6c0,0.1-0.1,0.2-0.2,0.2c-0.1,0-0.2-0.1-0.2-0.2s0.1-0.2,0.2-0.2
						C347,315.4,347.1,315.5,347.1,315.6z"/>
				</g>
				<g>
					<path class="st8" d="M348.3,315.6c0,0.1-0.1,0.2-0.2,0.2c-0.1,0-0.2-0.1-0.2-0.2s0.1-0.2,0.2-0.2S348.3,315.5,348.3,315.6z"/>
				</g>
				<g>
					<path class="st8" d="M347.8,316.4c0,0.1-0.1,0.2-0.2,0.2c-0.1,0-0.2-0.1-0.2-0.2s0.1-0.2,0.2-0.2
						C347.7,316.2,347.8,316.3,347.8,316.4z"/>
				</g>
				<g>
					<path class="st8" d="M346.5,316.4c0,0.1-0.1,0.2-0.2,0.2c-0.1,0-0.2-0.1-0.2-0.2s0.1-0.2,0.2-0.2
						C346.4,316.2,346.5,316.3,346.5,316.4z"/>
				</g>
				<g>
					<path class="st8" d="M345.2,316.4c0,0.1-0.1,0.2-0.2,0.2c-0.1,0-0.2-0.1-0.2-0.2s0.1-0.2,0.2-0.2S345.2,316.3,345.2,316.4z"/>
				</g>
				<g>
					<path class="st8" d="M344,316.4c0,0.1-0.1,0.2-0.2,0.2c-0.1,0-0.2-0.1-0.2-0.2s0.1-0.2,0.2-0.2S344,316.3,344,316.4z"/>
				</g>
				<g>
					<path class="st8" d="M342.7,316.4c0,0.1-0.1,0.2-0.2,0.2c-0.1,0-0.2-0.1-0.2-0.2s0.1-0.2,0.2-0.2
						C342.5,316.2,342.7,316.3,342.7,316.4z"/>
				</g>
				<g>
					<path class="st8" d="M341.4,316.4c0,0.1-0.1,0.2-0.2,0.2c-0.1,0-0.2-0.1-0.2-0.2s0.1-0.2,0.2-0.2S341.4,316.3,341.4,316.4z"/>
				</g>
				<g>
					<path class="st8" d="M340.9,317.4c0,0.1-0.1,0.2-0.2,0.2c-0.1,0-0.2-0.1-0.2-0.2c0-0.1,0.1-0.2,0.2-0.2
						C340.7,317.1,340.9,317.2,340.9,317.4z"/>
				</g>
				<g>
					<path class="st8" d="M342.1,317.4c0,0.1-0.1,0.2-0.2,0.2c-0.1,0-0.2-0.1-0.2-0.2c0-0.1,0.1-0.2,0.2-0.2
						C342,317.1,342.1,317.2,342.1,317.4z"/>
				</g>
				<g>
					<path class="st8" d="M343.4,317.4c0,0.1-0.1,0.2-0.2,0.2c-0.1,0-0.2-0.1-0.2-0.2c0-0.1,0.1-0.2,0.2-0.2
						C343.3,317.1,343.4,317.2,343.4,317.4z"/>
				</g>
				<g>
					<path class="st8" d="M344.6,317.4c0,0.1-0.1,0.2-0.2,0.2c-0.1,0-0.2-0.1-0.2-0.2c0-0.1,0.1-0.2,0.2-0.2
						C344.5,317.1,344.6,317.2,344.6,317.4z"/>
				</g>
				<g>
					<path class="st8" d="M345.8,317.4c0,0.1-0.1,0.2-0.2,0.2c-0.1,0-0.2-0.1-0.2-0.2c0-0.1,0.1-0.2,0.2-0.2
						C345.8,317.1,345.8,317.2,345.8,317.4z"/>
				</g>
				<g>
					<path class="st8" d="M347.1,317.4c0,0.1-0.1,0.2-0.2,0.2c-0.1,0-0.2-0.1-0.2-0.2c0-0.1,0.1-0.2,0.2-0.2
						C347,317.1,347.1,317.2,347.1,317.4z"/>
				</g>
				<g>
					<path class="st8" d="M348.3,317.4c0,0.1-0.1,0.2-0.2,0.2c-0.1,0-0.2-0.1-0.2-0.2c0-0.1,0.1-0.2,0.2-0.2
						C348.2,317.1,348.3,317.2,348.3,317.4z"/>
				</g>
				<g>
					<circle class="st8" cx="347.5" cy="318.2" r="0.2"/>
				</g>
				<g>
					<circle class="st8" cx="346.3" cy="318.2" r="0.2"/>
				</g>
				<g>
					<path class="st8" d="M345.2,318.2c0,0.1-0.1,0.2-0.2,0.2c-0.1,0-0.2-0.1-0.2-0.2c0-0.1,0.1-0.2,0.2-0.2
						S345.2,318.1,345.2,318.2z"/>
				</g>
				<g>
					<circle class="st8" cx="343.7" cy="318.2" r="0.2"/>
				</g>
				<g>
					<circle class="st8" cx="342.4" cy="318.2" r="0.2"/>
				</g>
				<g>
					<path class="st8" d="M341.4,318.2c0,0.1-0.1,0.2-0.2,0.2c-0.1,0-0.2-0.1-0.2-0.2c0-0.1,0.1-0.2,0.2-0.2
						S341.4,318.1,341.4,318.2z"/>
				</g>
			</g>
		</g>
		<g>
			<g>
				<g>
					<path class="st3" d="M323.7,262.8c0,0,0.3,0,0.9,0.2c0.5,0.2,1.4,0.6,2.1,1.4s1.4,2.1,1.9,3.6s0.9,3.3,1.2,5.3
						c0.6,4,0.7,8.8,0.3,14.1c-0.1,1.3-0.4,2.7-1.2,3.9c-0.4,0.6-0.9,1.1-1.5,1.5s-1.4,0.6-2.1,0.5c-0.8-0.1-1.5-0.4-2-0.9
						c-0.3-0.3-0.5-0.6-0.6-1c-0.1-0.4-0.1-0.8,0-1.2c0.2-0.8,0.8-1.4,1.5-1.7c0.4-0.2,0.8-0.1,1.2,0c0.4,0.2,0.7,0.4,1,0.7
						c0.5,0.7,0.7,1.5,0.5,2.2s-0.4,1.5-0.8,2.1c-0.8,1.3-1.9,2.4-3.1,3.1c-2.6,1.5-5.7,1.4-8.1,0.1c-1.2-0.7-2.2-1.5-2.9-2.6
						c-0.8-1-1.4-2.1-1.8-3.2c-0.9-2.2-1.1-4.4-1.2-6.4c-0.1-2,0-3.8-0.2-5.4c-0.1-0.8-0.3-1.5-0.5-2.1c-0.2-0.7-0.5-1.1-0.9-1.6
						c-0.7-0.9-1.5-1.3-2-1.5c-0.5-0.2-0.9-0.2-0.9-0.2c0,0,0.3,0,0.9,0.2c0.5,0.2,1.4,0.6,2.1,1.5c0.4,0.4,0.7,1,0.9,1.6
						c0.3,0.7,0.4,1.4,0.5,2.2c0.2,1.6,0.1,3.4,0.2,5.4c0.1,2,0.4,4.2,1.2,6.4c0.4,1.1,1,2.2,1.7,3.1c0.8,1,1.7,1.9,2.9,2.5
						c2.3,1.3,5.3,1.3,7.8-0.1c1.2-0.7,2.3-1.7,3-3.1c0.3-0.7,0.7-1.3,0.8-2s-0.1-1.5-0.5-2.1c-0.2-0.3-0.5-0.5-0.8-0.7
						c-0.3-0.1-0.7-0.1-1,0c-0.7,0.2-1.1,0.9-1.4,1.5c-0.2,0.7,0.1,1.4,0.5,1.9c0.5,0.5,1.1,0.8,1.9,0.9c0.7,0.1,1.4-0.1,2-0.5
						c0.6-0.3,1.1-0.9,1.5-1.4c0.8-1.1,1-2.5,1.2-3.8c0.4-5.2,0.3-10-0.3-14c-0.3-2-0.7-3.8-1.1-5.2c-0.4-1.5-1.1-2.7-1.9-3.5
						s-1.5-1.3-2.1-1.4C324,262.8,323.7,262.8,323.7,262.8z"/>
				</g>
			</g>
			<g>
				<rect x="301.3" y="270.8" class="st3" width="18.1" height="3.4"/>
			</g>
		</g>
		<g>
			<g>
				<g>
					<rect x="165" y="306.4" class="st8" width="23.6" height="50.9"/>
				</g>
				<g>
					<g>
						<path class="st10" d="M186.6,351.9c0,0,0-0.1,0-0.2s0-0.4,0-0.7c0-0.5,0-1.4,0-2.5c0-2.1,0-5.2-0.1-9.1
							c0-7.7-0.1-18.6-0.1-31.4l0.1,0.1c-6.1,0-12.8,0-19.7,0l0,0l0.2-0.2c0,17-0.1,32.4-0.1,43.7l-0.1-0.1c6.1,0,11,0.1,14.4,0.1
							c1.7,0,3.1,0,3.9,0c0.4,0,0.8,0,1,0C186.5,351.9,186.6,351.9,186.6,351.9s-0.1,0-0.3,0s-0.6,0-1,0c-0.9,0-2.2,0-3.9,0
							c-3.4,0-8.4,0.1-14.5,0.1h-0.1v-0.1c0-11.3,0-26.8-0.1-43.7v-0.2h0.2l0,0c6.9,0,13.6,0,19.7,0h0.1v0.1
							c0,12.8-0.1,23.7-0.1,31.5c0,3.9-0.1,6.9-0.1,9.1c0,1,0,1.9,0,2.4c0,0.3,0,0.5,0,0.6C186.6,351.8,186.6,351.9,186.6,351.9z"/>
					</g>
				</g>
				<g>
					<g>
						<path class="st10" d="M185.4,311.9c0,0,0-0.2,0-0.5s0-0.9-0.1-1.5l0.1,0.1c-3.1,0.1-9.6,0.1-17.2,0.1l0,0
							c0.1-0.1-0.2,0.2,0.2-0.2l0,0l0,0l0,0l0,0l0,0v0.1v0.1v0.1v0.3c0,0.2,0,0.3,0,0.5c0,0.3,0,0.7,0,1l-0.2-0.2
							c4.8,0,9.1,0.1,12.2,0.1c1.5,0,2.8,0.1,3.7,0.1c0.4,0,0.8,0,1,0C185.3,311.9,185.4,311.9,185.4,311.9s-0.1,0-0.3,0
							c-0.3,0-0.5,0-1,0c-0.9,0-2.1,0-3.6,0.1c-3.1,0.1-7.4,0.1-12.3,0.1h-0.2v-0.2c0-0.3,0-0.7,0-1c0-0.2,0-0.3,0-0.5v-0.3V310
							v-0.1v-0.1l0,0l0,0l0,0l0,0l0,0c0.3-0.3,0.1-0.1,0.2-0.2l0,0c7.6,0,14.1,0.1,17.2,0.1h0.1v0.1c0,0.7,0,1.1-0.1,1.5
							C185.4,311.7,185.4,311.9,185.4,311.9z"/>
					</g>
				</g>
				<g>
					<g>
						<path class="st10" d="M169.9,313.3c0,0.1-0.4,0.2-0.8,0.2s-0.8-0.1-0.8-0.2s0.4-0.2,0.8-0.2
							C169.6,313.2,169.9,313.2,169.9,313.3z"/>
					</g>
				</g>
				<g>
					<g>
						<path class="st10" d="M184.9,316c0,0.1-3.7,0.2-8.2,0.2s-8.2-0.1-8.2-0.2s3.7-0.2,8.2-0.2C181.3,315.8,184.9,315.8,184.9,316z
							"/>
					</g>
				</g>
				<g>
					<g>
						<path class="st10" d="M185,319.1c0,0.1-3.6,0.2-8,0.2c-4.4,0-8-0.1-8-0.2c0-0.1,3.6-0.2,8-0.2C181.4,319,185,319,185,319.1z"
							/>
					</g>
				</g>
				<g>
					<circle class="st9" cx="176.8" cy="326.5" r="1.3"/>
				</g>
				<g>
					<g>
						<path class="st10" d="M173.1,326.5c0,0.1-0.8,0.2-1.7,0.2c-1,0-1.7-0.1-1.7-0.2c0-0.1,0.8-0.2,1.7-0.2
							C172.3,326.3,173.1,326.4,173.1,326.5z"/>
					</g>
				</g>
				<g>
					<g>
						<path class="st10" d="M183.7,326.1c0,0.1-0.8,0.2-1.6,0.2c-0.9,0-1.6-0.1-1.6-0.2c0-0.1,0.8-0.2,1.6-0.2
							C182.9,326,183.7,326,183.7,326.1z"/>
					</g>
				</g>
			</g>
			<g>
				<g>
					<path class="st8" d="M165.8,331.9c0,0-0.3,0-0.9-0.2s-1.4-0.4-2.3-1.1c-0.9-0.6-2-1.6-2.8-2.9c-0.9-1.4-1.6-3.1-2.1-5
						c-0.5-2-0.8-4.1-0.7-6.5c0.2-2.3,0.9-4.9,2.5-7c0.8-1.1,1.8-2.1,2.9-2.8c0.6-0.4,1.3-0.7,1.9-0.9c0.7-0.2,1.4-0.4,2.1-0.5
						c1.4-0.2,2.9-0.2,4.4-0.3c1.5-0.1,3-0.3,4.3-1c1.4-0.7,2.4-1.9,2.7-3.3c0.3-1.4-0.1-2.9-1-4c-0.9-1-2.3-1.7-3.6-1.6
						c-0.7,0.1-1.3,0.3-1.8,0.7c-0.5,0.4-0.8,1-0.8,1.6c0.1,1.3,1.3,2.3,2.5,2.3c1.2,0.1,2.3-0.5,3.1-1.4c0.8-0.9,1.2-1.9,1.5-2.9
						c0.3-1,0.5-2.1,0.7-3.1c0.5-4,0.4-7.2,0.3-9.4c-0.1-1.1-0.1-2-0.1-2.6c0-0.3,0-0.5-0.1-0.7c0-0.2,0-0.2,0-0.2s0,0.1,0.1,0.2
						c0,0.2,0.1,0.4,0.1,0.7c0.1,0.6,0.1,1.5,0.2,2.6c0.1,2.2,0.3,5.5-0.2,9.5c-0.2,1-0.3,2-0.6,3.1c-0.3,1-0.8,2.1-1.5,3.1
						c-0.8,0.9-2,1.6-3.3,1.5c-1.3-0.1-2.6-1.1-2.7-2.6c-0.1-0.7,0.3-1.4,0.9-1.9c0.5-0.4,1.3-0.7,2-0.8c1.4-0.1,2.9,0.6,3.9,1.7
						c1,1.1,1.4,2.7,1,4.3c-0.2,0.8-0.5,1.5-1,2.1c-0.5,0.6-1.1,1.1-1.8,1.4c-1.4,0.7-2.9,0.9-4.4,1c-1.5,0.1-2.9,0.1-4.4,0.3
						c-0.7,0.1-1.4,0.3-2.1,0.5c-0.7,0.2-1.3,0.5-1.9,0.9c-1.1,0.8-2.1,1.7-2.9,2.7c-1.6,2.1-2.3,4.6-2.5,6.9
						c-0.2,2.3,0.1,4.5,0.6,6.4c0.5,1.9,1.1,3.6,2,5c0.8,1.4,1.9,2.3,2.7,2.9c0.9,0.7,1.7,0.9,2.3,1.1c0.3,0.1,0.5,0.1,0.7,0.2
						C165.8,331.9,165.8,331.9,165.8,331.9z"/>
				</g>
			</g>
		</g>
		<g>
			<g>
				<rect x="157.8" y="227.5" class="st8" width="55.9" height="38.4"/>
			</g>
			<g>
				<rect x="181.4" y="260.7" class="st8" width="7.6" height="14.5"/>
			</g>
		</g>
	</g>
	<g id="Desk">
		<g>
			<g>
				<polygon class="st8" points="163.4,274.6 163.4,279.9 192.2,279.9 192.2,357.5 194.9,357.5 194.9,279.9 315.4,280.5 
					315.4,357.5 318,357.5 318,280.3 336.7,280.5 336.7,274.2 				"/>
			</g>
			<g>
				<polygon class="st8" points="181.8,278.8 193.2,287.1 192.2,288 180.8,279.3 				"/>
			</g>
			<g>
				<polygon class="st8" points="328.7,279.6 315.6,289 316.5,289.9 329.8,280.1 				"/>
			</g>
			<g>
				<rect x="205.3" y="272.7" class="st8" width="29.8" height="2.2"/>
			</g>
		</g>
	</g>
</g>
</svg>
