<?xml version="1.0" encoding="utf-8"?>
<!-- Generator: Adobe Illustrator 24.1.0, SVG Export Plug-In . SVG Version: 6.00 Build 0)  -->
<svg version="1.1" id="Calque_1" xmlns="http://www.w3.org/2000/svg" xmlns:xlink="http://www.w3.org/1999/xlink" x="0px" y="0px"
	 viewBox="0 0 347.4 334.2" style="enable-background:new 0 0 347.4 334.2;" xml:space="preserve">
<style type="text/css">
	.st0{fill:#EBEBEB;}
	.st1{fill:#FE4F5B;}
	.st2{fill:#4B4B4B;}
</style>
<g>
	<path class="st0" d="M171.9,314.5C88.3,314.6,20,246.5,20,162.9c-0.1-84,67.9-151.9,152-152c83.8-0.1,151.7,67.9,151.7,151.9
		C323.7,246.5,255.7,314.4,171.9,314.5z M72.3,166.6c0.5,4.7,0.8,9.5,1.6,14.1c7,44.1,50.9,75.5,94.7,67.5c5.1-0.9,9.9-1,15,0
		c8.7,1.7,17.6,1.6,26.3,0.1c21.2-3.5,38.6-13.8,51.9-30.6c10.8-13.7,16.7-29.4,17.5-46.9c0.1-3.2-1-5.7-3.5-7.6
		c-4.1-3.1-6.2-7.1-6.2-12.2c0-4.1-2-6.8-5.8-8.5c-2.2-1-4.4-2.4-6.1-4.2c-3.6-3.9-6.7-4.8-11.8-3.3c-2.1,0.6-4.5,1.1-6.6,0.8
		c-8.2-1-13.2-7.4-12.9-15.9c0.2-4.5-1.5-7.4-5.2-9c-9.2-3.8-11.5-7.7-10.7-17.8c0.4-4.8-2.9-8.6-7.8-8.9
		c-8.4-0.6-16.6,0.1-24.8,1.9c-1.2,0.3-2.7,0.2-3.9,0c-7.6-1.7-15.3-2.4-23.1-2C107.3,86.4,72.5,122.9,72.3,166.6z"/>
	<path class="st1" d="M196.8,242c-37.4,0.2-68.9-27-74.8-64.1c-7.4-47,31.7-89.8,79.2-86.6c1.9,0.1,2.4,0.8,2.2,2.6
		c-1.6,10.7,5.3,20.3,14.1,23.2c1.9,0.6,2,1.8,1.9,3.4c-0.2,10.5,6.1,19.1,15.7,21.7c4.2,1.2,8.4,1.1,12.5-0.3
		c2.1-0.7,3.4-0.4,5,1.3c2.3,2.2,5.1,4,7.8,5.7c1.2,0.8,2,1.3,2.1,2.9c0.3,6.8,3.1,12.3,8.3,16.7c0.8,0.7,1.3,2.3,1.3,3.4
		c-1.1,15-5.9,28.6-15.1,40.6c-12.4,16.1-28.8,25.7-48.8,29c-1.6,0.3-3.3,0.5-5,0.6C201.1,242.1,198.9,242,196.8,242z M238.5,199
		c8.4,0,15.2-6.7,15.3-14.9c0.1-8.4-6.9-15.4-15.2-15.4c-8.3,0-15.2,6.8-15.2,15C223.4,192.3,230,199,238.5,199z M153.2,162.4
		c8.3-0.1,15.1-6.9,15.1-15.2c0-8.3-7-15.3-15.3-15.2c-8.2,0.1-15.1,7-15.1,15.2C137.9,155.6,144.8,162.5,153.2,162.4z M161.7,192.5
		c0,8.3,6.8,15.1,15.1,15.1c8.3,0,15.3-7,15.2-15.3c-0.1-8.3-6.9-15.1-15.2-15.1C168.6,177.1,161.7,184.1,161.7,192.5z M188.7,123.5
		c0-6.1-5.2-11.3-11.3-11.3c-6.2,0-11.4,5.3-11.4,11.5c0,6.3,5.3,11.4,11.6,11.3C183.8,134.9,188.8,129.7,188.7,123.5z M210.2,202.5
		c-6.1,0-11.3,5.2-11.4,11.3c0,6.2,5.3,11.5,11.5,11.5c6.3-0.1,11.4-5.4,11.3-11.6C221.5,207.5,216.3,202.4,210.2,202.5z
		 M204.5,170.2c6.2,0,11.3-5,11.4-11.2c0.1-6.2-5.2-11.5-11.4-11.5c-6.1,0-11.3,5.1-11.4,11.2C193,164.9,198.2,170.1,204.5,170.2z
		 M189.4,100.5c0-1.9-1.6-3.4-3.5-3.5c-2.2,0-5,2.8-4.9,5.1c0.1,1.9,1.7,3.4,3.6,3.3C186.7,105.4,189.4,102.6,189.4,100.5z
		 M205.5,130c0-1.9-1.6-3.4-3.5-3.5c-2.1,0-4.9,2.7-4.9,4.8c0,2,1.6,3.6,3.6,3.6C202.8,134.9,205.5,132.2,205.5,130z M189.4,221
		c0-1.9-1.5-3.5-3.4-3.6c-2.2-0.1-5.1,2.7-5,5c0,1.9,1.6,3.5,3.5,3.5C186.5,225.9,189.3,223.1,189.4,221z M179.5,155.2
		c-2.1,0.1-4.8,3-4.7,5.1c0,1.9,1.7,3.5,3.5,3.5c2.1-0.1,4.8-2.9,4.8-5.1C183,156.8,181.3,155.2,179.5,155.2z M146.1,176.5
		c-2,0.1-4.8,3-4.8,5c0,1.9,1.9,3.6,3.8,3.5c2.1-0.2,4.8-3.1,4.7-5.1C149.6,178,147.9,176.4,146.1,176.5z M236.8,213.1
		c-0.1-1.8-1.8-3.5-3.5-3.5c-2.1,0-5,3.1-4.9,5.2c0.1,1.8,1.8,3.4,3.7,3.3C234.2,218,236.9,215.1,236.8,213.1z M235.5,158.3
		c0.1-1.9-1.4-3.5-3.3-3.6c-2.1-0.1-4.9,2.5-5.1,4.7c-0.1,2,1.5,3.7,3.4,3.8C232.6,163.1,235.4,160.4,235.5,158.3z M249.5,165.1
		c2.1,0.1,4.9-2.7,4.9-4.8c0.1-2-1.5-3.7-3.5-3.7c-2,0-4.9,2.9-4.9,4.9C246,163.4,247.6,165.1,249.5,165.1z M211.9,183.3
		c0-1.9-1.6-3.5-3.4-3.6c-2,0-5,2.9-5,4.9c0,1.8,1.6,3.5,3.5,3.5C209.1,188.1,211.9,185.4,211.9,183.3z"/>
	<path class="st1" d="M120.7,134.1c-6.5-3.2-12.5-3-17.9,1.7c-4.8,4.2-6.4,9.6-4.5,15.6c2.3,7.6,8,10.9,15.4,11
		c0.5,7.1,1.1,14,1.6,21.3c-4.1,2.2-7.4,5.6-8.6,10.8c-2.3,10.5,7.4,20.3,17.8,17.9c2.4-0.6,3.5,0,4.8,1.9
		c7.9,11.2,18.1,20,30.3,26.2c0.6,0.3,1.2,0.6,1.8,1c-17.6,2.8-45.3-4-64.2-26.3c-20.1-23.7-23.4-58-7.8-85.8
		c15.2-27.1,44.8-40.6,72.3-37.8C142.9,100.9,129.4,115,120.7,134.1z M124.2,227.9c2,0,4.9-3,4.9-4.9c0-1.9-1.6-3.5-3.5-3.5
		c-2.2-0.1-5.1,2.9-5,5C120.6,226.3,122.4,227.9,124.2,227.9z M96.2,184.3c2.1-0.1,4.9-2.9,4.8-5c0-2-1.8-3.6-3.8-3.4
		c-2.2,0.1-4.8,2.9-4.7,5C92.6,182.8,94.3,184.3,96.2,184.3z M118.6,118c2.1,0,4.9-2.7,4.9-4.9c0-2-1.4-3.5-3.4-3.5
		c-2.1-0.1-4.9,2.6-4.9,4.8C115.3,116.3,116.8,117.9,118.6,118z"/>
	<path class="st2" d="M104.8,147.2c0-5.9,6.1-9.8,11.4-7.3c1.3,0.6,1.9,1.2,1.5,2.9c-1,3.4-1.7,6.9-2.4,10.4
		c-0.3,1.5-0.9,2.1-2.5,2.1C108.2,155.2,104.8,151.8,104.8,147.2z"/>
	<path class="st2" d="M117.6,191.1c0.9,2.4,1.8,4.8,2.7,7.1c1,2.4,2.1,4.7,3.1,7c-3.4,1.3-7.5-0.5-9.1-4.1
		C112.6,197.4,114,193.1,117.6,191.1z"/>
	<path class="st2" d="M238.6,192c-4.5,0-8.1-3.7-8-8.1c0-4.3,3.6-7.9,8-8c4.5,0,8.2,3.6,8.2,8C246.7,188.3,243,192,238.6,192z"/>
	<path class="st2" d="M161.1,147.1c0.1,4.6-3.4,8.1-8,8.1c-4.6,0-8.1-3.4-8.1-8c0-4.4,3.5-7.9,7.9-8
		C157.5,139.1,161,142.6,161.1,147.1z"/>
	<path class="st2" d="M177,184.4c4.6,0,8,3.6,7.9,8.2c-0.1,4.4-3.6,7.9-8,7.9c-4.5,0-8.1-3.6-8-8.1
		C168.9,187.7,172.4,184.3,177,184.4z"/>
	<path class="st2" d="M177.3,127.8c-2.3,0-4.1-1.8-4.1-4.1c0-2.4,1.9-4.3,4.2-4.3c2.3,0,4.2,2.1,4.1,4.4
		C181.4,126.1,179.6,127.8,177.3,127.8z"/>
	<path class="st2" d="M214.4,213.9c-0.1,2.4-2,4.2-4.4,4.1c-2.3-0.1-4-2-4-4.3c0-2.4,1.9-4.2,4.4-4.1
		C212.8,209.8,214.4,211.6,214.4,213.9z"/>
	<path class="st2" d="M208.7,158.8c0,2.4-1.7,4.1-4,4.2c-2.5,0-4.3-1.7-4.3-4.2c0-2.4,1.9-4.3,4.3-4.3
		C206.9,154.6,208.7,156.5,208.7,158.8z"/>
</g>
</svg>
