<?xml version="1.0" encoding="utf-8"?>
<!-- Generator: Adobe Illustrator 24.1.0, SVG Export Plug-In . SVG Version: 6.00 Build 0)  -->
<svg version="1.1" id="Calque_1" xmlns="http://www.w3.org/2000/svg" xmlns:xlink="http://www.w3.org/1999/xlink" x="0px" y="0px"
	 viewBox="0 0 547 346.3" style="enable-background:new 0 0 547 346.3;" xml:space="preserve">
<style type="text/css">
	.st0{fill:#EAF5F7;}
	.st1{fill:#5DA9B8;}
	.st2{fill:#64ADBB;}
	.st3{fill:#EBEDF3;}
	.st4{fill:#9FD4DB;}
	.st5{fill:#4E8DA0;}
	.st6{fill:#3F8296;}
	.st7{fill:#D3EFF3;}
	.st8{fill:#3E8196;}
	.st9{fill:#418197;}
	.st10{fill:#DBE7ED;}
	.st11{fill:#EBB869;}
	.st12{fill:#CDD0DF;}
	.st13{fill:#CC5C58;}
	.st14{fill:#D2E7F2;}
	.st15{fill:#9BD2D9;}
	.st16{fill:#E2A65A;}
	.st17{fill:#94BACC;}
	.st18{fill:#D3E7F2;}
	.st19{fill:#DD9E53;}
	.st20{fill:#E5F1F7;}
	.st21{fill:#694018;}
</style>
<g>
	<path class="st0" d="M446.4,300.2c-2.2,1.5-4.5,3-6.7,4.5c-5.2,3.6-10.1,7.5-15.5,10.7c-7.4,4.4-15.1,8.4-22.8,12.2
		c-7.3,3.6-15.3,5.5-23.4,6.5c-14.9,1.8-29.4-0.2-43.6-4.7c-0.9-0.3-2-0.2-3-0.3c-1.4-2.9-3.5-4.4-6.8-4c-1.1,0.1-2.1,0-3.2,0
		c-4.2-1.8-8.3-3.7-12.5-5.5c-8.9-3.8-17.8-7.7-26.8-11.4c-16.7-6.9-33.8-12.8-51.7-15.9c-7.5-1.3-15.2-1.8-22.7-1.5
		c-7,0.3-13.8,2.1-20.8,3.3c0-8.3-0.1-16.7-0.1-25c64.3,0,128.6,0,192.9,0c0.8,0,1.7,0.1,2.5,0c3.4-0.3,5.2-2.1,5.6-5.2
		c3.8-0.8,5.9-2.7,5.9-5.9c0.1-9.9,0-19.9-0.1-29.8c0-0.9,0.1-1.8,0.1-2.7c0-7.1,0.1-14.2,0.1-21.3c4.6,0,10.6-5.4,10-9.9
		c-0.4-3-2.7-5.8-4.3-8.5c-1.3-2.1-3.6-1.6-5.7-1.7l-0.2,0.1c0.1-10.5,0.1-21,0.2-31.5c0.1-0.1,0.3-0.3,0.4-0.4
		c10.8,0,21.7,0,32.5,0c0.7,1.3,1.3,2.6,2,3.9c0.1,1.1,0,2.3,0.4,3.2c2.4,4.8,4.4,10,7.5,14.3c6.1,8.3,12.7,16.4,19.5,24.1
		c7.8,8.9,14.7,18.1,18.6,29.4c0.2,0.3,0.3,0.7,0.5,1c0.2,1,0.3,1.9,0.5,2.9c1.6,7.3,2.6,14.6,1.1,22.1c-1.2,6.2-3.2,12-6.4,17.4
		c-2.8,4.7-5.7,9.5-9.3,13.7c-4.3,5.1-9.3,9.6-14,14.4C447,299.2,446.7,299.7,446.4,300.2z M236.1,280.2c-0.1,0.2-0.2,0.3-0.2,0.5
		c1.8,0.6,4.2,0.6,5.4,1.8c1.2,1.2,1.1,3.6,1.6,5.5c0.2,0.1,0.5,0.3,0.7,0.4c-0.3-5.2,2.2-7.6,7.4-7.3c-0.5-0.5-7.8-7.8-8-8
		c-0.5,1.9-0.4,4.3-1.6,5.4C240.3,279.8,238,279.7,236.1,280.2z M376.5,313.6c3.5,0.3,4.7,2.4,5.1,5.5c0.2-3.4,1.9-5,5.3-5.4
		c-3.5-0.2-4.9-2.2-5.3-5.3C381.2,311.5,380,313.4,376.5,313.6z M442.8,226c0.3-0.2,0.6-0.3,0.9-0.5c-0.2-0.6-0.2-1.2-0.6-1.6
		c-1.2-1.4-1.2-2.9-0.8-4.6c0.3-1.3,0.4-2.6,0.4-4c0-0.5-0.4-1-0.6-1.5c-0.2,0-0.5,0.1-0.7,0.1c-0.3,1.9-0.6,3.8-0.8,5.6
		c-0.9-0.1-1.5-0.2-2.9-0.3C439.6,221.8,441.2,223.9,442.8,226z M435.9,197c0.8-2.1-1.9-6.1-4.6-6.8
		C432.2,192.7,434,194.8,435.9,197z M421.9,180.8c-0.2,0.2-0.4,0.5-0.6,0.7c2,1.8,4,3.5,6.4,5.7
		C427.7,184.4,424.3,181.3,421.9,180.8z M438.5,255.5c-2.2,0.7-5.4,4-5.4,5.7C435.6,260.5,438.5,257.4,438.5,255.5z M421.4,268.8
		c2.8,0.1,6.6-2.5,7.5-5.2C426,265.2,423.6,266.3,421.4,268.8z M431.8,230.7c2.6,1.2,6.7-1.4,6.7-4.4
		C436.2,227.8,434.1,229.2,431.8,230.7z M439.6,200.8c-0.3,0.1-0.6,0.2-0.9,0.3c-0.3,2.4,1.5,6.9,3.6,7.6
		C441.3,205.8,440.5,203.3,439.6,200.8z M392.3,280.2c0-0.5,0-0.9,0-1.4c-2.6,0.2-5.3,0.3-7.9,0.5c0,0.3,0,0.6,0,0.9
		C387,280.2,389.6,280.2,392.3,280.2z M410,274.4c0.2,0.4,0.3,0.8,0.5,1.2c2.4-1.1,4.8-2.3,7.3-3.4c-0.2-0.4-0.4-0.9-0.6-1.3
		C414.7,271.8,412.2,272.8,410,274.4z M370.8,277.7c2.1,2,6.8,2.7,8.6,1.3C376.5,278.2,374,277.4,370.8,277.7z M444.4,243.3
		c-1.2,2.8-2.2,5.2-3.4,8.1C443.8,250.3,445.7,245.7,444.4,243.3z M427.1,229.4c-0.9-2.4-1.9-4.7-2.9-7.4
		C422.7,225.3,424.6,229.5,427.1,229.4z M434.3,216.8c-1.5-2-3.2-1.7-4.7-1.5c-1.2,0.2-2.3,1.1-3.5,1.7c0.1,0.1,0.2,0.3,0.4,0.4
		C428.9,217.3,431.3,217.1,434.3,216.8z M405.5,277.4c-0.1-0.3-0.1-0.5-0.2-0.8c-2-0.6-6.7,0.8-7.5,2.9
		C400.3,278.8,402.9,278.1,405.5,277.4z M367,275.9c-2.9-1.3-5.4-2.3-8.2-3.6C359.6,275,364.3,277.1,367,275.9z M445.1,238.7
		c2-2.4,1.4-7.1-0.8-8.1C444.5,233.5,444.8,236.1,445.1,238.7z"/>
	<path class="st0" d="M45.3,146.2c2.1-1.5,0.8-3.9,1.5-5.8c0.2-0.5-0.2-1.3-0.3-1.9c0.8-1.7,1.6-3.4,2.2-4.7
		c-0.8-1.9-1.5-3.6-2.3-5.2c-0.4-0.7-1-1.3-1.5-2c-0.3-1.6-0.7-3.3-1-4.9c1.2-1.3,1.3-6.1-0.5-8.3c-0.2,1.2-0.3,2.5-0.5,3.7
		c-0.4-0.4-1.1-0.8-1.3-1.3c-2.3-7.6-4.9-15.1-6.7-22.9c-1.7-7.4-1.8-15-1.1-22.7c0.7-7.8,2.4-15.2,5.1-22.4
		c2.4-6.4,5.9-12.3,10.2-17.6c9.7-11.8,22.2-18.7,37-21.6c9.6-1.9,19.2-1.2,28.5,1.7c7.5,2.4,14.9,5,22.1,8.3
		c11.9,5.4,23.4,11.6,35.1,17.1c12.7,6,25.8,10.9,39.7,13.2c4.5,0.8,9.1,0.9,13.6,1.1c15.7,0.7,31-1.9,45.8-7.1
		c6.7-2.4,13-5.7,19.6-8.6c0.7-0.3,1.4-0.5,2.1-0.8c0,2.3,0,4.7,0,7c0,12.3-0.1,24.6-0.1,37c-1.1,0-2.2,0-3.2,0
		c-65.7,0-131.5,0-197.2,0c-4.8,0-6.5,1.2-8,5.5c-3.9,0.7-5.5,2.6-5.5,6.5c0,31.2,0,62.4,0,93.6c-1.1,0-2.2-0.1-3.2-0.1
		c-16.3,0-32.7,0-49,0c-1.2,0-2.5-0.1-3.7-0.1c0.9-1.4,1.7-3,2.8-4.3c4.7-5.8,9.5-11.4,14.2-17.3c1.5-1.9,2.4-4.3,3.7-6.4
		c0.5-0.9,1.3-1.6,1.9-2.3c1.5,0.8,1.7,0,1.4-1.3C46,149.7,45.6,147.9,45.3,146.2z M166.9,70.8c0.6-1.7,0.7-3.4,1.5-4.2
		c0.8-0.8,2.4-0.8,3.7-1.1c0.1-0.2,0.1-0.4,0.2-0.6c-3.4,0.3-5-1.4-5.4-4.9c0,3.8-2.2,4.9-5.3,5.1C165.6,66.8,165.6,66.8,166.9,70.8
		z M100,58.8c0,0.2,0,0.5,0,0.7c2.1,1.2,6.8,0.8,8.6-1.3C105.4,58.4,102.7,58.6,100,58.8z M44.2,108.2c0.3,0.1,0.6,0.1,0.8,0.2
		c0.6-2.6,1.2-5.2,1.8-7.8C44.5,101.7,43.5,105.8,44.2,108.2z M62.7,74.1c2.1,0.4,7.5-2.7,7.5-3.8c0-0.3-0.7-0.9-0.8-0.8
		C67.3,70.8,65.3,72.3,62.7,74.1z M51.6,88.4c-2.9,2.1-4.3,5.8-3.1,7.5C49.8,93.4,51.6,91.3,51.6,88.4z M60.9,128.7
		c-2.9-2.1-6.5-1.6-8.8,1.1C55.1,129.4,57.7,129.1,60.9,128.7z M82.4,64.5c-0.4-0.6-0.5-0.9-0.5-0.9c-2.4,0.9-4.7,1.8-7.1,2.8
		c0.2,0.4,0.6,1.1,0.7,1.1C77.8,66.5,80.1,65.5,82.4,64.5z M64.3,131.6c-0.4,2.7-0.8,5.1-1.3,7.8c2-0.7,2.5-2.3,2.7-3.9
		C65.9,134.1,66.3,132.5,64.3,131.6z M146.3,68.9c0.1-0.3,0.2-0.5,0.3-0.8c-1.3-1.9-5.8-3.7-8.1-2.5
		C141.4,66.9,143.8,67.9,146.3,68.9z M86.9,61.3c0.1,0.3,0.1,0.5,0.2,0.8c2.1,0.8,6.9-0.6,8-2.7C92,60.1,89.5,60.7,86.9,61.3z
		 M126.1,60.9c2,2.1,6.6,3.2,8.4,2C131.8,61.7,129.4,60.7,126.1,60.9z M59.6,77.9c-2.3,1.5-4.6,3.1-5,6.2
		C56.9,82.5,58.9,80.7,59.6,77.9z M113.5,58.8c-0.1,0.4-0.1,0.8-0.2,1.2c2.6,0.3,5.3,0.6,7.9,0.9c0.1-0.4,0.1-0.9,0.2-1.3
		C118.8,59.1,116.2,58.4,113.5,58.8z M49.4,156.9c-0.3,0.3-0.5,0.6-0.8,0.9c1.5,2.3,3.8,3.7,6.2,4.8c0.2-0.3,0.5-0.6,0.7-0.9
		C53.5,160.1,51.5,158.5,49.4,156.9z M50.8,138.1c1.1,3.1,5.6,4.6,7.5,2.7C55.9,140,53.5,139.1,50.8,138.1z"/>
	<path class="st1" d="M468.4,123.2c0,6.1-0.1,12.1-0.1,18.2c0,7.2-3.6,10.8-10.7,10.8c-9.6,0-19.1-0.1-28.7-0.1c0-0.6,0-1.1,0-1.7
		c1,0,2-0.1,3-0.1c8.6,0,17.2,0,25.7,0c4.5,0,8.2-3.5,8.2-8c0.1-19.3,0-38.7,0-58c0-12.3,0.1-24.6,0-37c0-4.2-3-7.4-7.1-8.1
		c-1.4-0.2-2.8-0.4-4.2-0.4c-49.4,0-98.8,0-148.2,0c-1.4,0-2.8,0.1-4.2,0.3c-4.3,0.7-7.2,3.9-7.2,8.3c-0.1,10.1,0,20.2,0,30.2
		c-0.9,0-1.7,0-2.6,0c0-12.3,0.1-24.6,0.1-37c0-2.3,0-4.7,0-7c2.2-6.4,4.5-8,11.2-8c1.7,0,3.5-0.1,5.2-0.1c0.7,0,1.3,0.1,2,0.1
		c39.5,0,79,0,118.5,0c0.7,0,1.3-0.1,2-0.1c8.8,0,17.6,0.1,26.5,0.1c6.7,0,10.4,3.6,10.4,10.3c0.1,15.9,0.1,31.8,0.1,47.7
		c0,8.5,0,17,0,25.5C468.4,113.9,468.4,118.5,468.4,123.2z M436.3,34.2c5.3,0,10.6,0.1,16-0.1c0.9,0,2.4-0.9,2.5-1.5
		c0.2-1.7-1.4-1.5-2.5-1.5c-10.5,0-21,0-31.4,0.1c-0.9,0-2.6,0.8-2.6,1.4c-0.2,1.7,1.4,1.7,2.7,1.7C426,34.2,431.2,34.2,436.3,34.2z
		 M325.3,32.6c-0.8-0.6-1.4-1.4-1.9-1.3c-0.5,0-1,0.8-1.5,1.2c0.5,0.6,0.9,1.4,1.5,1.6C323.8,34.1,324.4,33.3,325.3,32.6z
		 M308.5,30.5c-0.7,0.9-1.5,1.5-1.5,1.9c0.1,0.6,0.9,1.1,1.4,1.7c0.5-0.5,1.2-1,1.3-1.5C309.8,32.1,309.1,31.5,308.5,30.5z
		 M316,30.5c-0.7,0.9-1.5,1.5-1.5,1.9c0.1,0.6,0.9,1.1,1.4,1.7c0.5-0.5,1.2-1,1.3-1.5C317.3,32.1,316.6,31.5,316,30.5z"/>
	<path class="st0" d="M157.9,305.7c-1.7,1.2-3.4,2.5-5.2,3.5c-8.3,4.5-16.6,9.1-25.1,13.3c-7.6,3.8-15.6,6.2-24.2,7.2
		c-9,1.1-17.2-1.4-25.4-4.5c-11.4-4.4-22.3-10-32.5-16.8c-1-0.7-1.8-1.8-2.7-2.7c0.7,0,1.3-0.1,2-0.1c37,0,74,0,111,0
		C156.5,305.6,157.2,305.7,157.9,305.7z M104.8,313.8c-0.3,3.3-1.8,5.2-5.5,5.3c3.7,0.1,5,2.2,5.4,5.4c0.1-3.5,1.9-5.1,5.4-5.3
		C106.8,318.8,104.7,317.5,104.8,313.8z"/>
	<path class="st0" d="M431.4,25.6c-0.7,0-1.3,0.1-2,0.1c-39.5,0-79,0-118.5,0c-0.7,0-1.3-0.1-2-0.1c0.4-0.5,0.7-1.1,1.2-1.4
		c9.2-4.1,18.3-8.7,27.8-12.1c6.9-2.5,14.2-3.8,21.5-4.8c6.4-0.9,12.9-1.3,19.3-1c14.9,0.8,29.4,4,42.4,11.8
		c3.2,1.9,6.2,4.1,9.3,6.2C430.8,24.5,431.1,25.1,431.4,25.6z"/>
	<path class="st2" d="M157.9,305.7c-0.7,0-1.3-0.1-2-0.1c-37,0-74,0-111,0c-0.7,0-1.3,0.1-2,0.1c-11.2,0-22.3-0.1-33.5-0.1
		c-4.7,0-6.5-1.8-6.5-6.4c0-15.7-0.1-31.3-0.1-47c0-10.8,0-21.7,0-32.5c0-10,0.1-20,0.1-29.9c0-4.9,1.6-6.6,6.5-6.6
		c4.3,0,8.6-0.1,13-0.1c1.2,0.1,2.5,0.1,3.7,0.1c16.3,0,32.7,0,49,0c1.1,0,2.2,0.1,3.2,0.1c-0.1,0.4-0.1,0.9-0.2,1.3
		c-1,0-2,0.1-3,0.1c-21.9,0-43.7,0-65.6,0c-4.2,0-5.2,1.1-5.2,5.3c0,1.7,0,3.5,0.1,5.2c0,34.2,0,68.5,0,102.7c0,5.1,1.1,6.2,6.1,6.2
		c14.6,0,29.2,0,43.7,0c0.9,0,1.8-0.2,2.7-0.3c41.1,0,82.2,0,123.4,0c4.2,0,5.1-0.9,5.1-5.2c0-9.8,0-19.6,0-29.5c0.5,0,1,0,1.5,0
		c0,8.3,0.1,16.7,0.1,25c0,1.6-0.1,3.2-0.1,4.7c0,4.9-1.8,6.7-6.8,6.7c-6.1,0-12.1,0-18.2,0C160.5,305.6,159.2,305.7,157.9,305.7z"
		/>
	<path class="st3" d="M536.2,325.5c2.3,0.8,5,0.9,6.2,2.3c2.1,2.4,4.6,5.6,4.6,8.5c0,2.9-2.6,5.9-4.6,8.5c-1.8,2.3-4.9,1.4-7.5,1.4
		c-4.7,0.1-10.6-5.5-9.8-10c0.5-3,2.5-6,4.6-8.2C531.1,326.4,533.9,326.3,536.2,325.5z"/>
	<path class="st3" d="M321.4,325.2c1.1,0,2.1,0.1,3.2,0c3.3-0.4,5.4,1.2,6.8,4c0.1,0.2,0.2,0.4,0.3,0.7c0.9,1.9,2.8,4.2,2.4,5.7
		c-0.8,3-2.9,5.7-4.8,8.3c-0.5,0.8-2,0.9-3.1,1.3c-0.5,0.1-1,0-1.5,0c-6,1.1-9.6-1.7-12-6.9c-0.9-1.9-1.4-3.7-0.2-5.7
		c1.1-1.7,2-3.4,3.1-5.1C317.1,325.7,319,324.9,321.4,325.2z"/>
	<path class="st0" d="M2.8,219.7c0,10.8,0,21.7,0,32.5c-0.4-0.7-1.1-1.4-1.2-2.2c-0.6-5-1.6-10.1-1.6-15.2c0-4.6,1.2-9.3,1.9-13.9
		C1.9,220.5,2.4,220.1,2.8,219.7z"/>
	<path class="st4" d="M23.4,163.5c-0.8-2.5-0.8-4.9-2-6.1c-1.1-1.2-3.4-1.1-5.2-2.2c1.8-0.4,4.1-0.3,5.3-1.4
		c1.2-1.1,1.2-3.5,2.2-5.4c0.3,1.2,0.9,2.3,0.9,3.5c0.1,1.9,1.2,2.5,2.8,2.8c1.1,0.2,2.2,0.5,3.3,1.2c-1.8,0.5-4.2,0.6-5.4,1.7
		C24.1,158.7,24.1,161.1,23.4,163.5z"/>
	<path class="st5" d="M293,0c0.2,3.7,2.2,5.1,5.4,5.5c-3.3,0.2-5.4,1.6-5.6,5c-0.4-1.2-0.4-2.8-1.2-3.6c-0.8-0.8-2.3-1-4.3-1.7
		C290.9,4.9,293.2,3.8,293,0z"/>
	<path class="st5" d="M44.9,126.7c0.5,0.7,1.1,1.2,1.5,2c0.8,1.6,1.4,3.2,2.3,5.2c-0.6,1.3-1.4,3-2.2,4.7c-0.4,0.6-0.8,1.1-1.2,1.7
		c-0.3-0.1-0.6-0.2-0.9-0.3c0.3-1.1,0.4-2.2,1-3.1c1.2-1.9,1.1-3.6,0.2-5.6C45,129.8,45.1,128.2,44.9,126.7z"/>
	<path class="st5" d="M42.8,117.2c0.2-1.2,0.3-2.5,0.5-3.7c1.8,2.2,1.8,7,0.5,8.3C43.5,120.2,43.2,118.7,42.8,117.2z"/>
	<path class="st5" d="M45.3,146.2c0.4,1.7,0.7,3.5,1.1,5.2c0.3,1.3,0.1,2-1.4,1.3c-0.5-2-1-3.9-1.4-5.9c-0.1-0.4,0.3-1,0.5-1.5
		C44.5,145.6,44.9,145.9,45.3,146.2z"/>
	<path class="st6" d="M292.3,77.7c0.9,0,1.7,0,2.6,0c19.2,0,38.5,0,57.7,0c11.4,0,22.8,0,34.2,0c4.5,0,6.9,2.5,7,7
		c0,1.2,0.1,2.3,0.1,3.5c0,0.3,0,0.7,0,1c0,0.3,0,0.7,0,1c0,0.3,0,0.7,0,1c0,7,0,14,0,21c0,4.5,0,9,0,13.5c0,4.2,0,8.3,0,12.5
		c0,0.3,0,0.7,0,1c0,3.5,0,7,0,10.5c-0.1,0.1-0.1,0.3-0.1,0.4c0,0.7,0,1.4,0,2.1c0,0.2,0,0.3,0,0.4c-0.1,10.5-0.1,21-0.2,31.5
		c-2.5,0.2-4.9,0.3-7.4,0.5c0-1-0.1-2-0.1-3c0-30.7,0-61.3,0-92c0-4.4-0.2-4.6-4.4-4.6c-95.4,0-190.8,0-286.2,0
		c-4.2,0-4.4,0.2-4.4,4.4c0,50.5,0,101,0,151.5c0,4.5,0.2,4.7,4.6,4.7c85.6,0,171.1,0,256.7,0c1.1,0,2.2,0.1,3.2,0.1
		c0,6,0,12,0,17.9c-1,0-2,0.1-3,0.1c-86.9,0-173.8,0-260.7,0c-0.7,0-1.5,0-2.2,0c-2.9-0.1-5.1-1.9-5.7-4.7c-0.3-1.2-0.3-2.5-0.3-3.7
		c0-47,0-94,0-141c0-10.4,0-20.8,0-31.2c1.5-4.3,3.2-5.5,8-5.5c65.7,0,131.5,0,197.2,0C290.2,77.7,291.2,77.7,292.3,77.7z
		 M238.8,251.6c-9.5,0-19,0-28.5,0c-3.1,0-3.7,0.5-3.8,3c0,2.5,0.6,3.1,3.6,3.1c19.2,0,38.3,0,57.5,0c2.2,0,3.6-0.4,3.5-3
		c-0.1-2.5-0.6-3.1-3.4-3.1C258.2,251.6,248.5,251.6,238.8,251.6z"/>
	<path class="st7" d="M83.8,83.2c0,10.4,0,20.8,0,31.2c0,47,0,94,0,141c0,1.2,0,2.5,0.3,3.7c0.7,2.8,2.9,4.5,5.7,4.7
		c0.7,0,1.5,0,2.2,0c86.9,0,173.8,0,260.7,0c1,0,2-0.1,3-0.1c0.3,0,0.7,0,1,0c1.7,0,3.5,0.1,5.2,0.1c8.6,0.1,17.2,0.1,25.8,0.1
		c-0.4,3.1-2.3,4.9-5.6,5.2c-0.8,0.1-1.7,0-2.5,0c-64.3,0-128.6,0-192.9,0c-0.5,0-1,0-1.5,0c-32.5,0-65,0-97.5,0
		c-3.1,0-5.9-0.4-8.6-2c-0.3-2.3-0.7-4.7-1-7c0-2.3,0-4.6,0-7c0-2.5,0-5,0-7.5c0-2.2,0-4.3,0-6.5c0-2.5,0-5,0-7.5c0-2,0-4,0-6
		c0-8.2,0-16.4,0-24.5c0-2,0-4,0-6c0-1.1,0-2.3,0-3.4c0-1.5,0-3.1,0-4.6c-0.1-0.9-0.1-1.7-0.2-2.6c0.1-0.4,0.1-0.9,0.2-1.3
		c0-31.2,0-62.4,0-93.6C78.4,85.7,79.9,83.9,83.8,83.2z"/>
	<path class="st8" d="M387.9,263.9c-8.6,0-17.2-0.1-25.8-0.1c-1.7,0-3.5-0.1-5.2-0.1c0-6,0-12,0-17.9c8.6,0,17.3-0.1,25.9-0.1
		c2.9,0,3.5-0.6,3.5-3.5c0-4.7,0.1-9.3,0.1-14c2.4,0,4.8,0,7.3,0c0,9.9,0.1,19.9,0.1,29.8C393.8,261.2,391.6,263.1,387.9,263.9z"/>
	<path class="st9" d="M393.7,228.2c-2.4,0-4.8,0-7.3,0c0-1-0.1-2-0.1-3c0-7.8-0.1-15.7-0.1-23.5c0-5,0-10,0-15
		c0.1-0.7,0.1-1.3,0.2-2c2.5-0.2,4.9-0.3,7.4-0.5l0.2-0.1c0,6.7,0,13.4,0,20.1c0,7.1-0.1,14.2-0.1,21.3
		C393.9,226.4,393.8,227.3,393.7,228.2z"/>
	<path class="st10" d="M394,204.2c0-6.7,0-13.4,0-20.1c2,0.1,4.4-0.4,5.7,1.7c1.7,2.7,3.9,5.5,4.3,8.5
		C404.6,198.8,398.6,204.2,394,204.2z"/>
	<path class="st2" d="M393.9,152.2c0-0.7,0-1.4,0-2.1c0,0,0.2,0,0.2,0l0.2,0c11.2,0,22.3,0,33.5,0c0.3,0,0.7,0,1,0l0,0.2
		c0,0.6,0,1.1,0,1.7c-0.7,0.1-1.3,0.1-2,0.2c-10.8,0-21.7,0-32.5,0C394.2,152.2,394.1,152.2,393.9,152.2z"/>
	<path class="st11" d="M236.1,280.2c1.8-0.5,4.1-0.5,5.3-1.6c1.1-1.1,1.1-3.5,1.6-5.4c0.2,0.2,7.5,7.5,8,8c-5.2-0.3-7.6,2.1-7.4,7.3
		c-0.2-0.1-0.5-0.3-0.7-0.4c-0.5-1.9-0.5-4.3-1.6-5.5c-1.2-1.2-3.5-1.3-5.4-1.8C236,280.6,236.1,280.4,236.1,280.2z"/>
	<path class="st4" d="M376.5,313.6c3.5-0.2,4.8-2.1,5.2-5.3c0.4,3.2,1.8,5.1,5.3,5.3c-3.4,0.4-5.1,2.1-5.3,5.4
		C381.2,315.9,380,313.9,376.5,313.6z"/>
	<path class="st5" d="M442.8,226c-1.6-2.1-3.2-4.2-5.2-6.9c1.4,0.2,2,0.2,2.9,0.3c0.3-1.8,0.6-3.7,0.8-5.6c0.2,0,0.5-0.1,0.7-0.1
		c0.2,0.5,0.6,1,0.6,1.5c0,1.3-0.1,2.7-0.4,4c-0.5,1.7-0.4,3.2,0.8,4.6c0.3,0.4,0.4,1.1,0.6,1.6C443.3,225.7,443.1,225.9,442.8,226z
		"/>
	<path class="st5" d="M435.9,197c-1.9-2.2-3.6-4.2-4.6-6.8C434,190.9,436.7,194.8,435.9,197z"/>
	<path class="st5" d="M421.9,180.8c2.4,0.5,5.8,3.6,5.8,6.4c-2.4-2.2-4.4-3.9-6.4-5.7C421.5,181.3,421.7,181,421.9,180.8z"/>
	<path class="st9" d="M438.5,255.5c0,1.8-2.9,5-5.4,5.7C433.2,259.6,436.3,256.3,438.5,255.5z"/>
	<path class="st5" d="M421.4,268.8c2.3-2.5,4.7-3.6,7.5-5.2C428,266.4,424.2,268.9,421.4,268.8z"/>
	<path class="st5" d="M431.8,230.7c2.3-1.5,4.4-2.9,6.7-4.4C438.4,229.3,434.4,231.9,431.8,230.7z"/>
	<path class="st5" d="M439.6,200.8c0.9,2.5,1.7,5,2.7,7.9c-2.1-0.6-3.9-5.2-3.6-7.6C439,201,439.3,200.9,439.6,200.8z"/>
	<path class="st5" d="M392.3,280.2c-2.6,0-5.3,0-7.9,0c0-0.3,0-0.6,0-0.9c2.6-0.2,5.3-0.3,7.9-0.5
		C392.3,279.2,392.3,279.7,392.3,280.2z"/>
	<path class="st5" d="M410,274.4c2.2-1.6,4.7-2.5,7.2-3.5c0.2,0.4,0.4,0.9,0.6,1.3c-2.4,1.1-4.8,2.3-7.3,3.4
		C410.4,275.1,410.2,274.8,410,274.4z"/>
	<path class="st5" d="M370.8,277.7c3.2-0.3,5.7,0.5,8.6,1.3C377.6,280.5,372.8,279.7,370.8,277.7z"/>
	<path class="st5" d="M444.4,243.3c1.3,2.5-0.6,7.1-3.4,8.1C442.2,248.5,443.2,246.1,444.4,243.3z"/>
	<path class="st5" d="M427.1,229.4c-2.5,0.2-4.4-4.1-2.9-7.4C425.2,224.7,426.2,227,427.1,229.4z"/>
	<path class="st5" d="M434.3,216.8c-3,0.2-5.4,0.4-7.8,0.6c-0.1-0.1-0.2-0.3-0.4-0.4c1.1-0.6,2.2-1.4,3.5-1.7
		C431.1,215.1,432.8,214.8,434.3,216.8z"/>
	<path class="st5" d="M405.5,277.4c-2.6,0.7-5.1,1.4-7.7,2.1c0.8-2.2,5.5-3.5,7.5-2.9C405.3,276.9,405.4,277.2,405.5,277.4z"/>
	<path class="st5" d="M367,275.9c-2.7,1.2-7.4-0.9-8.2-3.6C361.6,273.6,364,274.7,367,275.9z"/>
	<path class="st5" d="M445.1,238.7c-0.3-2.6-0.5-5.2-0.8-8.1C446.5,231.7,447.1,236.3,445.1,238.7z"/>
	<path class="st10" d="M393.9,152.2c0.2,0,0.3,0,0.4,0c-0.1,0.1-0.3,0.3-0.4,0.4C393.9,152.5,393.9,152.4,393.9,152.2z"/>
	<path class="st11" d="M166.9,70.8c-1.3-4-1.3-4-5.3-5.8c3.1-0.1,5.3-1.3,5.3-5.1c0.4,3.5,2,5.2,5.4,4.9c-0.1,0.2-0.1,0.4-0.2,0.6
		c-1.3,0.3-2.9,0.3-3.7,1.1C167.5,67.4,167.5,69,166.9,70.8z"/>
	<path class="st5" d="M100,58.8c2.7-0.2,5.3-0.3,8.6-0.5c-1.8,2.1-6.5,2.5-8.6,1.3C100,59.3,100,59,100,58.8z"/>
	<path class="st5" d="M44.2,108.2c-0.7-2.5,0.3-6.5,2.6-7.6c-0.6,2.6-1.2,5.2-1.8,7.8C44.7,108.4,44.5,108.3,44.2,108.2z"/>
	<path class="st5" d="M62.7,74.1c2.6-1.8,4.6-3.3,6.7-4.7c0.1,0,0.8,0.6,0.8,0.8C70.2,71.3,64.8,74.5,62.7,74.1z"/>
	<path class="st5" d="M51.6,88.4c0,2.9-1.8,5-3.1,7.5C47.2,94.2,48.7,90.6,51.6,88.4z"/>
	<path class="st5" d="M60.9,128.7c-3.2,0.4-5.8,0.7-8.8,1.1C54.4,127,58,126.6,60.9,128.7z"/>
	<path class="st5" d="M82.4,64.5c-2.3,1-4.6,2-6.9,3c-0.1,0-0.5-0.7-0.7-1.1c2.4-0.9,4.7-1.9,7.1-2.8C81.9,63.6,82,63.8,82.4,64.5z"
		/>
	<path class="st5" d="M64.3,131.6c1.9,0.9,1.6,2.5,1.4,3.9c-0.2,1.6-0.7,3.2-2.7,3.9C63.5,136.7,63.9,134.3,64.3,131.6z"/>
	<path class="st5" d="M146.3,68.9c-2.4-1-4.9-2.1-7.8-3.3c2.3-1.1,6.8,0.6,8.1,2.5C146.5,68.4,146.4,68.7,146.3,68.9z"/>
	<path class="st5" d="M86.9,61.3c2.6-0.6,5.2-1.2,8.2-1.9c-1.1,2.2-5.9,3.5-8,2.7C87,61.9,86.9,61.6,86.9,61.3z"/>
	<path class="st5" d="M126.1,60.9c3.2-0.2,5.7,0.8,8.4,2C132.8,64.2,128.2,63.1,126.1,60.9z"/>
	<path class="st5" d="M59.6,77.9c-0.7,2.8-2.8,4.6-5,6.2C55,81,57.3,79.5,59.6,77.9z"/>
	<path class="st5" d="M113.5,58.8c2.7-0.4,5.3,0.3,7.9,0.8c-0.1,0.4-0.1,0.9-0.2,1.3c-2.6-0.3-5.3-0.6-7.9-0.9
		C113.4,59.6,113.5,59.2,113.5,58.8z"/>
	<path class="st5" d="M49.4,156.9c2,1.6,4.1,3.2,6.1,4.8c-0.2,0.3-0.5,0.6-0.7,0.9c-2.5-1.1-4.7-2.5-6.2-4.8
		C48.9,157.5,49.2,157.2,49.4,156.9z"/>
	<path class="st5" d="M50.8,138.1c2.7,1,5.1,1.9,7.5,2.7C56.4,142.8,51.9,141.3,50.8,138.1z"/>
	<path class="st12" d="M514.5,129.4c-0.1,0-0.1,0-0.2-0.1c0,0.1,0,0.2,0,0.3c0.1,0,0.1,0,0.2,0C514.5,129.5,514.5,129.4,514.5,129.4
		z"/>
	<path class="st13" d="M104.8,313.8c-0.1,3.8,2,5,5.3,5.4c-3.5,0.2-5.3,1.7-5.4,5.3c-0.4-3.2-1.7-5.3-5.4-5.4
		C103,319,104.4,317.1,104.8,313.8z"/>
	<path class="st14" d="M56.9,303.8c-0.9,0.1-1.8,0.3-2.7,0.3c-14.6,0-29.2,0-43.7,0c-5,0-6.1-1.1-6.1-6.2c0-34.2,0-68.5,0-102.7
		c4.8,0,9.6,0,14.4,0c12.7,0,25.4,0.1,38.1,0.1C56.9,231.5,56.9,267.6,56.9,303.8z M21.3,228.2c2.7,0,5.5,0,8.2,0
		c3.3,0,4.3-0.9,4.3-3.7c0.1-4.9-0.5-5.8-4.2-5.8c-5.7-0.1-11.5-0.1-17.2,0c-2.6,0-3.5,1.1-3.6,3.7c0,0.7,0,1.3,0,2
		c0,2.7,1,3.7,3.7,3.8C15.5,228.2,18.4,228.2,21.3,228.2z M21.4,210.2c3.2,0,6.3,0,9.5,0c1.9,0,2.9-1,3-2.9c0-1,0-2,0-3
		c0-2-0.9-3.1-3-3.1c-6.3,0-12.6,0-19,0c-2,0-3,1.1-3,3.1c0,0.8,0,1.7,0,2.5c0,2.3,1.1,3.4,3.3,3.4
		C15.3,210.2,18.4,210.2,21.4,210.2z M21.6,236.7c-3.2,0-6.3,0-9.5,0c-2.1,0-3.2,1-3.3,3.2c0,0.9,0,1.8,0,2.7c0.1,2,1.1,3.1,3.1,3.1
		c6.2,0,12.5,0,18.7,0c2.2,0,3.2-1,3.2-3.2c0-0.8,0-1.7,0-2.5c0.1-2.3-1-3.4-3.3-3.3C27.6,236.7,24.6,236.7,21.6,236.7z M16.9,296.7
		c7.1,0.1,6.4,0.5,6.5-6.7c0-2-1-2.7-2.7-2.8c-1.8-0.1-3.7,0-5.5,0c-3.4,0-3.8,0.5-3.8,3.9C11.4,297.5,10.6,296.6,16.9,296.7z
		 M17.1,280.2c1.2,0,2.6,0.3,3.7-0.1c1-0.3,2.5-1.4,2.4-2.1c-0.2-2.4,1.5-5.2-1.3-7.1c-0.4-0.3-1.1-0.2-1.7-0.2c-1.7,0-3.3,0-5,0
		c-3.6,0-3.9,0.2-3.9,3.8C11.3,280.2,11.3,280.2,17.1,280.2z M17.2,263.2c7.1-0.1,6,1,6.1-6.2c0-0.2,0-0.5,0-0.7
		c0.1-1.5-0.7-2.1-2.1-2c-2.3,0-4.7,0.1-7,0c-2.4-0.2-3,0.8-2.9,3C11.5,264.1,10.5,263.1,17.2,263.2z M45.7,228.2
		C45.7,228.2,45.7,228.2,45.7,228.2c0.6,0,1.2,0,1.7,0c3,0,3.9-0.8,3.9-3.8c0-0.7,0-1.3,0-2c0-2.9-1-3.7-4.6-3.7
		c-6,0-6.9,0.4-6.9,3.6c0,0.8,0,1.7,0,2.5c-0.1,2.2,1.2,3.1,3.1,3.4C43.9,228.3,44.8,228.2,45.7,228.2z M45.8,245.7
		c5.6,0,5.6,0,5.6-5.6c0-0.3,0-0.7,0-1c0-1.6-0.9-2.4-2.5-2.4c-2,0-4,0-6,0c-1.9,0-2.9,1.1-3,3c0,1,0,2,0,3c0.1,2,1.1,3,3.2,3
		C43.9,245.7,44.9,245.7,45.8,245.7z M45.9,201.2c-0.7,0-1.5,0-2.2,0c-2.9,0-3.7,0.9-3.8,3.7c0,0.8-0.1,1.7,0,2.5
		c0.1,1.7,1.1,2.8,2.9,2.8c2.1,0.1,4.2,0.2,6.2-0.1c0.8-0.1,2.1-1,2.3-1.8C52.7,202.9,51.3,201.2,45.9,201.2z M39.4,257.2
		c-3.4,0-6.8-0.1-10.2,0.1c-0.8,0-1.5,0.9-2.2,1.3c0.7,0.5,1.5,1.5,2.2,1.5c6.7,0.1,13.3,0.1,20,0c0.7,0,1.5-0.9,2.2-1.3
		c-0.7-0.5-1.5-1.5-2.2-1.5C45.8,257.1,42.6,257.2,39.4,257.2z M39.2,273.7c-3.4,0-6.8-0.1-10.2,0.1c-0.7,0-1.4,0.9-2.1,1.4
		c0.7,0.5,1.4,1.4,2.1,1.4c6.7,0.1,13.5,0.1,20.2,0c0.7,0,1.4-0.9,2.1-1.4c-0.7-0.5-1.4-1.4-2.1-1.4
		C45.9,273.6,42.6,273.7,39.2,273.7z M39.1,293.7c3.3,0,6.7,0.1,10-0.1c0.8,0,1.5-1,2.2-1.6c-0.7-0.5-1.5-1.3-2.2-1.3
		c-6.7-0.1-13.3-0.1-20,0c-0.8,0-1.5,1-2.2,1.6c0.7,0.5,1.5,1.3,2.2,1.3C32.5,293.8,35.8,293.7,39.1,293.7z"/>
	<path class="st15" d="M78.4,195.2c-7.1,0-14.3,0.1-21.4,0.1c-12.7,0-25.4-0.1-38.1-0.1c-4.8,0-9.6,0-14.4,0c0-1.7-0.1-3.5-0.1-5.2
		c0-4.2,1.1-5.3,5.2-5.3c21.9,0,43.7,0,65.6,0c1,0,2-0.1,3-0.1c0.1,0.9,0.1,1.7,0.2,2.6c-4.3,0-8.6-0.1-12.9,0.1
		c-1,0.1-2.7,1.3-2.9,2.3c-0.3,1.6,1.2,2.2,2.9,2.2c4.3-0.1,8.6,0,12.9,0C78.4,192.9,78.4,194.1,78.4,195.2z M33.4,191.7
		c6.7,0,13.5,0,20.2,0c1.6,0,2.9-0.2,2.8-2.2c-0.1-1.8-1.2-2.3-2.9-2.3c-13.3,0-26.6,0-39.9,0c-1.7,0-3.2,0.6-3.2,2.4
		c0,1.9,1.6,2.2,3.2,2.2C20.3,191.7,26.9,191.7,33.4,191.7z"/>
	<path class="st5" d="M355.9,245.8c0.3,0,0.7,0,1,0c0,6,0,12,0,17.9c-0.3,0-0.7,0-1,0C355.9,257.7,355.9,251.7,355.9,245.8z"/>
	<path class="st13" d="M450.6,167.5c0.5,1.9,0.5,4.3,1.7,5.6c1.1,1.1,3.5,1.1,5.3,1.9c-1.9,0.5-4.2,0.4-5.4,1.6
		c-1.2,1.1-1.2,3.5-2.1,5.5c-0.2-1-0.6-2-0.6-3.1c-0.1-2.1-1.1-3.1-3.2-3.3c-1-0.1-2.1-0.4-3.2-1.2c1.1-0.2,2.1-0.6,3.2-0.6
		c2-0.1,3-0.9,3.2-3c0.1-1.1,0.5-2.2,0.7-3.3C450.4,167.5,450.5,167.5,450.6,167.5z"/>
	<path class="st14" d="M78.4,225.7c-3.8,0-7.6,0-11.5,0c-2.8,0-3.5-0.8-3.5-3.6c0-5.9,0.1-11.8,0-17.7c0-2.5,1.2-3.2,3.3-3.2
		c3.9,0,7.8,0,11.7,0C78.4,209.3,78.4,217.5,78.4,225.7z"/>
	<path class="st14" d="M78.4,239.2c-3.8,0-7.6,0-11.4,0c-2.7,0-3.6-1-3.6-3.9c0-2.6,0.9-3.6,3.6-3.6c3.8,0,7.6,0,11.4,0
		C78.4,234.2,78.4,236.7,78.4,239.2z"/>
	<path class="st14" d="M78.4,253.2c-3.8,0-7.6,0-11.4,0c-2,0-3.4-0.5-3.6-2.8c-0.2-3.1,0.4-4.4,3.1-4.6c3.5-0.3,7-0.1,10.4-0.1
		c0.5,0,1,0,1.5,0C78.4,248.2,78.4,250.7,78.4,253.2z"/>
	<path class="st14" d="M79.4,267.2c-4.3,0-8.6,0-13,0c-2.6,0-3-0.6-3.1-3.6c-0.1-2.2,0.6-3.5,3.1-3.4c4,0.1,8,0,12,0
		C78.7,262.5,79,264.8,79.4,267.2z"/>
	<path class="st3" d="M386.3,201.7c-5.4-4.2-5.4-10.8,0-15C386.3,191.7,386.3,196.7,386.3,201.7z"/>
	<path class="st14" d="M321.8,47.7c5.2,0,10.5,0,15.7,0c1.6,0,2.4,0.3,2.4,2.2c-0.1,5.9-0.1,11.8,0,17.7c0,1.6-0.5,2.2-2.1,2.2
		c-10.6-0.1-21.3-0.1-31.9,0c-1.6,0-2-0.5-2-2c0.1-6,0.1-12,0-18c0-1.8,0.7-2.1,2.2-2C311.3,47.7,316.6,47.7,321.8,47.7z"/>
	<path class="st14" d="M353,56.7c-0.4,0-0.8,0-1.2,0c-1.9-0.1-5.2,0.2-5.4-0.4c-0.7-2.4-0.5-5-0.4-7.6c0-0.3,0.9-0.9,1.4-0.9
		c3.8-0.1,7.6-0.1,11.5,0c0.5,0,1,1,1.5,1.6c0,0,0,0.2,0,0.2C360.7,56.7,360.7,56.7,353,56.7z"/>
	<path class="st14" d="M353.2,60.7c0.3,0,0.7,0,1,0c2,0.1,5.3-0.3,5.6,0.5c0.8,2.2,0.5,4.8,0.4,7.3c0,0.4-0.9,1.1-1.4,1.2
		c-3.8,0.1-7.6,0.1-11.4,0c-0.5,0-1-0.9-1.5-1.4c-0.1-0.1,0-0.3,0-0.5C345.6,60.7,345.6,60.7,353.2,60.7z"/>
	<path class="st14" d="M365.8,60.7c4.1,0,8.5,0,12.9,0c0.4,0,0.8,0.6,1.1,1c0.1,0.2,0,0.5,0,0.7c0.4,7.2,0.4,7.2-6.8,7.2
		c-1.7,0-3.5-0.1-5.2,0c-1.5,0.1-2.1-0.4-2.1-2C365.9,65.5,365.8,63.3,365.8,60.7z"/>
	<path class="st14" d="M372.7,56.7c-0.1,0-0.2,0-0.2,0c-7.2,0-7.3,0-6.5-7.4c0.1-0.6,1-1.5,1.5-1.6c3.6-0.1,7.3-0.1,11,0
		c0.5,0,1,0.9,1.5,1.4c0,0,0,0.2,0,0.2C380.4,56.7,380.4,56.7,372.7,56.7z"/>
	<path class="st13" d="M435.4,76.7c-2.3-1.2-2.5-2.9-2.2-5.4c0.6-4-1.4-7.4-4.1-10.4c0.9-1,1.8-2,2.7-2.9c5,4,7.3,11.7,5.2,17.4
		C436.8,75.9,436,76.2,435.4,76.7C435.4,76.7,435.4,76.7,435.4,76.7z"/>
	<path class="st4" d="M432.3,83.7c-1.5,1-3,2-4.5,3c-2.6,0.6-5.2,1.2-8.5,2c0.3-2,0.5-3.3,0.7-4.7c5.2-0.5,9.2-2.6,12-6.9
		c0.4-0.6,2.3-0.2,3.5-0.3c0,0,0,0,0,0c1.1,1.9-0.1,3.2-1.2,4.5C433.5,82,432.9,82.8,432.3,83.7z"/>
	<path class="st9" d="M416,53.9c0.3,1.2,0.6,2.5,1,3.9c-5.1,1.7-8.4,5.1-9.7,10.4c-1.3-0.1-2.6-0.1-3.9-0.2
		C403.4,61.7,409,55.5,416,53.9z"/>
	<path class="st4" d="M408.9,81.7c-0.8-0.2-2.1,0-2.4-0.5c-2.6-3.5-4.2-7.5-3.4-12.2c1.3,0.1,2.6,0.2,3.3,0.2c1.4,3.9,2.7,7.4,4,11
		c0,0,0,0,0,0c-0.2,0.2-0.3,0.3-0.5,0.5c0,0,0,0,0,0c-0.2,0.2-0.3,0.3-0.5,0.5l0,0C409.2,81.4,409,81.5,408.9,81.7L408.9,81.7z"/>
	<path class="st4" d="M417,53.4c5.2-0.7,9.8,0.1,13.8,3.4c-1.7,3.1-2,3.1-4.9,1.9c-1.4-0.6-3-1-4.5-1.1
		C417.7,57.4,417.7,57.5,417,53.4z"/>
	<path class="st11" d="M410.4,80.2c2.7,1.2,5.5,2.2,7.9,3.7c0.7,0.4,0.4,2.5,0.5,4c-3.9-0.1-6.9-1.5-9.4-3.7
		c-0.5-0.4-0.3-1.6-0.5-2.5c0,0,0,0,0,0c0.2-0.2,0.3-0.3,0.5-0.5c0,0,0,0,0,0c0.2-0.2,0.3-0.3,0.5-0.5c0,0,0,0,0,0
		C410,80.5,410.2,80.4,410.4,80.2L410.4,80.2z"/>
	<path class="st0" d="M304.5,75.8c25.1,0,50.1,0,75.2,0c0,0.1,0,0.2,0,0.3c-25.1,0-50.2,0-75.3,0C304.5,75.9,304.5,75.8,304.5,75.8z
		"/>
	<path class="st11" d="M410.9,89.7c-1,1.9-2,3.9-3.1,5.8c-0.2,0.3-0.8,0.6-1.2,0.7c-2.6,0.1-5.2,0-7.8,0c0-0.3,0-0.6,0-0.8
		c1.8,0,3.6-0.2,5.4,0c2.1,0.2,3.4-0.6,4.2-2.5c0.5-1.3,1.3-2.4,1.9-3.6C410.5,89.4,410.7,89.5,410.9,89.7z"/>
	<path class="st16" d="M452.1,62.1c-1,1.9-2,3.9-3.1,5.8c-0.2,0.3-0.8,0.6-1.2,0.7c-2.6,0.1-5.1,0-7.7,0c0-0.3,0-0.6,0-0.9
		c1.6,0,3.3-0.2,4.8,0c2.6,0.4,4-0.6,4.9-3c0.4-1.1,1.1-2,1.6-3C451.7,61.9,451.9,62,452.1,62.1z"/>
	<path class="st5" d="M393.1,60.3c2.8,1.9,6.1,0.2,9.2,1.1C398.3,62.7,393.8,62.1,393.1,60.3z"/>
	<path class="st5" d="M391.8,58.3c-0.5-0.9-1.1-1.9-1.6-2.8c0.2-0.1,0.4-0.2,0.6-0.3c0.4,0.9,0.9,1.8,1.3,2.8
		C392,58.1,391.9,58.2,391.8,58.3z"/>
	<path class="st5" d="M392.1,58c0,0.2,0,0.5,0.1,0.7c-0.1-0.1-0.3-0.3-0.4-0.4C391.9,58.2,392,58.1,392.1,58z"/>
	<path class="st5" d="M392.8,59.4c0,0.1-0.1,0.1-0.1,0.2c-0.1-0.1-0.2-0.1-0.2-0.2c0.1-0.1,0.1-0.1,0.2-0.2
		C392.7,59.3,392.7,59.3,392.8,59.4z"/>
	<path class="st15" d="M448.4,142.5c0-2.6,0-5,0-7.6c2.6,0,5.1,0,7.8,0c0,2.5,0,4.9,0,7.6C453.7,142.5,451.2,142.5,448.4,142.5z
		 M455.7,137.4c-1.2-0.1-1.9-0.3-2.5-0.1c-1.2,0.6-2.2,1.4-3.3,2.2C451.3,141.5,452.1,141.4,455.7,137.4z"/>
	<path class="st17" d="M448.3,112.7c0-1.7,0.1-3.5,0.1-5.2c2,0,4.1,0,6.1,0.1c0.7,0.1,1.3,0.6,2,0.9c0,2.3,0,4.6,0,7.1
		c-1.3,0-2.2,0-3.1,0c-1.3-0.7-1.3-1.6-0.3-2.6c0.8-0.8,1.5-1.6,2.3-2.4c-0.1-0.3-0.3-0.6-0.4-0.8
		C452.8,110.8,450.6,111.8,448.3,112.7C448.3,112.7,448.3,112.7,448.3,112.7z"/>
	<path class="st14" d="M145.6,298.2c-10.1,0-20.2,0-30.2,0c-3.2,0-4-0.8-4-4c0-2.6,0-5.2,0-7.7c0-2.7,1.1-3.8,3.8-3.8
		c20.1,0,40.1,0,60.2,0c3.4,0,3.9,0.6,3.9,3.9c0,2.7,0,5.3,0,8c0,3.3-0.3,3.6-3.6,3.6C165.7,298.2,155.7,298.2,145.6,298.2z"/>
	<path class="st14" d="M82.7,298.2c-5.2,0-10.3,0-15.5,0c-3.2,0-3.9-0.7-3.9-3.8c0-5.8,0.1-11.7,0-17.5c0-2.5,1.1-3.3,3.3-3.3
		c10.8,0,21.7,0,32.5,0c2.1,0,3.2,1.1,3.2,3.2c0,6,0,12,0,18c0,2.3-1.2,3.3-3.4,3.3C93.5,298.2,88.1,298.2,82.7,298.2z"/>
	<path class="st14" d="M145.7,278.2c-10.2,0-20.3,0-30.5,0c-2.9,0-3.8-0.8-3.8-3.6c-0.1-3.7,0.8-4.8,3.8-4.8c20.3,0,40.7,0,61,0
		c2.2,0,3.5,0.8,3.3,3.3c-0.1,0.6,0,1.2,0,1.7c0,3.1-0.4,3.5-3.5,3.5C165.8,278.2,155.8,278.2,145.7,278.2z"/>
	<path class="st18" d="M276.1,205.1c8.1,0,16.2,0,24.2,0.1c3.5,0,5,1.4,5,5c0,5.8,0,11.7,0,17.5c0,4.2-1.7,5.9-5.9,5.9
		c-4.8,0.1-9.7,0-14.5,0c-35.2,0-70.3,0-105.5,0c-5.6,0-7.1-1.5-7.1-7c0-5.2,0-10.5,0-15.7c0-4.1,1.6-5.7,5.7-5.7
		c4.6,0,9.2,0,13.7,0c0.9,0,1.7-0.3,2.6-0.5c1.4,1.8,2.8,3.6,4.1,5.4c-6.6,0-13.2,0-19.9,0c0,0.4,0,0.7,0,1.1c7,0,14.1,0,21.1,0
		c2.1,1.3,4.2,2.6,6.2,3.9c-9.1,0-18.2,0-27.4,0c0,0.3,0,0.6,0,0.9c0.5,0.1,1,0.2,1.6,0.2c8.8,0,17.6,0,26.4,0
		c0.5,0,1.1-0.2,1.6-0.4c4.9,1,9.9,2,14.8,2.9c3.6,0.6,7.2,1,10.8,1.5c-18.4,0-36.7,0-55.1,0c0,0.2,0,0.4,0,0.5
		c19.6,0,39.2,0,58.7,0c3.2,0,6.3,0,9.5,0c17.2,0,34.5,0,51.7,0c-0.9-0.5-1.8-0.5-2.7-0.5c-15.3,0-30.6-0.1-45.9-0.1
		c3.9-1.4,7.8-2.9,11.6-4.3c0.5,0.1,0.9,0.4,1.4,0.4c11.6,0,23.1,0,34.7,0c0.4,0,0.8-0.3,1.2-0.4c0-0.2-0.1-0.4-0.1-0.7
		c-11.9,0-23.9,0-35.8,0c2-1.3,4-2.6,6-4c9.9,0,19.9,0,29.8,0c0-0.4,0-0.7,0-1.1c-9.5,0-18.9,0-28.4,0
		C272.5,208.4,274.3,206.8,276.1,205.1z M206.3,225.1c-5.9,0-11.8,0-17.7,0c-1.8,0-2.8,0.3-2.8,2.4c0,2.1,1.2,2.2,2.8,2.2
		c11.8,0,23.6,0,35.5,0c1.6,0,2.8-0.1,2.8-2.2c0-2.1-1-2.5-2.8-2.5C218.1,225.2,212.2,225.1,206.3,225.1z M271.8,225.1
		c-6.1,0-12.1,0-18.2,0c-1.8,0-2.6,0.6-2.6,2.4c0,1.8,1,2.2,2.6,2.2c12,0,24-0.1,35.9,0c1.9,0,2.4-0.6,2.5-2.5
		c0-1.9-0.9-2.2-2.5-2.2C283.6,225.1,277.7,225.1,271.8,225.1z"/>
	<path class="st16" d="M206.1,215.1c-2.1-1.3-4.2-2.6-6.2-3.9c-0.4-0.4-0.9-0.7-1.3-1.1c-1.4-1.8-2.8-3.6-4.1-5.4
		c-2.3-3.2-4.6-6.5-7-9.6c-4.5-5.9-6.9-12.5-7.7-19.8c0-0.3-0.1-0.7-0.1-1c-0.1-2.3-0.3-4.6-0.4-7c0-0.3,0-0.7,0-1
		c0.1-2.2,0.3-4.3,0.4-6.5c0-0.3,0-0.7,0-1c0.3-2.3,0.7-4.6,1-7c0-0.3,0.1-0.7,0.1-1c0.7-2.3,1.4-4.7,2.1-7c2.8-4.5,5.5-9,8.3-13.6
		c5-4,10.1-8.1,15.1-12.1c5.1-2.9,10.1-5.8,15.2-8.7c4.2-0.6,8.5-1.7,12.7-1.6c9.5,0.1,18.3,3.4,27,6.9c0.5,0.2,1.1,0.4,1.6,0.6
		c0.5,0.3,1,0.6,1.5,0.9c0.6,0.4,1.3,0.8,1.9,1.2c-0.3,0.6-0.6,1.3-1,1.9c-0.1,0.1-0.3,0.1-0.4,0.1c-1.2,0.8-2.4,1.6-3.6,2.5
		c-0.4-0.3-0.8-0.8-1.3-1c-3.9-1.3-7.5-0.2-10.9,1.9c-1.3,0.8-2.9,1.3-4.4,1.5c-4,0.6-6.3-2.2-8.3-4.9c-3-3.8-6.4-5.3-11.1-4
		c-4.3,1.2-8.5,2.9-12.7,4.3c-3,1-5.1,2.9-6.7,5.6c-2,3.4-4.4,6.3-8.3,7.9c-2.3,0.9-3.7,2.7-3.8,5.6c-0.2,4.2-0.6,8.4-3.3,12
		c-0.6,0.9-1.1,1.8-1.6,2.8c-1.4,3.1,0.2,5.8,1.1,8.6c-0.3,2.3-0.6,4.6-1,6.8c-5.6,9.2-4,17,4.7,23.6c4.9,3.8,9.7,7.6,13.2,13
		c1.2,1.8,3.2,3.6,5.2,4.3c3.7,1.3,7.7,2.3,11.5,2.4c6.7,0.2,13.3,0.3,19.8,2.8c5.2,2,7.6,0.9,10.8-3.6c3.1-4.2,6.5-8.1,11.8-9.4
		c6.5-1.6,10.8-5.9,13.8-11.7c2.5-0.2,5-0.4,7.5-0.5c-0.1,0.7-0.1,1.4-0.3,2c-0.5,1.1-1.3,2-1.9,3c-0.3,0.3-0.5,0.7-0.8,1
		c-2.7,3.2-5.5,6.3-8.2,9.5c-1.8,1.7-3.6,3.3-5.5,5c-0.5,0.4-0.9,0.7-1.4,1.1c-2,1.3-4,2.6-6,4c-0.5,0.2-0.9,0.4-1.4,0.7
		c-3.9,1.4-7.8,2.9-11.6,4.3c-1,0.2-2.1,0.4-3.1,0.6c-3.2,0-6.3,0-9.5,0c-1.2-0.2-2.4-0.4-3.7-0.5c-3.6-0.5-7.2-0.9-10.8-1.5
		c-5-0.9-9.9-1.9-14.8-2.9C207.6,215.6,206.8,215.3,206.1,215.1z"/>
	<path class="st14" d="M137.5,109.7c7.9,0,15.8,0,23.7,0c3.3,0,4.5,0.9,4.5,4.2c0.1,8.6,0.1,17.2,0,25.7c0,3.2-1.3,4.1-4.4,4.1
		c-16.1,0-32.2,0-48.2,0c-2.8,0-4.3-1.4-4.3-4.3c0-8.5,0-17,0-25.5c0-3.3,1-4.3,4.4-4.3C121.4,109.7,129.4,109.7,137.5,109.7z"/>
	<path class="st14" d="M338.7,172.2c7.7,0,15.5,0,23.2,0c3.2,0,3.9,0.7,3.9,3.8c0,4.7,0,9.5,0,14.2c0,2.5-1,3.5-3.5,3.5
		c-15.7,0-31.5,0-47.2,0c-2.7,0-3.3-0.6-3.3-3.5c0-4.8,0-9.7,0-14.5c0-3.2,0.4-3.5,3.7-3.5C323.3,172.2,331,172.2,338.7,172.2z"/>
	<path class="st14" d="M190.4,99.2c-27.3,0-54.7,0-82,0c-0.7,0-1.6,0.2-2.2-0.1c-0.6-0.3-1.2-1.1-1.2-1.8c0-0.5,0.7-1.3,1.2-1.5
		c0.6-0.3,1.5-0.1,2.2-0.1c54.7,0,109.3,0,164,0c0.7,0,1.6-0.2,2.2,0.1c0.5,0.2,1.2,1,1.2,1.5c0,0.6-0.6,1.5-1.2,1.8
		c-0.6,0.3-1.5,0.1-2.2,0.1C245,99.2,217.7,99.2,190.4,99.2z"/>
	<path class="st14" d="M125.1,183.7c4.2,0,8.3,0.1,12.5,0c2-0.1,3,0.6,2.8,2.7c-0.1,1.7-0.1,3.5,0,5.2c0,1.5-0.6,2.1-2.1,2.1
		c-8.8,0-17.7,0-26.5,0c-1.6,0-2.5-0.8-2.4-2.5c0.1-9.2-0.9-7.4,7-7.5C119.3,183.6,122.2,183.7,125.1,183.7z"/>
	<path class="st14" d="M186.6,109.7c2.7,0,5.3,0.1,8,0c2-0.1,3.4,1,3.5,2.8c0.2,2.9,0.1,5.8-0.4,8.6c-0.1,0.9-1.8,2.1-2.8,2.1
		c-5.4,0.2-10.8,0.1-16.2,0.1c-2.1,0-3.3-1.2-3.3-3.2c-0.1-2.3-0.1-4.7,0-7c0.1-2.1,1.1-3.4,3.5-3.3
		C181.4,109.7,184,109.7,186.6,109.7z"/>
	<path class="st19" d="M261.4,121.7c1.2-0.8,2.4-1.6,3.6-2.5c-1.1,3.1-2.2,6.3-3.5,9.4c-0.5,1.3-1.3,2.5-2.3,3.5
		c-3.3,3.3-4.2,7.3-2.9,11.7c0.8,2.7,0.7,5.2-0.3,7.8c-1.6,4.3-0.7,8.2,2.8,11.3c2.3,2,3.3,4.5,3.6,7.4c0,0.3,0.1,0.7,0.1,1
		c0.9,4.2,3.4,7.2,7.3,8.9c3.5,1.3,6.3,3.5,8.7,6.2c0.9,0.6,1.8,1.2,2.7,1.8c2,0.5,4,1,6,1.5c-2.5,0.2-5,0.4-7.5,0.5
		c-1.8-1-3.6-2-5.3-3.1c-2-1.2-3.9-2.8-6-3.7c-5-2.3-8.4-5.8-9.2-11.4c-0.4-2.8-1.1-5.6-3.5-7.4c-4.3-3.5-5-7.9-3.4-12.8
		c0.9-2.8,0.9-5.3,0.1-8c-1.4-5.1-0.3-9.6,3.7-13.3c1-0.9,1.8-2.2,2.4-3.4C259.8,125.3,260.5,123.5,261.4,121.7z"/>
	<path class="st14" d="M162.3,183.7c2.6,0,5.2,0.1,7.7,0c1.8-0.1,2.3,0.7,2.3,2.4c0.2,7.6,0.2,7.6-7.3,7.6c-3.4,0-6.8-0.1-10.2,0
		c-2,0.1-2.7-0.7-2.6-2.6c0.1-1.7,0.1-3.3,0-5c-0.1-1.9,0.7-2.5,2.5-2.4C157.3,183.7,159.8,183.7,162.3,183.7z"/>
	<path class="st14" d="M314.7,95.7c7.3,0,14.6,0,22,0c1.3,0,2.6-0.2,2.7,1.7c0,1.9-1.3,1.8-2.6,1.8c-14.7,0-29.5,0-44.2,0
		c-1.3,0-2.6,0.2-2.7-1.7c0-1.9,1.4-1.8,2.6-1.8C299.9,95.7,307.3,95.7,314.7,95.7z"/>
	<path class="st18" d="M191.2,130.1c-2.8,4.5-5.5,9-8.3,13.6c-1.2,0-2.5,0-3.7,0c-2.7-0.1-3.8-1.1-3.9-3.7c-0.1-2.1-0.1-4.1,0-6.2
		c0.1-2.6,1.1-3.6,3.7-3.6C183.1,130.1,187.2,130.2,191.2,130.1z"/>
	<path class="st4" d="M353.5,141.5c0-4.1,0-8,0-12.1c4,0,8,0,12.1,0c0,4,0,7.9,0,12.1C361.7,141.5,357.8,141.5,353.5,141.5z
		 M358.8,136.7c-0.7-0.5-1.2-1-1.8-1.3c-0.3-0.1-0.8,0-1.1,0.2c-0.2,0.2-0.4,0.8-0.3,1.1c0.6,1.5,3.5,2.3,4.7,1.3
		c0.8-0.6,1.5-1.3,2.3-1.9c1.7-1.3,1.4-2.4-0.6-3.4C361,133.9,360,135.2,358.8,136.7z"/>
	<path class="st4" d="M353.5,161.9c0-4,0-7.9,0-12c4,0,8,0,12.1,0c0,3.9,0,7.9,0,12C361.7,161.9,357.8,161.9,353.5,161.9z
		 M358.8,156.8c-0.5-0.3-0.8-0.7-1.2-0.8c-0.6-0.2-1.2-0.3-1.8-0.4c0.3,0.6,0.4,1.4,0.8,1.9c0.7,0.7,1.6,1.1,2.4,1.7
		c1.9-1.6,3.6-3.1,5.5-4.8c-0.9-0.8-1.5-1.3-2.3-2C361,154.1,360,155.3,358.8,156.8z"/>
	<path class="st4" d="M353.6,121.5c-0.1-0.7-0.2-1.4-0.2-2c0-3.3,0-6.6,0-10.1c4.2,0,8.1,0,12.2,0c0,4,0,7.9,0,12.1
		C361.7,121.5,357.7,121.5,353.6,121.5z M358.8,116.6c-0.7-0.6-1.2-1.2-1.7-1.3c-0.5,0-1,0.6-1.6,0.9c1.3,0.8,3.1,2.4,4,2.1
		c1.9-0.8,3.3-2.7,5.2-4.3c-1.1-0.8-1.8-1.2-2.6-1.8C360.9,113.7,359.9,115.1,358.8,116.6z"/>
	<ellipse class="st20" cx="304.6" cy="135.7" rx="62.1" ry="0.3"/>
	<path class="st11" d="M279.1,179.7c-0.2-0.5-0.3-1.3-0.6-1.4c-1.5-0.3-2.8-1.1-2.1-2.6c0.7-1.5,2.1-2.7,3.3-3.9
		c0.5-0.5,1.5-0.4,2.3-0.6c1-0.3,1.9-0.7,2.9-1c0.5,0,0.9,0,1.4,0c0.4,0.3,0.7,0.6,1.1,1c0.1,1.6,0.3,3.2-1.7,4.1
		c-0.6,0.3-0.5,1.9-0.8,2.9c-0.2,0.3-0.3,0.7-0.5,1C282.4,181.8,280.9,181.9,279.1,179.7z"/>
	<path class="st14" d="M361.9,99.2c-2.9,0-5.8,0-8.7,0c-1.3,0-2.6-0.3-2.2-1.8c0.2-0.7,1.4-1.6,2.1-1.6c6-0.1,12-0.1,17.9-0.1
		c1.2,0,2.1,0.3,1.8,1.6c-0.2,0.7-1.1,1.7-1.7,1.8C368,99.3,364.9,99.2,361.9,99.2z"/>
	<path class="st14" d="M180.9,150.7c0,0.3-0.1,0.7-0.1,1c-23.7,0-47.4,0-71.1,0c0-0.3,0-0.7,0-1
		C133.4,150.7,157.2,150.7,180.9,150.7z"/>
	<path class="st14" d="M179.8,158.7c0,0.3,0,0.7,0,1c-23.4,0-46.7,0-70.1,0c0-0.3,0-0.7,0-1C133.1,158.7,156.4,158.7,179.8,158.7z"
		/>
	<path class="st18" d="M179.7,174.2c0,0.3,0.1,0.7,0.1,1c-23.4,0-46.7,0-70.1,0c0-0.3,0-0.7,0-1C133,174.2,156.4,174.2,179.7,174.2z
		"/>
	<path class="st14" d="M179.3,166.2c0,0.3,0,0.7,0,1c-23.2,0-46.4,0-69.6,0c0-0.3,0-0.7,0-1C132.9,166.2,156.1,166.2,179.3,166.2z"
		/>
	<path class="st20" d="M348.5,111.4c-22.3,0-44.5,0-66.8,0c0-0.2,0-0.3,0-0.5c22.3,0,44.5,0,66.8,0
		C348.5,111.1,348.5,111.3,348.5,111.4z"/>
	<ellipse class="st20" cx="315.1" cy="131.2" rx="47.2" ry="0.4"/>
	<path class="st20" d="M284.1,155.3c10,0,20-0.1,30-0.1c10.7,0,21.3,0,32,0c0.8,0,1.7,0.1,2.5,0.1c0,0.3,0,0.6,0,0.9
		c-21.4,0-42.8,0-64.1,0C284.3,155.9,284.2,155.6,284.1,155.3z"/>
	<path class="st18" d="M221.6,109.3c-5.1,2.9-10.1,5.8-15.2,8.7c0-1.4,0-2.8,0-4.2c0-3.1,1.2-4.5,4.2-4.6
		C214.3,109.1,217.9,109.3,221.6,109.3z"/>
	<path class="st14" d="M264.4,116.1c-0.5-0.3-1-0.6-1.5-0.9c28.5,0,57,0,85.4,0c0,0.2,0,0.3,0,0.5c-0.8,0-1.7,0-2.5,0
		c-26.2,0-52.3,0-78.5,0C266.3,115.7,265.4,115.9,264.4,116.1z"/>
	<path class="st20" d="M281.4,188.1c-0.9-0.6-1.8-1.2-2.7-1.8c8.5,0,17.1,0,25.6,0c0,0.3,0,0.7,0.1,1c-0.8,0.1-1.6,0.3-2.4,0.4
		c-6,0-12,0-18,0C283.1,187.7,282.3,188,281.4,188.1z"/>
	<path class="st20" d="M312.2,159.9c12.1,0,24.2,0,36.3,0c0,0.2,0,0.3,0,0.5c-12.1,0-24.2,0-36.3,0
		C312.2,160.2,312.2,160.1,312.2,159.9z"/>
	<path class="st14" d="M348.3,151.6c-22.1,0-44.2,0-66.3,0c0-0.1,0-0.2,0-0.2c22.1,0,44.2,0,66.2,0
		C348.3,151.4,348.3,151.5,348.3,151.6z"/>
	<path class="st11" d="M267.6,146.2c-0.9,1.2-1.6,2.7-2.3,2.8c-1.4,0.1-2.9-0.6-4.4-0.9c-0.2,0-0.4-0.5-0.3-0.6
		c0.9-1.6,1.7-3.1,2.8-4.6c0.3-0.3,1.6-0.3,2,0C266.1,143.7,266.7,144.8,267.6,146.2z"/>
	<path class="st11" d="M284.1,155.3c0.1,0.3,0.2,0.6,0.3,0.9c-0.5,0.8-1.1,1.6-1.6,2.5c-0.8-0.6-1.5-1.2-2.3-1.7
		c-0.9-0.5-1.9-0.9-3.4-1.6c1.5-1.1,2.8-2.5,4.3-2.7C282,152.4,283.2,154.3,284.1,155.3z"/>
	<path class="st11" d="M296,138.6c0.9,2.3,1.9,4,2.2,5.9c0.3,1.7-1,2-2.4,1.3C292.6,144.1,292.5,142.9,296,138.6z"/>
	<path class="st18" d="M284.9,170.2c-1,0.3-1.9,0.7-2.9,1c-6.5,0-13,0-19.5,0c0-0.3-0.1-0.7-0.1-1
		C269.9,170.2,277.4,170.2,284.9,170.2z"/>
	<path class="st14" d="M284.4,179.2c0.2-0.3,0.3-0.7,0.5-1c6.5,0,13.1,0,19.6,0c0,0.3,0,0.7,0,1C297.7,179.2,291,179.2,284.4,179.2z
		"/>
	<path class="st18" d="M284.3,195.7c0.3-0.3,0.5-0.7,0.8-1c6.3,0,12.6,0,18.9,0c0,0.3,0,0.7,0,1
		C297.5,195.7,290.9,195.7,284.3,195.7z"/>
	<path class="st7" d="M348.2,140.1c-11.9,0-23.9,0-35.8,0c0-0.1,0-0.2,0-0.3c11.9,0,23.9,0,35.8,0
		C348.3,139.9,348.3,140,348.2,140.1z"/>
	<path class="st14" d="M348.3,120.1c-11.9,0-23.9,0-35.8,0c0-0.1,0-0.1,0-0.2c11.9,0,23.8,0,35.7,0
		C348.2,119.9,348.3,120,348.3,120.1z"/>
	<path class="st18" d="M287.4,171.2c-0.4-0.3-0.7-0.6-1.1-1c5.9,0,11.8,0,17.7,0c0,0.3,0,0.6,0,1
		C298.5,171.2,292.9,171.2,287.4,171.2z"/>
	<path class="st11" d="M278.5,131.4c-0.9,1-1.7,1.9-2.4,2.7c-0.5-0.6-1.1-1.3-1.6-1.9c1-0.6,1.9-1.2,2.9-1.7
		C277.5,130.4,278,131,278.5,131.4z"/>
	<path class="st19" d="M265.4,119.1c0.3-0.6,0.6-1.3,1-1.9C267.1,118.2,267,118.5,265.4,119.1z"/>
	<path class="st17" d="M453.3,121.1c0.9,0.1,1.8,0.2,3,0.3c0,2.3,0,4.4,0,6.6c0,0.1,0,0.2,0,0.2c-1.8,2.2-4.3,0.5-6.4,0.9
		c-0.4,0.1-1.4-0.9-1.5-1.5c-0.3-1.3-0.1-2.6-0.1-3.9c0-0.6,0-1.3,0-1.9c0.7-0.2,1.4-0.4,2.1-0.5
		C451.4,121.1,452.3,121.1,453.3,121.1z M455.2,124.5c-1.5-1.4-1.5-1.4-3.4,1.2c-0.7-0.2-1.4-0.4-2.3-0.7
		C451.1,127.9,452.1,127.8,455.2,124.5z"/>
	<path class="st4" d="M447.9,114.7c0.1-0.7,0.3-1.3,0.4-2c2.2-0.9,4.4-1.9,6.6-2.8c0.1,0.3,0.3,0.6,0.4,0.8
		c-0.8,0.8-1.5,1.6-2.3,2.4c-1,1-1,1.8,0.3,2.6c0,0.1,0,0.3,0,0.4c-0.8,0-1.7,0-2.5,0C449.8,115.8,447.9,117.1,447.9,114.7z"/>
	<path class="st0" d="M455.7,137.4c-3.6,4-4.4,4.1-5.8,2.1c1.1-0.8,2.2-1.6,3.3-2.2C453.7,137,454.5,137.3,455.7,137.4z"/>
	<path class="st8" d="M206.3,225.1c5.9,0,11.8,0,17.7,0c1.8,0,2.8,0.4,2.8,2.5c0,2.1-1.2,2.2-2.8,2.2c-11.8,0-23.6,0-35.5,0
		c-1.6,0-2.7-0.1-2.8-2.2c0-2.1,1-2.4,2.8-2.4C194.4,225.2,200.4,225.1,206.3,225.1z"/>
	<path class="st9" d="M271.8,225.1c5.9,0,11.8,0,17.7,0c1.5,0,2.5,0.2,2.5,2.2c0,1.8-0.6,2.5-2.5,2.5c-12-0.1-24,0-35.9,0
		c-1.6,0-2.6-0.4-2.6-2.2c0-1.8,0.8-2.5,2.6-2.4C259.7,225.2,265.7,225.1,271.8,225.1z"/>
	<path class="st11" d="M261.4,121.7c-0.9,1.8-1.6,3.6-2.6,5.3c-0.7,1.2-1.4,2.5-2.4,3.4c-4,3.7-5.2,8.2-3.7,13.3
		c0.8,2.7,0.8,5.3-0.1,8c-1.6,4.9-0.9,9.3,3.4,12.8c2.3,1.9,3.1,4.6,3.5,7.4c0.8,5.6,4.2,9.1,9.2,11.4c2.1,1,4,2.5,6,3.7
		c1.8,1.1,3.5,2.1,5.3,3.1c-3,5.8-7.2,10-13.8,11.7c-5.3,1.3-8.7,5.2-11.8,9.4c-3.3,4.5-5.6,5.7-10.8,3.6
		c-6.5-2.5-13.1-2.6-19.8-2.8c-3.9-0.1-7.8-1.1-11.5-2.4c-2-0.7-4-2.5-5.2-4.3c-3.5-5.4-8.3-9.2-13.2-13
		c-8.7-6.6-10.3-14.4-4.7-23.6c0.9,0.9,1.6,2.2,2.6,2.5c0.8,0.2,2.2-0.6,2.8-1.4c1.4-1.7,1-5.8-0.3-7.6c-1.3-1.6-2.6-2.4-4.2-0.4
		c-0.9-2.8-2.5-5.5-1.1-8.6c0.5-1,0.9-2,1.6-2.8c2.7-3.6,3.1-7.9,3.3-12c0.2-2.9,1.5-4.6,3.8-5.6c3.9-1.5,6.3-4.5,8.3-7.9
		c1.6-2.7,3.7-4.6,6.7-5.6c4.3-1.4,8.4-3,12.7-4.3c4.6-1.3,8.1,0.2,11.1,4c2.1,2.7,4.4,5.5,8.3,4.9c1.5-0.2,3.1-0.8,4.4-1.5
		c3.4-2.1,6.9-3.2,10.9-1.9C260.5,120.9,260.9,121.4,261.4,121.7z M207.1,192.9c1.1-1,2.5-1.9,3.2-3.1c1.1-2.1,1.8-4.4,2.6-6.7
		c0.6-1.7,0.2-3-1.6-3.5c-2.5-0.7-4.9-1.1-7.1,1.3c-1,1.1-2.7,1.4-4,2.2c-0.7,0.4-1.6,1-1.8,1.7c-0.2,0.7,0.1,1.8,0.7,2.4
		c1.5,1.5,3.2,2.9,4.9,4.2C204.7,192,205.7,192.3,207.1,192.9z M239.5,174c-5.3-0.1-6.9,2.3-5,5.8c0.3,0.6,0.5,1.2,0.8,1.8
		c1.3,2.2,5.9,3.4,6.9,1.6c1-1.8,1.9-4.3,1.3-6C242.9,175.7,240.4,174.7,239.5,174z M255.9,198.8c0-2.5-1.9-4.7-3.8-4.8
		c-2-0.1-3.8,0.9-4,2.9c-0.2,1.9,0,4.2,0.7,5.9c0.9,2.1,3.2,1.8,4.3-0.2c0.4-0.8,1.2-1.5,1.8-2.2
		C255.3,199.8,255.7,199.1,255.9,198.8z M225.4,159c0-2.5-1.4-4.1-3.6-4.2c-2.7-0.1-6.2,4-5.7,6.7c0.4,1.9,1.6,2.5,3.5,1.7
		c0.8-0.3,1.6-0.6,2.4-0.6C224.4,162.6,225.4,161.6,225.4,159z M218.6,202.8c-0.6,0.5-1.7,1-1.8,1.6c-0.1,0.8,0.4,1.8,0.9,2.5
		c0.7,1,1.8,1.8,2.5,2.8c1,1.4,2.3,1.7,3.6,0.7c1.5-1.1,3.2-2.2,2.8-4.5c-0.1-0.3-0.4-0.6-0.7-0.7
		C223.6,204.5,221.3,203.7,218.6,202.8z M222.9,130.9c-0.1,1.9,1.6,3.8,3.3,3.9c1.8,0.1,4.6-2.4,4.6-4.1c0.1-2.2-1.7-3.9-4.2-4
		C224.4,126.6,223.1,128.1,222.9,130.9z M243.5,145.8c-1.6-0.1-3.1,1.3-3.2,2.9c-0.1,2.1,3,5.9,4.7,5.8c2.2-0.2,2.8-1.8,2.9-3.7
		C248,148.5,245.6,145.9,243.5,145.8z M249.7,132.7c0.5-0.4,1.7-1,2.6-1.9c0.2-0.2-1-1.6-1.6-2.5c-0.2-0.3-0.4-0.9-0.7-1
		c-1-0.4-2.4-1.2-2.9-0.8c-1,0.7-2.3,2.2-2.2,3.3C244.9,132,246.9,132.5,249.7,132.7z M204.4,144.2c1.1-1.1,2.1-2.2,3.2-3.3
		c-1.8-0.9-3.5-1.9-5.4-2.6c-0.3-0.1-1.5,0.9-1.6,1.5C200.3,141.7,202.1,143.7,204.4,144.2z M262.3,182.4c-0.6-2-1.3-3.2-3.2-3.2
		c-2,0-2.4,1.5-2.5,3.1c-0.1,1.6,2.1,4.3,3.2,3.7C261,185.4,261.5,183.7,262.3,182.4z M217.6,127.2c-0.7-0.4-1.3-0.9-1.9-1
		c-1.7-0.1-5,2.6-5.3,4.4c-0.1,0.5,0,1.4,0.3,1.6c0.5,0.2,1.3,0.2,1.7-0.2c1.4-1,2.7-2.2,4-3.3C216.9,128.4,217.1,127.9,217.6,127.2
		z M245.1,202.3c-1.8-1.8-3.4-1.2-4.4,0c-1.1,1.3-1.5,3.1-2.2,4.8c0.7,0.1,1.7,0.4,2,0.1C242.1,205.7,243.5,204,245.1,202.3z
		 M244.3,164.4c-1.3,1.2-2.7,1.8-2.8,2.7c-0.3,2.2,1.9,2.3,3.3,2.4c0.8,0.1,1.7-1,2.6-1.6C246.5,166.8,245.6,165.8,244.3,164.4z
		 M217.7,172c-1-1.1-1.5-1.7-2-2.3c-1.1,1.3-2.2,2.5-3.2,3.8c-0.1,0.1,1.3,1.5,1.4,1.4C215.1,174.2,216.2,173.2,217.7,172z
		 M222.4,194.5c-0.1-0.3-0.1-0.6-0.2-1c-2-1.4-6.7,0.1-7.1,2.8C217.6,195.7,220,195.1,222.4,194.5z"/>
	<path class="st21" d="M190,162c1.6-2,2.9-1.2,4.2,0.4c1.4,1.8,1.7,5.8,0.3,7.6c-0.6,0.8-2.1,1.7-2.8,1.4c-1-0.3-1.8-1.6-2.6-2.5
		C189.4,166.5,189.7,164.3,190,162z"/>
	<path class="st12" d="M455.2,124.5c-3.1,3.3-4.2,3.4-5.7,0.5c0.9,0.3,1.6,0.5,2.3,0.7C453.7,123.1,453.7,123.1,455.2,124.5z"/>
	<path class="st21" d="M207.1,192.9c-1.4-0.6-2.4-0.9-3.1-1.5c-1.7-1.3-3.4-2.7-4.9-4.2c-0.5-0.5-0.9-1.7-0.7-2.4
		c0.2-0.7,1.1-1.3,1.8-1.7c1.3-0.8,3-1.2,4-2.2c2.1-2.4,4.5-2,7.1-1.3c1.8,0.5,2.3,1.8,1.6,3.5c-0.8,2.2-1.5,4.6-2.6,6.7
		C209.6,191.1,208.1,191.9,207.1,192.9z"/>
	<path class="st21" d="M239.5,174c0.9,0.7,3.4,1.7,4,3.3c0.6,1.7-0.3,4.2-1.3,6c-1,1.8-5.5,0.6-6.9-1.6c-0.3-0.6-0.5-1.2-0.8-1.8
		C232.6,176.3,234.2,173.9,239.5,174z"/>
	<path class="st21" d="M255.9,198.8c-0.2,0.3-0.5,1-1,1.6c-0.6,0.8-1.4,1.4-1.8,2.2c-1.1,2-3.4,2.3-4.3,0.2c-0.8-1.8-1-4-0.7-5.9
		c0.2-2,2-3,4-2.9C253.9,194.1,255.8,196.4,255.9,198.8z"/>
	<path class="st21" d="M225.4,159c0,2.6-1,3.6-3.5,3.7c-0.8,0-1.6,0.3-2.4,0.6c-1.9,0.7-3.1,0.2-3.5-1.7c-0.5-2.7,3-6.8,5.7-6.7
		C224,154.9,225.4,156.5,225.4,159z"/>
	<path class="st21" d="M218.6,202.8c2.7,0.9,5,1.7,7.4,2.5c0.3,0.1,0.6,0.4,0.7,0.7c0.5,2.3-1.3,3.4-2.8,4.5c-1.3,1-2.6,0.7-3.6-0.7
		c-0.7-1-1.8-1.8-2.5-2.8c-0.5-0.7-1-1.7-0.9-2.5C216.9,203.8,218,203.3,218.6,202.8z"/>
	<path class="st21" d="M222.9,130.9c0.1-2.9,1.5-4.3,3.8-4.2c2.5,0.1,4.3,1.9,4.2,4c0,1.7-2.8,4.2-4.6,4.1
		C224.5,134.8,222.9,132.8,222.9,130.9z"/>
	<path class="st21" d="M243.5,145.8c2.2,0.1,4.5,2.6,4.4,5c-0.1,1.9-0.6,3.5-2.9,3.7c-1.7,0.1-4.8-3.7-4.7-5.8
		C240.4,147.1,241.8,145.8,243.5,145.8z"/>
	<path class="st21" d="M249.7,132.7c-2.8-0.1-4.8-0.7-4.8-2.9c0-1.1,1.2-2.5,2.2-3.3c0.5-0.4,1.9,0.4,2.9,0.8c0.3,0.1,0.5,0.6,0.7,1
		c0.6,0.9,1.7,2.3,1.6,2.5C251.5,131.7,250.2,132.3,249.7,132.7z"/>
	<path class="st21" d="M204.4,144.2c-2.2-0.5-4.1-2.5-3.8-4.4c0.1-0.6,1.3-1.6,1.6-1.5c1.9,0.7,3.6,1.7,5.4,2.6
		C206.5,142,205.4,143.1,204.4,144.2z"/>
	<path class="st21" d="M262.3,182.4c-0.8,1.3-1.3,3-2.4,3.6c-1.1,0.6-3.3-2.1-3.2-3.7c0.1-1.6,0.5-3.1,2.5-3.1
		C261,179.2,261.7,180.4,262.3,182.4z"/>
	<path class="st16" d="M217.6,127.2c-0.5,0.7-0.7,1.2-1.1,1.5c-1.3,1.1-2.6,2.3-4,3.3c-0.4,0.3-1.3,0.4-1.7,0.2
		c-0.3-0.1-0.4-1-0.3-1.6c0.3-1.8,3.6-4.5,5.3-4.4C216.4,126.3,216.9,126.8,217.6,127.2z"/>
	<path class="st16" d="M245.1,202.3c-1.5,1.7-3,3.4-4.6,4.9c-0.3,0.3-1.3-0.1-2-0.1c0.7-1.6,1.2-3.4,2.2-4.8
		C241.6,201.1,243.3,200.5,245.1,202.3z"/>
	<path class="st16" d="M244.3,164.4c1.3,1.4,2.1,2.4,3,3.4c-0.9,0.6-1.8,1.7-2.6,1.6c-1.4-0.1-3.6-0.2-3.3-2.4
		C241.6,166.2,243,165.6,244.3,164.4z"/>
	<path class="st16" d="M217.7,172c-1.5,1.2-2.6,2.2-3.8,2.9c-0.1,0.1-1.5-1.3-1.4-1.4c1-1.3,2.1-2.6,3.2-3.8
		C216.2,170.3,216.7,170.9,217.7,172z"/>
	<path class="st16" d="M222.4,194.5c-2.4,0.6-4.8,1.2-7.3,1.9c0.4-2.7,5.1-4.3,7.1-2.8C222.2,193.9,222.3,194.2,222.4,194.5z"/>
</g>
</svg>
