<?xml version="1.0" encoding="utf-8"?>
<!-- Generator: Adobe Illustrator 24.1.0, SVG Export Plug-In . SVG Version: 6.00 Build 0)  -->
<svg version="1.1" id="Calque_1" xmlns="http://www.w3.org/2000/svg" xmlns:xlink="http://www.w3.org/1999/xlink" x="0px" y="0px"
	 viewBox="0 0 137.4 154.6" style="enable-background:new 0 0 137.4 154.6;" xml:space="preserve">
<style type="text/css">
	.st0{fill:#EBEBEB;}
	.st1{fill:#FE4F5B;}
	.st2{fill:#4B4B4B;}
</style>
<g>
	<path class="st0" d="M64.8,123.4c-28.5,0-51.9-23.2-51.9-51.8c0-28.7,23.2-51.9,51.9-51.9c28.6,0,51.8,23.2,51.8,51.9
		C116.7,100.2,93.5,123.4,64.8,123.4z M30.8,72.9c0.2,1.6,0.3,3.2,0.5,4.8c2.4,15.1,17.4,25.8,32.3,23c1.7-0.3,3.4-0.3,5.1,0
		c3,0.6,6,0.5,9,0c7.2-1.2,13.2-4.7,17.7-10.5c3.7-4.7,5.7-10,6-16c0-1.1-0.4-1.9-1.2-2.6c-1.4-1-2.1-2.4-2.1-4.2
		c0-1.4-0.7-2.3-2-2.9c-0.8-0.3-1.5-0.8-2.1-1.4c-1.2-1.3-2.3-1.7-4-1.1c-0.7,0.2-1.5,0.4-2.3,0.3c-2.8-0.3-4.5-2.5-4.4-5.4
		c0.1-1.5-0.5-2.5-1.8-3.1c-3.1-1.3-3.9-2.6-3.7-6.1c0.1-1.7-1-2.9-2.6-3c-2.9-0.2-5.7,0-8.5,0.7c-0.4,0.1-0.9,0.1-1.3,0
		c-2.6-0.6-5.2-0.8-7.9-0.7C42.8,45.5,30.9,58,30.8,72.9z"/>
	<path class="st1" d="M73.3,98.6c-12.8,0.1-23.5-9.2-25.5-21.9c-2.5-16.1,10.8-30.7,27-29.6c0.7,0,0.8,0.3,0.7,0.9
		C75,51.7,77.4,55,80.4,56c0.7,0.2,0.7,0.6,0.7,1.2c-0.1,3.6,2.1,6.5,5.4,7.4c1.4,0.4,2.9,0.4,4.3-0.1c0.7-0.3,1.1-0.1,1.7,0.4
		c0.8,0.8,1.7,1.4,2.7,1.9c0.4,0.3,0.7,0.4,0.7,1c0.1,2.3,1.1,4.2,2.8,5.7c0.3,0.2,0.5,0.8,0.4,1.2c-0.4,5.1-2,9.8-5.2,13.9
		c-4.2,5.5-9.8,8.8-16.7,9.9c-0.6,0.1-1.1,0.2-1.7,0.2C74.8,98.7,74.1,98.6,73.3,98.6z M87.6,84c2.9,0,5.2-2.3,5.2-5.1
		c0-2.9-2.3-5.3-5.2-5.3c-2.8,0-5.2,2.3-5.2,5.1C82.4,81.7,84.7,84,87.6,84z M58.4,71.4c2.8,0,5.2-2.4,5.2-5.2
		c0-2.8-2.4-5.2-5.2-5.2c-2.8,0-5.2,2.4-5.1,5.2C53.2,69.1,55.6,71.5,58.4,71.4z M61.4,81.7c0,2.8,2.3,5.2,5.2,5.2
		c2.8,0,5.2-2.4,5.2-5.2c0-2.8-2.4-5.1-5.2-5.2C63.7,76.5,61.3,78.9,61.4,81.7z M70.6,58.2c0-2.1-1.8-3.9-3.9-3.9
		c-2.1,0-3.9,1.8-3.9,3.9c0,2.1,1.8,3.9,3.9,3.8C68.9,62.1,70.6,60.3,70.6,58.2z M77.9,85.1c-2.1,0-3.9,1.8-3.9,3.9
		c0,2.1,1.8,3.9,3.9,3.9c2.1,0,3.9-1.8,3.9-4C81.8,86.9,80,85.1,77.9,85.1z M76,74.1c2.1,0,3.9-1.7,3.9-3.8c0-2.1-1.8-3.9-3.9-3.9
		c-2.1,0-3.9,1.7-3.9,3.8C72,72.3,73.8,74.1,76,74.1z M70.8,50.3c0-0.7-0.5-1.2-1.2-1.2c-0.8,0-1.7,1-1.7,1.7c0,0.6,0.6,1.2,1.2,1.1
		C69.9,52,70.8,51,70.8,50.3z M76.3,60.4c0-0.6-0.5-1.2-1.2-1.2c-0.7,0-1.7,0.9-1.7,1.6c0,0.7,0.5,1.2,1.2,1.2
		C75.4,62.1,76.3,61.1,76.3,60.4z M70.8,91.5c0-0.6-0.5-1.2-1.2-1.2c-0.8,0-1.7,0.9-1.7,1.7c0,0.7,0.5,1.2,1.2,1.2
		C69.8,93.1,70.8,92.2,70.8,91.5z M67.4,69c-0.7,0-1.6,1-1.6,1.7c0,0.7,0.6,1.2,1.2,1.2c0.7,0,1.6-1,1.6-1.7
		C68.6,69.6,68.1,69,67.4,69z M56,76.3c-0.7,0-1.6,1-1.6,1.7c0,0.7,0.6,1.2,1.3,1.2c0.7-0.1,1.6-1.1,1.6-1.7
		C57.2,76.8,56.6,76.2,56,76.3z M87,88.8c0-0.6-0.6-1.2-1.2-1.2c-0.7,0-1.7,1.1-1.7,1.8c0,0.6,0.6,1.2,1.3,1.1
		C86.1,90.4,87,89.5,87,88.8z M86.5,70c0-0.6-0.5-1.2-1.1-1.2c-0.7,0-1.7,0.9-1.7,1.6c0,0.7,0.5,1.3,1.2,1.3
		C85.6,71.7,86.5,70.8,86.5,70z M91.3,72.4c0.7,0,1.7-0.9,1.7-1.6c0-0.7-0.5-1.3-1.2-1.3c-0.7,0-1.7,1-1.7,1.7
		C90.1,71.8,90.7,72.4,91.3,72.4z M78.5,78.6c0-0.6-0.5-1.2-1.2-1.2c-0.7,0-1.7,1-1.7,1.7c0,0.6,0.6,1.2,1.2,1.2
		C77.5,80.2,78.5,79.3,78.5,78.6z"/>
	<path class="st1" d="M47.4,61.8c-2.2-1.1-4.3-1-6.1,0.6c-1.6,1.4-2.2,3.3-1.5,5.3c0.8,2.6,2.7,3.7,5.3,3.8c0.2,2.4,0.4,4.8,0.6,7.3
		c-1.4,0.8-2.5,1.9-2.9,3.7c-0.8,3.6,2.5,6.9,6.1,6.1c0.8-0.2,1.2,0,1.6,0.7c2.7,3.8,6.2,6.8,10.4,8.9c0.2,0.1,0.4,0.2,0.6,0.3
		c-6,0.9-15.5-1.4-21.9-9c-6.9-8.1-8-19.8-2.7-29.3c5.2-9.3,15.3-13.9,24.7-12.9C54.9,50.5,50.3,55.3,47.4,61.8z M48.5,93.8
		c0.7,0,1.7-1,1.7-1.7c0-0.6-0.6-1.2-1.2-1.2c-0.7,0-1.7,1-1.7,1.7C47.3,93.3,47.9,93.8,48.5,93.8z M39,78.9c0.7,0,1.7-1,1.6-1.7
		c0-0.7-0.6-1.2-1.3-1.2c-0.7,0-1.6,1-1.6,1.7C37.8,78.4,38.3,78.9,39,78.9z M46.7,56.3c0.7,0,1.7-0.9,1.7-1.7
		c0-0.7-0.5-1.2-1.1-1.2c-0.7,0-1.7,0.9-1.7,1.6C45.5,55.7,46,56.3,46.7,56.3z"/>
	<path class="st2" d="M41.9,66.3c0-2,2.1-3.3,3.9-2.5c0.4,0.2,0.7,0.4,0.5,1c-0.3,1.2-0.6,2.4-0.8,3.6c-0.1,0.5-0.3,0.7-0.8,0.7
		C43.1,69,41.9,67.8,41.9,66.3z"/>
	<path class="st2" d="M46.3,81.2c0.3,0.8,0.6,1.6,0.9,2.4c0.3,0.8,0.7,1.6,1.1,2.4c-1.2,0.5-2.5-0.2-3.1-1.4
		C44.6,83.4,45.1,81.9,46.3,81.2z"/>
	<path class="st2" d="M87.6,81.5c-1.5,0-2.8-1.2-2.7-2.8c0-1.5,1.2-2.7,2.7-2.7c1.5,0,2.8,1.2,2.8,2.7
		C90.4,80.3,89.1,81.6,87.6,81.5z"/>
	<path class="st2" d="M61.1,66.2c0,1.6-1.1,2.8-2.7,2.8c-1.6,0-2.8-1.2-2.8-2.7c0-1.5,1.2-2.7,2.7-2.7
		C59.9,63.5,61.1,64.7,61.1,66.2z"/>
	<path class="st2" d="M66.6,79c1.6,0,2.7,1.2,2.7,2.8c0,1.5-1.2,2.7-2.7,2.7c-1.5,0-2.8-1.2-2.7-2.8C63.8,80.1,65,78.9,66.6,79z"/>
	<path class="st2" d="M66.7,59.6c-0.8,0-1.4-0.6-1.4-1.4c0-0.8,0.6-1.5,1.4-1.5c0.8,0,1.4,0.7,1.4,1.5
		C68.1,59.1,67.5,59.7,66.7,59.6z"/>
	<path class="st2" d="M79.3,89.1c0,0.8-0.7,1.4-1.5,1.4c-0.8,0-1.4-0.7-1.4-1.5c0-0.8,0.7-1.4,1.5-1.4
		C78.8,87.6,79.4,88.2,79.3,89.1z"/>
	<path class="st2" d="M77.4,70.2c0,0.8-0.6,1.4-1.4,1.4c-0.8,0-1.5-0.6-1.5-1.4c0-0.8,0.7-1.5,1.5-1.5
		C76.8,68.8,77.4,69.4,77.4,70.2z"/>
</g>
</svg>
