<?xml version="1.0" encoding="utf-8"?>
<!-- Generator: Adobe Illustrator 24.1.0, SVG Export Plug-In . SVG Version: 6.00 Build 0)  -->
<svg version="1.1" id="Calque_1" xmlns="http://www.w3.org/2000/svg" xmlns:xlink="http://www.w3.org/1999/xlink" x="0px" y="0px"
	 viewBox="0 0 1920 1080" style="enable-background:new 0 0 1920 1080;" xml:space="preserve">
<style type="text/css">
	.st0{fill:#DCDADB;}
	.st1{fill:#626060;}
	.st2{fill:#626161;}
	.st3{fill:#B76F41;}
	.st4{fill:#424F58;}
	.st5{fill:#303D47;}
	.st6{fill:#3E4951;}
	.st7{fill:#7C9396;}
	.st8{fill:#E8DACD;}
	.st9{fill:#DE882C;}
	.st10{fill:#5B5650;}
	.st11{fill:#F6AE5E;}
	.st12{fill:#7F7464;}
	.st13{fill:#5A767D;}
	.st14{fill:#2E3944;}
	.st15{fill:#526C71;}
	.st16{fill:#F6C930;}
	.st17{fill:#B8C3D3;}
	.st18{fill:#A09F9F;}
	.st19{fill:#3B3B3C;}
	.st20{fill:#C5C3C2;}
	.st21{fill:#F4F4EA;}
	.st22{fill:#4D2F23;}
	.st23{fill:#BBCCDE;}
	.st24{fill:#F8B876;}
</style>
<g>
	<path class="st0" d="M1276.1,838c6.8,0,13.7,0.1,20.5,0c15.5-0.2,25.2,9.2,32.6,21c4.9,7.9,0.9,19.8-7.1,26.3
		c-10,8.2-21.4,13.9-33.5,18.4c-27.1,10.2-55.3,16.2-83.9,20.3c-18.7,2.6-37.4,5-56.1,6.9c-14.5,1.5-29.1,2.5-43.6,3
		c-23.9,0.9-47.8,1.8-71.8,1.9c-17.6,0.1-35.2-1.3-52.8-1.9c-13.1-0.4-26.3-1.1-39.4-0.8c-31.7,0.7-63.4,2.3-95.1,2.7
		c-18.1,0.2-36.2-0.8-54.3-1.9c-19.3-1.2-38.7-2.7-57.9-5c-37.2-4.5-74.2-10.2-109.7-22.8c-13.2-4.7-26-10.2-37-19.1
		c-15.2-12.2-14.3-27.4,0-39c1-0.8,2.1-1.7,3.1-2.5c6.9-5.3,14.2-8.4,23.4-7.8c11.3,0.8,22.6,0.2,34,0.2c0.1,6.4,0.3,12.8,0.4,19.1
		c-7.8,0.4-15.5,0.7-23.8,1.1c0,3.9,0.1,7.5,0,11c-0.2,3.1,1.6,3.1,3.8,2.8c0,3.5,1.1,6.1,5.1,6.7c7.6,1.1,10.9,0.1,13-4.7
		c9.8,0,19.5-0.1,29.3,0.1c2,0.1,4,1.5,6,2.3c3.6,0.8,7.2,2,10.9,2.3c5.2,0.4,6.6-1.3,6.9-6.6c1-0.8,2.4-1.4,2.8-2.3
		c0.5-1.5,0.1-3.3,0.1-4.9c0-7.1,0-7.1-6.8-7.1c-5.6,0-11.2,0-16.9,0c0-6.9,0-13.4,0-19.8c7.8,0,15.5,0,23.3,0
		c3.8-0.1,7.6-0.2,11.5-0.3c2.5,0.1,5,0.3,7.5,0.3c51.6,0,103.1,0,154.7,0.1c2,0,4,0.9,5.9,1.4c-13,5.5-26,11-39.2,16.6
		c1.8,5.1,3.5,10.2,5.3,15.3c-7.8,4.6-10,11.8-5.8,17.9c3.6,5.3,12,6.6,16.7,2c2.1-2,3.5-5.2,4.1-8.2c1.1-5.2-2.3-8.8-6.6-12
		c12.8-4.9,25.1-9.6,37.4-14.3c7.5,5.4,15.7,8.8,24.8,10.2c1.1,0.2,2.1,1.3,3.2,1.9c0.4,0.4,0.7,0.7,1.1,1.1c0.3,0,0.6,0,0.9,0
		c7,0,14-0.1,21-0.1c0,11.1-0.1,22.2,0.1,33.3c0,1.6,1,3.2,1.5,4.7c8.7,0,17.5-0.1,26.2-0.1c0.4-1.5,1.1-3,1.1-4.6
		c0.1-7.8,0-15.6,0.1-23.4c0.1-3.3,0.5-6.5,0.8-9.8c2-0.1,4-0.1,6-0.2c4.7-0.3,9.4-0.7,14.1-1c1.4-0.8,2.6-2,4.1-2.4
		c8.5-2.1,16.7-4.9,23.6-10.7c13.5,4.9,27,9.9,40.9,15c-8.2,6.5-9.6,14.5-4.1,20c4.5,4.5,12.4,4.3,16.5-0.5c5-5.8,3.5-13.3-3.8-18.8
		c1.8-5.1,3.6-10.2,5.4-15.3c-13.6-5.8-26.7-11.4-39.8-16.9c2.1-0.4,4.2-1.1,6.2-1.2c12.8-0.1,25.6,0,38.4-0.1
		c27.9-0.3,55.8-0.6,83.7-0.9c0.5,3.2,1,6.4,1.6,10c14.3,0,28.3,0,42.4,0c2.7,0,5.4-0.3,8,0.1c4.6,0.6,5.8-1.9,6-5.8
		c0-1.2,0.1-2.3,0.1-3.5c2.2,0,4.5,0.1,6.7,0.1c4.7,0,9.4,0,14.1,0c0,6,0.1,12,0.1,18c-6.4,0-12.9-0.1-19.3,0.1
		c-1.7,0-3.4,0.8-5,1.3c-0.1,2.4-0.6,4.9-0.4,7.3c0.2,2.5,1.1,4.9,1.6,7.4c0.8,1.9,1.1,4.4,2.5,5.4c5.3,3.8,14.2,1,16.4-4.7
		c1.7,0.4,3.3,1.1,5,1.2c11.4,0.1,22.7,0.1,34.1,0.1c1.7,4.4,5.1,5.5,12.5,4.9c4.4-0.4,5.4-3.2,5.7-6.8c1.2-0.7,3.3-1.3,3.4-2
		c0.3-3.9,0.2-7.9,0.2-12.3c-8.4,0-16.3,0-24.6,0C1276.1,850.8,1276.1,844.4,1276.1,838z"/>
	<path class="st1" d="M1276.1,838c0,6.4,0,12.9,0,19.8c8.3,0,16.2,0,24.6,0c0,4.4,0.2,8.4-0.2,12.3c-0.1,0.8-2.2,1.4-3.4,2
		c-25.4,0-50.9,0-76.3,0c-0.6-2.5-1.4-4.9-1.6-7.4c-0.2-2.4,0.2-4.8,0.4-7.3c7.2,0.1,14.4,0.3,21.6,0.2c0.9,0,1.8-1,2.8-1.6
		c0-6-0.1-12-0.1-18c0-1,0.1-2,0.1-3c0-88.2,0-176.4,0-264.7c0-7.5,0.1-15,0.2-22.5c10.6-0.2,21.2-0.5,31.7-0.7
		c0,94.9,0,189.9,0.1,284.8C1276,834,1276.1,836,1276.1,838z"/>
	<path class="st2" d="M678.3,837.9c0,6.4,0,12.8,0,19.8c5.8,0,11.3,0,16.9,0c6.8,0,6.8,0,6.8,7.1c0,1.7,0.3,3.4-0.1,4.9
		c-0.3,1-1.8,1.6-2.8,2.3c-6.1,0-12.3,0.1-18.4,0.1c-11.5,0-22.9,0-34.4,0c-6.2,0-12.3,0-18.5-0.1c-2.2,0.3-3.9,0.2-3.8-2.8
		c0.2-3.6,0-7.2,0-11c8.2-0.4,16-0.7,23.8-1.1c0.4-1.7,1.1-3.4,1.1-5.1c0.1-99.6,0.1-199.3,0-298.9c0-1.7-0.7-3.4-1.1-5.1
		c-0.2-0.2-0.3-0.4-0.3-0.7c10.2,0.1,20.4,0.1,30.6,0.2c0,2.8-0.1,5.7-0.1,8.5c0,93,0,186,0,279.1
		C678.1,835.9,678.2,836.9,678.3,837.9z"/>
	<path class="st3" d="M678.1,547.4c-10.2-0.1-20.4-0.1-30.6-0.2c-24-0.1-48-0.2-72-0.3c-1.8,0-3.6,0-5.6,0c0-10.1,0-19.9,0-29.8
		c1.6,0.3,3.2,0.8,4.8,0.8c66.1,0,132.2,0,198.3,0.1c4.5,0,8.1-0.7,8.8-6c16.4,0,32.7,0,49.1,0c3.3,4.9,7.7,8.1,13.5,9.3
		c4,0.9,8,1.8,12,2.7c-0.9,6.3-1.8,12.6-2.7,18.9c-0.1,0.3-0.1,0.5-0.2,0.8c-0.2,1.1-0.3,2.1-0.5,3.2c0,0-0.5,0-0.5,0
		c-8-0.1-16-0.1-24-0.1c-46,0-91.9,0.1-137.9,0.1C686.6,547.2,682.4,547.3,678.1,547.4z"/>
	<path class="st3" d="M1275.9,547.1c-10.6,0.2-21.2,0.5-31.7,0.7c-4.3-0.2-8.7-0.5-13-0.7c-54.7,0-109.3-0.1-164-0.1
		c-1.4-7.7-2.8-15.3-4.2-23c8.7-1.8,17.9-2.9,22.9-12c16.4,0.3,32.8,0.5,49.2,0.8c1.1,1.4,2,3.5,3.4,4c2.8,0.9,5.9,1.1,8.8,1.1
		c65.3,0.1,130.6,0,195.9,0c1.7,0,3.3-0.9,5-1.3c0.6,0.7,1.6,1.3,1.6,2c0.1,9.3,0.1,18.6,0.1,28.6
		C1325,547.1,1300.5,547.1,1275.9,547.1z"/>
	<path class="st4" d="M1179,361.1c8.7,0,17.3,0,26,0c0.9,0.8,1.9,2.3,2.8,2.3c4.4,0.1,8.8-0.3,13.2-0.5c-3.3,5.8-3.8,12.1-4.1,18.6
		c-0.4,7.9-1.4,15.8-2.2,23.7c-1.2,12-2.5,24-3.7,36c-1.2,11.5-2.9,23-3.6,34.5c-0.6,8.8-4.4,18.1,2.6,26.1c-3,0-6,0.1-9,0.1
		c-23.1-0.3-46.1-0.6-69.2-0.9c-0.4-0.6-0.8-1.1-1.1-1.7c2-18.8,3.9-37.5,5.9-56.3c2.5,0,4.9-0.1,7.4-0.1c8.6,0,17.3,0,25.9,0
		c4.8-0.5,7-3.4,7.1-8c0.1-5.6-0.1-11.3-0.2-16.9c0.1-0.3,0.2-0.6,0.1-0.8c0-15.2-0.1-30.3,0.1-45.5
		C1177.1,368.1,1178.3,364.6,1179,361.1z M1205,367c0.1-0.1,0.2-0.3,0.2-0.4C1205.1,366.7,1205.1,366.9,1205,367
		c-0.1,0.1-0.1,0.3-0.2,0.4C1204.8,367.3,1204.9,367.1,1205,367z M1204.2,371.1c-0.4,0-0.9-0.1-1.3-0.1c-2.8,27.6-5.5,55.3-8.3,82.9
		c0.4,0,0.8,0.1,1.3,0.1C1198.6,426.3,1201.4,398.7,1204.2,371.1z M1189.5,500.3c0.5,0,0.9,0.1,1.4,0.1c1.5-14.1,3-28.2,4.5-42.3
		c-0.4,0-0.8-0.1-1.2-0.1C1192.6,472.1,1191.1,486.2,1189.5,500.3z"/>
	<path class="st5" d="M1210,501.8c-7.1-8.1-3.2-17.4-2.6-26.1c0.7-11.5,2.4-23,3.6-34.5c1.3-12,2.5-24,3.7-36
		c0.8-7.9,1.8-15.8,2.2-23.7c0.3-6.5,0.8-12.8,4.1-18.6c0-0.6,0.1-1.2,0.1-1.7c1.9,0,3.9,0,5.8,0c0.4,0.5,0.8,1.4,1.2,1.4
		c7.3-0.1,14.6-0.3,21.9-0.5c8.9,2.8,12.1,7.5,11.2,16.6c-3.5,36.7-6.9,73.5-10.5,110.2c-0.3,3.4-1.8,6.6-2.8,9.9
		c-4.1,3.3-8.7,4.4-13.9,4.1C1226,502.4,1218,502.2,1210,501.8z M1244.1,377.8c-0.8,0.1-1.6,0.1-2.4,0.2
		c-2.9,31.5-5.8,62.9-8.7,94.4c0.5,0.3,1.1,0.5,1.6,0.8c0.8-1.6,2.3-3.1,2.4-4.8c1.3-11.4,2.3-22.8,3.4-34.3
		c1.6-16.7,3.2-33.5,4.6-50.2C1245.2,382,1244.4,379.9,1244.1,377.8z M1232.9,488.4c3.8,0.1,7-3.1,7.1-6.9c0.1-3.6-3.1-6.8-6.5-6.8
		c-3.7,0-6.5,2.8-6.6,6.6C1226.7,485.4,1229.3,488.3,1232.9,488.4z"/>
	<path class="st6" d="M1179,361.1c-0.7,3.5-1.9,7-1.9,10.5c-0.2,15.2-0.1,30.3-0.1,45.5c-11.6,0-23.3,0-34.9,0
		c-18.4,0-36.7,0-55.1,0c-9,0-17.9,0-26.9,0.1c-0.4-3.4-0.7-6.8-1.1-10.2c35,0,70,0,105,0c0.7-1.5,1.9-2.9,1.9-4.4
		c0.1-46.1,0.1-92.2,0-138.3c0-1.4-1-2.9-1.5-4.3c-0.4-0.2-0.8-0.4-1.2-0.5c0-0.2,0-0.3,0-0.5c-0.6-0.3-1.2-0.9-1.8-0.9
		c-46.5,0-93-0.1-139.6,0c-1.3,0-2.5,1-3.8,1.5c-0.4,0.5-0.8,1-1.2,1.5c-0.8-1-2.3-2.2-2.1-3.1c0.8-4.7-1.7-5.9-5.6-5.9
		c-0.4-2.3-0.8-4.7-1.2-7c0.8-1,1.5-2,2.3-3c1.5,0,3.1,0,4.6,0c0.7,0.4,1.4,0.7,2.1,1.1c-0.4,2.2-0.8,4.3-1.2,6.5
		c1.7,0.2,3.4,0.5,5.1,0.7c51.4,0,102.8,0,154.1,0c0.3,0.6,0.7,1.1,1,1.7c0,3,0,6,0,9c-0.3,1.6-1,3.1-1,4.7
		c-0.1,29.9-0.1,59.8,0,89.7c0,1.6,0.6,3.1,1,4.7C1177,360.4,1178,360.7,1179,361.1z"/>
	<path class="st6" d="M725.1,415.8c-0.1-0.3-0.1-0.6,0-0.8c0.3-0.7,0.9-1.5,0.9-2.2c0.1-11.5,0-23.1,0-34.6c0-0.7-0.6-1.4-0.9-2.2
		c0.1-9.9,0.2-19.8,0.3-29.7c0.6-1.9,1.6-3.8,1.6-5.8c0.1-21.5,0.1-43,0.1-64.6c0-6,0.3-12-0.1-18c-0.3-4.8,1.2-6.2,6-6.1
		c52.4,0.2,104.9,0.1,157.3,0.1c1.9,0,3.8-0.5,5.7-0.8c2,0.6,4,1.3,6.1,1.9c1.3,2.2,1.3,3.8-1.7,4.2c-2.1,0.3-4.3,0.7-6.4,0.7
		c-49.8,0-99.6,0-149.4,0.1c-1.9,0-3.7,1.1-5.6,1.7c-0.5,0.1-1.1,0.2-1.6,0.3c-0.1,3-0.3,5.9-0.4,8.9c0.1,14.6,0.3,29.3,0.4,43.9
		c-0.1,0.7-0.2,1.3-0.2,2c0,30-0.1,59.9-0.1,89.9c0,0.6,0.3,1.2,0.5,2c40.9,0,81.7,0,122.5,0c-0.8,3.3-1.6,6.6-2.5,9.9
		c0,0-0.3,0.2-0.3,0.2c-2.7,0.1-5.4,0.1-8.2,0.2c-5,0-10.1,0-15.1,0c-1.3,0-2.6,0-3.9,0c-21,0-42.1,0-63.1,0c-12,0-23.9,0-35.9,0.1
		C729.1,416.7,727.1,416.3,725.1,415.8z"/>
	<path class="st7" d="M857.5,416.7c0.8-3.3,1.6-6.6,2.5-9.9c0.3-2.3,0.7-4.5,1-6.8c1.1-2.6,2.1-5.2,3.4-7.7c2-3.8,4-7.7,9-8.4
		c1.9,3.3,4.7,6.5,5.4,10c2.2,11.3,3.7,22.8,5.1,34.2c0.9,7.7,1.3,15.4,1.9,23.2c-1.4,4.3-2.8,8.6-4.2,12.8
		c-12,4.2-17.3,13-18.8,25.4c-1.4,11.6-4.1,23.1-6.3,34.6c-4-0.9-8-1.9-12-2.7c-5.8-1.2-10.2-4.5-13.5-9.3c-0.1-1.4-0.2-2.9-0.3-4.3
		c0.5-2.6,1-5.2,1.5-7.9c0.3-1.3,0.7-2.6,1-3.9c1.2-3,2.4-6,3.5-9c0.2-1.3,0.4-2.6,0.6-3.9c0.8-1.8,1.6-3.6,2.4-5.4
		c0.3,0.1,0.6,0.2,0.9,0.2c0.1,0,0.2-0.2,0.2-0.4c4.4-13,9-25.9,13-39c1.7-5.8,1.9-12,2.8-17.9l0.1,0.3
		C857,419.6,857.3,418.1,857.5,416.7z"/>
	<path class="st8" d="M834,417.1c5,0,10.1,0,15.1,0c2.3,1.3,4.6,2.5,6.8,3.8c-2.1,7.4-4.2,14.7-6.4,22.1c-37.5,0-75.1-0.2-112.6,0.1
		c-8.3,0.1-12.9-5.7-12.8-12.5c0.1-5,0.7-9.9,1-14.8c2,0.4,4,0.9,5.9,1.3c1.6,0.3,3.2,0.8,4.7,0.8c8.8,0.1,17.6,0.1,26.4,0
		c1.6,0,3.1-0.6,4.7-0.9c21,0,42.1,0,63.1,0C831.3,417.1,832.7,417.1,834,417.1z"/>
	<path class="st9" d="M1210,501.8c8,0.3,15.9,0.5,23.9,1.1c5.2,0.4,9.9-0.7,13.9-4.1c12.4-0.1,24.9-0.4,37.3,0
		c4.3,0.1,8.7,1.8,13,3.1c16.7,4.8,33.4,9.8,50.1,14.7c-1.7,0.5-3.3,1.3-5,1.3c-65.3,0.1-130.6,0.1-195.9,0c-3,0-6-0.2-8.8-1.1
		c-1.4-0.4-2.3-2.6-3.4-4c-1.1-3.9-2.1-7.9-3.2-11.8c23.1,0.3,46.1,0.6,69.2,0.9C1204.1,502,1207,501.9,1210,501.8z"/>
	<path class="st9" d="M781.9,512c-0.7,5.3-4.3,6-8.8,6c-66.1-0.1-132.2,0-198.3-0.1c-1.6,0-3.2-0.5-4.8-0.8c13.6-4,27.2-8.1,40.8-12
		c7.9-2.3,15.9-4.4,23.9-6.5c0.4,2.3,1.1,4.6,1.1,6.9c0,3.9,1.6,5.2,5.3,4c7.2,0.1,14.5,0.1,21.7,0.2c3.6,0.1,7.2,0.1,10.8,0.3
		c2.5,0.1,3.5-0.9,3.5-3.4c0-2.5,0.5-5.1,0.8-7.6c36.1-0.1,72.2-0.2,108.3-0.3C784.8,503,783.4,507.5,781.9,512z"/>
	<path class="st10" d="M662.8,509.6c-7.2-0.1-14.5-0.1-21.7-0.2c-1.4-11.6-2.7-23.2-4.2-34.7c-1.1-7.9-2.6-15.8-3.9-23.7
		c1.7-0.3,3.4-0.6,5.1-1c1.3,0,2.5,0,3.8,0c1-0.1,2-0.2,3-0.2c1.1,0,2.1,0.1,3.2,0.1c0.3,0.1,0.6,0.3,1,0.4c1.7,0.2,3.4,0.4,5.1,0.6
		c5,0,9.9,0,14.9,0C666.9,470.5,664.9,490.1,662.8,509.6z"/>
	<path class="st5" d="M1014.8,242c-1.5,0-3.1,0-4.6,0c-2.1-5.6-3.9-11.5-10.2-14.1c-2.8-6.5-9.2-8-14.9-9.8
		c-14.5-4.7-29.4-5.8-44.4-2c-9.6-0.1-17.7,3.5-24.6,9.9c-4.9,4.7-9.3,9.8-10.3,17c-1.6,0-3.1-0.1-4.7-0.1
		c5-22.1,19.8-35.6,43.6-39.8c14.8-2.6,29.1-1,42.9,5.1C1002.5,214.8,1012,225.8,1014.8,242z"/>
	<path class="st11" d="M781.9,512c1.4-4.5,2.9-9,4.3-13.4c2.5-6.3,5.2-12.6,7.4-19c1.2-3.6,3-5.1,6.8-4.7c2.8,0.3,5.6,0.1,9,0.1
		c-0.9,2.8-1.7,5.1-2.7,8.3c10.6,0,20.7,0,30.7,0c-0.2,1.3-0.4,2.6-0.6,3.9c-8.6,0-17.3,0-25.9,0c-6.5,0-7.3,0.9-7.4,9
		c9.9,0,19.8,0,29.8,0c-0.3,1.3-0.7,2.6-1,3.9c-8.8,0-17.6,0.1-26.4,0.1c-5.7,0-6.4,0.7-6.7,7.7c10.6,0,21.1,0,31.7,0
		c0.1,1.4,0.2,2.9,0.3,4.3C814.7,512,798.3,512,781.9,512z"/>
	<path class="st12" d="M662.8,509.6c2.1-19.5,4.1-39.1,6.2-58.6c0,0,0,0,0,0c1.4-0.4,2.8-0.8,4.2-1.1c1.6-0.3,3.2-0.6,4.7-0.9
		c1.3,0.9,2.5,1.8,4.2,3c-1.4,15.2-2.8,31.1-4.3,46.9c-0.3,2.5-0.8,5.1-0.8,7.6c0,2.5-0.9,3.5-3.5,3.4
		C670,509.7,666.4,509.7,662.8,509.6z"/>
	<path class="st5" d="M896,251.1c-1.9,0.3-3.8,0.8-5.7,0.8c-52.4,0-104.9,0.1-157.3-0.1c-4.9,0-6.4,1.4-6,6.1c0.4,6,0.1,12,0.1,18
		c-0.6,0-1.1,0-1.7,0c0-8.5,0-16.9,0-25.8c4.2,0,8.4,0,12.5,0c50.8,0,101.6,0.1,152.4,0.1c1.8,0,3.7,0.2,5.5,0.2
		C895.6,250.8,895.8,251,896,251.1z"/>
	<path class="st6" d="M647.9,547.9c0.4,1.7,1.1,3.4,1.1,5.1c0.1,99.6,0.1,199.3,0,298.9c0,1.7-0.7,3.4-1.1,5.1
		c-0.1-6.4-0.3-12.8-0.4-19.1c0.1-36.8,0.1-73.5,0.2-110.3c0-58.2,0-116.5,0-174.7C647.6,551.3,647.8,549.6,647.9,547.9z"/>
	<path class="st12" d="M633,451c1.3,7.9,2.8,15.8,3.9,23.7c1.6,11.5,2.8,23.1,4.2,34.7c-3.6,1.1-5.2-0.2-5.3-4
		c0-2.3-0.7-4.6-1.1-6.9c-1.5-14.3-3.1-28.6-4.5-42.9C630,453.8,628,450.1,633,451z"/>
	<path class="st13" d="M849.5,443c2.1-7.4,4.2-14.7,6.4-22.1c0,0,0.4-0.3,0.4-0.3l0.5,0c-0.9,6-1.1,12.2-2.8,17.9
		c-3.9,13.1-8.6,26-13,39c0,0.1-0.2,0.4-0.2,0.4c-0.3,0-0.6-0.2-0.9-0.2c2.8-9.8,5.6-19.7,8.4-29.5
		C848.7,446.6,849.1,444.8,849.5,443z"/>
	<path class="st14" d="M725.3,276c0.6,0,1.1,0,1.7,0c0,21.5,0.1,43-0.1,64.6c0,1.9-1.1,3.8-1.6,5.8
		C725.3,322.9,725.3,299.4,725.3,276z"/>
	<path class="st7" d="M896,251.1c-0.2-0.2-0.3-0.3-0.4-0.6c-0.5-6.9-0.1-7.5,5.6-7.7c1.6,0,3.1,0.1,4.7,0.1c0.9,0.3,1.9,0.5,2.8,0.8
		c-0.6,3.6,0.4,8-4.7,9.3c-0.7,0-1.4,0-2,0C900,252.4,898,251.8,896,251.1z"/>
	<path class="st8" d="M649,450.4c-0.3-0.1-0.6-0.3-1-0.4c-0.7-2.1-1.6-4.2-2.1-6.4c-1-3.8-1.9-7.7-2.9-11.5c2.4,1.1,5.4,1.2,5.8,5
		c0.1,0.9,3.4,1.3,5.2,2c0.1,3.7,0.2,7.5,0.3,11.2C652.6,450.3,650.8,450.3,649,450.4z"/>
	<path class="st11" d="M677.9,448.9c-1.6,0.3-3.2,0.6-4.7,0.9c-0.2-0.3-0.3-0.7-0.5-1c1.5-1.8,2.6-4,4.4-5.2c3.5-2.2,4-4.5,1.7-8.3
		c1.8,0.7,3.6,1.4,5.5,2.1c1.1-1,2.3-2.1,3.6-3.1c0.5,0.5,1,0.9,1.5,1.4C685.6,440,681.8,444.5,677.9,448.9z"/>
	<path class="st14" d="M1176,360c-0.3-1.6-1-3.1-1-4.7c-0.1-29.9-0.1-59.8,0-89.7c0-1.6,0.6-3.1,1-4.7C1176,294,1176,327,1176,360z"
		/>
	<path class="st15" d="M654.3,450.3c-0.1-3.7-0.2-7.5-0.3-11.2c0.3-3.6,0.6-7.2,0.9-10.9c0.2,0,0.5,0,0.7,0.1
		c0.9,4.7,1.8,9.3,2.7,14c0.5-0.1,0.9-0.2,1.4-0.3c0-0.1,0-0.2,0-0.2c-0.1-0.1-0.3-0.2-0.4-0.2c-3.1,0.3-3,2.4-1.9,4.1
		c1,1.6,2.8,2.8,4.5,3.8c0.6,0.4,1.9-0.4,2.8-0.6c1.1,0,2.1,0,3.2,0c1,0.1,1.9,0.2,2.9,0.3c-0.7,0.6-1.3,1.2-2,1.8l0,0
		c-5,0-9.9,0-14.9,0C654.1,450.7,654.2,450.5,654.3,450.3z"/>
	<path class="st3" d="M643,432c0.9,3.8,1.8,7.7,2.9,11.5c0.6,2.2,1.4,4.3,2.1,6.4c-1.1,0-2.1-0.1-3.2-0.1c-2.1-4.6-4.2-9.1-6.3-13.7
		C636.9,431.2,640.8,432.6,643,432z"/>
	<path class="st16" d="M641.9,450c-1.3,0-2.5,0-3.8,0c-2.8-5.4-5.7-10.8-8.5-16.2c0.3-0.3,0.6-0.5,0.9-0.8c1.2,0.6,2.4,1.2,3.6,1.8
		C636.7,440,639.3,445,641.9,450z"/>
	<path class="st17" d="M668.1,448.9c-1.1,0-2.1,0-3.2,0c2.3-4.4,4.5-8.9,7-13.3c0.3-0.6,2.2-0.9,2.9-0.5c0.6,0.3,1,2.1,0.7,2.7
		C673.1,441.6,670.6,445.2,668.1,448.9z"/>
	<path class="st8" d="M641.9,450c-2.6-5-5.2-10.1-7.7-15.1c1.5,0.4,2.9,0.8,4.4,1.2c2.1,4.6,4.2,9.2,6.3,13.7
		C643.9,449.9,642.9,450,641.9,450z"/>
	<path class="st13" d="M1020.9,250.3c-1.7-0.2-3.4-0.5-5.1-0.7c0.4-2.2,0.8-4.3,1.2-6.5C1022.3,243.3,1020,247.7,1020.9,250.3z"/>
	<path class="st14" d="M725,376c0.3,0.7,0.9,1.4,0.9,2.2c0.1,11.5,0.1,23.1,0,34.6c0,0.7-0.6,1.5-0.9,2.2
		C725.1,402,725.1,389,725,376z"/>
	<path class="st6" d="M1221.1,361.3c0,0.6-0.1,1.2-0.1,1.7c-4.4,0.2-8.8,0.5-13.2,0.5c-1,0-1.9-1.5-2.8-2.3
		C1210.4,361.2,1215.7,361.2,1221.1,361.3z"/>
	<path class="st14" d="M1250,362.1c-7.3,0.2-14.6,0.4-21.9,0.5c-0.4,0-0.8-0.9-1.2-1.4C1234.6,361.6,1242.3,361.8,1250,362.1z"/>
	<path class="st10" d="M669,451c0.7-0.6,1.3-1.2,2-1.8c0.6-0.1,1.2-0.2,1.8-0.3c0.2,0.3,0.3,0.7,0.5,1
		C671.8,450.2,670.4,450.6,669,451z"/>
	<path class="st17" d="M673.6,431.6c0,0.1,0.1,0.3,0.1,0.4c-0.2,0-0.4,0.1-0.5,0.1c0-0.1,0-0.3,0.1-0.4
		C673.3,431.7,673.5,431.7,673.6,431.6z"/>
	<path class="st14" d="M1176,252c-0.3-0.6-0.7-1.1-1-1.7C1175.4,250.9,1175.7,251.5,1176,252z"/>
	<path class="st14" d="M856.5,524.1c2.1-11.5,4.9-23,6.3-34.6c1.5-12.4,6.8-21.2,18.8-25.4c1.7-0.2,3.3-0.3,5-0.5
		c23,0.1,46.1,0.1,69.1,0.2c4.7,0,9.3,0.1,14,0.1c20.5,0,40.9-0.1,61.4-0.1c1.6,0,3.1,0,4.7,0c12.2,2.9,18.4,10.7,20.3,22.9
		c1.9,12.5,4.5,24.8,6.9,37.2c1.4,7.7,2.8,15.3,4.2,23c0.7,4.4,1.9,8.9,1.9,13.3c0.2,27,0.2,53.9,0.2,80.9c0,4.6-2.3,8-6.3,9.9
		c-2.6,1.3-5.6,1.9-8.8,2.9c-1.9,5.9-3.8,12.2-5.9,18.8c2.1,0.4,3.8,0.7,5.6,1.1c12.4,2.4,21,12.9,20.9,25.6
		c-0.1,8.1-3.5,11.6-11.5,11.7c-10,0.1-20,0-29.9,0c-0.7,1.9-1.3,3.5-1.9,5c-9.3,27.7-18.6,55.4-27.7,83.1c-1,3.2-2.4,4.9-5.8,4.4
		c-7.3-2.1-14.7-4.3-22-6.4c-1.2-0.8-2.4-1.5-4.9-3.1c0.8,5.8,1.4,10.3,2.1,14.8c0.7,1.7,1,4.4,2.2,5c5.3,2.6,10.9,4.7,16.5,6.9
		c14.9,6.1,29.9,12.2,44.8,18.4c13.1,5.6,26.2,11.1,39.8,16.9c-1.8,5.1-3.6,10.2-5.4,15.3c7.3,5.5,8.8,13,3.8,18.8
		c-4.1,4.8-12,5-16.5,0.5c-5.5-5.5-4.1-13.5,4.1-20c-13.9-5.1-27.4-10-40.9-15c-4.2-1.4-8.4-2.9-12.6-4.3c-0.9-0.9-1.6-2.1-2.7-2.5
		c-10.1-3.9-20.2-7.7-30.3-11.4c-1.1-0.4-2.4-0.3-4.1-0.6c0,5.7,0,10.8,0,16c0,4,0.1,8.1,0.1,12.1c0,1.6,0,3.2,0,4.7
		c-0.1,12.7-0.2,25.4-0.3,38.1c-8.7,0-17.5,0.1-26.2,0.1c-0.2-12.8-0.4-25.5-0.5-38.3c0-1.5,0-3,0-4.6c0-4.1-0.1-8.2-0.1-12.2
		c0-5.2,0-10.4,0-16c-6.3,2.3-11.7,4.1-17.1,6.2c-7,2.8-14,5.8-20.9,8.7c-4.7,1.6-9.4,3.3-14.1,4.9c-12.3,4.7-24.5,9.4-37.4,14.3
		c4.3,3.2,7.6,6.8,6.6,12c-0.6,2.9-2,6.1-4.1,8.2c-4.7,4.6-13.1,3.3-16.7-2c-4.2-6.1-1.9-13.3,5.8-17.9c-1.8-5.1-3.5-10.2-5.3-15.3
		c13.3-5.6,26.3-11.1,39.2-16.6c12.5-4.8,25-9.5,37.4-14.4c1.4-0.5,2.5-1.8,3.7-2.7c5.2-2.1,10.4-4.3,15.7-6.1c2.9-1,3.4-2.7,3-5.3
		c1.4-0.5,2.8-0.9,4.1-1.4c0-4.4,0-8.7,0-12.9c0.1-19.4,0.1-38.9,0.1-58.3c0-1.2-0.5-2.4-0.9-3.6c-0.6-1.4-1.9-2.7-2-4.2
		c-0.2-6.3-0.1-12.5-0.1-18.9c-6,0-11.5,0-17.3,0c6.2,26.8,12.1,53.2,18.5,79.5c1.3,5.2,0.7,8.1-4.4,9.6c-7.3,1.7-14.7,3.4-22,5.1
		c-1.1,0-2.3,0-3.1,0c-9.8-31.6-19.4-63-29.2-94.8c-10.1,0-20,0.1-30,0c-6.1-0.1-9.1-2.9-9.9-9c-1.8-13.2,6.2-24.9,19.2-28.1
		c2.2-0.5,4.5-0.9,6.7-1.3c-1.2-4.7-2.4-9.2-3.6-13.7c0.1-1.9,0.5-3.8,0.1-5.5c-0.1-0.4-2.7-0.3-4.2-0.5c-0.7-0.1-1.3-0.2-2-0.3
		c-0.7-0.2-1.4-0.5-2-0.7c-1.1-0.5-2.1-1.1-3.2-1.6c-0.6-0.5-1.2-1-1.7-1.5l0,0c-0.4-4.6-1.1-9.3-1-13.9c0.7-28.6-1.5-57.2,0.9-85.7
		c0.1-0.7-0.5-1.5-0.8-2.3c0.2-1.1,0.3-2.1,0.5-3.2c0.2-0.1,0.5-0.2,0.7-0.3c-0.2-0.2-0.4-0.3-0.6-0.5
		C854.7,536.7,855.6,530.4,856.5,524.1z M973,657.1c-0.3,4.5-0.9,8.9-0.8,13.4c0,1.2,1.7,3.3,2.8,3.4c20.4,1.4,39.8-1.2,56.6-14.2
		c2.2-1.7,4.3-3.6,6.4-5.4c-0.2-0.4-0.4-0.7-0.6-1.1c-11.6,0-23.2,0-34.8,0c-9.1,0.2-18.2,0.4-27.4,0.6
		C972.8,653.9,971.5,654.5,973,657.1z M880.7,653.3c-0.2,0.4-0.3,0.7-0.5,1.1c3.4,2.6,6.6,5.4,10.2,7.8
		c15.5,10.1,32.8,12.9,50.9,11.7c1.4-0.1,3.5-1.9,3.7-3.2c0.7-4.2,0.5-8.6,1-12.8c0.5-4.2-1.4-5-5.1-5c-18.8,0.2-37.6,0.1-56.4,0.1
		C883.3,653,882,653.2,880.7,653.3z M971.7,780.4c0.4,0.1,0.7,0.2,1.1,0.3c6.1-23,12.3-45.9,18.5-69.2c-6,0-11.4,0-17.2,0
		c-0.4,9.4-0.8,18.5-1.9,27.6C970.4,752.6,971.7,766.6,971.7,780.4z M1046.3,623c-3.5,0.1-6.2,2.7-6.3,5.8c0,3.3,3.1,6.3,6.6,6.1
		c3.6-0.2,6-2.1,6.2-5.9C1053.1,625.7,1049.9,622.9,1046.3,623z M875.8,635.2c1.3-1.6,4.2-3.5,4.7-6c0.8-3.5-2.1-5.7-5.7-6
		c-3.7-0.3-6.8,2.4-6.7,5.8C868.3,632.7,870.7,634.4,875.8,635.2z"/>
	<path class="st18" d="M1165,837c-1.1-14.4-2.2-28.7-3.4-43.1c-1.1-13.5-2.4-27-3.6-40.6c-0.4-4.5-0.6-8.9-1-13.4
		c24.3,0,48.6,0,73,0c0,2.3-0.1,4.6-0.1,6.9c-4.4-1.1-8.9-2.3-13.9-3.6c-0.7,10.3-1.4,20.5-2,30.8c-0.5,7.4-0.7,14.9-1.2,22.4
		c-1.2,16.8-2.5,33.7-3.8,50.5c-14.1,0-28.2,0-42.4,0C1166,843.4,1165.5,840.2,1165,837z"/>
	<path class="st19" d="M721,818c0,4.7,0,9.3,0,14c-1.4,0.5-2.7,1.1-4.1,1.6c-1.3,1.3-2.6,2.7-3.9,4c-3.8,0.1-7.6,0.2-11.5,0.3
		c-1.5-1.1-3-3-4.5-3.1c-6.4-0.3-12.7,0-19.1,0.1c0-93,0-186,0-279.1c0-2.8,0.1-5.7,0.1-8.5c4.2-0.1,8.5-0.2,12.7-0.3
		c0,89.8,0,179.5,0,269.9c9.9,0,19.5,0,29.1,0C720.4,817.3,720.7,817.7,721,818z"/>
	<path class="st20" d="M1209,847c1.3-16.8,2.6-33.7,3.8-50.5c0.5-7.4,0.7-14.9,1.2-22.4c0.6-10.2,1.3-20.4,2-30.8
		c5,1.3,9.4,2.4,13.9,3.6c0,1.8,0.1,3.7-0.1,5.5c-1.3,15.5-2.5,31.1-3.9,46.6c-0.5,6.1-1.3,12.2-1.9,18.3c-0.3,6.8-0.7,13.7-1,20.5
		c0,1.2,0,2.3-0.1,3.5c-0.2,3.8-1.4,6.4-6,5.8C1214.4,846.7,1211.7,847,1209,847z"/>
	<path class="st6" d="M1220.9,872c25.4,0,50.9,0,76.3,0c-0.3,3.6-1.3,6.4-5.7,6.8c-7.4,0.7-10.8-0.5-12.5-4.9
		c-0.9-0.4-1.8-1.3-2.7-1.3c-12.1-0.1-24.3,0-36.4,0c-2.3,5.7-11.2,8.5-16.4,4.7C1222,876.4,1221.7,873.9,1220.9,872z"/>
	<path class="st10" d="M1223,837.8c0.3-6.8,0.7-13.7,1-20.5c2.3-0.2,4.5-0.3,7.3-0.6c0-25.7,0-51.2,0-76.7c1.6,0,3.1,0,4.7-0.1
		c-3.8,1.8-3.1,5.3-3.1,8.5c0.3,13.2,0.9,26.5,1,39.7c0,8.6-0.7,17.2-0.9,25.8c-0.1,3.1-0.5,5.2-4.3,5.1c-0.9,0-2.4,1-2.5,1.6
		c-0.6,5.2-0.8,10.4-1.1,15c2.1,0.7,3.6,1.1,5.1,1.6c0,0.3-0.1,0.5-0.3,0.7C1227.5,837.9,1225.3,837.9,1223,837.8z"/>
	<path class="st10" d="M921,869c0-2.6,0.8-4.1,4-3.9c6.7,0.3,13.4,0.1,20.1,0.2c0,1.5,0,3,0,4.6c-0.4,0.1-0.7,0.1-1.1,0.2
		c-7,0-14,0.1-21,0.1c-0.3-0.1-0.6-0.1-0.9,0C921.7,869.7,921.3,869.4,921,869z"/>
	<path class="st6" d="M680.7,872.1c6.1,0,12.3-0.1,18.4-0.1c-0.3,5.3-1.7,7-6.9,6.6c-3.7-0.3-7.3-1.5-10.9-2.3
		C681.1,875,680.9,873.6,680.7,872.1z"/>
	<path class="st6" d="M627.8,872.1c6.2,0,12.3,0,18.5,0.1c-0.1,0.6-0.2,1.3-0.3,1.9c-2.2,4.8-5.4,5.9-13,4.7
		C628.9,878.1,627.8,875.6,627.8,872.1z"/>
	<path class="st3" d="M972.1,865.1c5.9,0,11.9,0.1,17.8-0.2c3.2-0.2,4.1,1.2,4.1,4c-4.7,0.3-9.4,0.7-14.1,1c-2,0.1-4,0.1-6,0.2
		c-0.6-0.1-1.2-0.2-1.8-0.3C972.1,868.3,972.1,866.7,972.1,865.1z"/>
	<path class="st21" d="M646,874c0.1-0.6,0.2-1.3,0.3-1.9c11.5,0,22.9,0,34.4,0c0.2,1.4,0.4,2.9,0.6,4.3c-2-0.8-4-2.3-6-2.3
		C665.5,873.9,655.7,874,646,874z"/>
	<path class="st21" d="M1244,856c-0.9,0.5-1.8,1.6-2.8,1.6c-7.2,0-14.4-0.1-21.6-0.2c1.7-0.4,3.3-1.2,5-1.3
		C1231.1,855.9,1237.5,856,1244,856z"/>
	<path class="st21" d="M1229.8,837.9c0.2-0.2,0.2-0.5,0.3-0.7c1.7-0.8,3.3-2,5-2.2c2.9-0.4,6-0.1,8.9-0.1c0,1-0.1,2-0.1,3
		C1239.2,838,1234.5,838,1229.8,837.9z"/>
	<path class="st21" d="M1239.9,872.8c12.1,0,24.3-0.1,36.4,0c0.9,0,1.8,0.8,2.7,1.3c-11.4,0-22.7,0-34.1-0.1
		C1243.2,873.9,1241.5,873.2,1239.9,872.8z"/>
	<path class="st19" d="M1244,835c-3,0-6-0.3-8.9,0.1c-1.7,0.2-3.3,1.4-5,2.2c-1.5-0.5-3-0.9-5.1-1.6c0.3-4.6,0.6-9.8,1.1-15
		c0.1-0.7,1.7-1.7,2.5-1.6c3.8,0.1,4.2-2.1,4.3-5.1c0.2-8.6,1-17.2,0.9-25.8c-0.1-13.2-0.6-26.5-1-39.7c-0.1-3.2-0.8-6.7,3.1-8.5
		c-1.1-2.8-2.1-5.6-3.2-8.3c0.1-1.3,0.2-2.7,0.2-4c0-58.6,0-117.3,0-175.9c0-0.8-0.2-1.7-0.3-2.5c-0.3,0-0.6,0-1,0
		c0,16.1,0,32.2,0,48.4c-0.2-16.8-0.4-33.6-0.6-50.5c4.3,0.2,8.7,0.5,13,0.7c-0.1,7.5-0.2,15-0.2,22.5
		C1244,658.5,1244,746.7,1244,835z"/>
	<path class="st6" d="M854,648.9c-1.3-3.1-3.7-6.2-3.7-9.3c-0.3-24.8-0.3-49.6,0-74.4c0.1-6.1,1.6-12.2,2.4-18.2c0,0,0.5,0,0.5,0
		c0.3,0.8,0.8,1.5,0.8,2.3c-2.4,28.5-0.2,57.1-0.9,85.7C852.9,639.6,853.7,644.3,854,648.9z"/>
	<path class="st6" d="M853.8,543c0.2,0.2,0.4,0.3,0.6,0.5c-0.2,0.1-0.5,0.2-0.7,0.3C853.7,543.5,853.7,543.3,853.8,543z"/>
	<path class="st7" d="M1063,524c-2.3-12.4-5-24.8-6.9-37.2c-1.9-12.3-8.1-20.1-20.3-22.9c-1.2-4.2-2.4-8.3-3.6-12.5
		c0.3-2.8,0.4-5.6,0.8-8.3c2-16.5,3.9-33,6.3-49.4c0.4-2.8,3.1-5.4,4.8-8c5.2,1.2,8.5,4.6,10.5,9.4c1.1,2.7,2.3,5.4,3.5,8
		c0.4,1.3,0.7,2.6,1.1,3.9c0.4,3.4,0.7,6.8,1.1,10.2c0.3,0.3,0.6,0.6,0.9,0.9c0,0.4-0.1,0.7-0.1,1.1c0.1,2.5-0.4,5.2,0.3,7.6
		c4.5,15.1,9.3,30.2,14,45.2l0-0.1c0.4,1,0.9,2,1.3,3c0.9,2.8,1.8,5.5,2.7,8.3c0.4,1.2,0.7,2.5,1.1,3.7c1,2.9,1.9,5.7,2.9,8.6
		c0.4,1.5,0.8,3,1.2,4.4c0.6,2.6,1.3,5.2,1.9,7.8c-0.1,1.4-0.1,2.9-0.2,4.3C1080.9,521.1,1071.7,522.2,1063,524z"/>
	<path class="st11" d="M1084.2,499.9c-0.4-1.5-0.8-3-1.2-4.4c10.4,0,20.8,0,31.4,0c-1.9-8.5-1.9-8.5-9.3-8.5
		c-8.3,0-16.6-0.1-24.9-0.1c-0.4-1.2-0.7-2.5-1.1-3.7c10.2,0,20.4,0,31.2,0c-0.9-3.3-1.6-5.6-2.4-8.3c2.4,0,4.2,0.3,6-0.1
		c4.9-0.9,7.5,0.9,9.1,5.7c2.1,6.4,5.2,12.5,7.8,18.7c0.4,0.6,0.8,1.1,1.1,1.7c1,3.9,2.1,7.9,3.2,11.8c-16.4-0.3-32.8-0.5-49.2-0.8
		c0.1-1.4,0.1-2.9,0.2-4.3c10.9,0,21.8,0,32.7,0c-0.7-7.2-1.2-7.7-7.2-7.7C1102.4,500,1093.3,500,1084.2,499.9z"/>
	<path class="st8" d="M1060.8,419.2c0-0.4,0.1-0.7,0.1-1.1c3.8,0,7.6,0.1,11.4-0.1c4.9-0.2,9.8-0.6,14.6-0.9c18.4,0,36.7,0,55.1,0
		c1.4,0.3,2.8,0.9,4.2,0.9c10.2,0.1,20.4,0,30.6,0c0.1,5.6,0.2,11.3,0.2,16.9c0,4.6-2.3,7.5-7.1,8c-8.6,0-17.3,0-25.9,0
		c-2.5,0-4.9,0.1-7.4,0.1c-22.9,0-45.7,0-68.6-0.1C1065.6,435.1,1063.2,427.1,1060.8,419.2z"/>
	<path class="st5" d="M1204.2,371.1c-2.8,27.6-5.5,55.3-8.3,82.9c-0.4,0-0.8-0.1-1.3-0.1c2.8-27.6,5.5-55.3,8.3-82.9
		C1203.3,371,1203.7,371,1204.2,371.1z"/>
	<path class="st5" d="M1189.5,500.3c1.6-14.1,3.1-28.2,4.7-42.3c0.4,0,0.8,0.1,1.2,0.1c-1.5,14.1-3,28.2-4.5,42.3
		C1190.4,500.4,1190,500.3,1189.5,500.3z"/>
	<path class="st21" d="M1176.8,418c-10.2,0-20.4,0.1-30.6,0c-1.4,0-2.8-0.6-4.2-0.9c11.6,0,23.3,0,34.9,0
		C1177,417.4,1176.9,417.7,1176.8,418z"/>
	<path class="st21" d="M1144,443c8.6,0,17.3,0,25.9,0C1161.3,442.9,1152.7,442.9,1144,443z"/>
	<path class="st6" d="M1205,367c0.1-0.1,0.1-0.3,0.2-0.4C1205.1,366.7,1205.1,366.9,1205,367C1205,367,1205,367,1205,367z"/>
	<path class="st5" d="M1205,367c-0.1,0.1-0.1,0.3-0.2,0.4C1204.8,367.3,1204.9,367.1,1205,367C1205,367,1205,367,1205,367z"/>
	<path class="st0" d="M1244.1,377.8c0.4,2,1.2,4.1,1,6.1c-1.4,16.7-3,33.5-4.6,50.2c-1.1,11.4-2.1,22.9-3.4,34.3
		c-0.2,1.7-1.6,3.2-2.4,4.8c-0.5-0.3-1.1-0.5-1.6-0.8c2.9-31.5,5.8-62.9,8.7-94.4C1242.5,378,1243.3,377.9,1244.1,377.8z"/>
	<path class="st0" d="M1232.9,488.4c-3.6-0.1-6.2-3-6.1-7c0.1-3.8,2.9-6.6,6.6-6.6c3.5,0,6.6,3.2,6.5,6.8
		C1240,485.3,1236.7,488.5,1232.9,488.4z M1234.6,476.2c-0.7-0.1-1.4-0.1-2.1-0.2c-1.2,1.8-3,3.4-3.4,5.4c-0.5,2.7,1.1,5.4,4.2,4.6
		c1.8-0.5,3.9-2.9,4.4-4.7C1237.8,479.9,1235.6,477.9,1234.6,476.2z"/>
	<path class="st22" d="M969.7,464c-4.7,0-9.3-0.1-14-0.1c5-8.5,10-16.9,11.3-26.9c0.6-6.7,1.3-13.3,1.9-20c-0.2-3.3-0.2-6.6-0.5-9.9
		c-2.6-22.1-13.9-41.1-22.4-61.1c-0.1-0.4-0.1-0.9-0.2-1.3c0-0.3-0.1-0.6-0.3-0.8c-0.2-0.3-0.4-0.6-0.5-0.9l0,0.1
		c0.7-7.1,1.3-14.3,2-21.9c-12.9-2.7-23.6-11.1-31.9-22.9c-0.1-10.1-0.1-20.2-0.2-30.2c0-5.9-0.7-6.6-6.9-6.9c-1.3-2.7-2.6-5.4-4-8
		c5.1-1.3,4.1-5.8,4.7-9.3c5.5-10.6,13.6-18.3,24.2-23.6c2.6-1.3,5.2-2.7,7.8-4c15-3.8,29.9-2.7,44.4,2c5.7,1.8,12.1,3.3,14.9,9.8
		c2.6,5.7,5.3,11.4,7.9,17.1c0.4,2.3,0.8,4.7,1.2,7c4.4,3.2,4.1,6-1.1,9c-6.6,0.5-7.9,1.9-8,8.5c-0.3,12.2-0.7,24.4-1.1,36.6
		c-3.7,2.7-7.5,5.3-11.5,8.2c2.1,2.2,4.2,4.5,6.3,6.8c3.8,4,7.5,8,11.3,12.1c0,0,0,0,0,0c1.7,1.9,3.4,3.9,5.2,5.8
		c0.3,0.4,0.6,0.7,0.9,1.1c1,1.4,1.9,2.7,2.9,4.1c0.3,0.7,0.7,1.3,1,2c0.6,1.3,1.3,2.7,1.9,4c0.1,0.3,0.2,0.7,0.3,1
		c0.5,1.4,1,2.7,1.5,4.1c0.1,0.6,0.3,1.2,0.4,1.8c0.3,1.6,0.6,3.3,1,4.9c0,0.4,0.1,0.7,0.1,1.1c0.1,3.9,0.2,7.8,0.3,11.7
		c-0.1,0.5-0.1,0.9-0.2,1.4c0,0.8,0.1,1.6,0.1,2.5c-1.7,6.2-3,12.6-5.3,18.6c-2.4,6.2-5.8,12.1-8.8,18.1c-0.4-0.2-0.8-0.4-1.2-0.6
		c0.4-7.6,0.6-15.1-3.8-23C1001.3,421.3,995.2,446.9,969.7,464z M949.4,319.9c15.6-18.6,20-20.3,33.3-12.7c0.1-5.4-2.5-8.9-7.5-10.6
		c-7-2.4-17.5,1.3-23.3,8.1C947.3,310.2,946.5,314.3,949.4,319.9z"/>
	<path class="st23" d="M1059,407c-0.4-1.3-0.7-2.6-1.1-3.9c4.4,0,8.8-0.2,13.2,0c3.1,0.1,4.1-1.2,3.8-4c0.7,0,1.3,0,2,0
		c-0.5,4,2,4,5,4c24.1-0.1,48.2,0,72.3-0.1c1.4,0,2.9-0.2,4.8-0.3c0-22.1,0-43.8,0-65.5c0-0.4,0-0.7,0-1.1c0-21.2,0-42.4,0-64
		c-2.3,0-3.8,0-5.2,0c-23.6,0-47.2,0.1-70.8-0.1c-4.1,0-6.2,1.1-6.6,5.2c-0.5,0-1-0.1-1.4-0.1c-0.1-1.6-0.3-3.1-0.4-4.9
		c-15.5,0-30.4,0-45.4,0c0-1.4-0.1-2.8-0.1-4.2c14.9,0,29.8,0,43.8,0c1.2-2.9,2-4.9,2.7-6.8c1.2,2,2.3,4,3.8,6.6
		c25.8,0,52.4,0,79.3,0c0.1-2.5,0.3-4.7,0.4-6.8c1-0.3,2-0.6,2.9-0.8c0.3,2.3,0.9,4.5,0.9,6.8c0.1,44.5,0,89,0.1,133.6
		c0,1.9,0.7,3.7,1,5.6c0,0.3-0.1,0.7-0.1,1C1129,407,1094,407,1059,407z"/>
	<path class="st14" d="M1016.9,261c0.1,0.3,0.2,0.6,0.2,0.9c0.9,0.7,1.9,1.5,2.8,2.2c0.1,0.3,0.1,0.6,0.1,1c-0.7,2.5-1.8,5-1.9,7.5
		c-0.2,10.2-0.1,20.3-0.1,30.5c-0.3,1.4-0.6,2.8-0.8,4.2c3.3,1.6,2,4.5,0.6,5.8c-1.8,1.7-4.6,2.3-7,3.1c-0.9,0.3-2.1,0-3.2-0.1
		c-0.2-2.3-0.5-4.6-0.5-6.9c0.3-16,0.6-32,1-48.1c5.2-3,5.5-5.8,1.1-9c4-0.1,6.4,1.1,5.6,5.9C1014.6,258.8,1016.1,259.9,1016.9,261z
		"/>
	<path class="st14" d="M1164,407c0-0.3,0.1-0.7,0.1-1c0.1-22.8,0.2-45.5,0.2-68.3c0.1-25.9,0.1-51.8,0.2-77.8
		c0.5,1.4,1.5,2.9,1.5,4.3c0.1,46.1,0.1,92.2,0,138.3C1165.9,404.1,1164.7,405.5,1164,407z"/>
	<path class="st14" d="M1158.7,259.4c-46.9,0.1-93.8,0.1-140.6,0.2c1.3-0.5,2.5-1.5,3.8-1.5c46.5-0.1,93-0.1,139.6,0
		c0.6,0,1.2,0.6,1.8,0.9C1161.7,259.1,1160.2,259.2,1158.7,259.4z"/>
	<path class="st0" d="M1164.5,260c-0.1,25.9-0.1,51.8-0.2,77.8c-0.1,22.8-0.1,45.5-0.2,68.3c-0.4-1.9-1-3.7-1-5.6
		c-0.1-44.5,0-89-0.1-133.6c0-2.3-0.6-4.5-0.9-6.8c0.4-0.2,0.8-0.4,1.2-0.6C1163.7,259.6,1164.1,259.8,1164.5,260z"/>
	<path class="st21" d="M1007.9,245c-2.6-5.7-5.3-11.4-7.9-17.1c6.2,2.6,8,8.5,10.2,14.1C1009.4,243,1008.7,244,1007.9,245z"/>
	<path class="st21" d="M1087,417.1c-4.9,0.3-9.7,0.7-14.6,0.9c-3.8,0.1-7.6,0.1-11.4,0.1c-0.3-0.3-0.6-0.6-0.9-0.9
		C1069,417.1,1078,417.1,1087,417.1z"/>
	<path class="st7" d="M1163.3,259.4c-0.4,0.2-0.8,0.4-1.2,0.6c-1,0.3-2,0.6-2.9,0.8c-0.1-0.5-0.3-1-0.4-1.5c1.5-0.1,3-0.3,4.5-0.4
		C1163.2,259.1,1163.2,259.3,1163.3,259.4z"/>
	<path class="st17" d="M861,400c-0.3,2.3-0.7,4.5-1,6.8c-40.8,0-81.5,0-122.5,0c-0.2-0.8-0.5-1.4-0.5-2c0-30,0-59.9,0.1-89.9
		c0-0.7,0.2-1.3,0.2-2c0.5-1.6,1.5-3.1,1.5-4.7c0.1-15.1,0.1-30.2,0.1-45.3c0.6,0,1.2,0,1.9,0c0,1.7,0.1,3.3,0.1,5
		c-1.4,1.8-1.7,3.4,1.1,4c-0.8,42.9-1.8,85.7,0.1,128C782.2,400,821.6,400,861,400z"/>
	<path class="st14" d="M904.1,253.1c1.3,2.7,2.6,5.4,4,8c0,5.8-0.1,11.6,0,17.4c0.2,11.9,0.5,23.8,0.7,35.6
		c-2.6,0.6-5.2,1.2-7.8,1.8c-1-0.4-1.9-0.8-2.9-1.1c-0.7-2.1-1.4-4.1-2.1-6.2c4.9-13.6,2.3-27.6,3-41.9c-1.1,1.4-1.8,2.3-2.6,3.2
		c-0.4-1.9-0.9-3.8-1.3-5.8c1-1,2-2.1,3.1-3.1c-0.5-0.6-1-1.6-1.6-1.6c-25.3,0-50.6,0-75.9,0.1c-7.3,0-14.6,0.1-21.9,0.2
		c-2-0.1-4-0.3-6-0.3c-18,0.1-35.9,0.2-53.9,0.3c1.9-0.6,3.7-1.7,5.6-1.7c49.8-0.1,99.6-0.1,149.4-0.1c2.1,0,4.3-0.4,6.4-0.7
		c2.9-0.4,3-2.1,1.7-4.2C902.7,253.1,903.4,253.1,904.1,253.1z"/>
	<path class="st0" d="M737.4,261.2c0.5-0.1,1.1-0.1,1.6-0.2c0,0.7,0,1.3,0,2c0,15.1,0,30.2-0.1,45.3c0,1.6-1,3.1-1.5,4.7
		c-0.1-14.6-0.3-29.3-0.4-43.9C737.1,266.4,737.3,263.8,737.4,261.2z"/>
	<path class="st21" d="M767,417.1c-1.6,0.3-3.1,0.9-4.7,0.9c-8.8,0.1-17.6,0.1-26.4,0c-1.6,0-3.2-0.5-4.7-0.8
		C743,417.1,755,417.1,767,417.1z"/>
	<path class="st21" d="M856.7,420.7l-0.5,0c0,0-0.4,0.3-0.4,0.3c-2.3-1.3-4.6-2.5-6.8-3.8c2.7-0.1,5.4-0.1,8.2-0.2
		c-0.1,1.4-0.3,2.7-0.4,4.1L856.7,420.7z"/>
	<path class="st14" d="M737.4,261.2c-0.1,2.6-0.3,5.2-0.4,7.8c0.1-3,0.3-5.9,0.4-8.9C737.4,260.5,737.4,260.8,737.4,261.2z"/>
	<path class="st13" d="M856.8,421c0.1-1.4,0.3-2.7,0.4-4.1c0,0,0.3-0.2,0.3-0.2C857.3,418.1,857,419.6,856.8,421z"/>
	<path class="st21" d="M834,417.1c-1.3,0-2.6,0-3.9,0C831.3,417.1,832.7,417.1,834,417.1z"/>
	<path class="st13" d="M873.4,383.9c0.2-0.3,0.5-0.6,0.7-0.9c1.3-1.3,2.7-2.5,4-3.8c6.6-1.1,13.3-2.2,19.9-3.3
		c1.2-0.2,2.5-0.3,3.7-0.5c1.5,4.1,2.1,8.9,4.7,12.1c9.8,12.5,19.9,24.7,30.5,36.5c7.9,8.8,17.6,14.5,30.2,12.9
		c-1.3,10-6.3,18.4-11.3,26.9c-23-0.1-46.1-0.1-69.1-0.2c-0.3-4.1-0.6-8.2-0.8-12.4c-0.6-7.7-0.9-15.5-1.9-23.2
		c-1.4-11.5-3-22.9-5.1-34.2C878.1,390.4,875.3,387.2,873.4,383.9z"/>
	<path class="st21" d="M885.8,451.3c0.3,4.1,0.6,8.2,0.8,12.4c-1.7,0.2-3.3,0.3-5,0.5C883,459.9,884.4,455.6,885.8,451.3z"/>
	<path class="st3" d="M654.3,450.3c-0.1,0.2-0.2,0.5-0.3,0.7c-1.7-0.2-3.4-0.4-5.1-0.6C650.8,450.3,652.6,450.3,654.3,450.3z"/>
	<path class="st21" d="M940.8,216.1c-2.6,1.3-5.2,2.7-7.8,4c-10.6,5.3-18.8,13.1-24.2,23.6c-0.9-0.3-1.9-0.5-2.8-0.8
		c0.9-7.2,5.3-12.3,10.3-17C923,219.6,931.2,216,940.8,216.1z"/>
	<path class="st13" d="M969.7,464c25.5-17.1,31.5-42.7,31.4-72.2c4.4,7.9,4.1,15.4,3.8,23c0.4,0.2,0.8,0.4,1.2,0.6
		c3-6,6.4-11.9,8.8-18.1c2.3-6,3.6-12.4,5.3-18.6c5.6,1.1,11.2,2.2,16.8,3.3c0.9,0.4,1.8,0.7,2.7,1.1c1.4,0.9,2.8,1.7,4.2,2.6
		c-1.6,2.7-4.3,5.2-4.8,8c-2.4,16.4-4.2,32.9-6.3,49.4c-0.3,2.8-0.5,5.5-0.8,8.3c-0.4,4.2-0.7,8.3-1.1,12.5
		C1010.7,463.9,990.2,464,969.7,464z"/>
	<path class="st5" d="M880.7,653.3c1.3-0.1,2.5-0.3,3.8-0.3c18.8,0,37.6,0.1,56.4-0.1c3.8,0,5.6,0.8,5.1,5c-0.5,4.3-0.3,8.6-1,12.8
		c-0.2,1.3-2.4,3.1-3.7,3.2c-18.1,1.2-35.4-1.7-50.9-11.7c-3.6-2.3-6.8-5.2-10.2-7.8C880.4,654,880.6,653.7,880.7,653.3z
		 M934.1,655.5c0,0.1,0,0.2,0,0.3c3.1,0.2,6.2,0.4,9.3,0.5c0-0.3,0-0.6,0-0.9C940.3,655.5,937.2,655.5,934.1,655.5z"/>
	<path class="st5" d="M1002.5,653.2c11.6,0,23.2,0,34.8,0c0.2,0.4,0.4,0.7,0.6,1.1c-2.1,1.8-4.2,3.7-6.4,5.4
		c-16.8,13-36.2,15.6-56.6,14.2c-1.1-0.1-2.8-2.2-2.8-3.4c0-4.5,0.5-8.9,0.8-13.4c4.1-0.1,8.3,0.3,12.4-0.3
		C991.1,655.9,996.8,654.4,1002.5,653.2z"/>
	<path class="st13" d="M1009,851.5c-5,2.3-9.9,4.5-15.3,7c-1.4-5-4.9-5.9-9.3-5.6c-4.1,0.2-8.3,0.1-12.5,0.1c0-5.1,0-10.3,0-16
		c1.6,0.2,2.9,0.1,4.1,0.6c10.1,3.7,20.2,7.5,30.3,11.4C1007.4,849.4,1008.2,850.7,1009,851.5z"/>
	<path class="st13" d="M945,853c-5.5,0.1-10.9,0.1-16.4,0.2c-3.8,0.1-7.5,0.5-7.6,6.2c-5.1-2.7-9.5-5.1-14-7.4
		c7-2.9,13.9-5.9,20.9-8.7c5.3-2.1,10.8-3.9,17.1-6.2C945,842.6,945,847.8,945,853z"/>
	<path class="st24" d="M998.1,803.7c-2.1,5.7-4.1,11.5-6.2,17.2c-5.5-2.3-11.1-4.3-16.5-6.9c-1.3-0.6-1.5-3.3-2.2-5
		c0.2-1.7,0.4-3.5,0.8-5.1c0.6-2.2,1.4-4.4,2.1-6.6C983.4,799.4,990.7,801.5,998.1,803.7z"/>
	<path class="st24" d="M938.9,800.9c0.7,3.4,1.4,6.7,2,10.1c0.4,2.6-0.1,4.3-3,5.3c-5.3,1.8-10.5,4-15.7,6.1
		c-1.8-5.5-3.6-10.9-5.4-16.4C924.2,804.3,931.6,802.6,938.9,800.9z"/>
	<path class="st13" d="M1046.3,623c3.6-0.1,6.8,2.7,6.6,6c-0.3,3.7-2.6,5.6-6.2,5.9c-3.5,0.2-6.7-2.8-6.6-6.1
		C1040.1,625.7,1042.9,623.1,1046.3,623z"/>
	<path class="st7" d="M875.8,635.2c-5.1-0.7-7.5-2.5-7.7-6.3c-0.2-3.3,3-6,6.7-5.8c3.7,0.3,6.5,2.5,5.7,6
		C880,631.6,877.1,633.6,875.8,635.2z"/>
	<path class="st7" d="M1002.5,653.2c-5.7,1.2-11.4,2.7-17.2,3.6c-4,0.6-8.2,0.3-12.4,0.3c-1.5-2.6-0.2-3.2,2.2-3.3
		C984.3,653.6,993.4,653.4,1002.5,653.2z"/>
	<path class="st21" d="M1031.1,463.9c0.4-4.2,0.7-8.3,1.1-12.5c1.2,4.2,2.4,8.3,3.6,12.5C1034.3,463.9,1032.7,463.9,1031.1,463.9z"
		/>
	<path class="st21" d="M976.1,797.3c-0.7,2.2-1.5,4.3-2.1,6.6c-0.4,1.7-0.5,3.4-0.8,5.1c-0.6-4.5-1.3-9-2.1-14.8
		C973.7,795.8,974.9,796.5,976.1,797.3z"/>
	<path class="st6" d="M867,659c-1.3-2-2.7-4-4-6c1.5,0.1,4.1,0,4.2,0.5C867.5,655.2,867.1,657.1,867,659z"/>
	<path class="st6" d="M861,652.8c-0.7-0.2-1.4-0.5-2-0.7C859.7,652.3,860.3,652.5,861,652.8z"/>
	<path class="st6" d="M855.8,650.5c-0.6-0.5-1.2-1-1.7-1.5C854.6,649.5,855.2,650,855.8,650.5z"/>
	<path class="st14" d="M717,833.6c1.4-0.5,2.7-1.1,4.1-1.6C719.7,832.5,718.4,833.1,717,833.6z"/>
	<path class="st14" d="M721,818c-0.3-0.3-0.7-0.7-1-1C720.4,817.3,720.7,817.7,721,818z"/>
	<path class="st20" d="M1232.8,731.6c1.1,2.8,2.1,5.6,3.2,8.3c-1.6,0-3.1,0-4.7,0.1c-0.4,0-0.8,0-1.2,0c-24.3,0-48.6,0-73,0
		c-1.5-0.1-2.9-0.2-4.4-0.2c-1.1-6.2,1-8.8,7.1-8.8c23.7,0,47.5,0,71.2,0C1231.7,731.2,1232.2,731.4,1232.8,731.6z"/>
	<path class="st14" d="M1232.8,731.6c-0.6-0.2-1.1-0.4-1.7-0.7c0.1-42.6,0.2-85.3,0.3-127.9c0-1.8,0.2-3.6,0.3-5.5
		c0-16.1,0-32.2,0-48.4c0.3,0,0.6,0,1,0c0.1,0.8,0.3,1.7,0.3,2.5c0,58.6,0,117.3,0,175.9C1233,729,1232.9,730.3,1232.8,731.6z"/>
	<path class="st13" d="M1068,443c2.1,8.1,4.2,16.1,6.3,24.2c0.4,1.6,0.5,3.2,0.8,4.8c-4.7-15.1-9.5-30.1-14-45.2
		c-0.7-2.4-0.2-5.1-0.3-7.6C1063.2,427.1,1065.6,435.1,1068,443z"/>
	<path class="st13" d="M1075.1,471.9c0.4,1,0.9,2,1.3,3C1075.9,474,1075.5,472.9,1075.1,471.9z"/>
	<path class="st14" d="M1234.6,476.2c1.1,1.7,3.3,3.7,3,5.1c-0.4,1.9-2.5,4.3-4.4,4.7c-3,0.8-4.7-1.9-4.2-4.6
		c0.4-1.9,2.2-3.6,3.4-5.4C1233.1,476.1,1233.8,476.2,1234.6,476.2z"/>
	<path class="st7" d="M946.1,346c8.5,20,19.8,39,22.4,61.1c0.4,3.3,0.4,6.6,0.5,9.9c-5.4,2.1-10.1,0.6-14.3-2.9
		c-2.7-2.2-5.4-4.4-7.8-6.9c-12.4-12.3-24.7-24.6-37-36.9c-1.3-1.3-3.1-2.2-4.7-3.3c-0.4-1.7-0.8-3.5-1.3-5.2
		c-2.1-8.1,2.8-14.5,11.2-14.7C925.4,346.7,935.7,346.3,946.1,346z"/>
	<path class="st15" d="M905.1,367c1.6,1.1,3.4,2,4.7,3.3c12.4,12.3,24.7,24.6,37,36.9c2.5,2.4,5.1,4.7,7.8,6.9
		c4.2,3.5,8.9,5,14.3,2.9c-0.6,6.7-1.3,13.3-1.9,20c-12.6,1.6-22.4-4-30.2-12.9c-10.5-11.8-20.7-24-30.5-36.5
		c-2.6-3.3-3.2-8-4.7-12.1c0.2-1.5,0.4-3.1,0.5-4.6C903.2,369.6,904.1,368.3,905.1,367z"/>
	<path class="st24" d="M945.1,343c-6.2-4.9-13-9.1-18.3-14.8c-4.2-4.4-6.5-10.6-9.6-16c-0.5-0.8-1.1-1.5-1.6-2.3
		c-0.2-1.7-0.4-3.3-0.5-5c0.1-2.3,0.1-4.5,0.2-6.8c8.3,11.8,19,20.2,31.9,22.9C946.4,328.8,945.7,335.9,945.1,343z"/>
	<path class="st5" d="M1003.9,316.2c-1.4-0.8-2.8-1.6-4.2-2.3c-0.3-2.6-0.5-5.2-0.8-7.9c0.4-12.2,0.8-24.4,1.1-36.6
		c0.1-6.5,1.4-8,8-8.5c-0.3,16-0.7,32-1,48.1c0,2.3,0.3,4.6,0.5,6.9c0,0,0,0,0,0C1006.3,316.1,1005.1,316.1,1003.9,316.2z"/>
	<path class="st6" d="M915.2,298.2c-0.1,2.3-0.1,4.5-0.2,6.8c-0.2,2.8-0.4,5.5-0.6,8.3c0,0,0.1,0,0.1,0c-0.5,0.5-0.9,0.9-1.4,1.4
		c-0.9,0.2-1.9,0.5-2.8,0.7c-0.5-0.4-1-0.9-1.5-1.3c0,0,0,0.1,0,0.1c-0.3-11.9-0.6-23.8-0.7-35.6c-0.1-5.8,0-11.6,0-17.4
		c6.2,0.3,6.9,0.9,6.9,6.9C915,278.1,915.1,288.1,915.2,298.2z"/>
	<path class="st0" d="M949.4,319.9c-2.9-5.6-2.1-9.7,2.6-15.2c5.8-6.8,16.3-10.5,23.3-8.1c4.9,1.7,7.5,5.2,7.5,10.6
		C969.4,299.6,965,301.3,949.4,319.9z"/>
	<path class="st24" d="M998.9,306c0.3,2.6,0.5,5.2,0.8,7.9c-2,2.4-4.1,4.8-6.1,7.2c-2.1-2.3-4.2-4.6-6.3-6.8
		C991.5,311.3,995.2,308.7,998.9,306z"/>
	<path class="st7" d="M1010.1,338.9c17.4,0,34.9,0.1,52.3,0.1c1.8,0,3.6,0,5.4,1c-18.9,0-37.9,0-56.8,0
		C1010.7,339.6,1010.4,339.3,1010.1,338.9z"/>
	<path class="st13" d="M915,347.1c10.3-0.8,20.5-1.6,30.8-2.4c0.1,0.4,0.1,0.9,0.2,1.3C935.7,346.3,925.4,346.7,915,347.1z"/>
	<path class="st18" d="M1020.3,374.8c11.7,0,23.4,0,35.1,0c0,0.5,0,0.9,0,1.4c-11.8,0-23.5,0-35.3,0
		C1020.2,375.7,1020.3,375.2,1020.3,374.8z"/>
	<path class="st18" d="M1016.9,350.1c10.4,0,20.8,0,31.2,0c0,0.3,0,0.7,0,1c-10.3,0-20.6,0-30.9,0
		C1017.1,350.8,1017,350.5,1016.9,350.1z"/>
	<path class="st17" d="M1018.6,355.2c4.6,0,9.1,0,13.7,0c0,0.6,0,1.2,0,1.8c-4.4,0-8.9,0-13.3,0
		C1018.9,356.4,1018.8,355.8,1018.6,355.2z"/>
	<path class="st17" d="M1013.9,344.1c5.6,0,11.1,0,16.7,0c0,0.5,0,1.1,0,1.6c-3,0-6.1-0.1-9.1,0c-2.2,0-4.4,0.3-6.6,0.4
		C1014.6,345.4,1014.2,344.7,1013.9,344.1z"/>
	<path class="st18" d="M1020,362c8.9,0,17.7,0,26.6,0c0,0.4,0,0.7,0,1.1c-8.8,0-17.7,0-26.5,0C1020.1,362.7,1020,362.4,1020,362z"/>
	<path class="st24" d="M945.6,343.9c-0.2-0.3-0.4-0.6-0.5-0.9C945.2,343.3,945.4,343.6,945.6,343.9z"/>
	<path class="st7" d="M1029.2,272.1c-0.6,2.7,0.3,4,3.3,3.9c4.9-0.2,9.9,0,14.9,0.9c-5.9,0-11.8,0-18.2,0c0,1.9,0,3.5,0,5.1
		c0,0.4,0,0.7,0,1.1c0,1.7-0.1,3.4-0.1,5.1c0,0.2,0,0.5,0,0.7c-0.1,3.1,0.4,6.3-0.3,9.2c-0.7,3.1-2.5,5.9-3.7,8.8l0,0
		c-2.6,0.1-5.2,0.2-7.8,0.2c0.3-1.4,0.6-2.8,0.8-4.2c0.6,0.7,1.2,1.5,1.7,2.2c1.4-3.2,3.8-6.2,4-9.4c0.6-7.6,0.3-15.3,0.2-23
		c0-1.2-0.7-3.5-1-3.4c-3.6,0.2-1.6-3.2-3-4.4c0-0.3,0-0.7-0.1-1c0.1-0.3,0.1-0.6,0-0.9c4.1-0.3,7.6,0.3,9.1,4.8
		C1029.1,269.3,1029.1,270.7,1029.2,272.1z"/>
	<path class="st17" d="M1074.9,399c0-34.8,0-69.7,0-104.5c0.7,0,1.3,0,2,0c0,34.8,0,69.7,0,104.5C1076.3,399,1075.6,399,1074.9,399z
		"/>
	<path class="st17" d="M1159,337.1c-19.6,0-39.2,0-58.7,0c0-0.4,0-0.7,0-1.1c19.6,0,39.2,0,58.8,0C1159,336.4,1159,336.7,1159,337.1
		z"/>
	<path class="st17" d="M1076.4,277.1c0,4.8,0,9.6,0,14.4c-0.5,0-1,0-1.4,0.1c0-4.9,0-9.7,0-14.6
		C1075.5,277.1,1075.9,277.1,1076.4,277.1z"/>
	<path class="st23" d="M1121.5,262.6c9-0.9,17.9-0.8,26.9,1.8c-8.9,0-17.9,0-26.8,0C1121.6,263.8,1121.5,263.2,1121.5,262.6z"/>
	<path class="st23" d="M1061.4,264.5c-6.9,0-13.8,0-20.8,0c0-0.3,0-0.6,0-1c6.9,0,13.8,0,20.8,0
		C1061.4,263.9,1061.4,264.2,1061.4,264.5z"/>
	<path class="st6" d="M1019.9,263.2c0.1,0.3,0,0.6,0,0.9c-0.9-0.7-1.9-1.5-2.8-2.2C1018,262.3,1019,262.7,1019.9,263.2z"/>
	<path class="st4" d="M1020,265c1.3,1.2-0.6,4.6,3,4.4c0.3,0,1,2.2,1,3.4c0.1,7.7,0.4,15.4-0.2,23c-0.3,3.2-2.6,6.3-4,9.4
		c-0.6-0.8-1.2-1.5-1.7-2.2c0-10.2-0.1-20.3,0.1-30.5C1018.1,270,1019.3,267.5,1020,265z"/>
	<path class="st23" d="M886.5,271.1c-28.6,0-57.1-0.1-85.7,0c-19.6,0.1-39.1,0.6-58.7,0.9c-2.8-0.7-2.5-2.2-1.1-4c3.2,0,6.5,0,9.7,0
		c15.8,0,31.6,0,48,0c0.1-2.5,0.3-4.8,0.4-7c33,0,66.1,0,99.1,0.1c-1,1-2,2.1-3.1,3.1C890.7,264.5,886.9,265.7,886.5,271.1z"/>
	<path class="st23" d="M739,263c0-0.7,0-1.3,0-2c0.6,0.7,1.3,1.3,1.9,2C740.3,263,739.6,263,739,263z"/>
	<path class="st7" d="M886.5,271.1c0.4-5.4,4.2-6.6,8.7-7c0.4,1.9,0.9,3.8,1.3,5.8c-2.4-0.2-3.6,0.5-3.5,3.3c0.2,7.5,0,15,0.2,22.4
		c0,1.4,1.1,2.8,1.7,4.3c-0.3,0-0.7,0.1-1,0.1c0.4,2.7,0.8,5.4,1.2,8.1c-5.2-2-10-5.2-15.9-4.3c-1-0.9-2-2.6-3.1-2.7
		c-12.3-0.2-24.5-0.2-36.8,0c-1.1,0-2.1,1.7-3.2,2.5c-4.5,0-9,0.3-13.4-0.1c-1.4-0.1-2.7-1.6-4-2.5c0.3-0.5,0.5-1,0.8-1.5
		c22.3,0,44.6,0,67.2,0C886.5,290,886.5,280.5,886.5,271.1z M830.8,301.8c0-0.2-0.1-0.3-0.1-0.5c-2.2,0-4.4,0-6.5,0
		c0,0.2,0,0.3,0,0.5C826.4,301.8,828.6,301.8,830.8,301.8z"/>
	<path class="st23" d="M901,316c0.3,2.1,0.9,4.2,0.9,6.3c0.2,16.2,0.2,32.4,0.3,48.6c-0.2,1.5-0.4,3.1-0.5,4.6
		c-1.2,0.2-2.5,0.3-3.7,0.5c0-20.4,0.1-40.8,0.1-61.1C899.1,315.2,900,315.6,901,316z"/>
	<path class="st6" d="M895,308.1c-0.4-2.7-0.8-5.4-1.2-8.1c0.3,0,0.7-0.1,1-0.1c-0.6-1.4-1.7-2.8-1.7-4.3c-0.2-7.5,0-15-0.2-22.4
		c-0.1-2.8,1.1-3.5,3.5-3.3c0.7-0.9,1.5-1.8,2.6-3.2c-0.8,14.3,1.9,28.4-3,41.9C895.7,308.5,895.3,308.3,895,308.1z"/>
	<path class="st0" d="M898.2,261.1c-33,0-66.1,0-99.1-0.1c-0.1-0.4-0.1-0.8-0.2-1.2c7.3-0.1,14.6-0.2,21.9-0.2
		c25.3-0.1,50.6-0.1,75.9-0.1C897.2,259.5,897.7,260.5,898.2,261.1z"/>
	<path class="st3" d="M749.8,266.9c-1.9,0-3.5,0-6.6,0c1.4-2.1,2-4.2,3.1-4.5C749.2,261.8,750.4,263.5,749.8,266.9z"/>
	<ellipse class="st23" cx="782" cy="263.1" rx="9.1" ry="0.7"/>
	<path class="st21" d="M819,317.9c0-0.5,0-1.1,0-1.6c0.9-1.4,1.8-2.9,3.3-5.3c2.8,0.2,7.2,0.6,11.7,1c2.3,1.5,4.5,2.3,6-0.9
		c8,0,16,0,24,0.1c0,1,0,1.9,0,2.9c-3.3,0-6.5,0-9.8,0c-0.1,0.6-0.2,1.2-0.3,1.8c1.7,0.8,3.5,1.7,5.2,2.5c1,0.9,1.9,2.3,3,2.5
		c2.2,0.4,4.6,0.1,6.9,0.1c-3.8,0.2-7.6,0.7-11.3,0.6c-2.5-0.1-4.9-1-7.4-1.6c-5.8-0.3-11.7-0.7-17.5-1
		C828.2,318.6,823.6,318.3,819,317.9z"/>
	<path class="st7" d="M820.3,338.3c23.4,0,46.5,0,69.6,0.1c1.4,0,2.7,1.6,4,2.4c-0.2,0.4-0.4,0.9-0.6,1.3c-9,0-17.9,0-26.9,0
		c-14.1,0-28.2,0-42.4,0.1C821.7,342.2,819,342.6,820.3,338.3z"/>
	<path class="st18" d="M878.1,379.3c-1.3,1.3-2.7,2.5-4,3.8c-1.6-0.3-3.1-0.7-4.7-0.7c-15.7-0.1-31.3-0.1-47-0.1c-2.6,0-4.8,0-3.8-4
		c1-0.1,2.1-0.3,3.2-0.3c16.5,0.1,33,0.1,49.5,0.3C873.6,378.2,875.8,378.9,878.1,379.3z"/>
	<path class="st21" d="M861,350.2c0.7,1.2,1.3,2.5,2,3.7c-2.6,0.1-5.2,0.1-7.8,0.2c-7.1-0.4-14.2-0.7-21.2-1.1
		c-6.4-0.6-12.8-1.3-19.1-1.9c1.8-0.4,3.6-0.8,5.4-1.3c4.4,0.2,8.9,0.5,13.3,0.3c0.7,0,1.4-1.9,2.1-3c1.9,0,3.9,0.1,5.8,0.1
		c-1.2,3.2,1.1,2.7,2.9,2.7C849.9,350.1,855.5,350.1,861,350.2z"/>
	<path class="st21" d="M792,365c-0.6,0.7-1.1,1.4-1.7,2.1c1,0.8,1.8,1.4,2.7,2c-3.8-0.4-7.6-0.8-11.4-1.2c-0.2-4.8-4.1-2.2-7.4-3.5
		c2.4-1.3,4.1-2.2,6.2-3.4c-0.1-0.6-0.3-1.7-0.6-3c2.6,0,4.9,0,7.2,0c0.7,0.3,1.4,0.9,2.2,0.9c7.6,0.4,15.2,0.7,22.7,1.1
		c-4.7,0.3-9.3,0.6-14,1c-2,0.2-4,0.7-6.1,1C792,363,792,364,792,365z"/>
	<path class="st16" d="M865.1,329.5c1.3,0.2,2.7,0.4,4,0.6c0.1,0.3,0,0.6-0.1,0.9c-16.9,0.3-33.8,0.6-50.6,0.8
		c-0.8,0-1.5-1.8-2.3-2.7c1.6,0,3.3,0.1,4.9,0.1c7.7,0.1,15.3,0.2,23,0.3C851,329.5,858,329.5,865.1,329.5z"/>
	<path class="st18" d="M835.9,303.7c1.1-0.9,2.1-2.5,3.2-2.5c12.3-0.2,24.5-0.2,36.8,0c1,0,2.1,1.7,3.1,2.7
		C864.7,303.7,850.3,303.7,835.9,303.7z"/>
	<path class="st16" d="M815.4,290.8c17.8,0,35.8,0,54.9,0C864.1,294.3,818.1,293.6,815.4,290.8z"/>
	<path class="st16" d="M800,280.2c0.6-0.2,1.3-0.3,1.9-0.5c0.5,0,1-0.1,1.4-0.1c0.8,0,1.7,0,2.5,0c0.4,0,0.8,0,1.2,0
		c12.4,0,24.7,0,37.1,0c0,0.3,0,0.5,0,0.8c-11.3,0.4-22.7,0.9-34,1.2c-3.3,0.1-6.5-0.3-9.8-0.5C800.1,280.7,800,280.5,800,280.2z"/>
	<path class="st16" d="M873.8,324.5c2.8,1.6,0.9,2.2-0.6,2.3c-2.7,0.3-5.5,0.2-8.2,0.3c-7,0-14,0-21,0c-0.7-0.6-1.4-1.1-2-1.7
		c1.1-0.4,2.2-1.2,3.3-1.2c8.4-0.1,16.9,0,25.3,0.1C871.7,324.3,872.7,324.4,873.8,324.5z"/>
	<path class="st16" d="M809.1,273.9c8.5-1.8,28.4-1.1,31.3,1.7c-10.8,0-21.1,0-31.4,0C809,275,809,274.5,809.1,273.9z"/>
	<path class="st24" d="M812,360c-7.6-0.4-15.2-0.7-22.7-1.1c-0.7,0-1.5-0.6-2.2-0.9c1.2-0.3,2.5-0.9,3.7-0.9
		c9.1,0,18.2,0.1,27.3,0.2c0,0.6,0,1.3,0,1.9c0,0.2-0.1,0.5-0.2,0.7C815.9,359.9,813.9,360,812,360z"/>
	<path class="st16" d="M870.7,287.4c-9.5,0-19,0-29.2,0C844.8,284.1,866.3,284,870.7,287.4z"/>
	<path class="st11" d="M873.6,279.8c-6.5,2.5-13.3,0.2-20,1c-0.2-0.4-0.4-0.8-0.7-1.2c1.1-1.1,2.3-3.2,3.4-3.2
		c5.7,0.1,11.4,0.7,17.1,1.2C873.5,278.4,873.6,279.1,873.6,279.8z"/>
	<path class="st24" d="M819,317.9c4.6,0.4,9.2,0.8,13.8,1.2c0.1,0.3,0.2,0.6,0.1,1c-8,0-15.9,0.1-23.9,0.1c-0.7,0-1.4-0.1-2.1-0.1
		c-3.6,0-7.2,0-10.8-0.2c-1.1-0.1-2.1-1.2-3.1-1.8c0.7,0,1.3,0,2-0.1C803,317.9,811,317.9,819,317.9z"/>
	<path class="st16" d="M836,285.2c-2.7,3.8-20.1,3.8-25.5,0C819.5,285.2,827.5,285.2,836,285.2z"/>
	<path class="st16" d="M818,346.3c-5-0.1-10-0.2-15-0.3c-0.7,0-1.3,0-2,0c-0.7,0-1.3,0-2,0c-0.7,0-1.3,0-2,0
		c-0.6-0.6-1.3-1.2-1.9-1.7c0.6-0.5,1.1-1.3,1.7-1.3c6.9,0,13.8,0,20.7,0.2c0.6,0,1.1,1.8,1.7,2.8
		C818.8,346.2,818.4,346.2,818,346.3z"/>
	<path class="st16" d="M795,304c5.9,0,11.8,0.3,17.7,0c3.6-0.2,5.4,0.9,5.6,4.5c0,0.4,0.3,0.6,0.7,0.6l0,0c0-0.4-0.2-0.6-0.6-0.5
		c-2-0.2-3.9-0.4-5.9-0.6c-0.5-0.2-1-0.4-1.4-0.6c-2.9-0.1-5.8-0.2-8.7-0.3c-1.8-0.1-3.5-0.3-5.3-0.4c-0.8-0.5-1.7-0.9-2.5-1.4
		C794.7,304.7,794.8,304.3,795,304z"/>
	<path class="st16" d="M818.7,385.8c-7.7,0-14.4,0-21.2-0.1c-0.5,0-1.4-1-1.4-1.5c0.1-0.6,0.9-1.5,1.4-1.5c6.3,0,12.6,0.1,18.9,0.4
		C817.1,383.1,817.6,384.3,818.7,385.8z"/>
	<path class="st16" d="M861,350.2c-5.5-0.1-11.1-0.1-16.6-0.2c-1.7,0-4,0.5-2.9-2.7c7.5,0,14.9,0.1,22.4,0.1c0,0.6,0,1.3,0.1,1.9
		C863,349.6,862,349.9,861,350.2z"/>
	<path class="st16" d="M859.1,318.3c-1.7-0.8-3.5-1.7-5.2-2.5c0.1-0.6,0.2-1.2,0.3-1.8c3.3,0,6.5,0,9.8,0c3.1,0.2,6.1,0.5,10.7,0.8
		c-2.8,1.2-4.2,1.8-5.6,2.4C865.8,317.6,862.4,317.9,859.1,318.3z"/>
	<path class="st16" d="M855.2,354.1c2.6-0.1,5.2-0.1,7.8-0.2c1,0.1,2,0.2,3,0.3c0.1,1.7,0.2,3.4,0.2,5.2c-3.7,0.2-7.4,0.4-11.2,0.6
		c-0.1-0.7-0.2-1.3-0.2-2c0-1,0-1.9-0.1-2.9C854.9,354.8,855.1,354.4,855.2,354.1z"/>
	<path class="st16" d="M814.1,363.1c7.3,0.1,14.7,0.1,22,0.2c0,0.9,0,1.8,0,2.7c-7.4,0-14.8,0-22.2,0
		C813.9,365.1,814,364.1,814.1,363.1z"/>
	<path class="st11" d="M804.1,377.8c-6.3,0.1-12.7,0.2-19,0.2c-0.9,0-1.9-0.8-2.8-1.3c0.9-0.6,1.8-1.7,2.8-1.8
		c6.4-0.2,12.7-0.1,19.1-0.1C804.1,375.9,804.1,376.8,804.1,377.8z"/>
	<path class="st16" d="M810.3,392.4c-7.1,0-14.2,0-21.4,0c0-0.5,0-1.1,0-1.6c7.1-1.3,14.3-0.8,21.5,0.1
		C810.4,391.4,810.4,391.9,810.3,392.4z"/>
	<path class="st21" d="M844,327c7,0,14,0,21,0c0,0.8,0,1.6,0,2.4c-7,0-14.1,0-21.1,0C844,328.7,844,327.9,844,327z"/>
	<path class="st16" d="M794.2,310.5c4.3,0.3,8.6,0.5,12.9,0.9c1,0.1,1.8,1.3,2.7,2c-0.9,0.5-1.9,1.4-2.8,1.3c-4.5-0.2-9-0.5-13.4-1
		c-0.3,0-0.5-1.9-0.7-2.9C793.4,310.7,793.8,310.6,794.2,310.5z"/>
	<path class="st16" d="M834,311.9c-4.4-0.4-8.9-0.8-11.7-1c-1.5,2.5-2.4,3.9-3.3,5.3c-0.3-2-0.6-4-1-6c0.3-0.4,0.7-0.8,1-1.2
		c0,0,0,0,0,0c0.4-0.3,0.9-0.6,1.3-0.9c4.4,0.3,8.7,0.5,13.1,0.9c0.8,0.1,1.6,0.7,2.4,1C835.2,310.6,834.6,311.3,834,311.9z"/>
	<path class="st16" d="M815,327.5c-1.1-1-2.2-2.1-3.6-3.3c1.5-0.3,2.7-0.5,3.9-0.8c2.5,0,5-0.1,7.4-0.1c4.4,0.3,8.8,0.6,13.2,0.9
		c0,0.8,0,1.5,0,2.3c-4.9,0-9.9,0-14.8,0C819,326.8,817,327.1,815,327.5z"/>
	<path class="st16" d="M864,311.1c-8,0-16,0-24-0.1c0.6-0.7,1.2-2,1.8-2c6.7-0.1,13.4-0.1,20.2,0.1
		C862.7,309.1,863.4,310.4,864,311.1z"/>
	<path class="st11" d="M809.1,273.9c0,0.6-0.1,1.1-0.1,1.7c-5.7,0.1-11.3,0.3-17,0.4c-1.3-0.6-2.6-1.2-3.8-1.8
		C795.1,274.1,802.1,274,809.1,273.9z"/>
	<path class="st16" d="M818,359.2c0-0.6,0-1.3,0-1.9c6.7,0.2,13.4,0.4,20.1,0.7c-0.1,0.6-0.3,1.2-0.4,1.8c-6.3,0-12.6-0.1-18.9-0.1
		C818.6,359.5,818.3,359.3,818,359.2z"/>
	<path class="st24" d="M794.2,310.5c-0.4,0.1-0.8,0.3-1.3,0.4c-0.6-0.3-1.1-0.7-1.7-0.9c-5.1-1.2-10.1-2.4-15.2-3.5
		c0.1-0.7,0.1-1.4,0.2-2c2.6-0.2,5.2-0.4,8.1-0.6c-0.6,1.4-1.1,2.3-2,4.2c3.1,0,5.5-0.3,7.8,0.1
		C791.6,308.3,792.9,309.6,794.2,310.5z"/>
	<path class="st16" d="M835.7,347.2c-0.7,1-1.4,3-2.1,3c-4.4,0.1-8.9-0.2-13.3-0.3c0,0,0,0,0,0c0.2-0.6,0.4-1.3,0.5-1.9
		C825.7,347.7,830.7,347.4,835.7,347.2z"/>
	<path class="st16" d="M871.2,365.1c-8.9,0.4-17.9,0.8-26.8,1.1c-0.5,0-0.9-0.8-1.4-1.2C852.4,365,861.8,365,871.2,365.1z"/>
	<path class="st11" d="M795.2,350.1c0.6,0,1.2-0.1,1.7-0.1c2,0,4,0,6-0.1c1.3,0.7,2.5,1.3,3.8,2c-1.3,0.4-2.5,1.2-3.8,1.3
		c-3.7,0.2-7.4,0.1-11.1,0.1c-0.1-0.5-0.1-1-0.2-1.5c0.8-0.4,1.5-0.7,2.2-1.1C794.5,350.5,794.9,350.3,795.2,350.1z"/>
	<path class="st16" d="M780.9,296.3c4.2,0,8.4,0,13.9,0c-3.8,4.5-7.9,2.1-11.3,2.6c-1,0.2-2.3-0.9-3.4-1.3
		C780.4,297.2,780.6,296.7,780.9,296.3z"/>
	<path class="st24" d="M814.8,351.1c6.4,0.6,12.8,1.3,19.1,1.9c0,0.3,0.1,0.7,0.1,1c-0.4,0.1-0.8,0.1-1.1,0.2c-0.6,0-1.3,0-1.9,0
		c-0.7,0-1.4,0-2.1,0c-0.3-0.1-0.6-0.1-1,0c-4.9-0.1-9.9-0.2-14.8-0.3c0.1-0.9,0.1-1.8,0.2-2.7C813.8,351.1,814.3,351.1,814.8,351.1
		z"/>
	<path class="st21" d="M837.7,359.8c0.1-0.6,0.3-1.2,0.4-1.8c2.5-0.5,6.1,1.6,6.9-2.9c2,0,4,0,6.1,0.1c-0.9,5.2-5.7,4.3-9.1,5.5
		C840.8,361.1,839.1,360.1,837.7,359.8z"/>
	<path class="st11" d="M820.8,394.5c6.3,0,12.6,0,18.8,0c0,0.3,0,0.6,0.1,0.9c-6.3,0-12.6,0-18.8,0
		C820.8,395.1,820.8,394.8,820.8,394.5z"/>
	<path class="st7" d="M749.5,391.7c4.7,0.6,8.7,1.2,13.9,1.9C752.2,396.2,750.4,396,749.5,391.7z"/>
	<path class="st9" d="M834.1,369.3c2.3,0,4.6,0,6.9,0c2.1,0.2,4.2,0.6,6.3,0.7c6.2,0.3,12.5,0.5,18.7,0.7
		c-10.6,0.1-21.3,0.1-31.9,0.2C834.1,370.4,834.1,369.9,834.1,369.3z"/>
	<path class="st16" d="M866,370.7c-6.2-0.2-12.5-0.4-18.7-0.7c-2.1-0.1-4.2-0.4-6.3-0.7c10.3,0,20.7,0,31,0c0,0.3,0.1,0.6,0.1,0.9
		C870.1,370.4,868,370.6,866,370.7z"/>
	<path class="st20" d="M859.1,318.3c3.3-0.4,6.7-0.7,10-1.1c0.9,0.5,1.8,1,3,1.7c-1.2,0.8-2.2,1.5-3.1,2.1c-2.3,0-4.7,0.3-6.9-0.1
		C861,320.7,860.1,319.2,859.1,318.3z"/>
	<path class="st11" d="M791.9,289.4c0.2,0.9,0.3,1.7,0.5,2.6c-3.9-0.3-7.7-0.6-11.6-1c-0.1,0-0.2-0.9-0.4-1.9c3.6,0,6.9,0,10.3,0
		C791.1,289.2,791.5,289.3,791.9,289.4z"/>
	<path class="st20" d="M792,365c0-1,0-2,0-2.9c0.6,0,1.3,0,1.9,0c0.4,0.6,0.9,1.3,1.3,1.9c2.3,1.9,4.6,3.8,6.9,5.7
		c-0.2,0.3-0.3,0.7-0.5,1c-2,0-4,0-6,0c-0.4-0.3-0.7-0.7-1.1-1c1-0.4,1.9-0.8,3.4-1.4C795.7,367,793.8,366,792,365z"/>
	<path class="st16" d="M794.7,337.5c-4.9,0-9,0-13.1,0C783.6,334.4,789.6,334.2,794.7,337.5z"/>
	<path class="st11" d="M780.8,328.4c3.9,0,7.8,0,11.7,0c0.1,0.6,0.2,1.2,0.3,1.9c-2.3,0.3-4.6,0.9-7,0.8c-1.8,0-3.6-0.9-5.4-1.4
		C780.6,329.3,780.7,328.8,780.8,328.4z"/>
	<path class="st16" d="M834.1,369.3c0,0.5,0,1.1,0,1.6c-5.7,0.2-11.3,0.2-17-0.1c0-0.5,0.1-1,0.1-1.5
		C822.9,369.3,828.5,369.3,834.1,369.3z"/>
	<path class="st24" d="M788.1,274.2c1.3,0.6,2.6,1.2,3.8,1.8c-5.8-0.1-11.6-0.1-17.4-0.3c-0.2,0-0.5-0.4-1.7-1.5
		C778.6,274.2,783.4,274.2,788.1,274.2z"/>
	<path class="st16" d="M781.1,343.1c3.4,0.1,6.9,0.2,10.3,0.4c0.2,0,0.3,0.5,0.4,0.8c-3.8,2.3-9.3,2.2-11.2-0.2
		C780.8,343.7,781,343.4,781.1,343.1z"/>
	<path class="st16" d="M781.5,367.9c3.8,0.4,7.6,0.8,11.4,1.2c-1.4,1.9-10.1,3.1-11.7,1.4C780.9,370,781.4,368.8,781.5,367.9z"/>
	<path class="st11" d="M866.2,359.4c-0.1-1.7-0.2-3.4-0.2-5.2c2.1,0,4.2,0,6.3,0C873.2,359.8,869.5,359.3,866.2,359.4z"/>
	<path class="st24" d="M790.3,319.4c-4.9,0-9.7,0-14.6,0c0-0.3,0-0.6-0.1-0.8c4.9,0,9.7,0,14.6,0
		C790.3,318.8,790.3,319.1,790.3,319.4z"/>
	<path class="st18" d="M832.9,320c0-0.3,0-0.6-0.1-1c5.8,0.3,11.7,0.7,17.5,1c-4.3,0.3-8.6,0.6-12.9,0.8c-0.4-0.2-0.9-0.3-1.3-0.5
		C835,320.3,834,320.1,832.9,320z"/>
	<path class="st17" d="M764.4,321.6c-4.7,0-9.3,0-14,0c0-0.3,0-0.7,0-1c4.7,0,9.3,0,14,0C764.4,320.9,764.4,321.3,764.4,321.6z"/>
	<path class="st17" d="M764.4,361.8c-4.6,0-9.3,0-13.9,0c0-0.3,0-0.7,0-1c4.6,0,9.3,0,13.9,0C764.4,361.1,764.4,361.4,764.4,361.8z"
		/>
	<path class="st16" d="M835.9,389.8c-4.9,0-9.8,0-14.7,0c0-0.5,0-0.9,0-1.4c4.9,0,9.8,0,14.7,0C835.8,388.8,835.9,389.3,835.9,389.8
		z"/>
	<path class="st24" d="M793.9,280.9c-4.2,0-8.3,0-12.5,0c0-0.5,0-1,0-1.5c4.5,0,8.9,0,13.4,0C794.5,279.9,794.2,280.4,793.9,280.9z"
		/>
	<path class="st9" d="M871.2,365.1c-9.4,0-18.8-0.1-28.2-0.1c1-0.3,1.9-0.9,2.9-0.9c8.4-0.1,16.8,0,25.2,0c0.1,0,0.4,0.2,0.4,0.3
		C871.5,364.6,871.3,364.8,871.2,365.1z"/>
	<path class="st17" d="M764.1,378.5c-4.5,0-9.1,0-13.6,0c0-0.3,0-0.6,0-0.9c4.5,0,9.1,0,13.6,0C764.2,378,764.1,378.2,764.1,378.5z"
		/>
	<path class="st17" d="M750.6,337.4c4.3,0,8.6,0,12.9,0c0,0.3,0,0.6,0,1c-4.3,0-8.6,0-12.9,0C750.6,338,750.6,337.7,750.6,337.4z"/>
	<path class="st16" d="M785.6,392.5c-3.9,0-7.8,0-11.7,0c0-0.3,0-0.6-0.1-0.9c3.9,0,7.8,0,11.7,0
		C785.6,391.9,785.6,392.2,785.6,392.5z"/>
	<path class="st8" d="M851,355.1c-2,0-4,0-6.1-0.1c-3.6-0.3-7.3-0.7-10.9-1c0-0.3-0.1-0.7-0.1-1c7.1,0.4,14.2,0.7,21.2,1.1
		c-0.2,0.3-0.3,0.7-0.5,1C853.5,355.1,852.3,355.1,851,355.1z"/>
	<path class="st21" d="M807,320c0.7,0,1.4,0.1,2.1,0.1c0,1.2,0,2.5,0,4.1c-2.4-0.3-4.7-0.6-6.9-0.8c0-0.4-0.1-0.9-0.1-1.3
		C803.7,321.4,805.3,320.7,807,320z"/>
	<path class="st21" d="M814.1,363.1c-0.1,1-0.1,1.9-0.2,2.9c-2.1-0.5-4.3-1.1-6.9-1.7C809.3,361.1,811.5,361.4,814.1,363.1z"/>
	<path class="st21" d="M803,349.9c-2,0-4,0-6,0.1c0-1.3,0-2.6,0-3.9c0.7,0,1.3,0,2,0c0.7,0,1.3,0,2,0c0.7,0,1.3,0,2,0
		C803,347.3,803,348.6,803,349.9z"/>
	<path class="st21" d="M815,327.5c2-0.3,4-0.7,6.1-1c0,0.9,0,1.8-0.1,2.7c-1.6,0-3.3-0.1-4.9-0.1C815.7,328.5,815.3,328,815,327.5z"
		/>
	<path class="st21" d="M800.6,298.1c-1.7,0.2-3.5,0.4-5.2,0.6c-0.1-0.6-0.1-1.3-0.2-1.9c1.7-0.2,3.5-0.4,5.2-0.7
		C800.4,296.7,800.5,297.4,800.6,298.1z"/>
	<path class="st21" d="M820.8,347.9c-0.2,0.6-0.4,1.3-0.5,1.9c-2,0-3.9,0-5.6,0c1.1-1.1,2.2-2.3,3.4-3.5c0.4-0.1,0.8-0.2,1.2-0.3
		C819.7,346.7,820.2,347.3,820.8,347.9z"/>
	<path class="st21" d="M813.4,351.2c-0.1,0.9-0.1,1.8-0.2,2.7c-1.6-0.5-3.2-1.1-4.7-1.6c0-0.4,0.1-0.8,0.1-1.2
		C810.1,351.2,811.8,351.2,813.4,351.2z"/>
	<path class="st21" d="M795.3,290.7c1.4,0.2,2.8,0.4,4.2,0.6c-0.1,0.4-0.1,0.9-0.2,1.3c-1.4-0.2-2.8-0.3-4.2-0.5
		C795.2,291.7,795.2,291.2,795.3,290.7z"/>
	<path class="st24" d="M800,280.2c0.1,0.3,0.2,0.5,0.3,0.8c-1.7,0-3.5,0-5.2,0.1c1-0.4,1.9-0.8,2.9-1.3
		C798.6,280,799.3,280.1,800,280.2z"/>
	<path class="st21" d="M822.7,323.3c-2.5,0-5,0.1-7.4,0.1C817.7,323.3,820.2,323.3,822.7,323.3z"/>
	<path class="st21" d="M795,304c-0.1,0.3-0.3,0.7-0.4,1c-1.8,0.3-3.7,0.7-5.5,1c-0.1-0.3-0.1-0.6-0.2-0.9
		C790.9,304.8,793,304.4,795,304z"/>
	<path class="st21" d="M776.8,345.3c-0.2-0.9-0.3-1.8-0.5-2.7c0.3-0.1,0.6-0.2,0.9-0.2c0.3,0.9,0.5,1.7,0.8,2.6
		C777.6,345.1,777.2,345.2,776.8,345.3z"/>
	<path class="st16" d="M797.9,279.8c-1,0.4-1.9,0.8-2.9,1.3c-0.4,0-0.7-0.1-1.1-0.1c0.3-0.5,0.6-1,0.9-1.5
		C795.9,279.5,796.9,279.7,797.9,279.8z"/>
	<path class="st21" d="M797.1,306.4c1.8,0.1,3.5,0.3,5.3,0.4C800.6,306.7,798.9,306.6,797.1,306.4z"/>
	<path class="st21" d="M854.8,358c0.1,0.7,0.2,1.3,0.2,2c-0.6-0.4-1.1-0.7-1.7-1.1C853.9,358.6,854.3,358.3,854.8,358z"/>
	<path class="st21" d="M795.2,364c-0.4-0.6-0.9-1.3-1.3-1.9c0.8,0.3,1.6,0.6,2.4,0.9C795.9,363.3,795.6,363.7,795.2,364z"/>
	<path class="st21" d="M873.8,324.5c-1.1-0.1-2.2-0.2-3.3-0.3C871.6,324.3,872.7,324.4,873.8,324.5z"/>
	<path class="st21" d="M795,317.9c-0.7,0-1.3,0-2,0.1C793.7,317.9,794.3,317.9,795,317.9z"/>
	<path class="st21" d="M781.1,343.1c-0.2,0.3-0.3,0.6-0.5,0.9c-0.3-0.3-0.6-0.5-0.9-0.8C780.2,343.2,780.7,343.1,781.1,343.1z"/>
	<path class="st21" d="M831,354.2c0.6,0,1.3,0,1.9,0C832.3,354.2,831.7,354.2,831,354.2z"/>
	<path class="st21" d="M836.1,320.4c0.4,0.2,0.9,0.3,1.3,0.5C836.9,320.7,836.5,320.5,836.1,320.4z"/>
	<path class="st21" d="M818,359.2c0.3,0.1,0.6,0.3,0.8,0.5c-0.3,0.1-0.7,0.1-1,0.2C817.9,359.7,818,359.5,818,359.2z"/>
	<path class="st24" d="M803.3,279.6c-0.5,0-1,0.1-1.4,0.1C802.3,279.7,802.8,279.6,803.3,279.6z"/>
	<path class="st24" d="M806.9,279.5c-0.4,0-0.8,0-1.2,0C806.1,279.6,806.5,279.6,806.9,279.5z"/>
	<path class="st21" d="M791.9,289.4c-0.4-0.1-0.8-0.2-1.1-0.3C791.1,289.2,791.5,289.3,791.9,289.4z"/>
	<path class="st21" d="M795.2,350.1c-0.4,0.2-0.8,0.4-1.2,0.5C794.5,350.5,794.9,350.3,795.2,350.1z"/>
	<path class="st21" d="M819,309c-0.3,0.4-0.7,0.8-1,1.2c0.1-0.6,0.2-1.1,0.4-1.7C818.8,308.4,819,308.6,819,309z"/>
	<path class="st21" d="M811,307.2c0.5,0.2,1,0.4,1.4,0.6C812,307.6,811.5,307.4,811,307.2z"/>
	<path class="st21" d="M820.3,308.1c-0.4,0.3-0.9,0.6-1.3,0.9c-0.4,0-0.6-0.2-0.7-0.6C819,308.3,819.6,308.2,820.3,308.1z"/>
	<path class="st21" d="M869,331c0.1-0.3,0.1-0.6,0.1-0.9c0.1,0.2,0.2,0.5,0.3,0.7C869.4,330.8,869.1,330.9,869,331z"/>
	<path class="st21" d="M828,354.2c0.3-0.1,0.6-0.1,1,0C828.7,354.2,828.3,354.2,828,354.2z"/>
	<path class="st17" d="M1037,381.9c7.7-0.3,15.4-0.7,23.1-0.9c1.5-0.1,3,0.2,4.5,0.3c0,0.6,0,1.1-0.1,1.7c-8.2,0-16.5,0-24.8,0
		C1038.8,382.7,1037.9,382.3,1037,381.9z"/>
	<path class="st14" d="M934.1,655.5c3.1,0,6.2,0,9.3,0c0,0.3,0,0.6,0,0.9c-3.1-0.2-6.2-0.4-9.3-0.5
		C934.1,655.7,934.1,655.6,934.1,655.5z"/>
	<path class="st14" d="M1093.2,395.4c-4.3,0-8.4,0-12.8,0c0-4.7,0-9.3,0-14.1c4.1,0,8.3,0,12.8,0
		C1093.2,385.9,1093.2,390.6,1093.2,395.4z"/>
	<path class="st14" d="M1080.4,333.6c0-4.6,0-9.1,0-13.8c4.2,0,8.4,0,12.9,0c0,4.6,0,9.1,0,13.8
		C1089.2,333.6,1085.1,333.6,1080.4,333.6z"/>
	<path class="st14" d="M1093.4,291.8c-4.5,0-8.6,0-12.9,0c0-4.5,0-8.9,0-13.6c4.3,0,8.4,0,12.9,0
		C1093.4,282.7,1093.4,287.1,1093.4,291.8z"/>
	<path class="st11" d="M1118.5,365.9c-5.3,0-10.6,0.1-15.9-0.1c-1.1,0-2.2-1.2-3.3-1.8c1.1-0.6,2.3-1.7,3.4-1.7
		c10.6-0.1,21.2,0,31.9,0.2c1.1,0,2.3,1.1,3.4,1.7c-1.2,0.6-2.3,1.7-3.5,1.7C1129.1,366.1,1123.8,366,1118.5,365.9
		C1118.5,366,1118.5,365.9,1118.5,365.9z"/>
	<path class="st16" d="M1137.9,302.4c-1.3,0.5-2.6,1.4-3.8,1.3c-10.3-0.1-20.6-0.3-30.9-0.6c-1.1,0-2.1-0.9-3.1-1.4
		c0.7-0.5,1.4-1.5,2.1-1.5c11.7-0.1,23.4-0.1,35.1-0.1C1137.5,300.8,1137.7,301.6,1137.9,302.4z"/>
	<path class="st16" d="M1138,385.8c-12.7,0-25,0-37.4-0.1c-0.3,0-0.7-1.2-1-2C1108.1,381.6,1135.9,382.8,1138,385.8z"/>
	<path class="st17" d="M1154.4,375.5c-18.3,0-36.5,0-54.8,0c0-0.3,0-0.7,0-1c18.3,0,36.6,0,54.9,0
		C1154.5,374.9,1154.5,375.2,1154.4,375.5z"/>
	<ellipse class="st17" cx="1127.8" cy="312.2" rx="38.7" ry="0.7"/>
	<path class="st17" d="M1007.1,326.4c20.4,0,40.8,0,61.3,0c0,0.3,0,0.6,0,1c-20.4,0-40.8,0-61.2,0
		C1007.1,327,1007.1,326.7,1007.1,326.4z"/>
	<ellipse class="st17" cx="1043" cy="314" rx="33.2" ry="0.7"/>
	<path class="st14" d="M1093.8,361.2c0,4.3,0,8.4,0,12.7c-4.4,0-8.7,0-13.1,0c0-4.3,0-8.4,0-12.7
		C1085,361.2,1089.1,361.2,1093.8,361.2z M1091.9,363.3c-3.2,0-5.9,0-8.7,0c0,2.9,0,5.6,0,8.2c3.1,0,5.9,0,8.7,0
		C1091.9,368.7,1091.9,366.2,1091.9,363.3z"/>
	<path class="st21" d="M1094,346.5c0,1.3,0,2.6,0,4c-3.9,0.2-7.8,0.5-11.9,0.7c0.2-3.3,0.4-5.7,0.5-8.3c3.2,0,6,0,7.6,0
		C1092,344.5,1093,345.5,1094,346.5z"/>
	<path class="st17" d="M1155.6,350.7c-18.5,0-37,0-55.5,0c0-0.3,0-0.6,0-0.9c18.5,0,37,0,55.5,0
		C1155.6,350.1,1155.6,350.4,1155.6,350.7z"/>
	<path class="st16" d="M1122.7,281.3c-1,0.6-2.1,1.8-3.1,1.8c-5.8,0.1-11.6,0.1-17.3-0.1c-1,0-2-1.1-3-1.7c1.1-0.7,2.1-1.9,3.2-1.9
		c6.4-0.2,12.9-0.1,19.3-0.1C1122.1,280,1122.4,280.6,1122.7,281.3z"/>
	<path class="st16" d="M1122.4,344.4c-0.9,0.7-1.8,2-2.7,2c-5.1,0.3-10.3,0.3-15.4,0.2c-0.9,0-1.8-1.3-2.7-2
		c0.9-0.5,1.8-1.5,2.7-1.5c5.8-0.1,11.6-0.1,17.4-0.1C1121.8,343.5,1122.1,343.9,1122.4,344.4z"/>
	<path class="st18" d="M1100.6,307.4c18.3,0,36.5,0,54.8,0c0,0.3,0,0.6,0,0.9c-18.3,0-36.5,0-54.8,0
		C1100.6,308,1100.6,307.7,1100.6,307.4z"/>
	<path class="st16" d="M1107,332.6c-1,0-2.1,0.2-3-0.1c-1.5-0.5-2.8-1.3-4.2-1.9c1.4-0.8,2.7-2.1,4.2-2.3c2.8-0.4,5.6-0.4,8.4-0.1
		c0.9,0.1,1.7,1.3,2.5,2.1c-0.8,0.7-1.6,1.9-2.6,2.1c-1.7,0.3-3.6,0.1-5.4,0.1C1107,332.5,1107,332.6,1107,332.6z"/>
	<path class="st14" d="M1094,346.5c-1-1-2.1-2-3.8-3.6c-1.6,0-4.4,0-7.6,0c-0.2,2.5-0.3,5-0.5,8.3c4.1-0.3,8-0.5,11.9-0.7
		c0.1,2,0,3.5-2.9,3.3c-3.3-0.3-6.6-0.1-10.3-0.1c0-4.2,0-8.3,0-12.7c4.1,0,8.4,0,13.2,0C1094,342.9,1094,344.7,1094,346.5z"/>
	<path class="st14" d="M1094,300.9c-3.8,0-7.6,0-11.6,0c0,3.2,0,5.8,0,8.7c2.9,0,6,0,9.5,0c0.1-1.2,0.1-2.6,0.2-4c0.2,0,0.4,0,0.7,0
		c0,2,0,4.1,0,6.4c-3.7,0-7.7,0-11.8,0c0-4.2,0-8.4,0-12.6c4.4,0,8.8,0,13.1,0C1094,299.9,1094,300.4,1094,300.9z"/>
	<path class="st18" d="M1100,291.2c18.4,0,36.7,0,55.1,0c0,0.2,0,0.4,0,0.6c-18.4,0-36.8,0-55.2,0
		C1099.9,291.6,1099.9,291.4,1100,291.2z"/>
	<path class="st18" d="M1155.8,353.9c-18.3,0-36.5,0-54.8,0c0-0.2,0-0.4,0-0.6c18.3,0,36.6,0,54.9,0
		C1155.9,353.4,1155.8,353.6,1155.8,353.9z"/>
	<path class="st7" d="M1100.9,370.1c18.1,0,36.2,0,54.3,0c0,0.2,0,0.4,0,0.6c-18.1,0-36.3,0-54.4,0
		C1100.7,370.5,1100.8,370.3,1100.9,370.1z"/>
	<path class="st17" d="M1041.5,299.5c8.7,0,17.4,0,26,0c0,0.3,0,0.7,0,1c-8.7,0-17.4,0-26.1,0
		C1041.5,300.2,1041.5,299.9,1041.5,299.5z"/>
	<path class="st17" d="M1058.2,321.7c-8.5,0-17.1,0-25.6,0c0-0.3,0-0.7,0-1c8.5,0,17.1,0,25.6,0
		C1058.2,321,1058.2,321.4,1058.2,321.7z"/>
	<path class="st18" d="M1115.2,394c13.6,0,27.2,0,40.8,0c0,0.3,0,0.5,0,0.8c-13.5,0-27.1,0-40.6,0
		C1115.3,394.6,1115.2,394.3,1115.2,394z"/>
	<path class="st16" d="M1115.2,394c0,0.3,0.1,0.6,0.2,0.8c-0.2,0.5-0.3,1.2-0.6,1.3c-5.2,1.5-10.4,1.1-15.5-0.9
		C1104.4,393,1109.9,394,1115.2,394z"/>
	<path class="st17" d="M1025,306.9c10.4,0,20.7,0,31.1,0C1045.6,309.5,1035.3,309.1,1025,306.9C1025,306.9,1025,306.9,1025,306.9z"
		/>
	<path class="st18" d="M1062.6,368.3c-7.3,0-14.5,0-21.8,0c0-0.3,0-0.5,0-0.8c7.3,0,14.6,0,21.9,0
		C1062.6,367.8,1062.6,368.1,1062.6,368.3z"/>
	<path class="st18" d="M1029,288.9c0-0.2,0-0.5,0-0.7c12.8,0,25.5,0,38.3,0c0,0.2,0,0.5,0,0.7C1054.5,288.9,1041.8,288.9,1029,288.9
		z"/>
	<path class="st7" d="M1138,391.1c-12.4,0-24.9,0-37.3,0c0-0.3,0-0.6,0-0.9c12.4,0,24.8,0,37.2,0
		C1137.9,390.4,1138,390.7,1138,391.1z"/>
	<path class="st17" d="M1138,391.1c0-0.3,0-0.6-0.1-0.9c6.2,0,12.4,0,18.6,0c0,0.7,0,1.4,0,2.1
		C1150.3,391.8,1144.1,391.4,1138,391.1z"/>
	<ellipse class="st7" cx="1137.6" cy="287.6" rx="25.1" ry="0.3"/>
	<path class="st18" d="M1004.9,333.1c8-0.5,16.1-1,24.1-1.6c0,0.5,0,1,0.1,1.5C1021,333.1,1013,333.1,1004.9,333.1
		C1004.9,333.1,1004.9,333.1,1004.9,333.1z"/>
	<path class="st18" d="M1065.2,355.8c-9.2,0-18.3,0-27.5,0c0-0.2,0-0.4,0-0.6c9.2,0,18.4,0,27.6,0
		C1065.3,355.5,1065.2,355.6,1065.2,355.8z"/>
	<path class="st18" d="M1029.1,283c0-0.4,0-0.7,0-1.1c9.4,0,18.8,0,28.2,0c0,0.4,0,0.7,0,1.1C1047.9,283,1038.5,283,1029.1,283z"/>
	<path class="st18" d="M1048.4,333.5c-4,0-8,0-12,0c0-0.3,0-0.7,0-1c4,0,8,0,12,0C1048.4,332.8,1048.4,333.2,1048.4,333.5z"/>
	<path class="st17" d="M1101,324.5c4.5,0,9,0,13.4,0c0,0.5-0.1,1.1-0.1,1.6c-4.5-0.3-9-0.6-13.4-0.9
		C1101,324.9,1101,324.7,1101,324.5z"/>
	<path class="st18" d="M1048.2,294.8c-5.8,0-11.7,0-17.5,0c0-0.2,0-0.4,0-0.5c5.9,0,11.8,0,17.7,0
		C1048.3,294.5,1048.2,294.6,1048.2,294.8z"/>
	<path class="st14" d="M1003.9,316.2c1.2-0.1,2.4-0.2,3.6-0.2C1006.3,316.1,1005.1,316.1,1003.9,316.2z"/>
	<path class="st14" d="M914.3,313.3c0.2-2.8,0.4-5.5,0.6-8.3c0.2,1.7,0.4,3.3,0.5,5C915.1,311.1,914.7,312.2,914.3,313.3z"/>
	<path class="st14" d="M908.7,314.1c0.5,0.4,1,0.9,1.5,1.3C909.7,315,909.2,314.5,908.7,314.1z"/>
	<path class="st14" d="M913,314.7c0.5-0.5,0.9-0.9,1.4-1.4C914,313.8,913.5,314.3,913,314.7z"/>
	<path class="st18" d="M830.8,301.8c-2.2,0-4.4,0-6.6,0c0-0.2,0-0.3,0-0.5c2.2,0,4.4,0,6.5,0C830.8,301.5,830.8,301.7,830.8,301.8z"
		/>
</g>
</svg>
